<svg width="20" height="20" viewBox="0 0 20 20" fill="none" xmlns="http://www.w3.org/2000/svg">
<path d="M7 14.9326H13M1 12.5326V10.0627C1 8.91398 1 8.33962 1.14805 7.81069C1.2792 7.34215 1.49473 6.90147 1.78405 6.5103C2.11067 6.0687 2.56404 5.71608 3.47078 5.01084L6.07078 2.98861C7.47608 1.8956 8.17873 1.3491 8.95461 1.13902C9.63921 0.95366 10.3608 0.95366 11.0454 1.13902C11.8213 1.34909 12.5239 1.89561 13.9292 2.98861L16.5292 5.01084C17.436 5.71608 17.8893 6.0687 18.2159 6.5103C18.5053 6.90147 18.7208 7.34215 18.8519 7.81069C19 8.33962 19 8.91398 19 10.0627V12.5326C19 14.7728 19 15.8929 18.564 16.7485C18.1805 17.5012 17.5686 18.1131 16.816 18.4966C15.9603 18.9326 14.8402 18.9326 12.6 18.9326H7.4C5.15979 18.9326 4.03969 18.9326 3.18404 18.4966C2.43139 18.1131 1.81947 17.5012 1.43597 16.7485C1 15.8929 1 14.7728 1 12.5326Z" stroke="black" stroke-width="1.5" stroke-linecap="round" stroke-linejoin="round"/>
</svg>
