<svg width="18" height="18" viewBox="0 0 18 18" fill="none" xmlns="http://www.w3.org/2000/svg">
<path d="M3 3H5V5H3V3Z" fill="black"/>
<path d="M0 8V0H8V8H0ZM2 2V6H6V2H2Z" fill="black"/>
<path d="M10 10H13V12H10V10Z" fill="black"/>
<path d="M13 12H15V10H18V13H15V14H16V15H18V18H16V16H14V18H10V14H12V16H13V12Z" fill="black"/>
<path d="M15 3H13V5H15V3Z" fill="black"/>
<path d="M10 0V8H18V0H10ZM16 2V6H12V2H16Z" fill="black"/>
<path d="M3 13H5V15H3V13Z" fill="black"/>
<path d="M0 18V10H8V18H0ZM2 12V16H6V12H2Z" fill="black"/>
</svg>
