<svg width="151" height="115" viewBox="0 0 151 115" fill="none" xmlns="http://www.w3.org/2000/svg">
<path opacity="0.1" d="M132.23 108.752C132.23 108.752 143.609 85.9334 131.608 66.2036C79.7626 -19.0018 3.62232 36.4453 26.4168 73.0346C35.82 88.1135 6.22009 91.3837 15.1111 108.788L132.23 108.752Z" fill="#07BBFD"/>
<path d="M132.742 96.3271C132.742 96.3271 105.631 100.978 105.301 100.796C104.972 100.578 101.459 84.8816 101.459 84.8816C101.459 84.8816 123.888 80.7031 124.254 80.7031C124.62 80.7031 129.486 84.7363 129.559 85.027C129.632 85.3177 132.742 96.3271 132.742 96.3271Z" fill="#EBEBFF"/>
<path d="M50.053 100.321C49.3944 100.394 16.5747 99.6671 16.5747 99.6671L19.0627 91.8551C19.0627 91.8551 23.5997 84.7335 26.0145 84.8425C28.4293 84.9878 42.7354 82.5534 45.1868 84.3338C47.6382 86.1142 49.8701 84.6971 51.0409 88.9483C52.2117 93.1995 53.1264 93.6718 52.2117 96.2153C51.297 98.7587 50.053 100.321 50.053 100.321Z" fill="#EBEBFF"/>
<path d="M130.254 99.1221C130.254 105.517 125.242 110.713 119.095 110.713C112.912 110.713 107.936 105.517 107.936 99.1221C107.936 92.7271 112.948 87.5312 119.095 87.5312C125.242 87.5312 130.254 92.7271 130.254 99.1221Z" fill="#1A1A1A"/>
<path d="M126.852 99.1249C126.852 103.558 123.376 107.191 119.058 107.191C114.778 107.191 111.265 103.594 111.265 99.1249C111.265 94.6921 114.741 91.0586 119.058 91.0586C123.376 91.0586 126.852 94.6921 126.852 99.1249Z" fill="#9E9DA2"/>
<path d="M124.254 99.1237C124.254 102.103 121.912 104.501 119.059 104.501C116.205 104.501 113.863 102.103 113.863 99.1237C113.863 96.1442 116.205 93.7461 119.059 93.7461C121.949 93.7461 124.254 96.1442 124.254 99.1237Z" fill="#D8D9DD"/>
<path d="M44.1988 99.1221C44.1988 105.517 39.1862 110.713 33.0393 110.713C26.8559 110.713 21.8799 105.517 21.8799 99.1221C21.8799 92.7271 26.8925 87.5312 33.0393 87.5312C39.1862 87.5312 44.1988 92.7271 44.1988 99.1221Z" fill="#1A1A1A"/>
<path d="M40.7961 99.1249C40.7961 103.558 37.3202 107.191 33.0028 107.191C28.7219 107.191 25.2095 103.594 25.2095 99.1249C25.2095 94.6921 28.6854 91.0586 33.0028 91.0586C37.3202 91.0586 40.7961 94.6921 40.7961 99.1249Z" fill="#9E9DA2"/>
<path d="M38.2348 99.1237C38.2348 102.103 35.8932 104.501 33.0393 104.501C30.1854 104.501 27.8438 102.103 27.8438 99.1237C27.8438 96.1442 30.1854 93.7461 33.0393 93.7461C35.8932 93.7461 38.2348 96.1442 38.2348 99.1237Z" fill="#D8D9DD"/>
<path d="M7.3543 88.1138C8.30559 81.6462 11.3424 80.3018 20.3797 78.4487C30.3318 76.3776 42.9913 69.6556 42.9913 69.6556C42.9913 69.6556 64.5784 58.6825 69.8837 57.4471C75.189 56.1754 88.1779 56.5387 99.1178 56.6477C110.058 56.7204 116.461 59.8816 122.022 64.3871C127.584 68.8926 137.206 72.3081 137.206 72.3081L138.962 72.6351C140.755 72.9621 142.072 74.5972 142.072 76.4866V92.5103C142.072 94.3271 140.902 95.9258 139.219 96.3618L132.889 98.1059C132.377 98.2149 131.901 97.8152 131.828 97.2702C131.133 90.7299 125.681 85.752 119.132 85.752C112.216 85.752 106.509 91.6746 106.509 98.8326C106.509 99.632 106.582 100.431 106.728 101.231C106.875 102.03 106.289 102.757 105.484 102.757H47.3087C46.1745 102.757 45.2964 101.739 45.4427 100.577C45.5159 100.032 45.5525 99.4503 45.5525 98.8689C45.5891 91.7836 40.0277 85.8974 33.1856 85.752C26.0875 85.6067 20.3066 91.5293 20.3066 98.8326C20.3066 99.3049 20.3432 99.8136 20.3797 100.25C20.5261 101.594 19.5382 102.757 18.221 102.757H9.87889C8.34218 102.757 7.13477 101.485 7.13477 99.9226V91.5293C7.13477 90.3302 7.20794 89.2038 7.3543 88.1138Z" fill="#FFCD1C"/>
<path d="M141.67 78.3047H134.792C134.206 78.3047 133.804 78.9224 134.023 79.5037L134.792 81.4295C135.523 83.2462 137.243 84.4453 139.146 84.4453H141.67C142.146 84.4453 142.548 84.0456 142.548 83.5369V79.2131C142.548 78.7044 142.146 78.3047 141.67 78.3047Z" fill="#FC4E69"/>
<path d="M18.3308 81.2453C14.5256 81.863 10.1716 85.5691 10.1716 85.5691C9.11054 86.7318 9.98866 88.6212 11.5254 88.5122L18.9162 88.0399C20.4529 87.9309 21.7701 86.8408 22.1726 85.3148C22.9043 82.735 22.2823 80.6276 18.3308 81.2453Z" fill="white"/>
<path d="M141.999 93.0195C142.475 93.0195 142.804 93.4919 142.621 93.9642C142.109 95.2723 141.048 96.2533 139.694 96.653L132.633 98.5788C132.047 98.6878 131.535 98.2518 131.462 97.6704C131.316 96.435 131.06 95.236 130.62 94.1096C130.474 93.7462 130.73 93.3102 131.133 93.3102L141.999 93.0195Z" fill="#EAB054"/>
<path d="M20.2701 96.0352C20.8189 96.0352 21.2213 96.5075 21.1482 97.0525C21.075 97.6702 21.0384 98.2879 21.0384 98.9419C21.0384 99.487 21.075 99.9957 21.1116 100.541C21.2579 102.03 20.1603 103.302 18.7333 103.302H9.43991C7.75684 103.302 6.40308 101.885 6.40308 100.141V97.6702C6.40308 96.9799 6.9519 96.3985 7.61049 96.3622L20.2701 96.0352Z" fill="#DDA905"/>
<path d="M40.6497 73.5087L40.7228 73.7267C40.7594 73.8357 46.4306 85.7899 46.577 97.2717V97.5624L80.7139 96.872H81.0066H81.2993L105.813 96.218L105.85 95.9636C105.85 95.9273 106.143 92.7662 108.448 89.7867C111.485 85.8262 118.144 83.9731 124.913 84.3728H125.169L127.51 73L127.401 72.891C127.035 72.4913 116.9 62.6445 110.241 60.5008C103.618 58.357 82.0676 58.8294 81.0432 58.8657C80.6407 58.8294 71.64 58.4297 63.5905 62.3175C55.4313 66.2417 41.0155 73.2907 40.8692 73.3633L40.6497 73.5087ZM81.3359 96.2907V59.5197C83.9702 59.4834 103.947 59.1564 110.094 61.1185C116.241 63.1169 125.9 72.0916 126.888 73.218L124.73 83.7551C116.022 83.3191 110.167 86.5892 107.972 89.4234C105.96 92.0758 105.411 94.7646 105.301 95.6003L81.3359 96.2907ZM41.3448 73.8357C42.9913 72.891 56.2729 66.5687 63.8101 62.9352C71.0911 59.4471 79.1406 59.4834 80.7505 59.5561V96.3633L47.1624 97.0537C46.9428 86.4076 41.8205 75.5434 41.3448 73.8357Z" fill="#DDA905"/>
<path d="M45.0402 99.5966C45.0402 98.9426 45.0037 98.2886 44.8939 97.6709C44.7841 96.9078 45.3329 96.2175 46.0647 96.2175L106.545 94.6914C107.204 94.6914 107.679 95.3091 107.496 95.9995C107.167 97.1622 107.021 98.3612 107.021 99.5966C107.021 100.432 107.094 101.232 107.24 102.031C107.387 102.867 106.801 103.593 105.996 103.593H46.7965C45.6257 103.593 44.7475 102.54 44.8939 101.341C45.0037 100.759 45.0402 100.178 45.0402 99.5966Z" fill="#DDA905"/>
<path d="M112.436 79.3561H119.937C120.12 79.3561 120.266 79.2108 120.266 79.0291V78.3387C120.266 78.1571 120.12 78.0117 119.937 78.0117H112.436C112.253 78.0117 112.107 78.1571 112.107 78.3387V79.0291C112.07 79.2108 112.216 79.3561 112.436 79.3561Z" fill="#DDA905"/>
<path d="M70.8352 79.3561H78.3358C78.5188 79.3561 78.6651 79.2108 78.6651 79.0291V78.3387C78.6651 78.1571 78.5188 78.0117 78.3358 78.0117H70.8352C70.6523 78.0117 70.5059 78.1571 70.5059 78.3387V79.0291C70.4693 79.2108 70.6523 79.3561 70.8352 79.3561Z" fill="#DDA905"/>
<path d="M119.9 74.923L85.3973 75.25C85.3973 75.25 83.3484 75.1774 83.0557 73.2153C82.763 71.2169 82.7996 62.6782 82.7996 62.6782C82.7996 62.6782 83.0557 60.9704 84.629 60.9341C85.5803 60.9341 93.6663 60.3164 101.533 61.2974C107.936 62.0968 114.924 65.1489 119.424 69.7998L121.803 72.2706C121.839 72.2706 123.413 74.8867 119.9 74.923Z" fill="#EBEBFF"/>
<path d="M79.1041 63.7327V72.6711C79.1041 73.8338 78.2259 74.7785 77.1649 74.8512L49.4675 76.0139C48.8821 76.0502 48.2601 75.7595 47.9308 75.2145C47.4552 74.4878 47.4186 73.3251 49.7602 71.7263C53.8581 68.9649 65.7127 62.9333 69.5545 62.3519C72.0059 61.9886 75.2257 61.8069 77.2381 61.7706C78.2625 61.7342 79.1041 62.6426 79.1041 63.7327Z" fill="#EBEBFF"/>
<g opacity="0.45">
<path d="M39.0764 39.7843L37.5031 38.1855C37.5031 38.1855 36.9177 37.0228 38.0519 36.6231C39.1861 36.2234 40.7594 37.9312 40.7594 37.9312C40.7594 37.9312 37.9056 37.5678 39.0764 39.7843Z" fill="#FC4E69"/>
<path d="M113.46 59.3712L111.228 59.1532C111.228 59.1532 110.021 58.6445 110.606 57.6272C111.192 56.6098 113.497 56.9368 113.497 56.9368C113.497 56.9368 111.192 58.4629 113.46 59.3712Z" fill="#FC4E69"/>
<path d="M81.7017 16.1303L82.9091 14.2409C82.9091 14.2409 83.897 13.4052 84.5556 14.4226C85.2141 15.4399 83.897 17.293 83.897 17.293C83.897 17.293 83.5677 14.4952 81.7017 16.1303Z" fill="#FC4E69"/>
<path d="M42.845 48.1055L44.089 49.9949C44.089 49.9949 45.6989 51.848 46.2111 51.0123C46.2111 51.0123 45.333 50.0312 45.0403 49.0502C45.0403 49.0865 43.6499 48.9775 42.845 48.1055Z" fill="#FC4E69"/>
<path d="M107.789 45.5613L108.924 42.4729C108.924 42.4729 109.729 39.0574 108.302 39.13C108.302 39.13 107.899 40.9831 107.021 42.1458C107.021 42.1822 108.082 43.8899 107.789 45.5613Z" fill="#FC4E69"/>
<path d="M95.4956 45.4552C95.4956 45.4552 92.8978 44.1835 93.4101 45.8912C93.4101 45.8912 92.4954 44.4015 92.4954 42.7301C92.4954 42.7301 93.0442 41.1313 94.6907 42.7301C94.6541 42.7664 94.2882 43.3478 95.4956 45.4552Z" fill="#FC4E69"/>
<path d="M86.9338 82.4776C86.9338 82.4776 87.3363 79.6434 88.5071 81.0242C88.5071 81.0242 87.812 79.4254 86.385 78.4807C86.385 78.4807 84.7385 77.972 85.141 80.2975C85.1776 80.2611 85.8728 80.2611 86.9338 82.4776Z" fill="#FC4E69"/>
<path d="M55.7607 39.8577L58.1756 39.131L60.8099 36.2969L57.7365 36.5876L55.7607 39.8577Z" fill="#FC4E69"/>
<path d="M39.2227 66.2382L41.7107 67.0739L45.4061 66.2018L42.7717 64.6758L39.2227 66.2382Z" fill="#FC4E69"/>
<path d="M98.2031 24.5234L100.142 26.2675L103.911 27.0305L102.118 24.5234H98.2031Z" fill="#FC4E69"/>
<path d="M46.6135 34.48C46.6135 34.48 47.8941 34.8434 47.7844 35.352C47.7844 35.352 49.7601 34.371 50.6382 34.4437C50.6016 34.4437 48.4064 32.1909 46.6135 34.48Z" fill="#FC4E69"/>
<path d="M45.9184 35.7161C45.9184 35.7161 45.5159 34.0447 47.0892 33.4634C48.6625 32.882 49.8334 33.7904 50.6383 34.4444C50.6383 34.4444 48.0405 32.3007 48.1503 34.7714C48.1137 34.7714 45.8818 34.5898 45.9184 35.7161Z" fill="#FC4E69"/>
<path d="M89.3486 58.8955C89.3486 58.8955 90.6292 58.5321 90.5195 58.0234C90.5195 58.0234 92.4952 59.0045 93.3733 58.9318C93.3368 58.9318 91.1415 61.1846 89.3486 58.8955Z" fill="#FC4E69"/>
<path d="M88.6535 57.6602C88.6535 57.6602 88.2511 59.3316 89.8244 59.9129C91.3977 60.4943 92.5685 59.5859 93.3734 58.9319C93.3734 58.9319 90.7756 61.0756 90.8854 58.6049C90.8488 58.6049 88.6169 58.7502 88.6535 57.6602Z" fill="#FC4E69"/>
<path d="M75.7013 41.8211L73.9084 40.6947L74.0182 37.8242L76.7623 38.7326L75.7013 41.8211Z" fill="#FC4E69"/>
<path d="M42.845 22.1259L44.8207 21.2539L47.1258 23.0343L44.8207 24.7421L42.845 22.1259Z" fill="#FC4E69"/>
<path d="M53.1264 58.8981L51.9556 57.1177L53.3459 54.5742L55.3949 56.5363L53.1264 58.8981Z" fill="#FC4E69"/>
<path d="M60.444 26.1965H63.1881L60.444 24.2344H58.1389L60.444 26.1965Z" fill="#FC4E69"/>
<path d="M103.435 71.0312L105.667 71.5763L103.069 72.63L101.24 72.194L103.435 71.0312Z" fill="#FC4E69"/>
<path d="M61.5417 8.71875L63.298 10.1721L60.5172 9.99047L59.0537 8.79142L61.5417 8.71875Z" fill="#FC4E69"/>
<path d="M94.1053 28.2656L95.8615 29.6827L93.1174 29.4647L91.7271 28.3383L94.1053 28.2656Z" fill="#FC4E69"/>
<path d="M62.8223 54.5753H60.627L62.8223 52.9766H64.6517L62.8223 54.5753Z" fill="#FC4E69"/>
<path d="M34.4297 49.5969L36.003 51.232L33.2588 50.687L31.9417 49.3789L34.4297 49.5969Z" fill="#FC4E69"/>
<path d="M81.9578 34.2639C81.9578 34.2639 81.409 32.9559 83.897 34.2639C83.897 34.2639 83.5677 33.5736 84.8849 32.9559C85.763 32.5562 86.0191 32.0838 85.7996 31.3571C85.7996 31.3571 85.3605 30.3761 83.5311 31.0665C83.5311 31.0665 84.0799 31.4661 83.4945 31.9385C82.9823 32.3382 81.2992 32.9195 81.9578 34.2639Z" fill="#FC4E69"/>
<path d="M93.1538 91.5971C93.1538 91.5971 91.9098 91.0884 94.2881 89.4897C94.2881 89.4897 93.4831 89.4533 93.5929 88C93.6295 87.0189 93.3368 86.6556 92.605 86.4375C92.605 86.4375 91.544 86.4012 91.2878 88.2906C91.2878 88.2906 91.9098 88 92.0196 88.7267C92.0928 89.4533 91.6171 91.5608 93.1538 91.5971Z" fill="#FC4E69"/>
<path d="M86.8608 41.5674C87.2043 41.5674 87.4828 41.2909 87.4828 40.9497C87.4828 40.6086 87.2043 40.332 86.8608 40.332C86.5172 40.332 86.2388 40.6086 86.2388 40.9497C86.2388 41.2909 86.5172 41.5674 86.8608 41.5674Z" fill="#FC4E69"/>
<path d="M73.8718 52.9005C74.6598 52.9005 75.2987 52.2661 75.2987 51.4835C75.2987 50.7008 74.6598 50.0664 73.8718 50.0664C73.0837 50.0664 72.4448 50.7008 72.4448 51.4835C72.4448 52.2661 73.0837 52.9005 73.8718 52.9005Z" fill="#FC4E69"/>
<path d="M88.4341 51.4498C89.3434 51.4498 90.0805 50.7178 90.0805 49.8148C90.0805 48.9117 89.3434 48.1797 88.4341 48.1797C87.5247 48.1797 86.7876 48.9117 86.7876 49.8148C86.7876 50.7178 87.5247 51.4498 88.4341 51.4498Z" fill="#FC4E69"/>
<path d="M51.9556 19.1461L54.224 19.4004L52.1751 17.511L50.3091 17.293L51.9556 19.1461Z" fill="#FC4E69"/>
<path d="M48.4431 78.191L49.3578 76.1562L47.0162 77.5733L46.2478 79.2084L48.4431 78.191Z" fill="#FC4E69"/>
<path d="M95.3492 18.0187L96.7761 16.2383L94.0686 17.0376L92.9709 18.4547L95.3492 18.0187Z" fill="#FC4E69"/>
<path d="M84.9948 96.9399L86.7144 98.3933L86.0193 95.7772L84.6289 94.5781L84.9948 96.9399Z" fill="#FC4E69"/>
</g>
<path d="M47.821 79.9374C47.821 79.9374 47.6015 78.8474 50.126 75.5046C50.6749 74.7779 52.3213 72.0527 52.3213 72.0527C52.9799 71.9074 55.0289 72.9611 55.5411 73.2881C55.6509 73.3608 55.7241 73.3971 55.7241 73.3971C55.7241 73.3971 56.6022 77.1396 54.7362 76.7399C54.663 76.7399 54.6264 76.7036 54.5532 76.7036C52.7604 76.4129 51.0408 78.1933 50.2358 79.3197C49.7236 80.0828 48.1503 79.9737 47.821 79.9374Z" fill="#1A1A1A"/>
<path d="M61.1025 72.6366C61.1025 72.6366 60.8829 71.5466 63.4075 68.2038C63.9564 67.4771 65.6028 64.752 65.6028 64.752C66.2614 64.6066 68.3104 65.6603 68.8226 65.9873C68.9324 66.06 69.0056 66.0963 69.0056 66.0963C69.0056 66.0963 69.8837 69.8388 68.0177 69.4392C67.9445 69.4392 67.9079 69.4028 67.8347 69.4028C66.0419 69.1121 64.3222 70.8926 63.5173 72.0189C63.0417 72.782 61.4318 72.673 61.1025 72.6366Z" fill="#1A1A1A"/>
<path d="M89.4584 54.0665C88.9461 51.8864 83.2018 45.0191 80.2747 46.6178C77.3476 48.2166 78.8478 56.828 81.9212 67.0017C81.9578 67.1471 82.031 67.3287 82.0675 67.4741C75.9207 66.4567 68.5664 66.166 68.5664 66.166L67.7981 69.6905C73.3595 71.2166 84.1531 76.5215 88.6534 78.7742C90.3731 79.5373 92.422 79.5373 92.8245 78.0475C94.2514 72.9607 89.4584 54.0665 89.4584 54.0665Z" fill="#05AFDD"/>
<path d="M78.5185 85.7172C78.5185 85.7172 65.4198 79.8309 57.407 77.4691C56.4191 77.1784 55.5044 76.9241 54.6995 76.7788L55.541 73.3633C55.541 73.3633 56.3093 73.3633 57.5899 73.3633C62.566 73.3633 75.0426 73.654 77.2379 76.0884C80.0918 79.1042 78.5185 85.7172 78.5185 85.7172Z" fill="#F9C5A2"/>
<path d="M88.434 5.19729C88.873 6.17834 89.2023 7.48639 88.9096 8.14042C88.5803 8.90345 88.6535 9.48481 88.6535 9.48481L87.9583 9.66649L87.1168 9.8845C87.1168 9.8845 87.0802 9.81183 87.007 9.70282C86.9338 9.59382 86.8607 9.41214 86.7509 9.19413C86.7509 9.19413 86.7143 8.83078 86.3484 8.64911C85.9825 8.46743 85.6167 8.06775 85.5435 7.63173C85.4703 7.23205 85.0313 6.43268 85.1776 6.36001C85.4703 6.17834 85.9094 7.37739 86.1655 7.41372C86.385 7.45006 86.4582 7.30472 86.4948 7.26838C86.8973 6.28734 86.1655 3.78023 86.7509 3.67123C87.007 3.59856 88.251 4.76127 88.434 5.19729Z" fill="#F9C5A2"/>
<path d="M43.0644 25.0708C43.7962 25.8702 44.8572 26.7059 45.589 26.7059C46.4305 26.7059 46.9062 27.0329 46.9062 27.0329L47.3452 26.4515L47.8575 25.7612C47.8575 25.7612 47.8209 25.6885 47.7111 25.5795C47.6379 25.4705 47.0159 24.9618 47.0159 24.5621C47.0159 24.1624 46.7598 23.6537 46.3939 23.4357C46.028 23.2177 45.5158 22.491 45.3695 22.5637C45.0767 22.7454 45.9915 23.6537 45.9549 23.9081C45.9183 24.1261 45.7353 24.1261 45.6987 24.1261C44.6377 24.0897 42.6253 22.4183 42.2594 22.8907C42.1863 23.1087 42.7717 24.7074 43.0644 25.0708Z" fill="#F9C5A2"/>
<path d="M74.7866 55.7042C71.5668 56.5399 72.3717 60.3914 72.8474 71.0012C72.884 72.2002 73.0303 73.3629 73.1767 74.453C68.4568 73.5083 61.1391 73.3629 57.6266 73.3629C57.6266 73.3629 57.0412 74.671 57.0778 75.6884C57.1144 77.9048 58.2486 79.3582 58.2486 79.3582C66.2249 81.72 78.5186 85.7531 78.5186 85.7531C79.3235 85.9711 80.0919 85.5715 80.7139 84.4087C83.1653 79.7579 87.3364 48.8369 87.3364 48.8369C87.4095 46.5114 78.0063 54.8685 74.7866 55.7042Z" fill="#00BDFF"/>
<path d="M69.5178 31.94C69.5178 31.94 70.6521 29.0695 68.4568 25L71.6034 25.6904L73.7255 26.1627C73.7255 26.1627 74.0914 26.8894 74.5304 28.2338C74.6402 28.5972 75.1159 30.0142 75.2256 30.4502C75.994 30.4866 75.5915 32.1943 74.0548 32.4123C72.3351 32.6667 69.5178 31.94 69.5178 31.94Z" fill="#F9C5A2"/>
<path d="M73.7254 26.1638C73.7254 26.1638 74.0913 26.8905 74.5303 28.2349C72.7009 28.7799 69.408 26.9995 69.408 26.9995C70.1397 26.3454 70.8715 25.9094 71.5667 25.6914L73.7254 26.1638Z" fill="#FCA870"/>
<path d="M75.1159 25.1118C75.1159 25.1118 71.4937 29.1087 69.0057 26.8196C66.5177 24.5305 64.3955 23.5131 66.6274 20.8606C68.8593 18.2082 70.2497 18.6079 71.2741 19.1529C72.262 19.6979 75.994 23.9854 75.1159 25.1118Z" fill="#F9C5A2"/>
<path d="M68.8226 26.5635C68.8226 26.5635 69.1885 26.1638 68.6397 25.6188C68.0909 25.0737 67.4689 24.3107 68.0909 24.0927C68.6763 23.8384 69.0056 24.238 69.0422 23.8384C69.0787 23.475 68.3104 22.5303 69.7007 21.3313C71.0911 20.1322 72.079 20.1685 72.4815 19.3692C72.9205 18.5698 72.1522 17.5161 72.1522 17.5161C72.1522 17.5161 72.2619 18.0248 72.0424 18.3518C72.0424 18.3518 71.9326 15.9537 69.8471 15.9537C67.725 15.9173 66.9566 17.6614 66.2615 18.2791C64.6882 19.6598 63.7003 20.6046 64.0296 22.0943C64.3223 23.5477 66.92 26.3455 68.8226 26.5635Z" fill="#5B4010"/>
<path d="M72.8474 24.2756L74.2012 23.0039C74.2012 23.0039 74.75 23.8396 74.3475 24.203C73.9816 24.5663 72.8474 24.2756 72.8474 24.2756Z" fill="white"/>
<path d="M90.9951 16.7166C90.4097 13.1558 88.69 9.26798 88.69 9.26798L86.7874 9.19531C86.7874 9.19531 87.007 13.9915 86.9338 17.3707C86.8972 18.9694 86.202 20.4591 86.0191 20.7135C85.4337 21.4765 76.7622 29.7609 76.4695 30.0516C75.5548 30.1969 75.6646 31.723 74.7133 31.9773C73.14 32.4133 70.5056 31.614 69.1153 32.159C69.1153 32.159 57.8827 32.159 56.163 31.3596C54.4434 30.5602 47.7843 25.655 47.7843 25.655L46.5403 27.0721C46.5403 27.0721 51.1138 35.8288 54.7361 37.3912C56.7118 38.2632 61.0658 39.2806 64.6149 40.0437C66.0053 40.3343 67.1395 41.388 67.5786 42.7324C70.9081 53.4149 69.225 62.426 69.225 62.426C69.225 62.426 72.4082 62.7893 76.3964 61.6993C81.5553 60.2822 85.3605 57.9568 85.3605 57.9568C86.824 56.2127 85.9459 49.7814 85.9459 49.7814C85.9459 49.7814 86.9704 50.8715 87.2997 52.6519C87.5558 53.9599 87.6656 54.6866 87.7387 55.1226C87.8119 55.5587 88.3241 55.7403 88.6534 55.486C89.3852 54.941 90.4829 54.0689 90.8121 53.4512C91.983 51.2711 89.3852 42.3328 85.7996 36.0831C85.1776 34.9568 85.1775 33.6124 85.8727 32.5223C88.068 29.0342 91.4707 23.4386 91.5073 22.3486C91.5073 21.6582 91.3244 18.7514 90.9951 16.7166Z" fill="#6F64FF"/>
<path d="M69.7738 30.3789L73.2863 31.5416L73.4692 32.1957L69.1152 32.0866C69.1152 32.0866 69.3348 31.0693 69.7738 30.3789Z" fill="#5653E5"/>
<path d="M74.8962 29.4336L75.006 31.214C75.006 31.214 75.4817 31.5774 75.4451 31.541C75.4451 31.5047 76.4329 30.015 76.4329 30.015C76.4329 30.015 75.628 29.6153 74.8962 29.4336Z" fill="#5653E5"/>
<path d="M86.6776 8.90234L86.5312 10.3921C86.5312 10.3921 88.4338 10.4284 88.4338 10.3921C88.4338 10.3557 88.507 9.66538 88.507 9.66538L88.8363 10.5011L89.5315 10.2831L88.7265 8.93868C88.69 8.90234 87.885 9.30203 86.6776 8.90234Z" fill="#5653E5"/>
<path d="M47.7477 25.582L46.5403 26.9991L46.9062 28.4162L47.3818 28.0528L47.1623 26.9991L48.0038 27.7258L49.1381 26.2361L47.7477 25.582Z" fill="#5653E5"/>
<path d="M47.4915 26.8903C47.4915 26.8176 47.528 26.7812 47.6012 26.7812C47.6744 26.7812 47.711 26.8176 47.711 26.8903C47.711 26.9629 47.6744 26.9993 47.6012 26.9993C47.528 26.9993 47.4915 26.9629 47.4915 26.8903Z" fill="#EBF3FA"/>
<path d="M88.0681 9.85001C88.0681 9.81368 88.1047 9.77734 88.1413 9.77734C88.1779 9.77734 88.2145 9.81368 88.2145 9.85001C88.2145 9.88635 88.1779 9.92268 88.1413 9.92268C88.1047 9.95902 88.0681 9.92268 88.0681 9.85001Z" fill="#EBF3FA"/>
<path d="M85.1045 44.6215C85.1045 44.4762 85.2143 44.3672 85.3606 44.3672C85.507 44.3672 85.6167 44.4762 85.6167 44.6215C85.6167 44.7669 85.507 44.8759 85.3606 44.8759C85.2143 44.8395 85.1045 44.7305 85.1045 44.6215Z" fill="#EBF3FA"/>
<path d="M83.1653 40.5864C83.1653 40.441 83.275 40.332 83.4214 40.332C83.5678 40.332 83.6775 40.441 83.6775 40.5864C83.6775 40.7317 83.5678 40.8407 83.4214 40.8407C83.275 40.8407 83.1653 40.7317 83.1653 40.5864Z" fill="#EBF3FA"/>
<path d="M80.4941 37.5356C80.4941 37.3903 80.6039 37.2812 80.7503 37.2812C80.8966 37.2812 81.0064 37.3903 81.0064 37.5356C81.0064 37.6809 80.8966 37.7899 80.7503 37.7899C80.6039 37.7899 80.4941 37.6809 80.4941 37.5356Z" fill="#EBF3FA"/>
</svg>
