<svg width="152" height="170" viewBox="0 0 152 170" fill="none" xmlns="http://www.w3.org/2000/svg">
<path opacity="0.1" d="M13.5134 119.628L12.6894 118.263C5.7129 106.966 5.27344 92.8315 11.9753 81.6437C12.8542 80.2247 13.7881 78.8058 14.8867 77.496C22.6323 68.1092 35.4317 63.0883 47.7368 64.6164C54.9879 65.4896 62.294 68.4366 69.3255 66.6902C78.4444 64.3981 83.4982 55.1204 87.5083 46.7159C91.5185 38.366 96.5723 29.0883 105.691 26.7962C111.404 25.3772 117.612 27.1782 122.72 30.1798C136.344 38.0931 143.87 54.1381 143.76 69.5827C143.65 85.0273 136.728 99.7079 127.06 111.714C113.547 128.523 93.7707 141.021 71.9623 143.368C50.1538 145.823 26.5875 137.201 13.5134 119.628Z" fill="#00BDFF"/>
<path d="M110.086 13.7528L103.988 58.0675L100.033 53.2649L94.9793 56.8668L91.0241 52.0642L85.9153 55.6662L82.015 50.9182L76.9063 54.5201L73.006 49.7175L67.8972 53.3195L63.997 48.5169L58.8882 52.1188L65.0407 7.74963L110.086 13.7528Z" fill="#F4F4F4"/>
<path d="M89.6066 22.8917L67.8267 20.0101L67.6019 21.6871L89.3818 24.5686L89.6066 22.8917Z" fill="#AFAFAF"/>
<path d="M98.5003 18.1577L74.8691 15.0312L74.6444 16.7082L98.2755 19.8346L98.5003 18.1577Z" fill="#AFAFAF"/>
<path d="M104.062 24.7761L95.8945 23.6956L95.6697 25.3725L103.837 26.4531L104.062 24.7761Z" fill="#AFAFAF"/>
<path d="M80.4146 27.2458L67.1289 25.488L66.9041 27.165L80.1899 28.9227L80.4146 27.2458Z" fill="#AFAFAF"/>
<path d="M103.342 30.2899L95.1743 29.2094L94.9495 30.8863L103.117 31.9669L103.342 30.2899Z" fill="#AFAFAF"/>
<path d="M84.5136 33.3507L66.3818 30.9518L66.157 32.6287L84.2888 35.0276L84.5136 33.3507Z" fill="#AFAFAF"/>
<path d="M102.575 35.7424L94.4072 34.6619L94.1824 36.3388L102.35 37.4194L102.575 35.7424Z" fill="#AFAFAF"/>
<path d="M80.2439 38.3543L65.6514 36.4237L65.4266 38.1006L80.0191 40.0313L80.2439 38.3543Z" fill="#AFAFAF"/>
<path d="M101.862 41.2022L93.6943 40.1216L93.4695 41.7985L101.637 42.8791L101.862 41.2022Z" fill="#AFAFAF"/>
<path d="M84.5081 44.4701L64.9062 41.8767L64.6815 43.5536L84.2834 46.147L84.5081 44.4701Z" fill="#AFAFAF"/>
<path d="M101.149 46.662L92.9814 45.5814L92.7567 47.2583L100.924 48.3389L101.149 46.662Z" fill="#AFAFAF"/>
<path d="M85.97 20.5746C80.2569 19.8106 74.9284 23.8491 74.1594 29.5249C73.3903 35.2006 77.4553 40.4944 83.1684 41.2584C88.8814 42.0225 94.2099 37.9839 94.979 32.3082C95.7481 26.5778 91.683 21.3387 85.97 20.5746ZM93.6057 31.6533C93.6057 31.817 93.5508 31.9807 93.5508 32.1445C93.6057 31.9807 93.6057 31.817 93.6057 31.6533Z" fill="#FC4E69"/>
<path d="M85.421 24.7223C86.1352 24.8314 86.9042 25.1043 86.7944 25.7592C86.7394 25.9775 86.6845 26.305 86.5746 26.687C86.1901 28.0514 85.3661 30.7255 84.7618 32.9631L83.828 32.8539C83.8829 30.6709 83.773 27.8331 83.7181 26.3595C83.7181 26.0321 83.6632 25.5955 83.7181 25.3772C83.8829 24.7223 84.7069 24.6131 85.421 24.7223ZM83.773 37.329C82.949 37.2199 82.3997 36.5104 82.5096 35.6372C82.6194 34.764 83.3336 34.2183 84.1576 34.3274C85.0365 34.4366 85.5858 35.1461 85.421 36.0192C85.3661 36.947 84.652 37.4382 83.773 37.329Z" fill="white"/>
<path d="M69.3256 155.701C69.3256 155.701 69.4355 157.612 70.644 158.103C71.8525 158.594 75.4232 158.976 74.1048 160.231C73.3907 160.941 69.82 160.613 68.7763 160.613C67.7875 160.668 66.8536 161.104 66.0845 160.449C65.2606 159.685 65.9747 155.756 65.9747 155.756C65.9747 155.756 66.8536 156.193 67.6227 156.138C68.7763 156.138 69.3256 155.701 69.3256 155.701Z" fill="black"/>
<path d="M78.3896 98.1251C78.3896 98.1251 78.829 106.693 76.6866 123.175C75.1485 135.072 73.2259 147.079 72.292 152.863C71.9624 154.937 70.3693 156.465 68.4467 156.629L67.4029 156.684C65.3155 156.847 63.5576 154.992 63.6675 152.7L65.3155 113.843L65.6451 101.072L78.3896 98.1251Z" fill="#6F64FF"/>
<path d="M89.0463 107.512C83.4981 109.75 73.1706 106.584 65.3701 108.604L65.2603 106.257L76.2469 102.819L85.0911 103.037L87.7828 103.637L89.7055 106.748C89.7055 106.803 89.7055 107.239 89.0463 107.512Z" fill="#05A2C6"/>
<path d="M102.45 57.8491C102.34 56.9759 102.56 55.1749 102.45 54.3017C102.395 53.9197 102.395 52.6099 102.725 52.5007C103.054 52.3916 103.494 53.3739 103.714 53.8651C105.142 50.9726 108.053 47.7527 105.417 53.6468C105.691 53.1556 107.504 49.4991 108.108 50.0995C108.548 50.5361 107.01 53.5377 106.57 54.3017C107.065 53.4831 108.438 51.0272 108.877 51.4092C109.482 51.9004 107.614 55.0657 107.614 55.0657C107.614 55.0657 109.097 52.4462 109.537 53.2648C109.756 53.756 108.822 55.284 108.273 56.2118C108.163 56.4301 108.053 56.5938 107.943 56.703C107.889 56.8121 107.834 56.9213 107.724 56.9759C106.625 58.5039 105.746 59.3226 105.746 59.3226C105.746 59.3226 104.812 60.4686 103.494 59.7592C102.78 59.3771 102.505 58.2311 102.45 57.8491Z" fill="#FFB27D"/>
<path d="M59.9868 54.138C60.4263 53.3739 60.9756 51.6821 61.4151 50.9181C61.5799 50.5906 62.1292 49.4446 61.8545 49.1717C61.6348 48.9534 60.8108 49.6083 60.4263 49.9903C60.3164 46.7158 58.998 42.5136 58.998 49.008C58.9431 48.4622 58.8332 44.3146 58.0092 44.5329C57.4049 44.6966 57.6247 48.1348 57.6796 49.0625C57.5697 48.1348 57.2951 45.2423 56.7458 45.406C55.9767 45.5698 56.4161 49.2808 56.4161 49.2808C56.4161 49.2808 56.1415 46.2247 55.4274 46.825C55.0428 47.1524 55.2076 48.9534 55.3724 50.0995C55.4274 50.3178 55.4274 50.5361 55.4274 50.6998C55.4274 50.8089 55.4823 50.9181 55.4823 51.0272C55.8119 52.8828 56.3063 54.0288 56.3063 54.0288C56.3063 54.0288 56.6908 55.5024 58.1191 55.4478C59.0529 55.3932 59.7671 54.4109 59.9868 54.138Z" fill="#FFB27D"/>
<path d="M80.8612 155.374C80.8612 155.374 80.9711 157.284 82.1796 157.775C83.3882 158.266 86.9588 158.648 85.6404 159.904C84.9263 160.613 81.3556 160.286 80.3119 160.286C79.3231 160.34 78.3893 160.777 77.6202 160.122C76.7962 159.358 77.5103 155.428 77.5103 155.428C77.5103 155.428 78.3893 155.865 79.1583 155.81C80.3119 155.81 80.8612 155.374 80.8612 155.374Z" fill="black"/>
<path d="M89.0463 107.512C89.0463 111.441 88.9914 116.571 88.1674 122.847C86.6292 134.745 84.7066 146.751 83.7727 152.536C83.4431 154.61 81.8501 156.138 79.9274 156.302L78.8837 156.356C76.7962 156.52 75.0384 154.664 75.1482 152.372L76.7962 113.515L65.3701 108.603C70.5888 106.093 89.0463 105.22 89.0463 107.512Z" fill="#6F64FF"/>
<path d="M76.1374 126.559C76.1374 126.504 75.2584 119.464 74.5992 116.953C73.94 114.443 70.8638 112.315 70.8638 112.26L70.9736 112.151C71.0286 112.151 74.1048 114.388 74.764 116.899C75.4232 119.409 76.3022 126.449 76.3571 126.504L76.1374 126.559Z" fill="#5653E5"/>
<path d="M76.0274 71.8202L75.8626 68.9277L77.3458 68.4365L79.1037 63.9614L79.1586 68.382V71.0016V71.8202C79.1586 72.3659 79.5431 72.4751 80.0375 72.9662C80.2023 73.1845 81.4109 74.3306 79.9826 74.9309C78.1698 75.695 74.9287 74.7672 73.7202 73.4574C73.7202 73.4574 75.6978 72.6934 76.0274 71.8202Z" fill="#FFB27D"/>
<path d="M81.4106 64.3981C80.4767 61.9968 78.0597 60.7416 76.0271 61.5602C73.9946 62.3788 73.0607 64.9984 73.9946 67.3997C74.9285 69.801 77.3455 71.0562 79.378 70.2376C81.4655 69.4189 82.3444 66.7994 81.4106 64.3981Z" fill="#FFB27D"/>
<path d="M79.5429 63.7431C81.7402 63.2519 82.5093 61.7238 82.2896 60.5232C81.96 59.0497 80.6965 57.9582 79.7077 58.8314C78.7189 59.65 78.8837 58.1765 77.785 58.3402C75.7525 58.6131 75.6976 60.0866 74.1045 60.5778C71.9621 61.2327 70.3691 65.3803 72.7861 67.4542C72.7861 67.5088 77.785 64.1797 79.5429 63.7431Z" fill="black"/>
<path d="M81.1361 61.7239C81.1361 61.7239 79.3233 64.5618 79.9276 65.7624C80.5318 66.9085 80.5868 67.4542 79.3783 68.4911C78.1697 69.5281 79.6529 70.2921 77.8401 70.8378C76.0273 71.3836 73.2807 69.8555 72.4567 66.4173C72.0172 64.4526 72.8412 62.8699 72.8412 62.8699L81.1361 61.7239Z" fill="black"/>
<path d="M81.0809 65.3804C80.7513 65.1076 80.202 65.1076 79.9273 65.435C79.6527 65.7624 79.7076 66.2536 80.0372 66.5811C80.3668 66.8539 80.9161 66.8539 81.1908 66.5265C81.5204 66.199 81.4655 65.7079 81.0809 65.3804Z" fill="#FFB27D"/>
<path d="M80.6419 66.2536C80.4771 66.2536 80.2024 66.199 79.9277 65.8716V65.817H79.9827C80.4771 66.3628 80.9165 66.0899 80.9165 66.0899H80.9715V66.1445C80.9715 66.199 80.8067 66.2536 80.6419 66.2536Z" fill="#CE804A"/>
<path d="M66.8532 78.9149C66.8532 78.9149 68.2815 72.3114 77.1806 72.3114C92.6169 72.3114 88.2771 85.6276 89.7054 106.803C89.7054 106.803 82.8937 102.109 65.3151 107.567C65.3151 107.567 64.546 96.2151 65.6996 86.3917C66.194 82.5169 66.1391 81.0979 66.8532 78.9149Z" fill="#00BDFF"/>
<path d="M59.4376 53.2648C60.4264 53.2102 61.3054 53.8105 61.58 54.7929C64.4915 64.5617 69.6552 71.711 77.181 72.3113C78.1149 72.3659 65.4803 89.284 65.5352 88.7929C65.9198 84.4815 64.6563 79.1332 62.5688 75.9678C58.6136 69.9646 55.5923 63.0882 55.2078 55.2295C55.1529 54.3017 55.8121 53.4831 56.691 53.4285L59.4376 53.2648Z" fill="#00BDFF"/>
<path d="M76.9609 72.3114C76.9609 72.3114 94.7593 71.8202 100.912 57.74C101.296 56.8668 102.34 56.5939 103.164 57.0851L105.746 58.6677C106.24 58.9406 106.46 59.5409 106.295 60.0321C105.526 62.8154 102.285 70.4013 92.5619 79.679C91.5731 80.6068 89.4308 84.4815 89.211 88.6292L76.9609 72.3114Z" fill="#00BDFF"/>
</svg>
