<svg width="147" height="126" viewBox="0 0 147 126" fill="none" xmlns="http://www.w3.org/2000/svg">
<path opacity="0.1" d="M134.88 97.2493L135.708 95.9153C142.673 84.6553 143.102 70.555 136.4 59.3699C135.539 57.931 134.572 56.5558 133.503 55.2593C125.808 45.9103 113.06 40.8892 100.824 42.3843C93.6263 43.2648 86.3418 46.2213 79.362 44.4564C70.2752 42.1594 65.2558 32.9078 61.2749 24.5518C57.294 16.1958 52.2482 6.94793 43.1501 4.69218C37.4534 3.27952 31.3052 5.05939 26.188 8.04208C12.6348 15.9372 5.13958 31.9523 5.25622 47.3604C5.3691 62.7685 12.236 77.4459 21.8571 89.4254C35.335 106.205 54.9987 118.642 76.698 121.036C98.3974 123.43 121.839 114.804 134.88 97.2493Z" fill="#00BDFF"/>
<path d="M34.3873 109.703L34.376 112.139L36.8217 112.146" stroke="#666666" stroke-linecap="round" stroke-linejoin="round"/>
<path d="M41.5059 112.158L104.741 112.353" stroke="#666666" stroke-linecap="round" stroke-linejoin="round" stroke-dasharray="12.45 12.45"/>
<path d="M107.086 112.36L109.532 112.367L109.539 109.932" stroke="#666666" stroke-linecap="round" stroke-linejoin="round"/>
<path d="M109.554 105.128L109.84 21.1035" stroke="#666666" stroke-linecap="round" stroke-linejoin="round" stroke-dasharray="12.81 12.81"/>
<path d="M109.851 18.7012L109.859 16.2656L108.286 17.8319C108.233 17.8844 108.169 17.9256 108.102 17.9518" stroke="#666666" stroke-linecap="round" stroke-linejoin="round"/>
<path d="M104.388 17.8141L104.365 17.8366C104.151 18.0502 103.805 18.0502 103.59 17.8366L102.405 16.6563C102.19 16.4427 101.844 16.4427 101.63 16.6563L100.445 17.8366C100.23 18.0502 99.884 18.0502 99.6695 17.8366L98.4842 16.6563C98.2698 16.4427 97.9236 16.4427 97.7091 16.6563L96.5239 17.8366C96.3094 18.0502 95.9632 18.0502 95.7488 17.8366L94.5635 16.6563C94.3491 16.4427 94.0029 16.4427 93.7884 16.6563L92.6032 17.8366C92.3887 18.0502 92.0425 18.0502 91.8281 17.8366L90.6428 16.6563C90.4284 16.4427 90.0822 16.4427 89.8677 16.6563L88.6825 17.8366C88.468 18.0502 88.1218 18.0502 87.9074 17.8366L86.7221 16.6563C86.5077 16.4427 86.1615 16.4427 85.947 16.6563L84.7618 17.8366C84.5473 18.0502 84.2011 18.0502 83.9867 17.8366L82.8014 16.6563C82.587 16.4427 82.2408 16.4427 82.0263 16.6563L80.8411 17.8366C80.6266 18.0502 80.2804 18.0502 80.066 17.8366L78.8807 16.6563C78.6663 16.4427 78.3201 16.4427 78.1056 16.6563L76.9204 17.8366C76.7059 18.0502 76.3597 18.0502 76.1453 17.8366L74.96 16.6563C74.7456 16.4427 74.3994 16.4427 74.1849 16.6563L72.9959 17.8479C72.7814 18.0614 72.4353 18.0614 72.2208 17.8479L71.0356 16.6675C70.8211 16.4539 70.4749 16.4539 70.2604 16.6675L69.0752 17.8479C68.8607 18.0614 68.5146 18.0614 68.3001 17.8479L67.1149 16.6675C66.9004 16.4539 66.5542 16.4539 66.3397 16.6675L65.1545 17.8479C64.94 18.0614 64.5939 18.0614 64.3794 17.8479L63.1942 16.6675C62.9797 16.4539 62.6335 16.4539 62.419 16.6675L61.2338 17.8479C61.0193 18.0614 60.6732 18.0614 60.4587 17.8479L59.2735 16.6675C59.059 16.4539 58.7128 16.4539 58.4983 16.6675L57.3131 17.8479C57.0986 18.0614 56.7525 18.0614 56.538 17.8479L55.3527 16.6675C55.1383 16.4539 54.7921 16.4539 54.5776 16.6675L53.3924 17.8479C53.1779 18.0614 52.8318 18.0614 52.6173 17.8479L51.432 16.6675C51.2176 16.4539 50.8714 16.4539 50.6569 16.6675L49.4717 17.8479C49.2572 18.0614 48.9111 18.0614 48.6966 17.8479L47.5113 16.6675C47.2969 16.4539 46.9507 16.4539 46.7362 16.6675L45.551 17.8479C45.3365 18.0614 44.9904 18.0614 44.7759 17.8479L43.5906 16.6675C43.3762 16.4539 43.03 16.4539 42.8155 16.6675L41.6303 17.8479C41.4158 18.0614 41.0697 18.0614 40.8552 17.8479L39.6699 16.6675C39.4555 16.4539 39.1093 16.4539 38.8948 16.6675L37.7096 17.8479C37.4951 18.0614 37.149 18.0614 36.9345 17.8479L35.7455 16.6863C35.531 16.4727 35.1848 16.4727 34.9704 16.6863C34.8688 16.7874 34.8086 16.9261 34.8086 17.0685L34.3984 107.306" stroke="#666666" stroke-linecap="round" stroke-linejoin="round" stroke-dasharray="12.81 12.81"/>
<path d="M34.3794 107.596L109.531 107.564L109.53 103.975L34.3779 104.007L34.3794 107.596Z" fill="#DBDBDB"/>
<path opacity="0.35" d="M50.4083 92.9133L94.1004 92.8945C95.3308 92.8945 96.3279 93.8875 96.3279 95.1091C96.3279 96.3344 95.3308 97.3273 94.1042 97.3273L50.4121 97.3461C49.1817 97.3461 48.1846 96.3531 48.1846 95.1316C48.1846 93.9062 49.1817 92.9133 50.4083 92.9133Z" fill="#666666"/>
<path opacity="0.35" d="M69.5193 83.853L102.48 83.8418C103.334 83.8418 104.027 84.5313 104.027 85.3781C104.027 86.2287 103.334 86.9182 102.484 86.9182L69.523 86.9294C68.6689 86.9294 67.9766 86.2399 67.9766 85.3931C67.9766 84.5425 68.6651 83.853 69.5193 83.853Z" fill="#666666"/>
<path opacity="0.35" d="M69.5152 75.3765L102.476 75.3652C103.33 75.3652 104.023 76.0547 104.023 76.9015C104.023 77.7521 103.33 78.4416 102.476 78.4416L69.5152 78.4528C68.6611 78.4528 67.9688 77.7634 67.9688 76.9165C67.9725 76.0659 68.6611 75.3765 69.5152 75.3765Z" fill="#666666"/>
<path opacity="0.35" d="M69.5114 67.773L102.472 67.7617C103.327 67.7617 104.019 68.4512 104.019 69.298C104.019 70.1486 103.327 70.8381 102.476 70.8381L69.5152 70.8493C68.6611 70.8493 67.9688 70.1599 67.9688 69.313C67.9687 68.4624 68.6611 67.773 69.5114 67.773Z" fill="#666666"/>
<path opacity="0.35" d="M54.7318 56.1693L89.5026 56.1543C90.1197 56.1543 90.6201 56.6527 90.6201 57.2672C90.6201 57.8817 90.1197 58.3801 89.5026 58.3801L54.7318 58.3951C54.1147 58.3951 53.6143 57.8967 53.6143 57.2822C53.6143 56.6676 54.1147 56.1693 54.7318 56.1693Z" fill="#666666"/>
<path opacity="0.35" d="M47.3079 51.7354L96.9225 51.7129C97.5396 51.7129 98.04 52.2113 98.04 52.8258C98.04 53.4403 97.5396 53.9387 96.9225 53.9387L47.3079 53.9574C46.6909 53.9574 46.1904 53.459 46.1904 52.8445C46.1904 52.2337 46.6909 51.7354 47.3079 51.7354Z" fill="#666666"/>
<path opacity="0.35" d="M42.0251 83.8631L56.9817 83.8594C57.8359 83.8594 58.5282 84.5488 58.5282 85.3994C58.5282 86.25 57.8359 86.9395 56.9855 86.9395L42.0289 86.9432C41.1748 86.9432 40.4824 86.2538 40.4824 85.4069C40.4787 84.5526 41.171 83.8669 42.0251 83.8631Z" fill="#666666"/>
<path opacity="0.35" d="M42.022 75.3866L56.9787 75.3828C57.8328 75.3828 58.5251 76.0723 58.5251 76.9229C58.5251 77.7735 57.8328 78.4629 56.9787 78.4629L42.022 78.4667C41.1679 78.4667 40.4756 77.7772 40.4756 76.9304C40.4756 76.076 41.1679 75.3866 42.022 75.3866Z" fill="#666666"/>
<path opacity="0.35" d="M42.0183 67.7889L56.9749 67.7852C57.829 67.7852 58.5214 68.4746 58.5214 69.3215C58.5214 70.1721 57.829 70.8615 56.9787 70.8615L42.022 70.8653C41.1679 70.8653 40.4756 70.1758 40.4756 69.329C40.4756 68.4784 41.1642 67.7889 42.0183 67.7889Z" fill="#666666"/>
<path opacity="0.35" d="M43.2744 40.8993L101.186 40.873C102.74 40.873 104.004 42.1283 104.004 43.6759C104.004 45.2234 102.743 46.4825 101.189 46.4825L43.2782 46.5087C41.7242 46.5087 40.46 45.2534 40.46 43.7059C40.46 42.1583 41.7205 40.8993 43.2744 40.8993Z" fill="#666666"/>
<path opacity="0.35" d="M56.9373 31.9019L87.5165 31.8906C88.4798 31.8906 89.2624 32.6663 89.2624 33.6255C89.2624 34.5848 88.4835 35.3642 87.5203 35.3642L56.9373 35.3754C55.974 35.3754 55.1914 34.5998 55.1914 33.6405C55.1914 32.6813 55.974 31.9019 56.9373 31.9019Z" fill="#666666"/>
<path d="M72.1149 79.8216C63.5284 79.8216 56.5449 72.8669 56.5449 64.3161C56.5449 55.7652 63.5284 48.8105 72.1149 48.8105C80.7013 48.8105 87.6848 55.7652 87.6848 64.3161C87.6848 72.8669 80.7013 79.8216 72.1149 79.8216ZM72.1149 50.8152C64.6384 50.8152 58.5542 56.8743 58.5542 64.3161C58.5542 71.7578 64.6384 77.8169 72.1149 77.8169C79.5913 77.8169 85.6718 71.7578 85.6718 64.3161C85.6718 56.8743 79.5913 50.8152 72.1149 50.8152Z" fill="#FC4E69"/>
<path d="M68.728 63.8598L63.8102 57.2537C63.6635 57.0551 63.8253 56.7891 64.0924 56.7891H68.8409C68.9575 56.7891 69.0629 56.8415 69.1269 56.9277L71.8285 60.6111C71.9639 60.7947 72.2649 60.7947 72.4004 60.6111L75.102 56.9277C75.1659 56.8415 75.2713 56.7891 75.3879 56.7891H80.1364C80.4073 56.7891 80.5691 57.0551 80.4186 57.2537L75.5008 63.8598C75.4256 63.961 75.4256 64.0884 75.5008 64.1896L80.8927 71.384C81.0432 71.5826 80.8814 71.8487 80.6105 71.8487H75.862C75.7492 71.8487 75.64 71.7999 75.5798 71.7138L72.4004 67.4683C72.2649 67.2884 71.9677 67.2884 71.8322 67.4683L68.6528 71.7138C68.5888 71.7962 68.4834 71.8487 68.3706 71.8487H63.6221C63.3512 71.8487 63.1894 71.5826 63.3399 71.384L68.7318 64.1896C68.8033 64.0884 68.8033 63.961 68.728 63.8598Z" fill="#FC4E69"/>
</svg>
