<svg width="152" height="145" viewBox="0 0 152 145" fill="none" xmlns="http://www.w3.org/2000/svg">
<path opacity="0.1" d="M30.0343 138.188H123.327H7.81978C3.77371 106.23 24.1208 110.784 19.1021 82.4067C18.5574 79.4094 18.2073 76.5289 17.9739 73.804C17.935 73.804 17.935 73.804 17.8961 73.804C17.0791 64.1503 18.752 56.404 19.4522 53.6013C27.7 22.9275 63.142 23.706 75.8638 44.2201C76.7586 45.6604 77.6534 46.945 78.5093 48.0738C81.077 51.8107 85.4343 54.302 87.3406 55.2752V55.3919C93.6043 57.8832 99.2065 55.0416 103.797 53.9128C117.803 50.5262 135.777 57.1047 141.185 77.4631C149.51 108.682 140.095 138.227 140.095 138.227H123.911" fill="#00BDFF"/>
<path d="M95.7052 9.80939L95.0438 9.14765C94.9271 9.03087 94.7326 9.03087 94.6159 9.14765L93.9545 9.80939C93.8378 9.92617 93.6433 9.92617 93.5265 9.80939L92.8652 9.14765C92.7484 9.03087 92.5539 9.03087 92.4372 9.14765L91.7758 9.80939C91.6591 9.92617 91.4646 9.92617 91.3479 9.80939L90.6865 9.14765C90.5698 9.03087 90.3753 9.03087 90.2586 9.14765L89.5972 9.80939C89.4805 9.92617 89.2859 9.92617 89.1692 9.80939L88.5079 9.14765C88.3911 9.03087 88.1966 9.03087 88.0799 9.14765L87.4185 9.80939C87.3018 9.92617 87.1073 9.92617 86.9906 9.80939L86.3292 9.14765C86.2125 9.03087 86.018 9.03087 85.9013 9.14765L85.2399 9.80939C85.1232 9.92617 84.9286 9.92617 84.8119 9.80939L84.1505 9.14765C84.0338 9.03087 83.8393 9.03087 83.7226 9.14765L83.0612 9.80939C82.9445 9.92617 82.75 9.92617 82.6333 9.80939L81.9719 9.14765C81.8552 9.03087 81.6607 9.03087 81.5439 9.14765L80.8826 9.80939C80.7659 9.92617 80.5713 9.92617 80.4546 9.80939L79.7932 9.14765C79.6765 9.03087 79.482 9.03087 79.3653 9.14765L78.7039 9.80939C78.5872 9.92617 78.3927 9.92617 78.276 9.80939L77.6146 9.14765C77.4979 9.03087 77.3033 9.03087 77.1866 9.14765L76.5253 9.80939C76.4085 9.92617 76.214 9.92617 76.0973 9.80939L75.4359 9.14765C75.3192 9.03087 75.1247 9.03087 75.008 9.14765L74.3466 9.80939C74.2299 9.92617 74.0354 9.92617 73.9187 9.80939L73.2573 9.14765C73.1406 9.03087 72.946 9.03087 72.8293 9.14765L72.168 9.80939C72.0512 9.92617 71.8567 9.92617 71.74 9.80939L71.0786 9.14765C70.9619 9.03087 70.7674 9.03087 70.6507 9.14765L69.9893 9.80939C69.8726 9.92617 69.6781 9.92617 69.5614 9.80939L68.9 9.14765C68.7833 9.03087 68.5887 9.03087 68.472 9.14765L67.8106 9.80939C67.6939 9.92617 67.4994 9.92617 67.3827 9.80939L66.7213 9.14765C66.6046 9.03087 66.4101 9.03087 66.2934 9.14765L65.632 9.80939C65.5153 9.92617 65.3208 9.92617 65.204 9.80939L64.5427 9.14765C64.426 9.03087 64.2314 9.03087 64.1147 9.14765L63.4533 9.80939C63.3366 9.92617 63.1421 9.92617 63.0254 9.80939L62.364 9.14765C62.2473 9.03087 62.0528 9.03087 61.9361 9.14765L61.2747 9.80939C61.158 9.92617 60.9634 9.92617 60.8467 9.80939L60.1854 9.14765C60.0686 9.03087 59.8741 9.03087 59.7574 9.14765L59.096 9.80939C58.9793 9.92617 58.7848 9.92617 58.6681 9.80939L58.0067 9.14765C57.89 9.03087 57.6955 9.03087 57.5788 9.14765L56.9174 9.80939C56.8007 9.92617 56.6061 9.92617 56.4894 9.80939L55.8281 9.14765C55.7113 9.03087 55.5168 9.03087 55.4001 9.14765C55.3612 9.18658 55.3223 9.26443 55.3223 9.38121L55.0889 62.9047L97.1836 63.0215L97.3781 8.95302L96.4833 9.84832C96.0164 9.92617 95.8219 9.92617 95.7052 9.80939Z" fill="#EDE1CA"/>
<path d="M54.7491 60.3244L96.8438 60.3065L96.8429 58.2823L54.7482 58.3002L54.7491 60.3244Z" fill="white"/>
<path d="M63.7264 52.0832H88.1973C88.8976 52.0832 89.4423 52.6282 89.4423 53.3289C89.4423 54.0295 88.8976 54.5745 88.1973 54.5745H63.7264C63.0261 54.5745 62.4814 54.0295 62.4814 53.3289C62.4814 52.6282 63.0261 52.0832 63.7264 52.0832Z" fill="white"/>
<path d="M76.3315 46.9839H92.8659C93.3328 46.9839 93.7218 47.3732 93.7218 47.8403C93.7218 48.3074 93.3328 48.6966 92.8659 48.6966H76.3315C75.8646 48.6966 75.4756 48.3074 75.4756 47.8403C75.4756 47.3732 75.8646 46.9839 76.3315 46.9839Z" fill="white"/>
<path d="M76.3315 42.196H92.8659C93.3328 42.196 93.7218 42.5852 93.7218 43.0523C93.7218 43.5195 93.3328 43.9087 92.8659 43.9087H76.3315C75.8646 43.9087 75.4756 43.5195 75.4756 43.0523C75.4756 42.5852 75.8646 42.196 76.3315 42.196Z" fill="#B29A74"/>
<path d="M76.3315 37.9141H92.8659C93.3328 37.9141 93.7218 38.3034 93.7218 38.7705C93.7218 39.2376 93.3328 39.6268 92.8659 39.6268H76.3315C75.8646 39.6268 75.4756 39.2376 75.4756 38.7705C75.4756 38.3034 75.8646 37.9141 76.3315 37.9141Z" fill="#C6AD89"/>
<path d="M66.1381 31.3745H85.6293C85.9794 31.3745 86.2517 31.647 86.2517 31.9973C86.2517 32.3477 85.9794 32.6201 85.6293 32.6201H66.1381C65.788 32.6201 65.5156 32.3477 65.5156 31.9973C65.5156 31.6859 65.788 31.3745 66.1381 31.3745Z" fill="#C6AD89"/>
<path d="M61.975 28.8832H89.7528C90.103 28.8832 90.3753 29.1557 90.3753 29.506C90.3753 29.8564 90.103 30.1289 89.7528 30.1289H61.975C61.6249 30.1289 61.3525 29.8564 61.3525 29.506C61.3525 29.1557 61.6249 28.8832 61.975 28.8832Z" fill="#C6AD89"/>
<path d="M59.019 46.9839H63.5708C64.0377 46.9839 64.4267 47.3732 64.4267 47.8403C64.4267 48.3074 64.0377 48.6966 63.5708 48.6966H59.019C58.5521 48.6966 58.1631 48.3074 58.1631 47.8403C58.1631 47.3732 58.5521 46.9839 59.019 46.9839Z" fill="white"/>
<path d="M59.019 42.196H63.5708C64.0377 42.196 64.4267 42.5852 64.4267 43.0523C64.4267 43.5195 64.0377 43.9087 63.5708 43.9087H59.019C58.5521 43.9087 58.1631 43.5195 58.1631 43.0523C58.1631 42.5852 58.5521 42.196 59.019 42.196Z" fill="#B29A74"/>
<path d="M59.019 37.9141H63.5708C64.0377 37.9141 64.4267 38.3034 64.4267 38.7705C64.4267 39.2376 64.0377 39.6268 63.5708 39.6268H59.019C58.5521 39.6268 58.1631 39.2376 58.1631 38.7705C58.1631 38.3034 58.5521 37.9141 59.019 37.9141Z" fill="#C6AD89"/>
<path d="M59.7191 22.8107H92.1655C93.0214 22.8107 93.7606 23.5114 93.7606 24.4067C93.7606 25.2631 93.0603 26.0027 92.1655 26.0027H59.7191C58.8632 26.0027 58.124 25.302 58.124 24.4067C58.1629 23.5114 58.8632 22.8107 59.7191 22.8107Z" fill="#C6AD89"/>
<path d="M67.3828 17.7503H84.5008C85.0454 17.7503 85.4734 18.1785 85.4734 18.7235C85.4734 19.2685 85.0454 19.6966 84.5008 19.6966H67.3828C66.8381 19.6966 66.4102 19.2685 66.4102 18.7235C66.4102 18.1785 66.8381 17.7503 67.3828 17.7503Z" fill="#C6AD89"/>
<path d="M102.125 46.5168V134.49C102.125 137.254 99.9073 139.472 97.145 139.472H54.389C52.9884 139.472 51.7435 138.928 50.8486 137.993C49.9538 137.098 49.4092 135.852 49.4092 134.49V46.5168C49.4092 43.753 51.6267 41.5342 54.389 41.5342H97.145C97.962 41.5342 98.7401 41.7289 99.4015 42.0792C101.035 42.8966 102.125 44.5705 102.125 46.5168Z" fill="#6F64FF"/>
<path d="M102.125 46.5168V134.49C102.125 137.254 99.9077 139.472 97.1455 139.472H54.7395C53.339 139.472 52.094 138.928 51.1992 137.993L99.4408 42.0792C101.036 42.8966 102.125 44.5705 102.125 46.5168Z" fill="#6F64FF"/>
<path d="M100.296 46.2054V134.762C100.296 135.969 99.3236 136.942 98.1175 136.942H53.7275C52.8327 136.942 52.0546 136.397 51.7044 135.619C51.5877 135.346 51.5488 135.074 51.5488 134.762V46.2054C51.5488 44.9987 52.5214 44.0255 53.7275 44.0255H98.1175C98.4288 44.0255 98.7011 44.1034 98.9734 44.1812C99.7515 44.5315 100.296 45.3101 100.296 46.2054Z" fill="#00D495"/>
<path d="M88.4689 48.4242H63.3755C61.9749 48.4242 60.8467 47.2953 60.8467 45.894C60.8467 44.4926 61.9749 43.3638 63.3755 43.3638H88.4689C89.8695 43.3638 90.9977 44.4926 90.9977 45.894C90.9977 47.2953 89.8695 48.4242 88.4689 48.4242Z" fill="#6F64FF"/>
<path d="M83.1 46.1664H66.2543C65.9042 46.1664 65.6318 45.894 65.6318 45.5436C65.6318 45.1933 65.9042 44.9208 66.2543 44.9208H83.1C83.4501 44.9208 83.7224 45.1933 83.7224 45.5436C83.7224 45.894 83.4501 46.1664 83.1 46.1664Z" fill="black"/>
<path d="M88.119 45.5047C88.119 45.9329 87.7689 46.2443 87.3798 46.2443C86.9519 46.2443 86.6406 45.894 86.6406 45.5047C86.6406 45.0765 86.9908 44.7651 87.3798 44.7651C87.7689 44.7651 88.119 45.1154 88.119 45.5047Z" fill="black"/>
<path d="M38.9435 138.149H37.7764C37.8153 138.11 37.8153 138.071 37.8153 137.993C37.8931 137.993 37.9709 137.954 38.0487 137.954C38.5934 137.877 38.8657 138.071 38.9435 138.149Z" fill="black"/>
<path d="M32.1739 137.954C32.6797 137.877 32.952 138.071 33.0298 138.149H31.2402C31.5904 138.11 31.8238 137.993 32.1739 137.954Z" fill="black"/>
<path d="M32.4072 134.179C32.6407 132.505 32.9519 130.247 33.2242 127.834C33.2631 127.366 33.3409 126.899 33.3798 126.432C33.4576 126.783 33.5355 127.094 33.6133 127.444C34.3135 130.286 35.2473 132.777 35.9086 134.451C35.9086 134.451 35.753 134.568 35.6752 134.801C35.5974 134.996 35.5196 135.23 35.5585 135.541C35.5974 135.736 35.5585 136.047 35.4807 136.358C35.2473 136.242 35.0527 136.086 34.8193 135.891C34.3525 135.385 32.4072 134.179 32.4072 134.179Z" fill="#EBF3FA"/>
<path d="M53.1431 71.3517C53.1431 71.3127 52.5596 70.0671 52.5596 69.6389L53.2598 69.8335C53.182 70.3007 53.1431 70.8846 53.1431 71.3517Z" fill="#FCC097"/>
<path d="M38.282 49.3584C34.0803 48.7745 33.5356 52.9396 33.7302 54.0684C33.7691 54.2631 33.808 54.4577 33.8858 54.6913C33.5356 55.0805 33.3022 55.2752 33.3022 55.2752C33.3022 55.2752 33.5745 55.4309 34.197 55.5087C34.625 56.5987 35.2085 57.494 35.2085 57.494C35.2474 57.6497 35.3252 57.7664 35.3642 57.8832C35.3642 58.1168 35.3642 58.3893 35.3642 58.6228C35.3642 58.6228 34.8195 57.3772 34.1192 57.7664C33.0299 58.3893 30.8512 55.9369 31.5515 52.706C31.6293 52.3557 31.7071 52.0443 31.8238 51.7329C32.2129 51.5772 32.4852 51.3436 32.4852 51.3436L34.5861 48.1906C36.8036 46.1664 40.2272 49.6698 41.0831 50.604C40.9664 50.4872 40.8108 50.4094 40.6941 50.2926C39.488 49.4752 38.282 49.3584 38.282 49.3584Z" fill="#FC4E69"/>
<path d="M44.5845 73.8819C45.985 73.4926 46.9966 72.2081 47.1522 72.0134C47.23 72.3638 47.3078 72.7141 47.3856 73.1034C47.5801 74.1154 47.6968 75.2054 47.8136 76.4121C47.8136 76.4121 52.2098 73.6483 53.2213 72.2081L54.3884 73.0255C54.3884 73.0255 50.8092 79.4094 47.0744 80.8107C46.3352 81.0832 45.6738 80.5772 45.1291 79.5262C44.8568 77.4631 44.5845 75.5168 44.4678 73.9208C44.5067 73.9208 44.5456 73.9208 44.5845 73.8819Z" fill="#FCC097"/>
<path d="M32.4463 51.3047C32.4463 51.3047 32.135 51.5383 31.7849 51.694C31.5514 51.8107 31.2791 51.8886 31.0457 51.8886C30.3843 51.8886 29.4117 50.2537 29.295 49.7087C29.1783 49.1638 29.295 47.3342 30.1898 46.7893C31.0846 46.2443 32.4852 46.906 32.4852 46.906C31.9794 46.2054 30.2287 46.4389 30.2287 46.4389C33.769 45.6993 34.5082 47.957 34.5471 48.1517L32.4463 51.3047Z" fill="#FC4E69"/>
<path d="M39.8771 63.1772C40.0327 63.4497 41.939 66.3691 41.8223 67.1087C41.6667 67.8872 34.7806 67.1866 34.3137 66.7584C34.1192 66.5638 33.8858 65.902 33.6523 65.2013L34.197 62.8658C34.197 62.8658 34.1581 62.8658 34.0803 62.8658C34.5471 62.4765 35.2085 60.9584 35.3252 58.5839C35.3252 58.3503 35.3252 58.1168 35.3252 57.8443C35.4809 58.0779 35.6365 58.3114 35.8699 58.506C36.4535 59.6349 37.5817 61.0752 39.4491 61.1141C39.4491 60.647 39.4491 60.1799 39.488 59.7517C39.488 60.1409 39.4491 60.647 39.4491 61.1141C39.4491 62.0872 39.488 63.0215 39.7214 63.1383C39.7993 63.1383 39.8771 63.1383 39.916 63.1383C39.8771 63.1383 39.8771 63.1383 39.8771 63.1772Z" fill="#FCC097"/>
<path d="M39.4493 61.1141C37.5819 61.0752 36.4537 59.6349 35.8701 58.506C36.8816 59.4013 38.5156 59.6738 39.4882 59.7517C39.4493 60.1799 39.4493 60.647 39.4493 61.1141Z" fill="#EFB289"/>
<path d="M40.0324 50.7987C39.9157 50.643 39.7601 50.4873 39.6045 50.4094C39.5267 50.2926 39.4489 50.2148 39.371 50.2926C37.8927 49.7866 35.2861 51.5383 35.2861 51.5383C35.0526 52.9785 34.3524 54.0295 33.8466 54.6524C33.7688 54.4577 33.7299 54.2242 33.691 54.0295C33.4965 52.9007 34.08 48.7356 38.2428 49.3195C38.2428 49.3195 39.4489 49.4363 40.616 50.2148C40.7327 50.2926 40.8883 50.4094 41.005 50.5262C41.0439 50.5651 41.1218 50.643 41.1607 50.6819C40.6938 50.4094 40.3048 50.5651 40.0324 50.7987Z" fill="#FC4E69"/>
<path d="M34.1582 55.4698C34.3916 55.5087 34.664 55.5087 35.0141 55.4698C35.0141 55.8201 35.053 56.1705 35.053 56.5597C35.053 56.8711 35.0919 57.1436 35.2086 57.4161C35.1697 57.455 34.5862 56.5597 34.1582 55.4698Z" fill="#FC4E69"/>
<path d="M39.4877 59.7517C39.9545 59.7906 40.3047 59.7906 40.3047 59.7906C41.1995 59.7128 41.7831 57.2993 41.9776 55.353C41.4718 55.4309 41.3551 53.6792 41.0828 52.8618C40.8883 52.2389 40.2658 51.6161 39.9545 51.3436C39.8378 51.7329 38.7874 55.392 36.1419 56.6376C36.1419 56.6376 37.3479 55.5477 38.2427 54.0685C37.737 54.6524 37.1145 55.1195 36.4531 55.3141C35.9085 55.4698 35.4027 55.5087 35.0137 55.5477C35.0137 55.898 35.0526 56.2483 35.0526 56.6376C35.0526 56.949 35.0915 57.2215 35.2082 57.494C35.2471 57.6497 35.3249 57.7664 35.3638 57.8832C35.5194 58.1168 35.6751 58.3503 35.9085 58.545C36.8422 59.4013 38.5151 59.6738 39.4877 59.7517ZM39.2543 57.8443C40.3047 57.3772 41.0828 57.6886 41.0828 57.6886C41.1217 58.1168 40.3047 58.1557 40.3047 58.1557C39.3321 58.2336 39.2543 57.8443 39.2543 57.8443Z" fill="#FCC097"/>
<path d="M40.0324 50.7987C39.9546 50.8765 39.8768 50.9544 39.8379 50.9933C39.799 50.7987 39.6823 50.5262 39.6045 50.4094C39.7601 50.4872 39.9157 50.604 40.0324 50.7987Z" fill="#FC4E69"/>
<path d="M34.158 55.4698C33.5355 55.3919 33.2632 55.2362 33.2632 55.2362C33.2632 55.2362 33.5355 55.0416 33.8468 54.6523C34.3525 54.0295 35.0917 52.9785 35.2862 51.5382C35.2862 51.5382 37.8928 49.7476 39.3712 50.2926C39.2545 50.4094 39.1767 50.7208 39.0989 51.4993C39.0211 52.3946 38.632 53.2899 38.2041 54.0684C37.6983 54.6523 37.0758 55.1195 36.4145 55.3141C35.8698 55.4698 35.364 55.5087 34.975 55.5476C34.6637 55.5087 34.3914 55.5087 34.158 55.4698Z" fill="#FC4E69"/>
<path d="M41.0439 52.8617C40.8494 52.2389 40.2269 51.6161 39.9157 51.3436C39.9157 51.3047 39.9157 51.3047 39.9157 51.3047C39.9157 51.3047 39.8768 51.1879 39.8379 50.9933C39.8768 50.9154 39.9546 50.8765 40.0324 50.7987C40.2658 50.604 40.6549 50.4094 41.1606 50.7208C41.3552 50.8376 41.5497 51.0322 41.7831 51.3047C42.9892 52.7839 41.8998 55.392 41.8998 55.392C41.433 55.4309 41.3163 53.6792 41.0439 52.8617Z" fill="#FC4E69"/>
<path d="M35.9477 134.412C35.2475 132.738 34.3527 130.247 33.6524 127.405C33.5746 127.094 33.4968 126.744 33.4189 126.393C33.9247 122.072 34.5861 117.791 35.3253 116.428C37.5428 112.263 38.71 100.157 39.2157 92.9168C41.0442 92.9168 42.9895 92.6832 44.2733 91.9047C44.1566 96.1476 43.4174 104.361 39.8771 114.404C38.3598 118.725 37.893 123.24 37.8541 127.055C37.8152 129.936 38.0486 132.427 38.282 134.14C38.2042 134.14 38.0097 134.256 37.1538 134.957C36.7258 135.346 35.9477 134.412 35.9477 134.412Z" fill="#06B9EA"/>
<path d="M30.3456 78.008C29.9176 79.5651 29.5675 80.9664 29.4119 81.6671C28.945 83.9248 23.7318 92.5664 23.7318 92.5664L22.1367 92.0993C23.3817 89.102 24.8211 83.0295 25.288 81.9007C25.4436 81.5114 25.7548 79.7986 26.1439 77.5409C28.0891 78.4752 29.762 78.1637 30.3456 78.008Z" fill="#FCC097"/>
<path d="M30.151 63.7221C30.1899 63.7221 30.1899 63.7221 30.151 63.7221C29.9175 63.8389 29.6452 63.9557 29.4507 64.1114C29.6452 63.9557 29.8786 63.8389 30.151 63.7221Z" fill="#FFB27D"/>
<path d="M29.2173 64.345C29.2562 64.2671 29.334 64.1893 29.4507 64.1114C29.3729 64.1893 29.2951 64.2671 29.2173 64.345Z" fill="#FFB27D"/>
<path d="M33.6524 65.2014C33.3412 64.1893 33.0688 63.0215 33.0688 63.0215C33.5357 62.9436 33.8858 62.9047 34.0804 62.8658C34.1582 62.8658 34.1971 62.8658 34.1971 62.8658L33.6524 65.2014Z" fill="#FCC097"/>
<path d="M30.5012 92.255C31.5516 92.1383 32.0574 90.3476 32.2519 88.8295C32.8744 91.0094 33.8081 92.255 34.9363 92.4886C35.5977 92.6443 37.3095 92.8779 39.2158 92.8779C38.71 100.118 37.5429 112.224 35.3253 116.389C34.5862 117.791 33.9248 122.034 33.419 126.354C33.3801 126.821 33.3023 127.289 33.2634 127.756C32.9911 130.208 32.6798 132.466 32.4075 134.101C32.3297 134.101 32.0963 134.217 31.2793 134.918C30.8513 135.268 30.1899 134.568 30.0732 134.412C29.762 132.738 29.1395 129.313 28.5949 125.109C27.311 115.183 29.8009 111.874 29.8009 111.874C29.5286 110.395 27.8557 102.142 28.128 94.2792C28.1669 93.5007 28.2058 92.7611 28.2836 92.0604C28.6727 92.294 29.3729 92.3718 30.5012 92.255Z" fill="#00BDFF"/>
<path d="M39.4106 50.2926C39.4884 50.2148 39.5662 50.2926 39.644 50.4094C39.7218 50.5651 39.7996 50.7987 39.8774 50.9933C39.9163 51.149 39.9552 51.3047 39.9552 51.3047C39.9552 51.3047 39.9552 51.3047 39.9552 51.3436C39.8385 51.7329 38.7881 55.392 36.1426 56.6376C36.1426 56.6376 37.3486 55.5477 38.2434 54.0685C38.7103 53.2899 39.0604 52.4336 39.1382 51.4993C39.216 50.7208 39.2938 50.3705 39.4106 50.2926Z" fill="#FC4E69"/>
<path d="M34.936 92.4886C33.7689 92.2161 32.8741 91.0094 32.2516 88.8295C32.0571 90.3477 31.5513 92.1383 30.5009 92.255C29.3727 92.3718 28.6724 92.294 28.2834 92.0604C28.0499 91.9047 27.8943 91.7101 27.8165 91.4765C27.7387 91.2819 27.7387 91.0094 27.7387 90.698C28.9058 90.3087 30.4231 89.2577 32.2127 86.9222C36.998 80.7329 32.6018 73.4537 32.0182 73.298C31.4346 73.1812 30.3064 78.0081 30.3064 78.0081H30.2675C29.6839 78.1638 28.0499 78.4363 26.1047 77.5409C25.9491 77.4631 25.8324 77.3852 25.6768 77.3074C26.5716 72.9477 27.8165 66.8363 29.1004 64.4228C29.1004 64.3839 29.1393 64.345 29.1782 64.3061C29.256 64.2282 29.3338 64.1503 29.4116 64.0725C29.6061 63.9168 29.8784 63.8 30.1508 63.6832C31.3957 63.1383 33.0297 62.9436 33.0297 62.9436C33.0297 62.9826 33.302 64.1114 33.6133 65.1235C33.8467 65.8242 34.0801 66.5248 34.2747 66.6805C34.7415 67.1087 41.6276 67.8094 41.7832 67.0309C41.9389 66.2913 39.9936 63.3329 39.838 63.0993H39.8769C39.9547 63.0993 40.1492 63.1383 40.1492 63.1383C40.9273 63.255 41.472 63.3329 41.8999 63.3718C42.678 63.4886 42.8726 63.6054 43.0671 63.7611C43.106 63.8 43.1449 63.8389 43.1838 63.9168C42.9115 63.7222 42.7558 63.6443 42.7558 63.6443C42.7558 63.6443 42.0167 74.0765 43.8841 73.9987C44.0786 73.9987 44.2731 73.9597 44.4287 73.9208C44.5065 75.5168 44.7789 77.4631 45.0901 79.5262C45.5959 83.1852 46.1016 87.1557 45.7515 89.8416C45.6348 90.7759 45.0901 91.4376 44.312 91.9047C43.0282 92.6832 41.044 92.9168 39.2544 92.9168C37.3481 92.9168 35.5974 92.6443 34.936 92.4886Z" fill="#FFCD1C"/>
<path d="M55.2441 68.1987C55.283 68.2376 55.283 68.2376 55.2441 68.1987C55.2441 68.3154 55.2441 68.3933 55.2441 68.3933V68.1987Z" fill="#FFB27D"/>
<path d="M53.1436 71.3517C53.1436 70.8846 53.1436 70.3007 53.2214 69.8336L54.2329 70.145H54.3107C54.4663 70.3785 54.6219 70.4953 54.6219 70.4953L55.2833 69.0161V68.3544L56.0614 69.6C56.0614 69.6 56.0614 69.6 56.0614 69.5611C56.1392 69.8725 56.1392 70.145 56.0614 70.4564C55.7502 71.5074 54.4274 72.9866 54.4274 72.9866L53.2603 72.1691C53.1825 72.1691 53.1436 71.7799 53.1436 71.3517Z" fill="#FCC097"/>
<path d="M53.5321 64.0336L51.9759 69.1718C51.937 69.3275 52.0148 69.4832 52.1704 69.5221L54.2323 70.145L53.2208 69.8336L52.5205 69.6389L51.7814 69.4054C51.7036 69.3664 51.6257 69.2886 51.6646 69.2107L53.2597 63.8389C53.2986 63.7611 53.3764 63.6832 53.4542 63.7221L53.9989 63.8779L53.8044 63.8389C53.7655 63.8 53.6099 63.8779 53.5321 64.0336Z" fill="#3F3F3F"/>
<path d="M55.594 66.0966C55.5162 66.3691 55.3606 67.5758 55.2828 68.1597L55.2439 68.2376V68.2765V68.2376C55.2439 68.2376 54.2324 66.6805 53.9989 66.7584C53.6488 66.8752 54.8548 68.7436 54.9326 68.8604C54.8548 68.7826 53.9989 67.3812 53.8433 67.498C53.4932 67.7705 54.0378 68.6658 54.5825 69.4054C54.5825 69.4054 53.6488 68.549 53.6099 68.7047C53.5321 69.055 54.0378 69.7946 54.3491 70.2228H54.2713L52.2093 69.6C52.0537 69.5611 51.9759 69.4054 52.0148 69.2497L53.571 64.1114C53.6099 63.9557 53.7655 63.8779 53.9211 63.9168L54.1156 63.9557L56.0998 64.5396C56.2554 64.5785 56.3332 64.7342 56.2943 64.8899L55.7496 66.6805C55.6718 66.2524 55.6329 65.9799 55.594 66.0966Z" fill="black"/>
<path d="M43.3395 137.993C43.2617 138.11 39.488 138.032 39.2934 137.877C39.0989 137.721 38.5542 137.487 37.7762 137.604C37.7372 137.526 37.6983 137.409 37.6983 137.332C37.6205 137.137 37.4649 136.981 37.2704 136.942C36.8813 136.825 36.22 136.748 35.5586 136.319C35.6364 136.008 35.6753 135.697 35.6364 135.502C35.5975 135.191 35.6364 134.957 35.7531 134.762C36.0254 134.957 36.5701 135.307 36.9592 135.346C37.4649 135.424 38.3986 134.14 38.3986 134.14C38.3986 134.14 40.3439 135.385 40.8496 135.813C41.7444 136.631 42.717 136.748 43.2228 136.903C43.4173 136.942 43.5729 137.098 43.6507 137.293C43.4562 137.215 43.4173 137.876 43.3395 137.993Z" fill="black"/>
<path d="M36.8818 135.385C36.4928 135.346 35.9481 134.957 35.6758 134.801C35.7925 134.607 35.9092 134.49 35.9092 134.451C35.9092 134.451 36.6873 135.385 37.1542 134.996C37.9711 134.295 38.2046 134.179 38.2824 134.179C38.3213 134.179 37.3876 135.424 36.8818 135.385Z" fill="#727272"/>
<path d="M38.0876 137.954C38.0098 137.954 37.932 137.993 37.8542 137.993C37.8542 137.877 37.8153 137.721 37.7764 137.604C38.5545 137.487 39.0991 137.721 39.2936 137.877C39.5271 138.032 43.2619 138.11 43.3397 137.993C43.4175 137.877 43.4564 137.215 43.612 137.332C43.7288 137.604 43.8066 137.954 43.7288 138.149V138.188H39.0213C38.8657 138.071 38.5934 137.877 38.0876 137.954Z" fill="#727272"/>
<path d="M30.9678 135.385C31.4736 135.463 32.4073 134.179 32.4073 134.179C32.4073 134.179 34.3525 135.424 34.8583 135.852C35.0917 136.047 35.2862 136.203 35.5196 136.319C36.2199 136.709 36.8813 136.825 37.2314 136.942C37.426 136.981 37.5816 137.137 37.6594 137.332C37.5038 137.215 37.4649 137.877 37.3871 137.993C37.3093 138.11 33.5355 138.032 33.341 137.877C33.1076 137.721 32.4851 137.448 31.5514 137.643C30.7733 137.838 29.6062 137.332 29.2949 137.215C29.4894 136.67 29.684 135.891 29.6451 135.463C29.6062 135.152 29.6451 134.918 29.7618 134.723C30.0341 134.957 30.6177 135.307 30.9678 135.385Z" fill="black"/>
<path d="M31.279 134.957C32.0571 134.295 32.3294 134.179 32.4072 134.14C32.4072 134.14 31.4735 135.424 30.9678 135.346C30.5787 135.307 30.0341 134.918 29.7617 134.762C29.8784 134.529 30.034 134.412 30.034 134.412C30.034 134.412 30.0341 134.412 30.073 134.451C30.1897 134.607 30.851 135.307 31.279 134.957Z" fill="#727272"/>
<path d="M29.1394 137.799C29.1394 137.799 29.2172 137.565 29.334 137.254C29.6063 137.37 30.7734 137.877 31.5904 137.682C32.4852 137.448 33.1466 137.76 33.38 137.915C33.6135 138.071 37.3483 138.149 37.4261 138.032C37.5039 137.915 37.5428 137.254 37.6984 137.37C37.7373 137.448 37.7762 137.565 37.7762 137.643C37.8151 137.799 37.854 137.915 37.854 138.032C37.854 138.071 37.854 138.149 37.8151 138.188V138.227H33.0688C32.991 138.149 32.7186 137.954 32.2129 138.032C31.8627 138.071 31.6293 138.149 31.3181 138.227H31.2792C31.2403 138.227 31.2014 138.227 31.2014 138.227H30.112C30.0731 138.227 30.0342 138.227 29.9953 138.227H29.9564C29.1005 138.032 29.1394 137.799 29.1394 137.799Z" fill="#727272"/>
<path d="M32.0573 73.298C32.6409 73.4148 37.0371 80.7329 32.2519 86.9221C30.4233 89.2577 28.945 90.3087 27.7778 90.698C27.8945 88.4013 29.6452 83.0295 30.3844 78.008C30.3455 78.008 31.4738 73.1812 32.0573 73.298Z" fill="#EAB713"/>
<path d="M44.5843 73.8819C44.5454 73.8819 44.5065 73.9208 44.4676 73.9208C44.2731 73.9597 44.1175 73.9987 43.9229 73.9987C42.0555 74.1154 42.7947 63.6443 42.7947 63.6443C42.7947 63.6443 42.9503 63.7221 43.2227 63.9168C44.1564 64.6174 46.335 66.7584 47.152 71.9356C47.152 71.9356 47.152 71.9356 47.152 71.9745C46.9964 72.208 45.9849 73.4926 44.5843 73.8819Z" fill="#FFCD1C"/>
<path d="M53.5715 68.6658C53.6104 68.5101 54.5441 69.3665 54.5441 69.3665C53.9995 68.6658 53.4937 67.7316 53.805 67.4591C53.9606 67.3423 54.8165 68.7436 54.8943 68.8215C54.8165 68.7047 53.6493 66.8362 53.9606 66.7195C54.194 66.6416 55.2055 68.1987 55.2055 68.1987V68.2376V68.3933V69.055L54.5441 70.5342C54.5441 70.5342 54.4274 70.3785 54.2329 70.1839C53.9995 69.7168 53.4937 69.0161 53.5715 68.6658Z" fill="#FCC097"/>
<path d="M55.2441 68.3933C55.2441 68.3933 55.2441 68.3154 55.283 68.2376C55.283 68.1987 55.283 68.1597 55.283 68.1597C55.3609 67.6148 55.5165 66.4081 55.5943 66.0966C55.6332 65.9799 55.6721 66.2523 55.711 66.6416C55.8277 67.5758 55.9444 69.3664 55.9833 69.6389C55.9833 69.6389 55.9833 69.6389 55.9833 69.6778L55.2441 68.3933Z" fill="#FCC097"/>
<path d="M39.2549 57.8443C40.3053 57.3772 41.0834 57.6886 41.0834 57.6886C41.1223 58.1168 40.3053 58.1557 40.3053 58.1557C39.3327 58.2336 39.2549 57.8443 39.2549 57.8443Z" fill="white"/>
<path d="M23.4983 92.9946L21.9032 94.0846C21.9032 94.0846 21.8254 94.396 21.7476 94.7463C21.0862 94.9409 20.2692 95.0966 19.958 95.6416C19.4911 96.498 18.9854 96.4201 18.9854 96.4201C18.9854 96.4201 19.0243 96.2644 19.1021 96.0698C19.1799 96.0698 19.2188 96.0309 19.2577 95.953C19.4133 95.6805 20.1914 94.0846 20.1914 94.0846C20.1525 94.1235 19.8802 94.4349 19.5689 94.7852C19.7245 94.4349 19.8413 94.0846 19.958 93.9289C20.2303 93.3839 22.1366 92.1382 22.1366 92.1382L23.7317 92.6054C23.7317 92.5664 23.6539 92.7611 23.4983 92.9946Z" fill="#FCC097"/>
<path d="M23.4981 92.9946C23.4981 92.9946 23.1868 94.4738 22.7978 94.9409C22.4087 95.3691 21.8641 96.1087 21.6696 95.9141C21.5528 95.7973 21.6306 95.2134 21.7474 94.7463C21.8252 94.396 21.903 94.0846 21.903 94.0846L23.4981 92.9946Z" fill="#FCC097"/>
<path d="M19.2576 95.9141C19.2187 95.992 19.1798 95.992 19.102 96.0309C18.8685 96.1087 18.4795 95.9141 18.4795 95.9141C18.4795 95.9141 19.0631 95.2913 19.5688 94.7463C19.919 94.396 20.1913 94.0846 20.1913 94.0457C20.2302 94.0846 19.4521 95.6416 19.2576 95.9141Z" fill="#FCC097"/>
<path d="M58.746 86.494L56.5674 88.6738L70.6119 103.388L95.0829 76.6846L93.1376 74.8161L70.6119 91.6711L58.746 86.494Z" fill="white"/>
</svg>
