<svg width="151" height="116" viewBox="0 0 151 116" fill="none" xmlns="http://www.w3.org/2000/svg">
<g opacity="0.1">
<path d="M28.7587 109.503H119.717H7.09837C3.14683 82.2515 23.0143 86.1393 18.1115 61.9403C17.5992 59.3605 17.2333 56.9261 17.0138 54.6006C16.9772 54.6006 16.9406 54.6006 16.9406 54.6006C16.1357 46.3526 17.7456 39.776 18.4773 37.3779C26.5268 11.2167 61.1027 11.9071 73.5062 29.3842C74.3843 30.6196 75.2258 31.7096 76.1039 32.6543C78.5919 35.8518 82.8728 37.9592 84.7022 38.7949V38.8676C90.8124 41.0114 96.2641 38.5769 100.764 37.6322C114.412 34.7254 131.938 40.3573 137.243 57.6891C145.366 84.2863 136.182 109.503 136.182 109.503H120.376" fill="#07BBFD"/>
</g>
<path d="M110.606 47.806H39.0762V106.487H110.606V47.806Z" fill="#6D54FC"/>
<path d="M45.0404 62.9214H42.0036C38.5277 62.9214 35.6738 60.0873 35.6738 56.6354V49.5138H51.3336V56.6354C51.3336 60.0873 48.5163 62.9214 45.0404 62.9214Z" fill="#FFCD1C"/>
<path d="M60.7006 62.9214H57.6638C54.1879 62.9214 51.334 60.0873 51.334 56.6354V49.5138H66.9938V56.6354C67.0304 60.0873 64.1765 62.9214 60.7006 62.9214Z" fill="white"/>
<path d="M76.3598 62.9214H73.3229C69.847 62.9214 66.9932 60.0873 66.9932 56.6354V49.5138H82.6896V56.6354C82.6896 60.0873 79.8357 62.9214 76.3598 62.9214Z" fill="#FFCD1C"/>
<path d="M92.0199 62.9214H88.9831C85.5072 62.9214 82.6533 60.0873 82.6533 56.6354V49.5138H98.3131V56.6354C98.3497 60.0873 95.4958 62.9214 92.0199 62.9214Z" fill="white"/>
<path d="M107.716 62.9214H104.679C101.204 62.9214 98.3496 60.0873 98.3496 56.6354V49.5138H114.009V56.6354C114.046 60.0873 111.192 62.9214 107.716 62.9214Z" fill="#FFCD1C"/>
<path d="M51.3336 49.5138L63.1151 38.5043H51.3336L35.6738 49.5138H51.3336Z" fill="#FFCD1C"/>
<path d="M82.6901 49.5138L80.385 38.5043H71.2745L67.0303 49.5138H82.6901Z" fill="#FFCD1C"/>
<path d="M67.0304 49.5138L71.2746 38.5043H61.6885L51.334 49.5138H67.0304Z" fill="#E1E1F8"/>
<path d="M98.2401 49.5138L89.9346 38.5043H101.606L113.9 49.5138H98.2401Z" fill="#FFCD1C"/>
<path d="M80.3848 38.5043L82.6898 49.5138H98.2399L89.9343 38.5043H80.3848Z" fill="#E1E1F8"/>
<path d="M82.6898 105.797H37.3203V111.465H82.6898V105.797Z" fill="#3A30C0"/>
<path d="M111.997 105.797H103.582V111.465H111.997V105.797Z" fill="#3A30C0"/>
<path d="M104.825 70.4064H82.6895V111.501H104.825V70.4064Z" fill="#3A30C0"/>
<path d="M103.801 111.501H83.6777V71.4237H103.801V111.501ZM83.7875 111.428H103.728V71.4964H83.7875V111.428Z" fill="white"/>
<path d="M79.2141 71.0967H43.5039V97.8392H79.2141V71.0967Z" fill="#CCE4FF"/>
<path d="M85.434 90.2089C85.7574 90.2089 86.0195 89.9486 86.0195 89.6275C86.0195 89.3064 85.7574 89.0461 85.434 89.0461C85.1107 89.0461 84.8486 89.3064 84.8486 89.6275C84.8486 89.9486 85.1107 90.2089 85.434 90.2089Z" fill="white"/>
<path d="M57.2977 71.0967C54.1511 74.9482 47.8213 83.2689 43.5039 89.0098V71.0967H57.2977Z" fill="#E6F7FF"/>
<path opacity="0.7" d="M73.5795 71.0967L61.981 97.8392H43.5039V93.5517L62.8591 71.0967H73.5795Z" fill="#E6F7FF"/>
<path opacity="0.7" d="M79.2137 77.4916V97.8391H67.542L79.2137 77.4916Z" fill="#E6F7FF"/>
<path d="M79.3241 98.0935H42.6992V70.4426H79.3241V98.0935ZM43.6139 97.1851H78.4094V71.351H43.6139V97.1851Z" fill="#3A30C0"/>
<path d="M78.0426 7.69226H72.2251C65.8953 7.69226 60.7363 12.8155 60.7363 19.1014C60.7363 25.3874 65.8953 30.5106 72.2251 30.5106H73.03V34.7254L77.2742 30.5106H78.0426C84.3724 30.5106 89.5313 25.3874 89.5313 19.1014C89.5313 12.8155 84.3724 7.69226 78.0426 7.69226Z" fill="#FC4E69"/>
<path d="M71.8599 18.5201L67.5059 12.6702C67.3595 12.4885 67.5059 12.2705 67.762 12.2705H71.9696C72.0794 12.2705 72.1526 12.3068 72.2257 12.3795L74.604 15.6497C74.7138 15.795 75.0065 15.795 75.1162 15.6497L77.4945 12.3795C77.5676 12.3068 77.6408 12.2705 77.7506 12.2705H81.9582C82.2144 12.2705 82.3241 12.4885 82.2144 12.6702L77.8604 18.5201C77.7872 18.5928 77.7872 18.7381 77.8604 18.8108L82.6534 25.2057C82.7998 25.3874 82.6534 25.6054 82.3973 25.6054H78.1896C78.0799 25.6054 78.0067 25.5691 77.9335 25.4964L75.1162 21.7539C75.0065 21.6086 74.7503 21.6086 74.604 21.7539L71.7867 25.4964C71.7135 25.5691 71.6403 25.6054 71.5306 25.6054H67.3229C67.0668 25.6054 66.957 25.3874 67.0668 25.2057L71.8599 18.8471C71.8965 18.7381 71.8965 18.6291 71.8599 18.5201Z" fill="white"/>
</svg>
