<svg width="152" height="110" viewBox="0 0 152 110" fill="none" xmlns="http://www.w3.org/2000/svg">
<path opacity="0.1" d="M122.965 104.62C122.965 104.62 132.686 84.9763 122.433 67.9915C78.1413 -5.35924 13.0943 42.3735 32.5678 73.872C40.601 86.8531 15.3136 89.6682 22.9092 104.651L122.965 104.62Z" fill="#07BBFD"/>
<path d="M123.402 93.9223C123.402 93.9223 100.241 97.9261 99.9593 97.7697C99.678 97.582 96.6772 84.0692 96.6772 84.0692C96.6772 84.0692 115.838 80.472 116.151 80.472C116.463 80.472 120.621 83.9441 120.683 84.1943C120.746 84.4446 123.402 93.9223 123.402 93.9223Z" fill="#EBEBFF"/>
<path d="M52.7603 97.363C52.1977 97.4256 24.1597 96.8 24.1597 96.8L26.2852 90.0749C26.2852 90.0749 30.1611 83.9441 32.2241 84.0379C34.2871 84.163 46.5088 82.0673 48.6031 83.6C50.6973 85.1327 52.6041 83.9128 53.6043 87.5725C54.6045 91.2322 55.386 91.6389 54.6045 93.8284C53.8231 96.018 52.7603 97.363 52.7603 97.363Z" fill="#EBEBFF"/>
<path d="M121.277 96.3308C121.277 101.836 116.995 106.309 111.744 106.309C106.461 106.309 102.21 101.836 102.21 96.3308C102.21 90.8256 106.492 86.3526 111.744 86.3526C116.995 86.3526 121.277 90.8256 121.277 96.3308Z" fill="#1A1A1A"/>
<path d="M118.37 96.3308C118.37 100.147 115.4 103.275 111.712 103.275C108.055 103.275 105.054 100.178 105.054 96.3308C105.054 92.5147 108.024 89.3867 111.712 89.3867C115.4 89.3867 118.37 92.5147 118.37 96.3308Z" fill="#9E9DA2"/>
<path d="M116.151 96.3308C116.151 98.8957 114.151 100.96 111.712 100.96C109.274 100.96 107.274 98.8957 107.274 96.3308C107.274 93.7659 109.274 91.7014 111.712 91.7014C114.182 91.7014 116.151 93.7659 116.151 96.3308Z" fill="#D8D9DD"/>
<path d="M47.7595 96.3308C47.7595 101.836 43.4772 106.309 38.2259 106.309C32.9434 106.309 28.6924 101.836 28.6924 96.3308C28.6924 90.8256 32.9747 86.3526 38.2259 86.3526C43.4772 86.3526 47.7595 90.8256 47.7595 96.3308Z" fill="#1A1A1A"/>
<path d="M44.8523 96.3308C44.8523 100.147 41.8829 103.275 38.1945 103.275C34.5373 103.275 31.5366 100.178 31.5366 96.3308C31.5366 92.5147 34.5061 89.3867 38.1945 89.3867C41.8829 89.3867 44.8523 92.5147 44.8523 96.3308Z" fill="#9E9DA2"/>
<path d="M42.6643 96.3308C42.6643 98.8957 40.6638 100.96 38.2257 100.96C35.7876 100.96 33.7871 98.8957 33.7871 96.3308C33.7871 93.7659 35.7876 91.7014 38.2257 91.7014C40.6638 91.7014 42.6643 93.7659 42.6643 96.3308Z" fill="#D8D9DD"/>
<path d="M16.2828 86.8531C17.0955 81.2853 19.6898 80.128 27.4105 78.5327C35.9125 76.7498 46.7276 70.963 46.7276 70.963C46.7276 70.963 65.1696 61.5166 69.7019 60.4531C74.2343 59.3583 85.3307 59.6711 94.6767 59.7649C104.023 59.8275 109.493 62.5488 114.244 66.4275C118.995 70.3062 127.216 73.2464 127.216 73.2464L128.716 73.528C130.248 73.8095 131.373 75.2171 131.373 76.8436V90.6379C131.373 92.2019 130.373 93.5782 128.935 93.9536L123.527 95.455C123.09 95.5488 122.684 95.2047 122.621 94.7355C122.027 89.1052 117.37 84.8199 111.775 84.8199C105.867 84.8199 100.991 89.9185 100.991 96.0806C100.991 96.7687 101.053 97.4569 101.178 98.145C101.303 98.8332 100.803 99.4588 100.116 99.4588H50.416C49.447 99.4588 48.6969 98.5829 48.8219 97.582C48.8844 97.1128 48.9157 96.6123 48.9157 96.1118C48.9469 90.0123 44.1958 84.945 38.3506 84.8199C32.2866 84.6948 27.3479 89.7934 27.3479 96.0806C27.3479 96.4872 27.3792 96.9251 27.4105 97.3005C27.5355 98.4578 26.6915 99.4588 25.5663 99.4588H18.4395C17.1267 99.4588 16.0952 98.364 16.0952 97.019V89.7934C16.0952 88.7611 16.1577 87.7915 16.2828 86.8531Z" fill="#FFCD1C"/>
<path d="M131.03 78.4076H125.153C124.653 78.4076 124.309 78.9393 124.497 79.4398L125.153 81.0976C125.778 82.6616 127.247 83.6938 128.873 83.6938H131.03C131.436 83.6938 131.78 83.3497 131.78 82.9118V79.1896C131.78 78.7516 131.436 78.4076 131.03 78.4076Z" fill="#FC4E69"/>
<path d="M25.6601 80.9412C22.4093 81.473 18.6896 84.6635 18.6896 84.6635C17.7832 85.6644 18.5333 87.291 19.8462 87.1971L26.1602 86.7905C27.473 86.6967 28.5983 85.7583 28.9421 84.4445C29.5673 82.2237 29.0359 80.4095 25.6601 80.9412Z" fill="white"/>
<path d="M131.311 91.0758C131.717 91.0758 131.999 91.4825 131.842 91.8891C131.405 93.0152 130.498 93.8597 129.342 94.2038L123.309 95.8616C122.809 95.9555 122.371 95.5801 122.309 95.0796C122.184 94.0161 121.965 92.9839 121.59 92.0142C121.465 91.7014 121.684 91.3261 122.027 91.3261L131.311 91.0758Z" fill="#EAB054"/>
<path d="M27.3168 93.672C27.7857 93.672 28.1295 94.0787 28.067 94.5479C28.0045 95.0796 27.9732 95.6114 27.9732 96.1744C27.9732 96.6436 28.0045 97.0815 28.0358 97.5507C28.1608 98.8332 27.2231 99.928 26.004 99.928H18.0646C16.6267 99.928 15.4702 98.7081 15.4702 97.2066V95.0796C15.4702 94.4853 15.9391 93.9848 16.5017 93.9536L27.3168 93.672Z" fill="#DDA905"/>
<path d="M44.7275 74.2787L44.7901 74.4664C44.8213 74.5602 49.6662 84.8512 49.7913 94.7355V94.9858L78.9546 94.3915H79.2046H79.4547L100.397 93.8284L100.429 93.6095C100.429 93.5782 100.679 90.8569 102.648 88.2919C105.242 84.8825 110.931 83.2872 116.714 83.6313H116.933L118.933 73.8408L118.839 73.7469C118.527 73.4028 109.868 64.9261 104.179 63.0806C98.5218 61.2351 80.1111 61.6417 79.2359 61.673C78.8921 61.6417 71.2027 61.2976 64.326 64.6446C57.3556 68.0228 45.0401 74.091 44.9151 74.1536L44.7275 74.2787ZM79.486 93.891V62.236C81.7365 62.2047 98.8031 61.9232 104.054 63.6123C109.306 65.3327 117.558 73.0588 118.402 74.0284L116.557 83.0995C109.118 82.7242 104.117 85.5393 102.241 87.9791C100.522 90.2626 100.053 92.5773 99.9597 93.2967L79.486 93.891ZM45.3214 74.5602C46.728 73.7469 58.0745 68.3043 64.5136 65.1763C70.7338 62.1735 77.6105 62.2047 78.9858 62.2673V93.9536L50.2914 94.5479C50.1038 85.3829 45.7278 76.0303 45.3214 74.5602Z" fill="#DDA905"/>
<path d="M48.478 96.7374C48.478 96.1744 48.4468 95.6114 48.353 95.0796C48.2592 94.4227 48.7281 93.8284 49.3532 93.8284L101.022 92.5147C101.585 92.5147 101.991 93.0464 101.835 93.6407C101.553 94.6417 101.428 95.6739 101.428 96.7374C101.428 97.4569 101.491 98.145 101.616 98.8332C101.741 99.5526 101.241 100.178 100.553 100.178H49.9784C48.9781 100.178 48.228 99.2711 48.353 98.2388C48.4468 97.7384 48.478 97.2379 48.478 96.7374Z" fill="#DDA905"/>
<path d="M106.055 79.3147H112.462C112.619 79.3147 112.744 79.1896 112.744 79.0332V78.4389C112.744 78.2825 112.619 78.1573 112.462 78.1573H106.055C105.898 78.1573 105.773 78.2825 105.773 78.4389V79.0332C105.742 79.1896 105.867 79.3147 106.055 79.3147Z" fill="#DDA905"/>
<path d="M70.5148 79.3147H76.9226C77.0789 79.3147 77.204 79.1896 77.204 79.0332V78.4389C77.204 78.2825 77.0789 78.1573 76.9226 78.1573H70.5148C70.3585 78.1573 70.2335 78.2825 70.2335 78.4389V79.0332C70.2023 79.1896 70.3585 79.3147 70.5148 79.3147Z" fill="#DDA905"/>
<path d="M112.431 75.4986L82.9554 75.7801C82.9554 75.7801 81.205 75.7175 80.9549 74.0284C80.7049 72.308 80.7361 64.9573 80.7361 64.9573C80.7361 64.9573 80.9549 63.4872 82.299 63.4559C83.1117 63.4559 90.0196 62.9242 96.74 63.7687C102.21 64.4569 108.18 67.0843 112.025 71.0881L114.057 73.2152C114.088 73.2152 115.432 75.4673 112.431 75.4986Z" fill="#EBEBFF"/>
<path d="M77.5791 65.8644V73.5592C77.5791 74.5602 76.8289 75.3734 75.9224 75.436L52.2605 76.437C51.7603 76.4682 51.229 76.218 50.9476 75.7488C50.5413 75.1232 50.51 74.1223 52.5105 72.746C56.0114 70.3687 66.1388 65.1763 69.4209 64.6758C71.5151 64.363 74.2658 64.2066 75.985 64.1753C76.8602 64.1441 77.5791 64.9261 77.5791 65.8644Z" fill="#EBEBFF"/>
<g opacity="0.45">
<path d="M43.3833 45.2512L42.0392 43.8749C42.0392 43.8749 41.5391 42.8739 42.5081 42.5299C43.477 42.1858 44.8211 43.6559 44.8211 43.6559C44.8211 43.6559 42.383 43.3431 43.3833 45.2512Z" fill="#00D495"/>
<path d="M106.93 62.1109L105.023 61.9232C105.023 61.9232 103.992 61.4853 104.492 60.6095C104.992 59.7337 106.961 60.0152 106.961 60.0152C106.961 60.0152 104.992 61.3289 106.93 62.1109Z" fill="#00D495"/>
<path d="M79.7983 24.8882L80.8298 23.2616C80.8298 23.2616 81.6738 22.5422 82.2364 23.418C82.7991 24.2938 81.6738 25.8891 81.6738 25.8891C81.6738 25.8891 81.3925 23.4806 79.7983 24.8882Z" fill="#00D495"/>
<path d="M46.603 52.4142L47.6658 54.0408C47.6658 54.0408 49.0411 55.636 49.4787 54.9166C49.4787 54.9166 48.7285 54.072 48.4785 53.2275C48.4785 53.2588 47.2907 53.1649 46.603 52.4142Z" fill="#00D495"/>
<path d="M102.085 50.2246L103.054 47.5659C103.054 47.5659 103.742 44.6256 102.523 44.6881C102.523 44.6881 102.179 46.2834 101.429 47.2844C101.429 47.3156 102.335 48.7858 102.085 50.2246Z" fill="#00D495"/>
<path d="M91.5827 50.1308C91.5827 50.1308 89.3634 49.036 89.801 50.5062C89.801 50.5062 89.0195 49.2237 89.0195 47.7848C89.0195 47.7848 89.4884 46.4085 90.895 47.7848C90.8637 47.8161 90.5512 48.3166 91.5827 50.1308Z" fill="#00D495"/>
<path d="M84.2684 82.0047C84.2684 82.0047 84.6122 79.5649 85.6124 80.7535C85.6124 80.7535 85.0186 79.3772 83.7995 78.564C83.7995 78.564 82.3929 78.1261 82.7367 80.128C82.768 80.0967 83.3619 80.0967 84.2684 82.0047Z" fill="#00D495"/>
<path d="M57.6367 45.3138L59.6997 44.6882L61.9503 42.2484L59.3246 42.4986L57.6367 45.3138Z" fill="#00D495"/>
<path d="M43.5083 68.0228L45.6338 68.7422L48.7908 67.9915L46.5403 66.6777L43.5083 68.0228Z" fill="#00D495"/>
<path d="M93.8955 32.1137L95.5522 33.6152L98.7717 34.272L97.2401 32.1137H93.8955Z" fill="#00D495"/>
<path d="M49.8223 40.6844C49.8223 40.6844 50.9163 40.9971 50.8225 41.4351C50.8225 41.4351 52.5104 40.5905 53.2606 40.6531C53.2293 40.6531 51.3539 38.7137 49.8223 40.6844Z" fill="#00D495"/>
<path d="M49.2284 41.7479C49.2284 41.7479 48.8845 40.309 50.2286 39.8085C51.5727 39.3081 52.5729 40.09 53.2606 40.6531C53.2606 40.6531 51.0413 38.8076 51.1351 40.9346C51.1038 40.9346 49.1971 40.7782 49.2284 41.7479Z" fill="#00D495"/>
<path d="M86.3311 61.7043C86.3311 61.7043 87.4251 61.3915 87.3313 60.9536C87.3313 60.9536 89.0192 61.7981 89.7694 61.7355C89.7381 61.7355 87.8627 63.6749 86.3311 61.7043Z" fill="#00D495"/>
<path d="M85.7371 60.6407C85.7371 60.6407 85.3933 62.0796 86.7374 62.5801C88.0815 63.0806 89.0817 62.2986 89.7694 61.7355C89.7694 61.7355 87.5501 63.581 87.6439 61.454C87.6126 61.454 85.7059 61.5791 85.7371 60.6407Z" fill="#00D495"/>
<path d="M74.6722 47.0028L73.1406 46.0332L73.2344 43.5621L75.5787 44.3441L74.6722 47.0028Z" fill="#00D495"/>
<path d="M46.603 30.0493L48.2909 29.2986L50.2602 30.8313L48.2909 32.3014L46.603 30.0493Z" fill="#00D495"/>
<path d="M55.386 61.7043L54.3857 60.1716L55.5735 57.982L57.324 59.6711L55.386 61.7043Z" fill="#00D495"/>
<path d="M61.6377 33.5526H63.982L61.6377 31.8635H59.6685L61.6377 33.5526Z" fill="#00D495"/>
<path d="M98.3652 72.1517L100.272 72.6209L98.0526 73.528L96.4897 73.1526L98.3652 72.1517Z" fill="#00D495"/>
<path d="M62.5752 18.5071L64.0756 19.7583L61.7 19.6019L60.4497 18.5697L62.5752 18.5071Z" fill="#00D495"/>
<path d="M90.3945 35.3355L91.8949 36.5554L89.5506 36.3678L88.3628 35.3981L90.3945 35.3355Z" fill="#00D495"/>
<path d="M63.6694 57.982H61.7939L63.6694 56.6057H65.2323L63.6694 57.982Z" fill="#00D495"/>
<path d="M39.4136 53.6967L40.7577 55.1043L38.4134 54.6351L37.2881 53.509L39.4136 53.6967Z" fill="#00D495"/>
<path d="M80.0174 40.4967C80.0174 40.4967 79.5485 39.3706 81.674 40.4967C81.674 40.4967 81.3927 39.9024 82.518 39.3706C83.2682 39.0265 83.487 38.6199 83.2994 37.9943C83.2994 37.9943 82.9243 37.1498 81.3615 37.7441C81.3615 37.7441 81.8303 38.0882 81.3302 38.4948C80.8926 38.8389 79.4548 39.3393 80.0174 40.4967Z" fill="#00D495"/>
<path d="M89.5819 89.8559C89.5819 89.8559 88.5192 89.418 90.5509 88.0417C90.5509 88.0417 89.8632 88.0104 89.957 86.7593C89.9883 85.9147 89.7382 85.6019 89.1131 85.4142C89.1131 85.4142 88.2066 85.3829 87.9878 87.0095C87.9878 87.0095 88.5192 86.7593 88.6129 87.3848C88.6755 88.0104 88.2691 89.8247 89.5819 89.8559Z" fill="#00D495"/>
<path d="M84.2057 46.7839C84.4992 46.7839 84.7371 46.5458 84.7371 46.2521C84.7371 45.9585 84.4992 45.7204 84.2057 45.7204C83.9122 45.7204 83.6743 45.9585 83.6743 46.2521C83.6743 46.5458 83.9122 46.7839 84.2057 46.7839Z" fill="#00D495"/>
<path d="M73.1092 56.5431C73.7824 56.5431 74.3282 55.997 74.3282 55.3232C74.3282 54.6495 73.7824 54.1033 73.1092 54.1033C72.4359 54.1033 71.8901 54.6495 71.8901 55.3232C71.8901 55.997 72.4359 56.5431 73.1092 56.5431Z" fill="#00D495"/>
<path d="M85.5497 55.2919C86.3265 55.2919 86.9562 54.6617 86.9562 53.8844C86.9562 53.107 86.3265 52.4768 85.5497 52.4768C84.7728 52.4768 84.1431 53.107 84.1431 53.8844C84.1431 54.6617 84.7728 55.2919 85.5497 55.2919Z" fill="#00D495"/>
<path d="M54.3861 27.4844L56.3241 27.7033L54.5736 26.0768L52.9795 25.8891L54.3861 27.4844Z" fill="#00D495"/>
<path d="M51.3852 78.3137L52.1667 76.5621L50.1662 77.782L49.5098 79.1896L51.3852 78.3137Z" fill="#00D495"/>
<path d="M91.4575 26.5147L92.6766 24.982L90.3635 25.6701L89.4258 26.8901L91.4575 26.5147Z" fill="#00D495"/>
<path d="M82.6114 94.454L84.0805 95.7052L83.4866 93.4531L82.2988 92.4208L82.6114 94.454Z" fill="#00D495"/>
</g>
<path d="M58.7931 29.9555C58.3555 34.6474 63.2004 35.5232 63.2004 35.5232C63.3254 35.5858 63.5755 36.1488 63.8881 36.4929C65.2009 37.9943 67.2014 39.0578 69.0768 38.4635C71.2336 40.528 74.9533 39.8711 76.141 37.6815C78.1728 37.6502 78.9855 36.055 79.4231 34.0218C81.236 32.0512 79.8607 28.4228 77.6101 27.109C76.4849 26.4521 75.047 26.2957 73.7655 26.7024C72.3276 24.8256 69.7645 24.3564 67.6702 25.5138C64.3257 21.6664 59.262 25.0446 58.7931 29.9555Z" fill="#1A1A1A"/>
<path d="M86.0808 84.163C85.9558 86.29 85.5807 88.1981 85.5182 88.4171C85.4869 88.5109 85.1431 88.9488 85.1118 89.0739C85.6432 91.5763 87.3624 92.8588 88.9252 93.7346C88.4564 92.5147 87.5812 91.1384 87.6437 90.8256C87.7374 90.3564 88.05 88.2294 88.894 85.4768C87.6749 85.4768 87.1436 84.7886 86.0808 84.163Z" fill="#784020"/>
<path d="M80.1732 53.6654L72.6714 59.7649C72.6714 59.7649 76.4536 63.4872 77.8914 64.8948C79.298 66.2711 86.456 71.2758 86.581 71.6199C86.6123 71.6825 86.2372 72.4332 86.1121 73.4028C85.7996 75.9678 85.4557 80.9725 85.3307 85.2578C86.1434 86.1024 87.8938 86.3213 88.9253 86.5716C91.4884 81.3166 92.4262 71.2133 92.4262 69.9934C92.3949 67.9915 80.1732 53.6654 80.1732 53.6654Z" fill="#5854EA"/>
<path d="M58.2616 66.928C58.5429 67.1157 60.8559 69.9934 61.8562 71.6199C62.6064 70.8066 63.0127 69.9934 63.9192 69.3678C62.8877 68.3668 60.6996 65.8645 60.4496 65.2076C59.7932 63.6749 59.3868 63.5185 59.3868 63.5185C59.3868 63.5185 54.6044 66.5839 54.3544 67.1782C54.1356 67.7412 57.0738 66.146 58.2616 66.928Z" fill="#784020"/>
<path d="M60.5745 65.5204C60.9809 65.4266 60.1369 63.6123 59.9494 63.2057C59.7306 62.7365 59.418 62.6427 59.3555 62.6427C59.168 62.6427 53.8542 66.0521 53.0102 67.0218C52.9477 67.0844 52.8852 67.2721 52.8539 67.3033C52.5414 68.4607 57.355 67.5536 57.9177 66.928C58.4803 66.3962 58.7929 65.9583 60.5745 65.5204Z" fill="#1A1A1A"/>
<path d="M81.8299 55.4483L74.6719 52.4142C74.7031 52.4142 74.6406 52.6957 74.6406 52.727C73.5779 55.1668 71.0773 55.073 69.9207 59.0142C69.0143 62.1109 69.5144 72.5583 69.5144 72.5583C69.5144 72.5583 66.4199 70.3062 63.1691 67.8976C62.8878 67.6787 60.5435 70.2749 60.5435 70.2749C64.9508 77.6881 71.7962 80.5346 72.6714 80.1905C75.6409 79.0332 80.0169 59.1393 80.0169 59.1393C80.5796 57.9194 81.8299 55.4483 81.8299 55.4483Z" fill="#6F64FF"/>
<path d="M71.0773 38.7138C71.0773 38.7138 62.9503 37.0872 61.1374 36.837C59.3244 36.5867 53.0104 34.5536 52.7603 34.4597C52.5103 34.3659 51.5413 31.0815 51.1975 31.3318C50.8536 31.582 51.7914 32.9896 51.3538 33.2085C50.9161 33.4275 47.1027 31.8635 47.1027 32.1763C47.0715 32.7706 49.3845 33.2398 49.322 33.4901C49.2595 33.7716 46.9464 32.7706 46.6651 33.2085C46.3838 33.6152 48.9469 33.928 49.0094 34.1469C49.072 34.3659 46.5713 34.2095 46.7276 34.6787C46.8214 34.9289 48.9469 34.7725 48.8531 35.0853C48.7594 35.3981 47.134 35.7735 47.259 36.0863C47.384 36.3678 48.5718 35.5858 49.4158 35.7422C50.2597 35.9299 50.9787 35.5858 52.229 36.3052C53.4793 36.9934 57.6678 39.9962 60.5747 40.4967C63.4817 40.9972 69.9207 42.1545 69.9207 42.1545L71.0773 38.7138Z" fill="#784020"/>
<path d="M80.4546 37.8379C80.4546 37.8379 83.5491 30.1431 84.2993 28.4853C85.0807 26.8275 86.8311 20.4152 86.8937 20.1649C86.9562 19.9147 84.7369 17.2872 85.1432 17.1308C85.5496 16.9744 86.206 18.5384 86.6123 18.2882C87.0187 18.0379 87.8001 14.0028 88.0814 14.1592C88.6128 14.472 87.7063 16.6616 87.9564 16.7555C88.2377 16.8493 88.6753 14.3782 89.1755 14.3782C89.6756 14.3782 88.519 16.6929 88.6753 16.8493C88.8316 17.0057 90.0507 14.8474 90.3632 15.2228C90.5508 15.4417 89.238 17.1308 89.5505 17.2559C89.8631 17.3498 91.0822 16.2237 91.2385 16.4739C91.426 16.7242 90.0819 17.2872 89.7693 18.1005C89.4568 18.9137 88.8004 19.3204 88.6753 20.7592C88.5816 22.1981 88.8004 27.328 87.6438 30.0493C86.4873 32.7706 83.9242 38.8076 83.9242 38.8076L80.4546 37.8379Z" fill="#784020"/>
<path d="M82.8927 47.0654C82.9865 45.6265 83.1428 41.7791 83.0802 41.31C83.4866 39.8085 84.9557 37.5877 85.2683 36.9621C85.2683 36.9621 83.2053 34.5536 81.6737 34.5848C81.6737 34.5848 80.0795 36.7431 78.8917 37.4C78.8605 37.4 78.4541 37.5877 78.2978 37.5877C77.1413 37.5877 73.1091 37.4938 72.3276 37.7441L72.8278 44.2815C73.0466 44.6569 73.3904 52.164 73.828 52.7896C74.2969 53.4152 80.8297 56.1678 81.8925 55.4171C81.955 55.4171 82.7052 49.9744 82.8927 47.0654Z" fill="#FC4E69"/>
<path d="M74.422 37.8692C74.2345 37.7754 73.7969 37.6815 73.203 37.6815C71.3588 37.6815 68.2643 37.619 68.2643 37.619C68.2643 37.619 67.5453 41.5602 68.1705 42.4986C68.1705 42.4986 73.0154 43.218 72.8591 43.6246L74.422 37.8692Z" fill="#FC4E69"/>
<path d="M75.6411 35.2417C75.6411 35.2417 76.0787 37.4938 76.0162 38.401C75.9537 39.3081 76.36 42.1858 78.173 42.1545C79.9859 42.1545 78.4856 38.4948 78.298 37.619C78.1105 36.7431 78.0479 34.0218 78.0479 34.0218L75.6411 35.2417Z" fill="#784020"/>
<path d="M78.1105 35.3981C78.0792 34.6474 78.0479 34.0218 78.0479 34.0218L75.6411 35.2417C75.6411 35.2417 75.7349 35.7109 75.8287 36.3052C76.8914 36.4929 77.6416 36.0863 78.1105 35.3981Z" fill="#512712"/>
<path d="M74.7031 28.9858C74.7031 28.9858 73.7654 29.5488 73.4528 30.7062C73.109 31.8948 73.5466 34.9289 75.9534 35.6171C78.3915 36.3365 79.3918 33.8967 78.8916 32.0512C78.3603 30.1744 77.2663 27.8284 74.7031 28.9858Z" fill="#784020"/>
<path d="M79.1731 31.3318C79.1418 31.8322 78.8605 32.2389 78.5792 32.2076C78.2979 32.1763 78.1103 31.7384 78.1416 31.2379C78.1728 30.7374 78.4542 30.3308 78.7355 30.3621C79.0168 30.3934 79.2043 30.8313 79.1731 31.3318Z" fill="#784020"/>
<path d="M85.4871 88.4796C85.2996 88.1043 83.9242 89.5744 83.5804 89.8872C83.2053 90.2313 83.2053 90.5754 83.2366 90.6379C83.2991 90.8256 87.8002 95.3299 89.0192 95.8616C89.1442 95.9242 89.363 95.8929 89.4256 95.8616C90.0195 95.5175 88.4878 91.5763 87.5501 90.8569C86.9875 90.3564 86.3936 90.1687 85.4871 88.4796Z" fill="#1A1A1A"/>
<path d="M74.9844 28.8294C74.9844 28.8294 74.5781 32.2076 73.5466 32.8332C72.5151 33.4588 72.9527 34.9602 72.9527 34.9602C72.9527 34.9602 71.9837 31.4882 72.7964 30.3621C73.5778 29.236 74.9844 28.8294 74.9844 28.8294Z" fill="#1A1A1A"/>
<path d="M74.1404 33.3337C74.4218 33.7716 74.4218 34.3033 74.1404 34.491C73.8591 34.71 73.3903 34.491 73.1089 34.0531C72.8276 33.6152 72.8276 33.0834 73.1089 32.8957C73.3903 32.7081 73.8591 32.8957 74.1404 33.3337Z" fill="#784020"/>
<path d="M129.486 50.9573C129.486 50.9573 127.171 50.0276 131.57 47.0061C131.57 47.0061 130.103 46.9286 130.258 44.2169C130.335 42.3575 129.795 41.6602 128.406 41.2729C128.406 41.2729 126.4 41.1954 125.937 44.7593C125.937 44.7593 127.094 44.2169 127.325 45.6115C127.557 47.0061 126.708 50.8798 129.486 50.9573Z" fill="#6D54FC"/>
<path d="M129.081 68.5979L132.244 71.3096L131.01 66.3511L128.386 64.1818L129.081 68.5979Z" fill="#00D495"/>
<path d="M13.285 48.4771L10.3501 45.4704C10.3501 45.4704 9.26877 43.3118 11.3541 42.5409C13.4395 41.7699 16.3744 45.0079 16.3744 45.0079C16.3744 45.0079 11.1224 44.3911 13.285 48.4771Z" fill="#FFCD1C"/>
<path d="M151.923 85.1739L147.752 84.7885C147.752 84.7885 145.512 83.8633 146.594 81.936C147.675 80.0087 152 80.6254 152 80.6254C152 80.6254 147.598 83.4779 151.923 85.1739Z" fill="#6D54FC"/>
<path d="M92.605 4.14859L94.8448 0.602294C94.8448 0.602294 96.6985 -0.939577 97.9342 0.910666C99.17 2.76091 96.6985 6.30721 96.6985 6.30721C96.6985 6.30721 96.1578 1.06485 92.605 4.14859Z" fill="#6D54FC"/>
<path d="M20.2344 64.0495L22.5514 67.5958C22.5514 67.5958 25.5636 71.065 26.4904 69.5231C26.4904 69.5231 24.8685 67.6729 24.3279 65.8226C24.4051 65.8997 21.7791 65.6684 20.2344 64.0495Z" fill="#FFCD1C"/>
<path d="M141.341 59.2718L143.426 53.4898C143.426 53.4898 144.893 47.091 142.267 47.2452C142.267 47.2452 141.495 50.7144 139.873 52.873C139.873 52.9501 141.881 56.1881 141.341 59.2718Z" fill="#FC4E69"/>
<path d="M118.402 59.1933C118.402 59.1933 113.536 56.8034 114.54 60.0413C114.54 60.0413 112.841 57.266 112.841 54.1051C112.841 54.1051 113.845 51.0985 116.935 54.1051C116.858 54.1051 116.085 55.1844 118.402 59.1933Z" fill="#FFCD1C"/>
<path d="M6.71413 99.56C6.71413 99.56 7.48649 94.2406 9.64908 96.8617C9.64908 96.8617 8.33607 93.8551 5.71007 92.0819C5.71007 92.0819 2.62065 91.1568 3.393 95.4741C3.393 95.397 4.70601 95.397 6.71413 99.56Z" fill="#FC4E69"/>
<path d="M44.2549 48.7098L48.889 47.3221L53.7548 42.0026L48.0394 42.4652L44.2549 48.7098Z" fill="#6F6F6F"/>
<path d="M13.5156 98.1269L18.1498 99.5917L25.1009 97.9727L20.1579 95.1203L13.5156 98.1269Z" fill="#6F6F6F"/>
<path d="M123.498 19.8753L127.051 23.1903L134.079 24.578L130.758 19.8753H123.498Z" fill="#FFCD1C"/>
<path d="M27.2637 38.6135C27.2637 38.6135 29.658 39.3073 29.4263 40.2325C29.4263 40.2325 33.1336 38.3822 34.7555 38.5364C34.7555 38.4593 30.662 34.2192 27.2637 38.6135Z" fill="#6D54FC"/>
<path d="M26.0279 40.8482C26.0279 40.8482 25.2555 37.6874 28.1905 36.6081C31.1254 35.5288 33.288 37.2249 34.8327 38.4584C34.8327 38.4584 29.9669 34.4495 30.1986 39.0751C30.1214 39.1522 25.9506 38.7667 26.0279 40.8482Z" fill="#6D54FC"/>
<path d="M106.893 84.2484C106.893 84.2484 109.287 83.5546 109.055 82.6295C109.055 82.6295 112.762 84.4797 114.384 84.3255C114.384 84.3255 110.291 88.5656 106.893 84.2484Z" fill="#FFCD1C"/>
<path d="M105.657 81.9364C105.657 81.9364 104.885 85.0972 107.82 86.1765C110.755 87.2559 112.917 85.5598 114.462 84.3263C114.462 84.3263 109.596 88.3352 109.828 83.7096C109.751 83.7096 105.58 84.0179 105.657 81.9364Z" fill="#FFCD1C"/>
<path d="M20.313 15.4063L23.9431 13.8644L28.191 17.1023L23.8658 20.2632L20.313 15.4063Z" fill="#FC4E69"/>
<path d="M39.4683 84.2497L37.3057 80.9347L39.8544 76.1549L43.7162 79.9325L39.4683 84.2497Z" fill="#FC4E69"/>
<path d="M52.9837 23.038H58.2357L52.9837 19.3375H48.813L52.9837 23.038Z" fill="#FFCD1C"/>
<path d="M133.231 107.07L137.325 108.073L132.536 110L129.138 109.152L133.231 107.07Z" fill="#6F6F6F"/>
<path d="M115.853 26.8902L119.097 29.5114L113.999 29.203L111.373 27.0444L115.853 26.8902Z" fill="#FFCD1C"/>
<path d="M57.5408 76.1547H53.3701L57.5408 73.1481H60.9392L57.5408 76.1547Z" fill="#FFCD1C"/>
<path d="M4.63413 66.8261L7.49184 69.9098L2.3943 68.9847L0 66.4406L4.63413 66.8261Z" fill="#6D54FC"/>
<path d="M102.26 51.7942C102.899 51.7942 103.418 51.2764 103.418 50.6378C103.418 49.9991 102.899 49.4814 102.26 49.4814C101.62 49.4814 101.101 49.9991 101.101 50.6378C101.101 51.2764 101.62 51.7942 102.26 51.7942Z" fill="#FFCD1C"/>
<path d="M105.272 70.3726C106.978 70.3726 108.361 68.992 108.361 67.2889C108.361 65.5858 106.978 64.2051 105.272 64.2051C103.566 64.2051 102.183 65.5858 102.183 67.2889C102.183 68.992 103.566 70.3726 105.272 70.3726Z" fill="#FFCD1C"/>
<path d="M37.228 9.77778L41.476 10.3174L37.6914 6.77114L34.2158 6.30858L37.228 9.77778Z" fill="#FFCD1C"/>
<path d="M69.4699 4.66876L71.1691 0.814087L66.6895 3.43527L65.3765 6.51901L69.4699 4.66876Z" fill="#FFCD1C"/>
<path d="M118.171 7.69481L120.797 4.37979L115.776 5.84457L113.614 8.54284L118.171 7.69481Z" fill="#FC4E69"/>
</svg>
