<svg width="114" height="108" viewBox="0 0 114 108" fill="none" xmlns="http://www.w3.org/2000/svg">
<g opacity="0.1">
<path d="M16.3478 86.7769C34.6726 106.06 62.1828 112.36 85.8717 101.425C94.0251 97.6609 112.314 78.0218 111.926 63.3281C111.921 63.048 111.911 62.7678 111.895 62.4826C110.741 33.9152 93.126 19.1044 84.1756 14.0367C71.8944 7.07947 54.0089 10.446 47.7917 21.5338C43.7507 28.7406 38.8975 28.542 34.4683 28.8119C30.039 29.0869 6.7486 33.0035 2.91199 49.5766C-0.653861 64.9783 6.49317 76.4073 16.3478 86.7769Z" fill="#00BDFF"/>
</g>
<path d="M98.5666 94.386H17.6248C13.6758 94.386 10.4727 91.1926 10.4727 87.2556V70.9118C10.4727 66.9748 13.6758 63.7814 17.6248 63.7814H98.5666C102.516 63.7814 105.719 66.9748 105.719 70.9118V87.2556C105.719 91.1926 102.516 94.386 98.5666 94.386Z" fill="#6F64FF"/>
<path d="M96.7631 92.5881H19.428C15.479 92.5881 12.2759 89.3947 12.2759 85.4577V72.7096C12.2759 68.7726 15.479 65.5792 19.428 65.5792H96.7631C100.712 65.5792 103.915 68.7726 103.915 72.7096V85.4577C103.915 89.3947 100.712 92.5881 96.7631 92.5881Z" fill="white"/>
<mask id="mask0_2018_5059" style="mask-type:luminance" maskUnits="userSpaceOnUse" x="12" y="65" width="93" height="10">
<path d="M104.018 65.5844H12.0361V74.0135H104.018V65.5844Z" fill="white"/>
</mask>
<g mask="url(#mask0_2018_5059)">
<path d="M96.7636 92.5881H19.4285C15.4795 92.5881 12.2764 89.3947 12.2764 85.4577V72.7096C12.2764 68.7726 15.4795 65.5792 19.4285 65.5792H96.7636C100.713 65.5792 103.916 68.7726 103.916 72.7096V85.4577C103.916 89.3947 100.713 92.5881 96.7636 92.5881Z" fill="#00BDFF"/>
</g>
<path d="M22.7027 76.6365C24.6185 76.6365 26.3656 77.0286 27.8931 78.2357L26.4014 80.1813C25.2928 79.4377 24.0208 79.1678 22.7078 79.1678C20.1637 79.1678 18.907 80.8383 18.907 83.2626C18.907 85.687 20.1637 87.3575 22.7078 87.3575C23.5354 87.3575 24.3682 87.2506 25.1038 86.8788V84.5767H22.6721V82.1371H27.8165V88.4016C26.4218 89.5832 24.4908 89.8888 22.7078 89.8888C18.5902 89.8888 15.898 87.4034 15.898 83.2626C15.8878 79.1219 18.5851 76.6365 22.7027 76.6365Z" fill="#6F64FF"/>
<path d="M39.3569 76.9879V79.5192H32.92V81.8722H38.9789V84.4035H32.9251V87.0112H39.4489V89.5425H30.0029V76.993H39.3569V76.9879Z" fill="#6F64FF"/>
<path d="M41.5537 89.5374V76.9879H45.2575L50.1567 85.3559V76.9879H53.0789V89.5374H49.3751L44.4759 81.1694V89.5374H41.5537Z" fill="#6F64FF"/>
<path d="M58.9077 80.3596L62.6984 76.9879H65.0228V89.5374H62.1006V81.0828L60.7315 82.2797L58.9077 80.3596Z" fill="#6F64FF"/>
<path d="M68.2059 86.3287C69.3553 87.0468 70.7244 87.3626 72.068 87.3626C72.962 87.3626 74.4997 87.276 74.4997 86.0588C74.4997 84.9536 72.7372 84.7091 71.9352 84.5359C69.6874 84.047 67.1841 83.0844 67.1841 80.385C67.1841 77.5838 69.6056 76.6365 72.0629 76.6365C73.7488 76.6365 75.5215 76.9522 76.9417 77.8945L75.5215 79.9521C74.3874 79.3919 73.3196 79.1627 72.0629 79.1627C71.2557 79.1627 70.142 79.3562 70.142 80.3799C70.142 81.4851 71.6593 81.7551 72.4869 81.9384C74.7858 82.4528 77.4577 83.2168 77.4577 86.0537C77.4577 89.1096 74.6224 89.8888 72.068 89.8888C70.1625 89.8888 68.3182 89.5629 66.7856 88.3813L68.2059 86.3287Z" fill="#6F64FF"/>
<path d="M83.9045 76.6365C86.469 76.6365 88.487 77.8435 88.487 80.6091C88.487 82.2084 87.3171 83.3645 86.2494 84.4188L83.5877 87.0112H88.538V89.5425H79.1994V87.5663L84.3796 82.5241C84.87 82.0403 85.5648 81.3527 85.5648 80.6142C85.5648 79.616 84.8343 79.1678 83.9045 79.1678C82.709 79.1678 82.096 79.8757 81.6464 80.8842L79.041 80.0081C79.7511 77.8028 81.6056 76.6365 83.9045 76.6365Z" fill="#6F64FF"/>
<path d="M92.6355 86.1709C93.1514 87.0825 94.1476 87.3627 95.1387 87.3627C96.0889 87.3627 97.315 87.1182 97.315 85.9366C97.315 84.2762 94.7249 84.3628 93.5397 84.3628V81.9232C94.6483 81.9232 96.9625 81.9079 96.9625 80.329C96.9625 79.3664 95.8897 79.1729 95.1387 79.1729C94.2702 79.1729 93.4631 79.4276 92.988 80.1864L90.3825 79.3104C91.154 77.4107 93.2076 76.6416 95.1387 76.6416C97.4632 76.6416 99.8898 77.6551 99.8898 80.3239C99.8898 81.6176 99.1286 82.5649 97.9332 83.0182C99.3636 83.4409 100.242 84.3934 100.242 85.9315C100.242 88.804 97.6522 89.8889 95.1438 89.8889C92.942 89.8889 90.8679 89.2675 90.0352 87.0418L92.6355 86.1709Z" fill="#6F64FF"/>
<path d="M48.8643 71.7369V68.2124H50.5348C51.1938 68.2124 51.8784 68.3754 51.8784 69.1546C51.8784 69.5112 51.6229 69.8015 51.2756 69.8728C51.6996 69.9594 52.0061 70.2293 52.0061 70.6826C52.0061 71.4924 51.2807 71.742 50.5808 71.742H48.8643V71.7369ZM50.5501 69.5977C50.7953 69.5977 51.0457 69.5417 51.0457 69.2463C51.0457 68.9509 50.8004 68.8949 50.5501 68.8949H49.6816V69.5926H50.5501V69.5977ZM49.6868 71.0544H50.5552C50.8566 71.0544 51.1632 71.0238 51.1632 70.6571C51.1632 70.2904 50.8566 70.2598 50.5552 70.2598H49.6868V71.0544Z" fill="white"/>
<path d="M52.5425 71.7369V68.2124H54.1262C54.8874 68.2124 55.5157 68.5842 55.5157 69.4042C55.5157 69.8881 55.2501 70.2344 54.8107 70.4177L55.5515 71.7369H54.6728L53.9933 70.5247H53.365V71.7369H52.5425ZM53.365 69.888H54.1262C54.448 69.888 54.6881 69.7505 54.6881 69.4042C54.6881 69.0579 54.4531 68.9204 54.1262 68.9204H53.365V69.888Z" fill="white"/>
<path d="M57.3346 68.2124H58.1469L59.608 71.7369H58.7242L58.4534 71.0442H57.0281L56.7573 71.7369H55.8735L57.3346 68.2124ZM57.2989 70.3617H58.1827L57.7433 69.2463L57.2989 70.3617Z" fill="white"/>
<path d="M60.282 70.8354C60.6038 71.0392 60.9921 71.1257 61.365 71.1257C61.6154 71.1257 62.0496 71.1003 62.0496 70.759C62.0496 70.4483 61.5541 70.3821 61.3293 70.3312C60.6958 70.1937 59.9959 69.9238 59.9959 69.1649C59.9959 68.3805 60.6754 68.1106 61.365 68.1106C61.8401 68.1106 62.3357 68.1972 62.7342 68.4671L62.3357 69.0426C62.0189 68.8848 61.7175 68.8236 61.365 68.8236C61.1403 68.8236 60.8235 68.8797 60.8235 69.1649C60.8235 69.4756 61.2527 69.552 61.4825 69.6029C62.1262 69.7455 62.8772 69.9594 62.8772 70.759C62.8772 71.6147 62.0803 71.8337 61.365 71.8337C60.8286 71.8337 60.3127 71.742 59.8784 71.411L60.282 70.8354Z" fill="white"/>
<path d="M63.3984 68.2124H64.2209V71.7369H63.3984V68.2124Z" fill="white"/>
<path d="M65.7024 71.0289H67.424V71.7369H64.8799V68.2124H65.7024V71.0289Z" fill="white"/>
<path d="M55.1228 3.81988C56.9568 0.657044 61.5342 0.657044 63.3682 3.81988L76.0735 25.7611L88.7787 47.7024C90.6127 50.8652 88.3189 54.8226 84.656 54.8226H59.2404H33.835C30.172 54.8226 27.8783 50.8703 29.7123 47.7024L42.4175 25.7611L55.1228 3.81988Z" fill="#FFCD1C"/>
<path d="M84.6102 53.7276H33.8811C32.5732 53.7276 31.3982 53.0553 30.7443 51.9246C30.0904 50.7939 30.0904 49.4442 30.7443 48.3136L56.1089 4.51257C56.7628 3.38189 57.9378 2.70959 59.2456 2.70959C60.5534 2.70959 61.7284 3.38189 62.3823 4.51257L87.7469 48.3136C88.4008 49.4442 88.4008 50.7939 87.7469 51.9246C87.093 53.0553 85.9231 53.7276 84.6102 53.7276ZM59.2456 4.34449C58.5304 4.34449 57.8918 4.7112 57.5342 5.33256L32.1697 49.1335C31.8121 49.7498 31.8121 50.4883 32.1697 51.1046C32.5273 51.7209 33.1658 52.0927 33.8811 52.0927H84.6102C85.3254 52.0927 85.964 51.726 86.3216 51.1046C86.6792 50.4883 86.6792 49.7498 86.3216 49.1335L60.957 5.33256C60.5994 4.71629 59.9608 4.34449 59.2456 4.34449Z" fill="black"/>
<path d="M55.5415 43.8315C55.5415 41.6517 57.1201 39.9709 59.2504 39.9709C61.3807 39.9709 62.9593 41.6517 62.9593 43.8315C62.9593 45.9961 61.3807 47.6769 59.2504 47.6769C57.115 47.682 55.5415 46.0012 55.5415 43.8315Z" fill="black"/>
<path d="M59.2452 15.4526C61.2376 15.4526 62.7958 17.1639 62.6067 19.1401L60.8391 37.511H57.6513L55.8837 19.1401C55.6947 17.1639 57.2528 15.4526 59.2452 15.4526Z" fill="black"/>
</svg>
