<svg width="107" height="187" viewBox="0 0 107 187" fill="none" xmlns="http://www.w3.org/2000/svg">
<path opacity="0.1" d="M53.0236 153L54.5211 153.136C67.1814 154.564 79.5694 149.124 86.5802 138.72C87.4651 137.36 88.2819 136 88.9625 134.504C93.9314 124.032 93.0465 110.908 86.7844 100.98C83.0408 95.132 77.5274 90.032 76.1661 83.3C74.4644 74.528 80.4543 66.368 86.0357 59.5C91.6852 52.632 97.6069 44.472 95.8372 35.632C94.7482 30.124 90.6642 25.568 85.9676 22.372C73.5796 13.872 56.563 13.94 43.2221 20.4C29.8811 26.86 19.9434 38.76 13.4772 52.02C4.42436 70.584 1.63365 92.684 8.44027 112.472C15.2469 132.26 32.3996 148.92 53.0236 153Z" fill="#00BDFF"/>
<path d="M51.2539 179.996C71.6663 179.996 88.2138 163.465 88.2138 143.072C88.2138 122.679 71.6663 106.148 51.2539 106.148C30.8415 106.148 14.2939 122.679 14.2939 143.072C14.2939 163.465 30.8415 179.996 51.2539 179.996Z" fill="white"/>
<path d="M51.2538 181.016C51.1857 181.016 51.1176 181.016 51.0496 181.016C30.0852 180.948 13.1367 163.812 13.2048 142.868C13.2729 121.992 30.3575 105.06 51.1857 105.06C51.2538 105.06 51.3218 105.06 51.3899 105.06C61.5318 105.128 71.061 109.072 78.208 116.28C85.3549 123.488 89.2347 133.008 89.2347 143.208C89.1666 164.084 72.1501 181.016 51.2538 181.016ZM51.2538 107.168C31.5146 107.168 15.3829 123.148 15.3148 142.936C15.2468 162.724 31.3104 178.908 51.1176 179.044C51.1857 179.044 51.2538 179.044 51.3218 179.044C71.061 179.044 87.1927 163.064 87.2608 143.276C87.3288 133.688 83.5852 124.644 76.8467 117.844C70.1081 111.044 61.0553 107.236 51.458 107.236C51.3899 107.168 51.3218 107.168 51.2538 107.168ZM51.2538 174.896C51.1857 174.896 51.1857 174.896 51.1176 174.896C42.6094 174.828 34.6456 171.496 28.6558 165.444C22.666 159.392 19.3988 151.436 19.4669 142.936C19.5349 125.46 33.8288 111.248 51.3218 111.248C51.3899 111.248 51.3899 111.248 51.458 111.248C69.019 111.316 83.2449 125.664 83.1768 143.208C83.0407 160.684 68.7468 174.896 51.2538 174.896ZM51.1176 172.856C67.5897 172.924 80.9987 159.664 81.0668 143.208C81.1348 126.82 67.8619 113.356 51.3899 113.288C51.3218 113.288 51.3218 113.288 51.2538 113.288C34.9179 113.288 21.5089 126.548 21.4408 142.936C21.3727 150.892 24.4357 158.372 30.0852 164.016C35.7347 169.66 43.1539 172.788 51.1176 172.856Z" fill="#F9D478"/>
<path d="M50.369 167.416C49.2119 167.416 47.9186 166.464 47.9186 165.036V162.18C46.3531 161.908 44.9237 161.5 43.6985 160.888C42.2011 160.14 40.9759 159.256 39.9549 158.168C39.0019 157.08 38.2532 155.992 37.7087 154.836C37.2322 153.68 36.96 152.456 36.96 151.3C36.96 150.28 37.3684 149.396 38.1171 148.58C38.9339 147.764 39.8868 147.356 41.0439 147.356C41.9288 147.356 42.7456 147.56 43.4262 148.036C44.1069 148.512 44.5834 149.124 44.8556 149.94C45.264 151.232 45.6044 152.184 45.8766 152.796C46.1489 153.34 46.4892 153.816 47.0338 154.36C47.238 154.564 47.5102 154.768 47.8505 154.904L47.9186 146.268C46.0808 145.724 44.5153 145.112 43.222 144.432C41.6565 143.616 40.3633 142.46 39.4103 141.032C38.4574 139.536 37.9129 137.632 37.9129 135.388C37.9129 132.464 38.8658 129.948 40.8397 128.044C42.5414 126.344 44.9918 125.256 47.9867 124.848V123.284C47.9867 120.496 49.8925 120.292 50.5051 120.292C51.1177 120.292 53.0236 120.496 53.0236 123.284V124.916C54.453 125.12 55.6782 125.46 56.6991 125.936C57.9924 126.48 59.2176 127.432 60.1705 128.588C60.9192 129.472 61.5318 130.356 61.9402 131.308C62.3486 132.328 62.6209 133.212 62.6209 134.096C62.6209 135.116 62.2125 136.068 61.4638 136.816C60.7151 137.564 59.7621 137.972 58.6731 137.972C56.6991 137.972 55.2698 136.816 54.7252 134.708C54.453 133.552 53.8404 132.736 53.0236 132.124V139.536C54.6572 140.012 55.9504 140.42 56.9714 140.828C58.2647 141.304 59.4218 142.052 60.3747 142.936C61.4638 143.888 62.2806 145.044 62.8251 146.404C63.3696 147.764 63.71 149.192 63.6419 150.756C63.6419 152.728 63.1654 154.564 62.2125 156.264C61.2596 157.964 59.8983 159.392 58.1285 160.48C56.563 161.364 54.7933 161.976 52.8194 162.248V165.172C52.9555 166.668 51.5942 167.416 50.369 167.416ZM41.1801 149.396C40.5675 149.396 40.091 149.6 39.6826 150.008C39.2742 150.416 39.07 150.824 39.07 151.3C39.07 152.184 39.2742 153.136 39.6145 154.02C40.0229 154.972 40.6355 155.924 41.4523 156.74C42.2691 157.624 43.2901 158.372 44.5834 158.984C45.8086 159.596 47.3741 160.004 49.0757 160.208C49.6203 160.276 49.9606 160.684 49.9606 161.228V164.968C49.9606 165.24 50.369 165.308 50.369 165.308C50.9135 165.308 50.9135 165.036 50.9135 164.968V161.16C50.9135 160.616 51.3219 160.208 51.8664 160.14C53.9084 160.004 55.7462 159.46 57.2437 158.576C58.7411 157.692 59.8302 156.536 60.5789 155.176C61.3276 153.748 61.736 152.252 61.736 150.62C61.736 149.328 61.5318 148.172 61.0554 147.084C60.5789 146.064 59.9663 145.112 59.0815 144.364C58.2647 143.616 57.3117 143.004 56.2907 142.664C55.2017 142.256 53.7042 141.78 51.7303 141.236C51.3219 141.1 50.9816 140.692 50.9816 140.216L51.0497 130.424C51.0497 130.084 51.1858 129.812 51.4581 129.608C51.7303 129.404 52.0706 129.336 52.3429 129.472C54.6572 130.22 56.1546 131.784 56.7672 134.096C57.1756 135.592 57.9924 135.864 58.7411 135.864C59.2857 135.864 59.6941 135.66 60.1025 135.32C60.5109 134.912 60.647 134.504 60.647 134.028C60.647 133.484 60.5109 132.804 60.1705 132.124C59.8302 131.376 59.3537 130.628 58.7411 129.88C57.9243 128.928 57.0395 128.248 55.9504 127.772C54.8614 127.296 53.5 126.956 51.9345 126.82C51.39 126.752 51.0497 126.344 51.0497 125.8V123.284C51.0497 122.4 50.8455 122.4 50.5732 122.4C50.369 122.4 50.0967 122.4 50.0967 123.352V125.868C50.0967 126.412 49.6883 126.82 49.1438 126.888C46.1489 127.16 43.8346 128.044 42.3372 129.54C40.7717 131.104 40.0229 133.008 40.0229 135.456C40.0229 137.292 40.3633 138.856 41.1801 139.944C41.9288 141.1 42.9498 141.984 44.243 142.664C45.6044 143.344 47.306 143.956 49.348 144.568C49.7564 144.704 50.0967 145.112 50.0967 145.588L50.0287 156.4C50.0287 156.74 49.8925 157.012 49.6203 157.216C49.348 157.42 49.0077 157.488 48.7354 157.352C47.5783 157.012 46.5573 156.468 45.8086 155.856C45.0598 155.176 44.5153 154.428 44.175 153.612C43.8346 152.932 43.4943 151.98 43.0178 150.552C42.8817 150.144 42.6775 149.872 42.4053 149.668C42.0649 149.532 41.6565 149.396 41.1801 149.396ZM52.0026 157.692C51.7984 157.692 51.5261 157.624 51.3219 157.488C51.1177 157.284 50.9816 157.012 50.9816 156.672L51.0497 146.404C51.0497 146.064 51.1858 145.792 51.4581 145.588C51.7303 145.384 52.0706 145.316 52.3429 145.452C54.1126 146.064 55.474 146.744 56.4269 147.56C57.5159 148.512 57.9924 149.804 57.9924 151.504C57.9924 153 57.4479 154.36 56.4269 155.516C55.4059 156.604 53.9765 157.352 52.2068 157.692C52.0706 157.692 52.0706 157.692 52.0026 157.692ZM53.0236 147.832V155.312C53.8404 155.04 54.453 154.632 54.9294 154.088C55.6101 153.34 55.9504 152.456 55.9504 151.436C55.9504 150.348 55.6782 149.6 55.0656 149.056C54.521 148.58 53.9084 148.172 53.0236 147.832ZM49.0757 140.352C48.9396 140.352 48.8035 140.352 48.7354 140.284C47.238 139.74 46.0808 139.06 45.264 138.312C44.3792 137.496 43.9027 136.272 43.9027 134.708C43.9027 133.076 44.3792 131.852 45.4002 131.036C46.285 130.288 47.3741 129.744 48.8715 129.268C49.2119 129.2 49.4841 129.268 49.7564 129.404C50.0287 129.608 50.1648 129.88 50.1648 130.22L50.0967 139.4C50.0967 139.74 49.9606 140.012 49.6883 140.216C49.4841 140.352 49.2799 140.352 49.0757 140.352ZM48.0547 131.784C47.5102 132.056 47.0338 132.328 46.6934 132.668C46.1489 133.144 45.9447 133.824 45.9447 134.844C45.9447 135.796 46.1489 136.476 46.6254 136.884C46.9657 137.224 47.4421 137.496 48.0547 137.836V131.784Z" fill="#E29A27"/>
<path d="M43.8433 96.2059C56.4258 91.9954 63.2094 78.3919 58.9949 65.8216C54.7804 53.2513 41.1636 46.4742 28.5811 50.6847C15.9985 54.8951 9.2149 68.4986 13.4294 81.0689C17.644 93.6393 31.2607 100.416 43.8433 96.2059Z" fill="white"/>
<path d="M44.107 96.832C44.0389 96.832 44.0389 96.832 43.9709 96.9C31.0383 101.184 17.0847 94.112 12.7966 81.192C8.57645 68.34 15.5192 54.4 28.3837 50.048C28.4518 50.048 28.4518 50.048 28.5198 49.98C34.7819 47.94 41.4524 48.416 47.3742 51.408C53.2959 54.4 57.6521 59.432 59.6941 65.688C63.9142 78.608 56.9034 92.548 44.107 96.832ZM28.7921 51.272C16.6083 55.352 10.0058 68.544 14.0217 80.716C18.0376 92.956 31.3105 99.62 43.5625 95.608C43.6305 95.608 43.6305 95.608 43.6986 95.54C55.8824 91.46 62.4849 78.268 58.4689 66.096C56.495 60.18 52.343 55.352 46.7616 52.564C41.1801 49.776 34.85 49.3 28.9282 51.272C28.8602 51.272 28.8602 51.272 28.7921 51.272ZM42.8137 93.024H42.7457C37.5046 94.724 31.8551 94.316 26.9543 91.868C22.0535 89.352 18.378 85.136 16.6083 79.9C13.0688 69.088 18.9225 57.46 29.677 53.856H29.745C40.5675 50.32 52.2749 56.168 55.8824 66.98C59.4219 77.724 53.5682 89.42 42.8137 93.024ZM42.2692 91.8H42.3373C52.4111 88.4 57.9244 77.52 54.5892 67.388C51.2539 57.256 40.2953 51.748 30.1534 55.08H30.0854C20.0116 58.48 14.4982 69.36 17.8334 79.492C19.467 84.388 22.8703 88.4 27.4988 90.712C32.1273 93.024 37.3684 93.432 42.2692 91.8Z" fill="#F9D478"/>
<path d="M40.7039 88.6041C39.9552 88.8761 39.0023 88.5361 38.73 87.6521L38.1174 85.8841C37.0964 86.0201 36.1435 86.0881 35.2586 85.9521C34.1696 85.8161 33.2167 85.5441 32.3999 85.0681C31.5831 84.5921 30.9024 84.0481 30.3579 83.4361C29.8133 82.8241 29.405 82.1441 29.2008 81.3961C28.9966 80.7841 29.0646 80.1041 29.3369 79.4921C29.6772 78.8121 30.1537 78.4041 30.9024 78.1321C31.4469 77.9281 31.9915 77.9281 32.536 78.0641C33.0805 78.2001 33.4889 78.5401 33.8293 78.9481C34.3738 79.6281 34.7822 80.1721 35.0544 80.5121C35.3267 80.7841 35.667 81.0561 36.0754 81.1921C36.2796 81.2601 36.4838 81.3281 36.688 81.3961L34.9183 76.0241C33.6931 76.0921 32.6041 76.0241 31.6511 75.8881C30.494 75.7521 29.473 75.2761 28.5882 74.5961C27.7033 73.9161 26.9546 72.8281 26.5462 71.4001C25.9336 69.5641 26.0016 67.8641 26.8184 66.3001C27.4991 64.8721 28.7924 63.7161 30.5621 62.9001L30.2217 61.8801C29.6772 60.1801 30.7663 59.6361 31.1747 59.5001C31.515 59.3641 32.8083 59.0921 33.3528 60.7921L33.6931 61.8121C34.578 61.6761 35.4628 61.6081 36.2116 61.6761C37.1645 61.7441 38.0494 62.0841 38.9342 62.5601C39.6149 62.9681 40.1594 63.3761 40.5678 63.8521C41.0443 64.3961 41.3846 64.8721 41.5207 65.4161C41.7249 66.0281 41.6569 66.7081 41.3846 67.3201C41.0443 67.9321 40.5678 68.4081 39.8871 68.6121C38.6619 69.0201 37.5729 68.6121 36.7561 67.3881C36.3477 66.7761 35.8032 66.3681 35.1906 66.1641L36.688 70.7201C37.7771 70.6521 38.73 70.6521 39.4107 70.7201C40.2955 70.7881 41.1804 70.9921 41.9291 71.3321C42.814 71.6721 43.5627 72.2161 44.1753 72.9641C44.7879 73.6441 45.2644 74.5281 45.6047 75.4801C46.0131 76.7041 46.0812 77.9281 45.877 79.1521C45.6728 80.3761 45.1282 81.5321 44.2434 82.5521C43.4946 83.4361 42.5417 84.1841 41.3165 84.7281L41.9291 86.5641C42.1333 87.6521 41.4527 88.4001 40.7039 88.6041ZM31.3108 79.4241C30.9705 79.5601 30.6982 79.7641 30.494 80.1041C30.3579 80.4441 30.2898 80.7161 30.4259 81.0561C30.6301 81.6001 30.9024 82.1441 31.3108 82.6201C31.7192 83.0961 32.3318 83.5721 33.0125 83.9121C33.6931 84.3201 34.5099 84.5241 35.3948 84.6601C36.2796 84.7961 37.3006 84.7281 38.3897 84.5241C38.73 84.4561 39.0703 84.6601 39.1384 84.9321L39.8871 87.2441C39.9552 87.4481 40.2275 87.3801 40.2275 87.3801C40.5678 87.2441 40.4997 87.1081 40.4997 87.0401L39.751 84.6601C39.6149 84.3201 39.8191 83.9801 40.0913 83.8441C41.3165 83.3001 42.3375 82.6201 43.0862 81.7361C43.835 80.8521 44.2434 79.9681 44.4476 78.9481C44.6518 77.9281 44.5837 76.9081 44.2434 75.8881C43.9711 75.0721 43.6308 74.3921 43.0862 73.8481C42.6098 73.3041 41.9972 72.8281 41.3165 72.5561C40.6359 72.2841 39.9552 72.0801 39.2745 72.0801C38.5258 72.0121 37.5048 72.0801 36.2116 72.1481C35.9393 72.1481 35.667 71.9441 35.5309 71.6721L33.557 65.6201C33.4889 65.4161 33.557 65.2121 33.6251 65.0081C33.7612 64.8041 33.9654 64.7361 34.1696 64.7361C35.7351 64.7361 36.9603 65.4161 37.8452 66.7081C38.3897 67.5921 38.9342 67.5241 39.4107 67.3881C39.751 67.2521 39.9552 67.0481 40.1594 66.7761C40.2955 66.4361 40.3636 66.1641 40.2275 65.8241C40.0913 65.4841 39.8871 65.1441 39.5468 64.7361C39.2065 64.3281 38.73 63.9881 38.1855 63.6481C37.5048 63.2401 36.7561 62.9681 36.0754 62.9001C35.3267 62.8321 34.3738 62.9001 33.4209 63.1041C33.0805 63.1721 32.7402 62.9681 32.6721 62.6961L32.1276 61.1321C31.9234 60.5881 31.7873 60.5881 31.6511 60.6561C31.515 60.7241 31.3789 60.7241 31.5831 61.3361L32.0595 62.9001C32.1957 63.2401 31.9915 63.5801 31.7192 63.7161C29.9495 64.4641 28.7243 65.4841 28.0436 66.7761C27.431 68.0681 27.363 69.3601 27.8394 70.8561C28.2478 72.0121 28.7924 72.8961 29.473 73.4401C30.2217 73.9841 30.9705 74.3241 31.9234 74.4601C32.8763 74.5961 34.1015 74.6641 35.4628 74.5961C35.7351 74.5961 36.0074 74.8001 36.1435 75.0721L38.3897 81.8041C38.4577 82.0081 38.3897 82.2121 38.3216 82.4161C38.1855 82.6201 37.9813 82.6881 37.7771 82.6881C36.9603 82.6881 36.2796 82.6201 35.667 82.3481C35.0544 82.0761 34.578 81.7361 34.1696 81.3281C33.8293 80.9881 33.4209 80.4441 32.8083 79.6961C32.6721 79.4921 32.4679 79.3561 32.2637 79.2881C31.8553 79.2881 31.6511 79.2881 31.3108 79.4241ZM39.6829 82.2801C39.5468 82.3481 39.4107 82.3481 39.2065 82.2801C39.0023 82.2121 38.8661 82.0761 38.7981 81.8721L36.688 75.5481C36.62 75.3441 36.688 75.1401 36.7561 74.9361C36.8922 74.7321 37.0964 74.6641 37.3006 74.6641C38.5258 74.6641 39.4787 74.8001 40.2275 75.1401C41.0443 75.4801 41.6569 76.2281 41.9972 77.2481C42.3375 78.2001 42.2695 79.1521 41.8611 80.0361C41.4527 80.9201 40.772 81.6681 39.6829 82.2801ZM38.3216 76.0241L39.8191 80.6481C40.2275 80.3081 40.5678 79.9001 40.7039 79.4921C40.9762 78.8801 40.9762 78.2681 40.772 77.6561C40.5678 76.9761 40.2275 76.5681 39.6829 76.3641C39.4107 76.1601 38.8661 76.0241 38.3216 76.0241ZM34.3057 72.2161C34.2376 72.2161 34.1696 72.2841 34.1015 72.2161C33.0125 72.1481 32.1957 72.0121 31.5831 71.7401C30.8343 71.4001 30.2898 70.7881 30.0175 69.8361C29.6772 68.8161 29.7453 68.0001 30.1537 67.2521C30.5621 66.6401 31.1066 66.0281 31.9234 65.4841C32.1276 65.3481 32.3318 65.3481 32.536 65.4161C32.7402 65.4841 32.8763 65.6201 32.9444 65.8241L34.7141 71.4001C34.7822 71.6041 34.7141 71.8081 34.646 72.0121C34.578 72.1481 34.4418 72.2161 34.3057 72.2161ZM31.9234 67.1841C31.6511 67.4561 31.3789 67.7281 31.2427 68.0001C31.0385 68.4081 31.0385 68.8841 31.2427 69.4961C31.4469 70.1081 31.7192 70.4481 32.1276 70.6521C32.3999 70.7881 32.7402 70.8561 33.2167 70.9241L31.9234 67.1841Z" fill="#E29A27"/>
<path d="M18.4445 43.1468C20.171 39.6844 18.761 35.4793 15.2952 33.7544C11.8294 32.0296 7.62021 33.4382 5.8937 36.9006C4.16719 40.3631 5.57716 44.5682 9.04296 46.293C12.5088 48.0178 16.7179 46.6092 18.4445 43.1468Z" fill="white"/>
<path d="M8.98506 46.4441C8.91699 46.4441 8.91699 46.4441 8.98506 46.4441C5.44562 44.6761 4.01623 40.3241 5.78595 36.7881C7.55567 33.2521 11.8438 31.8241 15.3833 33.5921C17.0849 34.4761 18.3782 35.9041 18.9908 37.7401C19.6034 39.5761 19.4672 41.4801 18.5824 43.1801C16.8127 46.7841 12.4564 48.2121 8.98506 46.4441ZM15.1791 34.0001C11.8438 32.3681 7.75987 33.6601 6.12628 36.9921C4.42462 40.3241 5.78595 44.4041 9.12119 46.1041C12.4564 47.7361 16.5404 46.4441 18.174 43.1121C18.9908 41.4801 19.1269 39.6441 18.5824 37.9441C18.0379 36.1761 16.8127 34.8161 15.1791 34.0001ZM9.46152 45.4241C8.03213 44.6761 6.94307 43.4521 6.46661 41.9561C5.92208 40.3921 6.05821 38.7601 6.80694 37.3321C8.30439 34.4081 11.9119 33.1841 14.8387 34.6801C17.7656 36.1761 18.9908 39.7801 17.4933 42.7721C16.0639 45.6961 12.4564 46.9201 9.46152 45.4241ZM9.59765 45.0841C12.3884 46.4441 15.7236 45.3561 17.153 42.5681C18.5143 39.7801 17.4253 36.4481 14.6345 35.0201C11.8438 33.6601 8.50859 34.7481 7.0792 37.5361C6.39854 38.8961 6.26241 40.3921 6.73887 41.8201C7.2834 43.2481 8.30439 44.4041 9.59765 45.0841Z" fill="#F9D478"/>
<path d="M9.93786 44.0641C9.73366 43.9961 9.59753 43.7241 9.73366 43.4521L10.0059 42.9761C9.73366 42.7721 9.52946 42.6361 9.39333 42.4321C9.18913 42.1601 9.053 41.9561 8.98493 41.6841C8.91687 41.4121 8.8488 41.1401 8.91687 40.9361C8.91687 40.6641 8.98493 40.4601 9.12106 40.2561C9.18913 40.0521 9.32526 39.9841 9.52946 39.9161C9.73366 39.8481 9.93786 39.8481 10.1421 39.9841C10.2782 40.0521 10.4143 40.1881 10.4824 40.3241C10.5505 40.4601 10.5505 40.5961 10.5505 40.8001C10.4824 41.0721 10.4824 41.2081 10.4824 41.3441C10.4824 41.4801 10.4824 41.5481 10.5505 41.6841C10.5505 41.7521 10.6185 41.8201 10.6185 41.8201L11.3672 40.3921C11.095 40.1201 10.8908 39.9161 10.7547 39.7121C10.5505 39.4401 10.4143 39.1681 10.4143 38.8281C10.3463 38.4881 10.4824 38.1481 10.6185 37.7401C10.8908 37.2641 11.2311 36.9241 11.7076 36.7201C12.116 36.5841 12.6605 36.5841 13.205 36.7881L13.3412 36.5161C13.5454 36.0401 13.8857 36.1761 14.0218 36.2441C14.0899 36.3121 14.4302 36.5161 14.226 36.9241L14.0899 37.1961C14.2941 37.3321 14.4983 37.5361 14.6344 37.6721C14.8386 37.8761 14.9067 38.1481 14.9748 38.4201C14.9748 38.5561 14.9748 38.7601 14.9748 38.9641C14.9748 39.1681 14.9067 39.3721 14.8386 39.5081C14.7706 39.7121 14.6344 39.7801 14.4302 39.8481C14.226 39.9161 14.0218 39.9161 13.8857 39.7801C13.5454 39.6441 13.4092 39.3041 13.4773 38.8961C13.5454 38.6921 13.4773 38.4881 13.4092 38.2841L12.7966 39.5081C13.0689 39.7121 13.205 39.9161 13.3412 40.0521C13.5454 40.2561 13.6815 40.4601 13.7496 40.6641C13.8176 40.9361 13.8857 41.2081 13.8857 41.4801C13.8857 41.7521 13.8176 42.0241 13.6815 42.2961C13.5454 42.6361 13.2731 42.9081 13.0008 43.1121C12.7286 43.3161 12.3202 43.4521 11.9798 43.4521C11.6395 43.4521 11.2992 43.4521 10.9589 43.3161L10.6866 43.7921C10.4143 44.2001 10.1421 44.2001 9.93786 44.0641ZM9.93786 40.2561C9.80173 40.1881 9.73366 40.1881 9.66559 40.2561C9.59753 40.3241 9.46139 40.3241 9.46139 40.4601C9.39333 40.5961 9.32526 40.8001 9.32526 40.9361C9.32526 41.1401 9.32526 41.3441 9.39333 41.5481C9.4614 41.7521 9.59753 41.9561 9.73366 42.1601C9.86979 42.3641 10.1421 42.5681 10.4143 42.7721C10.4824 42.8401 10.5505 42.9081 10.4824 43.0441L10.1421 43.6561C10.1421 43.7241 10.2101 43.7241 10.2101 43.7241C10.2782 43.7921 10.3463 43.7241 10.3463 43.7241L10.6866 43.1121C10.7547 43.0441 10.8227 42.9761 10.9589 43.0441C11.2992 43.1801 11.6395 43.2481 11.9798 43.2481C12.3202 43.2481 12.5924 43.1121 12.8647 42.9761C13.137 42.7721 13.2731 42.5681 13.4092 42.2961C13.5454 42.0921 13.5454 41.8881 13.6134 41.6161C13.6134 41.4121 13.6134 41.2081 13.4773 41.0041C13.4092 40.8001 13.2731 40.6641 13.137 40.4601C13.0008 40.3241 12.7966 40.1201 12.5244 39.8481C12.4563 39.7801 12.4563 39.7121 12.4563 39.6441L13.2731 38.0121C13.2731 37.9441 13.3412 37.9441 13.4092 37.8761C13.4773 37.8761 13.5454 37.8761 13.5454 37.9441C13.8857 38.2841 14.0218 38.6241 13.8857 39.1001C13.8176 39.3721 13.9538 39.5081 14.0899 39.5761C14.158 39.6441 14.2941 39.6441 14.3622 39.5761C14.4302 39.5761 14.4983 39.5081 14.5664 39.3721C14.6344 39.3041 14.6344 39.1681 14.6344 39.0321C14.6344 38.8961 14.6344 38.6921 14.5664 38.5561C14.4983 38.3521 14.4302 38.1481 14.2941 37.9441C14.158 37.7401 13.9538 37.6041 13.6815 37.4681C13.6134 37.4001 13.5454 37.3321 13.6134 37.1961L13.8176 36.7881C13.8857 36.6521 13.8857 36.5841 13.8176 36.5841C13.7496 36.5841 13.7496 36.5161 13.6815 36.7201L13.4773 37.1281C13.4092 37.1961 13.3412 37.2641 13.205 37.1961C12.6605 36.9921 12.184 36.9241 11.8437 37.0601C11.4353 37.1961 11.163 37.4681 10.9589 37.8761C10.8227 38.2161 10.7547 38.4881 10.7547 38.7601C10.7547 39.0321 10.8908 39.2361 11.0269 39.4401C11.163 39.6441 11.4353 39.9161 11.7076 40.1881C11.7756 40.2561 11.7756 40.3241 11.7756 40.3921L10.8227 42.2281C10.8227 42.2961 10.7547 42.2961 10.6866 42.3641C10.6185 42.3641 10.5505 42.3641 10.5505 42.2961C10.3463 42.1601 10.2782 41.9561 10.2101 41.8201C10.1421 41.6161 10.1421 41.4801 10.1421 41.2761C10.1421 41.1401 10.1421 40.9361 10.2101 40.6641C10.2101 40.5961 10.2101 40.5281 10.2101 40.4601C10.074 40.3921 10.0059 40.3241 9.93786 40.2561ZM11.0269 42.5681C10.9589 42.5681 10.9589 42.5001 10.9589 42.5001C10.9589 42.4321 10.9589 42.3641 10.9589 42.3641L11.8437 40.5961C11.8437 40.5281 11.9118 40.5281 11.9798 40.4601C12.0479 40.4601 12.116 40.4601 12.116 40.5281C12.3882 40.8001 12.5244 41.0041 12.5924 41.2081C12.6605 41.4801 12.6605 41.7521 12.5244 42.0241C12.3882 42.2961 12.184 42.4321 11.9118 42.5681C11.7076 42.7041 11.4353 42.7041 11.0269 42.5681ZM12.0479 41.0041L11.4353 42.2961C11.5714 42.2961 11.7076 42.2961 11.8437 42.2281C12.0479 42.1601 12.184 42.0241 12.2521 41.8881C12.3202 41.6841 12.3882 41.5481 12.3202 41.4121C12.2521 41.2761 12.184 41.1401 12.0479 41.0041ZM11.9798 39.4401C11.9798 39.3721 11.9798 39.3721 11.9798 39.4401C11.7076 39.1681 11.5714 38.9641 11.5034 38.7601C11.4353 38.5561 11.4353 38.2841 11.5714 38.0121C11.7076 37.7401 11.9118 37.6041 12.116 37.5361C12.3202 37.4681 12.5924 37.4681 12.8647 37.5361C12.9328 37.5361 13.0008 37.6041 13.0008 37.6721C13.0008 37.7401 13.0008 37.8081 13.0008 37.8761L12.2521 39.3041C12.2521 39.3721 12.184 39.3721 12.116 39.4401C12.0479 39.4401 12.0479 39.4401 11.9798 39.4401ZM12.5924 37.8761C12.4563 37.8761 12.3882 37.8761 12.2521 37.8761C12.116 37.8761 12.0479 38.0121 11.9118 38.1481C11.8437 38.2841 11.8437 38.4201 11.8437 38.5561C11.8437 38.6241 11.9118 38.7601 11.9798 38.8281L12.5924 37.8761Z" fill="#E29A27"/>
<path d="M55.4316 29.5048C62.311 27.2028 66.0199 19.7652 63.7157 12.8925C61.4114 6.01975 53.9666 2.31446 47.0871 4.61649C40.2077 6.91851 36.4988 14.3561 38.8031 21.2288C41.1074 28.1016 48.5522 31.8069 55.4316 29.5048Z" fill="white"/>
<path d="M55.5422 29.852C55.4742 29.852 55.4742 29.852 55.5422 29.852C48.3953 32.232 40.7719 28.356 38.4576 21.284C36.0753 14.212 39.887 6.59595 46.9659 4.21595H47.034C50.4373 3.05995 54.1128 3.33195 57.312 4.96395C60.5111 6.59595 62.9614 9.38395 64.0505 12.784C66.3648 19.856 62.5531 27.472 55.5422 29.852ZM47.1701 4.96395C40.4996 7.20795 36.8921 14.416 39.0702 21.08C41.2483 27.744 48.5314 31.416 55.2019 29.24H55.27C61.9405 26.928 65.548 19.72 63.3698 13.056C62.2808 9.79195 60.0346 7.20795 56.9716 5.64395C53.9086 4.07995 50.4373 3.87595 47.1701 4.96395ZM54.7935 27.744C51.8667 28.696 48.8037 28.492 46.081 27.132C43.3584 25.772 41.3845 23.46 40.4316 20.604C38.4576 14.688 41.6567 8.29595 47.5785 6.32395C47.5785 6.32395 47.5785 6.32395 47.6466 6.32395C53.5683 4.35195 59.9665 7.61595 61.9405 13.532C63.9144 19.38 60.7153 25.772 54.7935 27.744ZM54.5212 27.064C54.5893 27.064 54.5893 27.064 54.5212 27.064C60.1027 25.228 63.0976 19.244 61.2598 13.736C59.4901 8.15996 53.4322 5.16795 47.9188 7.00395C47.9188 7.00395 47.9188 7.00395 47.8508 7.00395C42.3374 8.83995 39.3425 14.824 41.1803 20.332C42.0651 22.984 43.971 25.228 46.4894 26.452C49.0079 27.676 51.8667 27.948 54.5212 27.064Z" fill="#F9D478"/>
<path d="M53.7044 25.364C53.296 25.5 52.7515 25.296 52.6153 24.82L52.275 23.868C51.7305 23.936 51.186 24.004 50.7095 23.936C50.0969 23.868 49.6204 23.664 49.144 23.46C48.6675 23.188 48.3272 22.916 47.9868 22.576C47.7146 22.236 47.4423 21.828 47.3742 21.488C47.2381 21.148 47.3062 20.808 47.4423 20.4C47.6465 20.06 47.9188 19.788 48.2591 19.652C48.5314 19.516 48.8717 19.516 49.144 19.584C49.4162 19.652 49.6885 19.856 49.8246 20.06C50.0969 20.468 50.3011 20.74 50.5053 20.876C50.6414 21.012 50.8456 21.148 51.0498 21.284C51.186 21.352 51.254 21.352 51.3902 21.352L50.4372 18.428C49.7566 18.428 49.144 18.428 48.6675 18.36C48.0549 18.292 47.5104 18.02 46.9659 17.612C46.4894 17.204 46.081 16.66 45.8087 15.844C45.4684 14.824 45.5365 13.94 45.9449 13.056C46.3533 12.308 47.0339 11.628 47.9868 11.152L47.7826 10.608C47.4423 9.65602 48.0549 9.38402 48.2591 9.31602C48.4633 9.24802 49.144 9.11202 49.4162 9.99602L49.6204 10.54C50.0969 10.472 50.5734 10.404 50.9818 10.472C51.5263 10.54 52.0027 10.676 52.4792 10.948C52.8195 11.152 53.1599 11.424 53.3641 11.696C53.6363 11.968 53.7725 12.24 53.9086 12.58C54.0447 12.92 53.9767 13.328 53.8405 13.668C53.6363 14.008 53.4321 14.212 53.0237 14.348C52.3431 14.552 51.7305 14.348 51.3221 13.668C51.1179 13.328 50.7776 13.124 50.4372 12.988L51.254 15.504C51.8666 15.504 52.3431 15.504 52.7515 15.504C53.2279 15.504 53.7044 15.64 54.1128 15.844C54.5893 16.048 54.9977 16.32 55.338 16.728C55.6783 17.136 55.9506 17.544 56.0867 18.088C56.2909 18.768 56.359 19.448 56.2228 20.128C56.0867 20.808 55.8145 21.42 55.338 22.032C54.9296 22.508 54.3851 22.916 53.7725 23.256L54.1128 24.276C54.4531 24.82 54.1128 25.228 53.7044 25.364ZM48.5314 20.332C48.3272 20.4 48.191 20.536 48.123 20.672C48.0549 20.876 47.9868 21.012 48.0549 21.148C48.123 21.42 48.3272 21.76 48.5314 22.032C48.8036 22.304 49.0759 22.576 49.4843 22.78C49.8927 22.984 50.3011 23.12 50.7776 23.188C51.254 23.256 51.7985 23.188 52.4111 23.12C52.6153 23.052 52.7515 23.188 52.8195 23.392L53.2279 24.684C53.296 24.82 53.4321 24.752 53.4321 24.752C53.6363 24.684 53.5683 24.616 53.5683 24.616L53.1599 23.324C53.0918 23.12 53.1599 22.984 53.3641 22.848C54.0447 22.576 54.5893 22.168 54.9977 21.692C55.4061 21.216 55.6103 20.74 55.7464 20.196C55.8145 19.652 55.8144 19.108 55.6102 18.564C55.4741 18.156 55.2699 17.748 54.9977 17.476C54.7254 17.204 54.3851 16.932 54.0447 16.796C53.7044 16.66 53.296 16.524 52.8876 16.524C52.4792 16.524 51.9347 16.524 51.1859 16.524C51.0498 16.524 50.8456 16.456 50.8456 16.252L49.7566 12.92C49.6885 12.784 49.7566 12.716 49.8246 12.58C49.8927 12.512 50.0288 12.444 50.0969 12.444C50.9818 12.444 51.6624 12.784 52.0708 13.532C52.4111 14.008 52.6834 14.008 52.9557 13.872C53.1599 13.804 53.296 13.736 53.3641 13.532C53.4321 13.328 53.4321 13.192 53.4321 13.056C53.3641 12.852 53.2279 12.648 53.0237 12.444C52.8195 12.24 52.5473 12.036 52.275 11.832C51.8666 11.628 51.5263 11.492 51.1179 11.424C50.7095 11.356 50.233 11.424 49.6204 11.56C49.4162 11.628 49.2801 11.492 49.212 11.288L48.9398 10.404C48.8717 10.132 48.7356 10.132 48.6675 10.132C48.5994 10.132 48.5314 10.2 48.5994 10.472L48.8717 11.288C48.9398 11.492 48.8717 11.628 48.6675 11.764C47.7146 12.172 47.0339 12.716 46.6936 13.464C46.3533 14.144 46.2852 14.892 46.5575 15.708C46.7617 16.32 47.0339 16.796 47.4423 17.136C47.8507 17.476 48.2591 17.612 48.8036 17.68C49.3482 17.748 49.9608 17.748 50.7095 17.748C50.8456 17.748 51.0498 17.816 51.0498 18.02L52.275 21.692C52.3431 21.828 52.275 21.896 52.2069 22.032C52.1389 22.1 52.0708 22.168 51.9347 22.168C51.5263 22.168 51.1179 22.1 50.7776 21.964C50.4372 21.828 50.165 21.624 49.9608 21.42C49.7566 21.216 49.5524 20.944 49.212 20.536C49.144 20.4 49.0078 20.332 48.9398 20.332C48.8717 20.264 48.7356 20.264 48.5314 20.332ZM53.0918 21.896C53.0237 21.896 52.9557 21.896 52.8195 21.896C52.7515 21.828 52.6153 21.76 52.6153 21.692L51.4582 18.224C51.3901 18.088 51.4582 18.02 51.5263 17.884C51.5943 17.816 51.7305 17.748 51.7985 17.748C52.4792 17.748 53.0237 17.816 53.4321 18.02C53.9086 18.224 54.2489 18.632 54.3851 19.176C54.5212 19.72 54.5212 20.196 54.317 20.74C54.1128 21.148 53.7725 21.556 53.0918 21.896C53.1599 21.896 53.1599 21.896 53.0918 21.896ZM52.3431 18.428L53.1599 20.944C53.3641 20.74 53.5683 20.536 53.6363 20.332C53.7725 19.992 53.7725 19.652 53.7044 19.312C53.5683 18.972 53.3641 18.7 53.1599 18.632C52.9557 18.564 52.6834 18.496 52.3431 18.428ZM50.165 16.388C50.0969 16.388 50.0969 16.388 50.0288 16.388C49.4162 16.388 49.0078 16.252 48.6675 16.116C48.2591 15.912 47.9868 15.572 47.7826 15.096C47.5784 14.552 47.6465 14.076 47.8507 13.668C48.0549 13.328 48.3952 12.988 48.8036 12.716C48.8717 12.648 49.0078 12.648 49.144 12.648C49.2801 12.716 49.3482 12.784 49.3482 12.852L50.3692 15.912C50.4372 16.048 50.3692 16.116 50.3011 16.252C50.3011 16.32 50.233 16.388 50.165 16.388ZM48.8717 13.6C48.7356 13.736 48.5994 13.872 48.5314 14.076C48.3952 14.28 48.3952 14.552 48.5314 14.892C48.6675 15.232 48.8036 15.436 49.0078 15.504C49.144 15.572 49.3482 15.64 49.6204 15.64L48.8717 13.6Z" fill="#E29A27"/>
<path d="M95.9977 49.732C100.631 48.1814 103.13 43.1716 101.578 38.5423C100.026 33.913 95.0109 31.4172 90.3771 32.9678C85.7433 34.5184 83.245 39.5282 84.7971 44.1575C86.3492 48.7868 91.3639 51.2826 95.9977 49.732Z" fill="white"/>
<path d="M96.0412 49.9121C91.2766 51.4761 86.1035 48.8921 84.538 44.1321C82.9725 39.3721 85.559 34.2721 90.2556 32.7081C90.2556 32.7081 90.2556 32.7081 90.3236 32.7081C92.6379 31.9601 95.0883 32.1641 97.2664 33.2521C99.4445 34.3401 101.01 36.1761 101.827 38.4881C103.392 43.2481 100.806 48.3481 96.0412 49.9121ZM90.4598 33.1841C85.9674 34.6801 83.5851 39.5081 85.0145 43.9961C86.5119 48.4841 91.3446 50.9321 95.837 49.4361C95.837 49.4361 95.837 49.4361 95.9051 49.4361C100.397 47.9401 102.78 43.1121 101.35 38.6241C100.602 36.4481 99.1042 34.6801 97.0622 33.6601C95.0202 32.6401 92.7059 32.4361 90.4598 33.1841ZM95.6328 48.4841C95.5647 48.5521 95.5647 48.5521 95.6328 48.4841C93.6589 49.0961 91.6169 48.9601 89.7791 48.0761C87.9413 47.1921 86.6481 45.6281 85.9674 43.6561C84.6741 39.7121 86.7842 35.4281 90.732 34.0681C94.6799 32.7761 99.0361 34.9521 100.329 38.8961C101.691 42.9081 99.5806 47.1921 95.6328 48.4841ZM95.4286 48.0761C99.1722 46.8521 101.146 42.8401 99.921 39.1001C98.6958 35.3601 94.6799 33.3881 90.9362 34.6121C87.2607 35.8361 85.2187 39.8481 86.4439 43.5881C87.0565 45.3561 88.2816 46.8521 89.9833 47.7361C91.685 48.4841 93.5908 48.6881 95.4286 48.0761Z" fill="#F9D478"/>
<path d="M94.8159 46.9201C94.5437 46.9881 94.2034 46.9201 94.0672 46.5801L93.863 45.9001C93.4546 45.9681 93.1143 45.9681 92.842 45.9001C92.4336 45.8321 92.0933 45.7641 91.821 45.5601C91.5488 45.4241 91.2765 45.2201 91.0723 44.9481C90.8681 44.7441 90.732 44.4721 90.6639 44.2001C90.5958 43.9961 90.5958 43.7241 90.732 43.5201C90.8681 43.2481 91.0723 43.1121 91.2765 43.0441C91.4807 42.9761 91.6849 42.9761 91.8891 43.0441C92.0933 43.1121 92.2294 43.1801 92.3656 43.3841C92.5698 43.6561 92.7059 43.8601 92.842 43.9281C92.9101 44.0641 93.0462 44.1321 93.2504 44.2001C93.3185 44.2001 93.3866 44.2681 93.4546 44.2681L92.774 42.2961C92.2975 42.2961 91.8891 42.2961 91.5488 42.2281C91.1404 42.1601 90.732 42.0241 90.4597 41.7521C90.1194 41.4801 89.8471 41.0721 89.711 40.5961C89.5068 39.9161 89.5068 39.3041 89.779 38.6921C90.0513 38.1481 90.5278 37.7401 91.1404 37.4001L91.0042 37.0601C90.8 36.4481 91.2084 36.2441 91.3446 36.1761C91.4807 36.1081 91.9572 36.0401 92.1614 36.6521L92.2975 36.9921C92.6378 36.9241 92.9101 36.9241 93.1824 36.9241C93.5227 36.9241 93.863 37.0601 94.2033 37.2641C94.4756 37.4001 94.6798 37.5361 94.8159 37.7401C95.0201 37.9441 95.0882 38.1481 95.1563 38.2841C95.2243 38.4881 95.2243 38.7601 95.0882 38.9641C94.9521 39.1681 94.8159 39.3721 94.5437 39.4401C94.0672 39.5761 93.6588 39.4401 93.3866 39.0321C93.2504 38.8281 93.0462 38.6241 92.774 38.5561L93.3185 40.2561C93.7269 40.2561 94.0672 40.2561 94.3395 40.2561C94.6798 40.2561 94.9521 40.3241 95.2924 40.4601C95.6327 40.5961 95.905 40.8001 96.1092 41.0721C96.3134 41.3441 96.5176 41.6161 96.6537 42.0241C96.7899 42.4321 96.8579 42.9081 96.7218 43.3841C96.6537 43.8601 96.4495 44.2681 96.1092 44.6081C95.8369 44.9481 95.4966 45.2201 95.0202 45.4241L95.2243 46.1041C95.3605 46.5121 95.0882 46.7841 94.8159 46.9201ZM91.4126 43.5201C91.2765 43.5881 91.2084 43.6561 91.1404 43.7921C91.0723 43.9281 91.0723 43.9961 91.0723 44.1321C91.1404 44.3361 91.2765 44.5401 91.4126 44.6761C91.5488 44.8801 91.753 45.0161 92.0252 45.1521C92.2975 45.2881 92.5698 45.3561 92.9101 45.4241C93.2504 45.4921 93.5908 45.4241 93.9992 45.3561C94.1353 45.3561 94.2714 45.4241 94.2714 45.4921L94.5437 46.3761C94.5437 46.4441 94.6798 46.4441 94.6798 46.4441C94.816 46.3761 94.7479 46.3761 94.7479 46.3081L94.4756 45.4241C94.4076 45.2881 94.4756 45.1521 94.6117 45.1521C95.0882 44.9481 95.4285 44.6761 95.7008 44.4041C95.9731 44.0641 96.1092 43.7241 96.1773 43.3841C96.2453 42.9761 96.2453 42.6361 96.1092 42.2961C96.0411 42.0241 95.905 41.7521 95.7008 41.5481C95.4966 41.3441 95.2924 41.2081 95.0202 41.0721C94.7479 40.9361 94.5437 40.9361 94.2714 40.8681C93.9992 40.8681 93.5908 40.8681 93.1143 40.8681C92.9782 40.8681 92.9101 40.8001 92.842 40.7321L92.0933 38.4881C92.0933 38.4201 92.0933 38.3521 92.0933 38.2841C92.1614 38.2161 92.2294 38.2161 92.2975 38.2161C92.9101 38.2161 93.3185 38.4201 93.6588 38.9641C93.863 39.3041 94.0672 39.2361 94.2714 39.2361C94.4076 39.1681 94.4756 39.1001 94.5437 39.0321C94.6117 38.8961 94.6117 38.8281 94.5437 38.6921C94.4756 38.5561 94.4076 38.4201 94.2714 38.2841C94.1353 38.1481 93.9992 38.0121 93.795 37.8761C93.5227 37.7401 93.2504 37.6041 92.9782 37.6041C92.7059 37.6041 92.3656 37.6041 92.0252 37.6721C91.8891 37.6721 91.753 37.6041 91.753 37.5361L91.5488 36.9921C91.4807 36.7881 91.4126 36.7881 91.3446 36.8561C91.2765 36.8561 91.2084 36.9241 91.3446 37.1281L91.5488 37.6721C91.6168 37.8081 91.5488 37.9441 91.4126 37.9441C90.732 38.2161 90.3236 38.6241 90.0513 39.0321C89.8471 39.5081 89.779 39.9841 89.9832 40.5281C90.1194 40.9361 90.3236 41.2761 90.5958 41.4801C90.8681 41.6841 91.1404 41.8201 91.4807 41.8881C91.821 41.9561 92.2975 41.9561 92.774 41.9561C92.9101 41.9561 92.9782 42.0241 93.0462 42.0921L93.863 44.5401C93.863 44.6081 93.863 44.6761 93.863 44.7441C93.795 44.8121 93.7269 44.8121 93.6588 44.8801C93.3866 44.8801 93.1143 44.8801 92.9101 44.7441C92.7059 44.6761 92.5017 44.5401 92.3656 44.3361C92.2294 44.2001 92.0933 43.9961 91.8891 43.7241C91.821 43.6561 91.753 43.5881 91.6849 43.5881C91.6168 43.4521 91.4807 43.4521 91.4126 43.5201ZM94.4756 44.5401C94.4076 44.5401 94.3395 44.5401 94.3395 44.5401C94.2714 44.5401 94.2033 44.4721 94.2033 44.4041L93.4546 42.0921C93.4546 42.0241 93.4546 41.9561 93.4546 41.8881C93.5227 41.8201 93.5908 41.8201 93.6588 41.8201C94.1353 41.8201 94.4756 41.8881 94.7479 42.0241C95.0882 42.1601 95.2924 42.4321 95.4285 42.7721C95.5647 43.1121 95.4966 43.4521 95.3605 43.7921C95.1563 44.0641 94.884 44.3361 94.4756 44.5401ZM93.9311 42.2961L94.4756 43.9961C94.6118 43.8601 94.7479 43.7241 94.8159 43.5881C94.884 43.3841 94.9521 43.1121 94.884 42.9081C94.8159 42.6361 94.6798 42.5001 94.4756 42.4321C94.3395 42.2961 94.2034 42.2961 93.9311 42.2961ZM92.5017 40.8681H92.4336C92.0252 40.8681 91.753 40.8001 91.4807 40.6641C91.2084 40.5281 91.0042 40.3241 90.9362 39.9841C90.8 39.6441 90.8681 39.3041 91.0042 39.0321C91.1404 38.8281 91.3446 38.5561 91.6849 38.3521C91.753 38.2841 91.821 38.2841 91.8891 38.3521C91.9572 38.3521 92.0252 38.4201 92.0252 38.4881L92.7059 40.5281C92.7059 40.5961 92.7059 40.6641 92.6378 40.7321C92.5698 40.8681 92.5698 40.8681 92.5017 40.8681ZM91.6168 39.0321C91.4807 39.1001 91.4126 39.2361 91.3446 39.3041C91.2765 39.4401 91.2765 39.6441 91.3446 39.8481C91.4126 40.0521 91.5488 40.1881 91.6849 40.2561C91.821 40.3241 91.8891 40.3241 92.0933 40.3921L91.6168 39.0321Z" fill="#E29A27"/>
<path d="M94.1843 90.5479C96.95 85.0013 94.6913 78.265 89.1393 75.5019C83.5873 72.7388 76.8444 74.9953 74.0787 80.5419C71.3129 86.0885 73.5716 92.8249 79.1236 95.588C84.6756 98.351 91.4185 96.0945 94.1843 90.5479Z" fill="white"/>
<path d="M78.9568 95.8799C73.2392 93.0239 70.925 86.0199 73.7837 80.3759C76.6425 74.7319 83.5853 72.4199 89.2348 75.2759C89.2348 75.2759 89.2348 75.2759 89.3028 75.2759C92.0255 76.6359 94.1355 79.0159 95.0885 81.9399C96.0414 84.8639 95.8372 87.9919 94.4078 90.7119C91.549 96.4239 84.6743 98.6679 78.9568 95.8799ZM89.0306 75.7519C83.6533 73.0999 77.119 75.2759 74.3963 80.5799C71.6737 85.9519 73.8518 92.5479 79.229 95.1999C79.229 95.1999 79.229 95.1999 79.2971 95.1999C84.6743 97.8519 91.2087 95.6759 93.9313 90.3719C95.2246 87.7879 95.4968 84.7959 94.5439 82.0759C93.591 79.3559 91.6171 77.1119 89.0306 75.7519C89.0306 75.8199 89.0306 75.8199 89.0306 75.7519ZM79.8416 94.1799C79.7736 94.1799 79.7736 94.1799 79.8416 94.1799C77.5274 93.0239 75.7577 90.9839 74.9409 88.5359C74.1241 86.0879 74.3283 83.4359 75.4854 81.1919C77.8677 76.4319 83.6533 74.5279 88.418 76.9079C88.418 76.9079 88.418 76.9079 88.486 76.9079C93.2507 79.2879 95.1565 85.1359 92.7742 89.8959C90.3919 94.6559 84.5382 96.5599 79.8416 94.1799ZM80.0458 93.6359C84.5382 95.8799 89.9835 94.0439 92.2297 89.6239C94.4759 85.2039 92.7061 79.6959 88.2138 77.4519C88.2138 77.4519 88.2138 77.4519 88.1457 77.4519C83.7214 75.2079 78.2761 77.0439 76.0299 81.4639C74.9409 83.6399 74.7367 86.0879 75.4854 88.3319C76.2341 90.5759 77.8677 92.5479 80.0458 93.6359Z" fill="#F9D478"/>
<path d="M80.5902 92.072C80.2498 91.936 80.0456 91.46 80.2498 91.12L80.6582 90.372C80.2498 90.1 79.9095 89.76 79.7053 89.42C79.433 89.012 79.1608 88.604 79.0246 88.196C78.8885 87.788 78.8205 87.38 78.8885 86.972C78.8885 86.564 79.0247 86.224 79.1608 85.952C79.2969 85.68 79.5011 85.476 79.8414 85.34C80.1818 85.204 80.454 85.272 80.7944 85.408C81.0666 85.544 81.2028 85.68 81.3389 85.884C81.475 86.088 81.475 86.36 81.475 86.632C81.407 87.04 81.407 87.312 81.407 87.516C81.407 87.72 81.407 87.856 81.5431 88.06C81.6112 88.128 81.6112 88.264 81.6792 88.332L82.8364 85.952C82.428 85.544 82.0876 85.204 81.8154 84.796C81.475 84.388 81.3389 83.912 81.2708 83.368C81.2028 82.824 81.3389 82.28 81.6112 81.668C82.0196 80.852 82.6322 80.308 83.3809 80.036C84.0615 79.832 84.8783 79.832 85.7632 80.172L85.9674 79.764C86.3758 79.016 86.9203 79.22 87.0565 79.288C87.1926 79.356 87.7371 79.696 87.3287 80.444L87.1245 80.92C87.4649 81.192 87.7371 81.396 88.0094 81.668C88.2817 82.008 88.4858 82.416 88.622 82.824C88.69 83.164 88.7581 83.504 88.7581 83.776C88.7581 84.116 88.69 84.388 88.5539 84.592C88.4178 84.864 88.1455 85.068 87.8733 85.204C87.5329 85.34 87.2607 85.272 86.9884 85.136C86.4439 84.864 86.2397 84.388 86.3758 83.708C86.4439 83.368 86.3758 83.028 86.2397 82.756L85.2187 84.728C85.6271 85.068 85.8993 85.34 86.1035 85.612C86.3758 85.952 86.58 86.292 86.7161 86.632C86.8523 87.04 86.9203 87.448 86.9203 87.924C86.9203 88.332 86.7842 88.808 86.58 89.216C86.3077 89.76 85.9674 90.168 85.4229 90.508C84.9464 90.848 84.4019 91.052 83.7212 91.12C83.1767 91.188 82.6322 91.052 82.0196 90.916L81.6112 91.732C81.407 92.208 80.9305 92.208 80.5902 92.072ZM80.5221 85.884C80.386 85.816 80.1818 85.816 80.0456 85.816C79.9095 85.884 79.7734 85.952 79.7053 86.088C79.5692 86.36 79.5011 86.632 79.5011 86.904C79.5011 87.244 79.5011 87.516 79.6372 87.924C79.7734 88.264 79.9095 88.604 80.1818 88.944C80.454 89.284 80.7944 89.624 81.2028 89.896C81.3389 89.964 81.407 90.168 81.3389 90.304L80.7944 91.324C80.7263 91.392 80.8624 91.46 80.8624 91.46C80.9986 91.528 81.0666 91.46 81.0666 91.46L81.6112 90.44C81.6792 90.304 81.8834 90.236 82.0196 90.304C82.6322 90.508 83.1767 90.644 83.7212 90.576C84.2657 90.508 84.6741 90.372 85.0825 90.1C85.4909 89.828 85.7632 89.488 86.0355 89.012C86.2397 88.672 86.3077 88.332 86.3077 87.992C86.3077 87.652 86.2397 87.312 86.1716 86.972C86.0355 86.632 85.8993 86.36 85.6271 86.156C85.3548 85.884 85.0145 85.544 84.6061 85.136C84.4699 85.068 84.4699 84.864 84.538 84.796L85.8993 82.144C85.9674 82.076 86.0355 82.008 86.1035 82.008C86.1716 82.008 86.3077 82.008 86.3758 82.076C86.9203 82.62 87.1245 83.232 86.9203 83.912C86.8523 84.388 86.9884 84.524 87.1926 84.66C87.3287 84.728 87.4649 84.728 87.601 84.66C87.7371 84.592 87.8732 84.524 87.9413 84.388C88.0094 84.252 88.0774 84.048 88.0774 83.776C88.0774 83.504 88.0775 83.232 88.0094 82.96C87.9413 82.62 87.7371 82.28 87.5329 82.008C87.3287 81.736 86.9884 81.464 86.58 81.192C86.4439 81.124 86.3758 80.92 86.4439 80.784L86.7842 80.104C86.9203 79.832 86.8523 79.832 86.7842 79.764C86.7161 79.764 86.6481 79.696 86.5119 79.968L86.1716 80.648C86.1035 80.784 85.8993 80.852 85.7632 80.784C84.9464 80.444 84.1977 80.376 83.517 80.58C82.9044 80.784 82.428 81.192 82.0876 81.872C81.8154 82.348 81.7473 82.824 81.7473 83.232C81.8154 83.64 81.9515 84.048 82.2238 84.388C82.496 84.728 82.9044 85.136 83.3128 85.612C83.449 85.68 83.449 85.884 83.3809 85.952L81.8834 88.944C81.8154 89.012 81.7473 89.08 81.6792 89.08C81.6112 89.08 81.475 89.08 81.407 89.012C81.1347 88.74 80.9305 88.468 80.7944 88.196C80.6582 87.924 80.6582 87.652 80.6582 87.38C80.6582 87.176 80.7263 86.836 80.7944 86.428C80.7944 86.292 80.7944 86.224 80.7263 86.088C80.7263 86.02 80.6582 85.952 80.5221 85.884ZM82.3599 89.624C82.2918 89.624 82.2238 89.556 82.2238 89.488C82.1557 89.42 82.1557 89.284 82.2238 89.216L83.6532 86.428C83.7212 86.36 83.7893 86.292 83.8573 86.292C83.9254 86.292 84.0615 86.292 84.1296 86.36C84.538 86.768 84.8103 87.108 84.9464 87.516C85.0825 87.924 85.0825 88.332 84.8103 88.808C84.6061 89.216 84.2657 89.488 83.8573 89.692C83.4489 89.76 82.9044 89.76 82.3599 89.624ZM83.9935 87.108L82.9725 89.148C83.2448 89.148 83.449 89.148 83.6532 89.08C83.9254 88.944 84.1296 88.808 84.2657 88.468C84.4019 88.196 84.4699 87.924 84.3338 87.72C84.2657 87.516 84.1296 87.312 83.9935 87.108ZM83.8573 84.524L83.7893 84.456C83.4489 84.116 83.2448 83.776 83.1086 83.436C82.9725 83.096 83.0406 82.688 83.2448 82.28C83.449 81.872 83.7893 81.6 84.1296 81.464C84.4699 81.396 84.8783 81.396 85.2867 81.464C85.3548 81.464 85.4909 81.532 85.4909 81.6C85.559 81.668 85.559 81.804 85.4909 81.872L84.2657 84.32C84.1977 84.388 84.1296 84.456 84.0615 84.456C83.9935 84.524 83.9254 84.524 83.8573 84.524ZM84.8103 82.076C84.6061 82.076 84.4699 82.076 84.3338 82.144C84.1296 82.212 83.9935 82.348 83.8573 82.62C83.7212 82.892 83.7212 83.096 83.7893 83.3C83.8573 83.436 83.9254 83.572 84.0615 83.776L84.8103 82.076Z" fill="#E29A27"/>
</svg>
