<svg width="114" height="87" viewBox="0 0 114 87" fill="none" xmlns="http://www.w3.org/2000/svg">
<path opacity="0.1" d="M99.8292 82.272C99.8292 82.272 108.42 65.0095 99.3596 50.0834C60.2179 -14.3763 2.73446 27.5706 19.9436 55.2512C27.0427 66.6588 4.6957 69.1327 11.4081 82.2995L99.8292 82.272Z" fill="#07BBFD"/>
<path d="M100.216 72.8711C100.216 72.8711 79.7477 76.3896 79.499 76.2521C79.2504 76.0872 76.5986 64.2123 76.5986 64.2123C76.5986 64.2123 93.5315 61.0512 93.8077 61.0512C94.084 61.0512 97.7578 64.1024 97.8131 64.3223C97.8683 64.5422 100.216 72.8711 100.216 72.8711Z" fill="#EBEBFF"/>
<path d="M37.7882 75.8948C37.291 75.9498 12.5132 75.4 12.5132 75.4L14.3915 69.4901C14.3915 69.4901 17.8168 64.1024 19.6399 64.1848C21.463 64.2948 32.2636 62.4531 34.1143 63.8C35.9651 65.1469 37.6501 64.0749 38.534 67.291C39.418 70.5071 40.1085 70.8645 39.418 72.7886C38.7274 74.7128 37.7882 75.8948 37.7882 75.8948Z" fill="#EBEBFF"/>
<path d="M98.3378 74.9877C98.3378 79.8256 94.5535 83.7564 89.9128 83.7564C85.2445 83.7564 81.4878 79.8256 81.4878 74.9877C81.4878 70.1498 85.2721 66.219 89.9128 66.219C94.5535 66.219 98.3378 70.1498 98.3378 74.9877Z" fill="#1A1A1A"/>
<path d="M95.7689 74.9877C95.7689 78.3412 93.1447 81.0901 89.8852 81.0901C86.6533 81.0901 84.0015 78.3687 84.0015 74.9877C84.0015 71.6341 86.6256 68.8853 89.8852 68.8853C93.1447 68.8853 95.7689 71.6341 95.7689 74.9877Z" fill="#9E9DA2"/>
<path d="M93.8078 74.9877C93.8078 77.2417 92.0399 79.0559 89.8853 79.0559C87.7308 79.0559 85.9629 77.2417 85.9629 74.9877C85.9629 72.7336 87.7308 70.9194 89.8853 70.9194C92.0676 70.9194 93.8078 72.7336 93.8078 74.9877Z" fill="#D8D9DD"/>
<path d="M33.3686 74.9877C33.3686 79.8256 29.5842 83.7564 24.9436 83.7564C20.2753 83.7564 16.5186 79.8256 16.5186 74.9877C16.5186 70.1498 20.3029 66.219 24.9436 66.219C29.5842 66.219 33.3686 70.1498 33.3686 74.9877Z" fill="#1A1A1A"/>
<path d="M30.7996 74.9877C30.7996 78.3412 28.1754 81.0901 24.9159 81.0901C21.684 81.0901 19.0322 78.3687 19.0322 74.9877C19.0322 71.6341 21.6564 68.8853 24.9159 68.8853C28.1754 68.8853 30.7996 71.6341 30.7996 74.9877Z" fill="#9E9DA2"/>
<path d="M28.8659 74.9877C28.8659 77.2417 27.0981 79.0559 24.9435 79.0559C22.7889 79.0559 21.021 77.2417 21.021 74.9877C21.021 72.7336 22.7889 70.9194 24.9435 70.9194C27.0981 70.9194 28.8659 72.7336 28.8659 74.9877Z" fill="#D8D9DD"/>
<path d="M5.55197 66.6588C6.27017 61.7659 8.56287 60.7488 15.3857 59.3469C22.8992 57.7801 32.4567 52.6948 32.4567 52.6948C32.4567 52.6948 48.7543 44.3934 52.7596 43.4588C56.765 42.4967 66.5711 42.7716 74.8304 42.854C83.0896 42.909 87.9237 45.3005 92.1224 48.709C96.3211 52.1175 103.586 54.7014 103.586 54.7014L104.912 54.9488C106.265 55.1962 107.26 56.4332 107.26 57.8626V69.9848C107.26 71.3592 106.376 72.5687 105.105 72.8986L100.326 74.218C99.9397 74.3005 99.5806 73.9981 99.5253 73.5858C99.0005 68.6379 94.8847 64.872 89.9401 64.872C84.7194 64.872 80.4102 69.3526 80.4102 74.7678C80.4102 75.3725 80.4655 75.9773 80.576 76.582C80.6865 77.1867 80.2445 77.7365 79.6368 77.7365H35.7163C34.8599 77.7365 34.197 76.9668 34.3075 76.0872C34.3627 75.6749 34.3904 75.2351 34.3904 74.7953C34.418 69.4351 30.2193 64.982 25.0538 64.872C19.6949 64.7621 15.3305 69.2427 15.3305 74.7678C15.3305 75.1251 15.3581 75.5099 15.3857 75.8398C15.4962 76.8569 14.7504 77.7365 13.756 77.7365H7.45795C6.29779 77.7365 5.38623 76.7744 5.38623 75.5924V69.2427C5.38623 68.3355 5.44148 67.4834 5.55197 66.6588Z" fill="#FFCD1C"/>
<path d="M106.956 59.237H101.763C101.321 59.237 101.017 59.7043 101.183 60.1441L101.763 61.601C102.316 62.9754 103.614 63.8825 105.05 63.8825H106.956C107.315 63.8825 107.619 63.5801 107.619 63.1953V59.9242C107.619 59.5393 107.315 59.237 106.956 59.237Z" fill="#FC4E69"/>
<path d="M13.8389 61.4635C10.9661 61.9308 7.67899 64.7346 7.67899 64.7346C6.87792 65.6142 7.54087 67.0436 8.70104 66.9611L14.2809 66.6038C15.441 66.5213 16.4355 65.6967 16.7393 64.5422C17.2918 62.5905 16.8222 60.9962 13.8389 61.4635Z" fill="white"/>
<path d="M107.205 70.3697C107.564 70.3697 107.812 70.727 107.674 71.0844C107.288 72.0739 106.486 72.8161 105.464 73.1185L100.133 74.5753C99.6912 74.6578 99.3045 74.3279 99.2493 73.8881C99.1388 72.9535 98.9454 72.0464 98.6139 71.1943C98.5034 70.9194 98.6968 70.5896 99.0007 70.5896L107.205 70.3697Z" fill="#EAB054"/>
<path d="M15.3031 72.6512C15.7174 72.6512 16.0213 73.0085 15.966 73.4209C15.9108 73.8882 15.8832 74.3554 15.8832 74.8502C15.8832 75.2626 15.9108 75.6474 15.9384 76.0597C16.0489 77.1867 15.2202 78.1488 14.1429 78.1488H7.12669C5.85603 78.1488 4.83398 77.0768 4.83398 75.7574V73.8882C4.83398 73.3659 5.24833 72.9261 5.74554 72.8986L15.3031 72.6512Z" fill="#DDA905"/>
<path d="M30.689 55.6085L30.7442 55.7734C30.7718 55.8559 35.0534 64.8995 35.1639 73.5858V73.8057L60.9361 73.2834H61.1571H61.3781L79.8855 72.7886L79.9131 72.5962C79.9131 72.5687 80.1341 70.1772 81.8743 67.9232C84.167 64.927 89.1944 63.5251 94.3047 63.8275H94.498L96.2659 55.2237L96.183 55.1412C95.9068 54.8389 88.2552 47.3896 83.2278 45.7678C78.2281 44.146 61.9582 44.5033 61.1847 44.5308C60.8809 44.5033 54.0856 44.2009 48.0086 47.1422C41.8486 50.1109 30.9652 55.4436 30.8547 55.4986L30.689 55.6085ZM61.4057 72.8436V45.0256C63.3946 44.9981 78.4767 44.7507 83.1174 46.2351C87.758 47.7469 95.0505 54.5365 95.7963 55.3886L94.1665 63.3602C87.5923 63.0303 83.1726 65.5043 81.5152 67.6483C79.996 69.655 79.5816 71.6891 79.4987 72.3213L61.4057 72.8436ZM31.2138 55.8559C32.4568 55.1412 42.484 50.3583 48.1743 47.6095C53.6713 44.9706 59.7483 44.9981 60.9637 45.0531V72.8986L35.6059 73.4208C35.4401 65.3668 31.5729 57.1479 31.2138 55.8559Z" fill="#DDA905"/>
<path d="M34.0039 75.345C34.0039 74.8502 33.9763 74.3554 33.8934 73.8881C33.8105 73.3109 34.2249 72.7886 34.7773 72.7886L80.4381 71.6341C80.9353 71.6341 81.2944 72.1014 81.1563 72.6237C80.9077 73.5033 80.7972 74.4104 80.7972 75.345C80.7972 75.9773 80.8524 76.582 80.9629 77.1867C81.0734 77.819 80.6315 78.3687 80.0238 78.3687H35.3298C34.4459 78.3687 33.7829 77.5716 33.8934 76.6645C33.9763 76.2246 34.0039 75.7848 34.0039 75.345Z" fill="#DDA905"/>
<path d="M84.8852 60.0341H90.5479C90.686 60.0341 90.7965 59.9242 90.7965 59.7867V59.2645C90.7965 59.127 90.686 59.0171 90.5479 59.0171H84.8852C84.747 59.0171 84.6366 59.127 84.6366 59.2645V59.7867C84.6089 59.9242 84.7194 60.0341 84.8852 60.0341Z" fill="#DDA905"/>
<path d="M53.4782 60.0341H59.1409C59.2791 60.0341 59.3896 59.9242 59.3896 59.7867V59.2645C59.3896 59.127 59.2791 59.0171 59.1409 59.0171H53.4782C53.3401 59.0171 53.2296 59.127 53.2296 59.2645V59.7867C53.202 59.9242 53.3401 60.0341 53.4782 60.0341Z" fill="#DDA905"/>
<path d="M90.5206 56.6806L64.4721 56.928C64.4721 56.928 62.9252 56.873 62.7042 55.3886C62.4832 53.8768 62.5109 47.4171 62.5109 47.4171C62.5109 47.4171 62.7042 46.1251 63.892 46.0976C64.6102 46.0976 70.7149 45.6303 76.6538 46.3725C81.4878 46.9772 86.7638 49.2863 90.1615 52.8047L91.957 54.6739C91.9846 54.6739 93.1724 56.6531 90.5206 56.6806Z" fill="#EBEBFF"/>
<path d="M59.7209 48.2142V54.9763C59.7209 55.8559 59.058 56.5706 58.2569 56.6256L37.3463 57.5052C36.9043 57.5327 36.4348 57.3128 36.1862 56.9005C35.8271 56.3507 35.7994 55.4711 37.5673 54.2616C40.6611 52.1725 49.6109 47.6095 52.5113 47.1697C54.3621 46.8948 56.7929 46.7574 58.3122 46.7299C59.0856 46.7024 59.7209 47.3896 59.7209 48.2142Z" fill="#EBEBFF"/>
<g opacity="0.35">
<path d="M27.5122 30.9242L26.2415 29.6047C26.2415 29.6047 25.7719 28.6701 26.6835 28.3403C27.5951 28.0104 28.8657 29.4123 28.8657 29.4123C28.8657 29.4123 26.573 29.1099 27.5122 30.9242Z" fill="#6F64FF"/>
<path d="M88.0896 46.9223L86.2665 46.7573C86.2665 46.7573 85.2997 46.345 85.7693 45.5204C86.2389 44.6682 88.1449 44.9431 88.1449 44.9431C88.1449 44.9431 86.2389 46.1801 88.0896 46.9223Z" fill="#6F64FF"/>
<path d="M46.7378 52.5848L47.7046 51.0455C47.7046 51.0455 48.5057 50.3858 49.0581 51.1829C49.6106 51.9801 48.5057 53.5469 48.5057 53.5469C48.5057 53.5469 48.2571 51.2379 46.7378 52.5848Z" fill="#6F64FF"/>
<path d="M30.5786 37.7137L31.6007 39.2531C31.6007 39.2531 32.9266 40.7649 33.3133 40.1052C33.3133 40.1052 32.5951 39.3081 32.3741 38.4834C32.3741 38.5109 31.2139 38.4284 30.5786 37.7137Z" fill="#6F64FF"/>
<path d="M93.1168 38.6483L94.0283 36.1194C94.0283 36.1194 94.6637 33.3431 93.5311 33.3981C93.5311 33.3981 93.1996 34.9099 92.4814 35.8445C92.4814 35.8995 93.3654 37.3289 93.1168 38.6483Z" fill="#6F64FF"/>
<path d="M76.7643 35.5697C76.7643 35.5697 74.6373 34.5251 75.0793 35.927C75.0793 35.927 74.3335 34.7175 74.3335 33.3431C74.3335 33.3431 74.7755 32.0237 76.129 33.3431C76.0737 33.3431 75.7699 33.8104 76.7643 35.5697Z" fill="#6F64FF"/>
<path d="M70.0793 63.0028C70.0793 63.0028 70.4107 60.6938 71.3499 61.8209C71.3499 61.8209 70.7699 60.5014 69.6373 59.7318C69.6373 59.7318 68.2838 59.3194 68.6153 61.2161C68.6153 61.1886 69.1953 61.1886 70.0793 63.0028Z" fill="#6F64FF"/>
<path d="M39.418 31.5564L41.4068 30.9517L43.5338 28.6427L41.0477 28.8626L39.418 31.5564Z" fill="#6F64FF"/>
<path d="M27.623 52.5299L29.6395 53.1896L32.6781 52.5024L30.5235 51.2379L27.623 52.5299Z" fill="#6F64FF"/>
<path d="M78.4214 18.472L79.9683 19.8739L83.0621 20.5336L81.598 18.472H78.4214Z" fill="#6F64FF"/>
<path d="M80.8799 28.5327C80.8799 28.5327 81.9296 28.8351 81.8191 29.2474C81.8191 29.2474 83.4488 28.4502 84.1394 28.5052C84.1394 28.5052 82.3439 26.636 80.8799 28.5327Z" fill="#6F64FF"/>
<path d="M80.2997 29.5223C80.2997 29.5223 79.9682 28.1479 81.2389 27.6806C82.5095 27.2133 83.4763 27.9555 84.1393 28.4777C84.1393 28.4777 82.0123 26.7185 82.1228 28.7526C82.0952 28.7526 80.2721 28.6152 80.2997 29.5223Z" fill="#6F64FF"/>
<path d="M68.4497 49.2588C68.4497 49.2588 69.4994 48.9564 69.3889 48.5441C69.3889 48.5441 71.0186 49.3412 71.7092 49.2863C71.6816 49.2863 69.8861 51.1555 68.4497 49.2588Z" fill="#6F64FF"/>
<path d="M67.8695 48.2692C67.8695 48.2692 67.5381 49.6436 68.8087 50.1109C70.0794 50.5782 71.0462 49.836 71.7091 49.3137C71.7091 49.3137 69.5822 51.073 69.6926 49.0389C69.665 49.0389 67.8419 49.1763 67.8695 48.2692Z" fill="#6F64FF"/>
<path d="M41.8764 73.5308L40.3848 72.6237L40.4953 70.2872L42.7051 71.0294L41.8764 73.5308Z" fill="#6F64FF"/>
<path d="M30.5786 16.5204L32.1531 15.8332L34.0591 17.2626L32.1531 18.637L30.5786 16.5204Z" fill="#6F64FF"/>
<path d="M38.9485 46.5099L38.0093 45.0806L39.1142 42.9915L40.7992 44.6133L38.9485 46.5099Z" fill="#6F64FF"/>
<path d="M29.4186 60.8038H31.6837L29.4186 59.2095H27.5679L29.4186 60.8038Z" fill="#6F64FF"/>
<path d="M79.9132 56.4332L81.7363 56.8455L79.6093 57.7251L78.1177 57.3678L79.9132 56.4332Z" fill="#6F64FF"/>
<path d="M45.7987 5.58009L47.2075 6.76208L44.9424 6.62464L43.7822 5.63507L45.7987 5.58009Z" fill="#6F64FF"/>
<path d="M99.6639 52.5848L101.1 53.7393L98.8628 53.5744L97.7026 52.6673L99.6639 52.5848Z" fill="#6F64FF"/>
<path d="M49.6109 41.6171H47.8154L49.6109 40.2976H51.1026L49.6109 41.6171Z" fill="#6F64FF"/>
<path d="M18.2035 41.672L19.4741 43.019L17.2367 42.5791L16.187 41.5071L18.2035 41.672Z" fill="#6F64FF"/>
<path d="M49.7213 67.4009C49.7213 67.4009 49.2793 66.3289 51.2958 67.4009C51.2958 67.4009 51.0195 66.8237 52.0968 66.3289C52.815 65.9991 53.0084 65.6142 52.8427 65.0095C52.8427 65.0095 52.4836 64.2123 50.9919 64.7621C50.9919 64.7621 51.4339 65.0919 50.9643 65.4768C50.55 65.8066 49.1964 66.2739 49.7213 67.4009Z" fill="#6F64FF"/>
<path d="M71.5435 73.2009C71.5435 73.2009 70.5214 72.7886 72.455 71.4967C72.455 71.4967 71.8197 71.4692 71.8749 70.2872C71.9026 69.49 71.6816 69.1877 71.0739 69.0228C71.0739 69.0228 70.1899 68.9953 69.9966 70.5346C69.9966 70.5346 70.4938 70.2872 70.6043 70.8919C70.6595 71.4692 70.3004 73.1735 71.5435 73.2009Z" fill="#6F64FF"/>
<path d="M51.213 74.9877C51.4876 74.9877 51.7102 74.7662 51.7102 74.4929C51.7102 74.2196 51.4876 73.9981 51.213 73.9981C50.9384 73.9981 50.7158 74.2196 50.7158 74.4929C50.7158 74.7662 50.9384 74.9877 51.213 74.9877Z" fill="#6F64FF"/>
<path d="M19.0596 56.928C19.7003 56.928 20.2197 56.4111 20.2197 55.7735C20.2197 55.1358 19.7003 54.619 19.0596 54.619C18.4188 54.619 17.8994 55.1358 17.8994 55.7735C17.8994 56.4111 18.4188 56.928 19.0596 56.928Z" fill="#6F64FF"/>
<path d="M67.7036 40.4626C68.4512 40.4626 69.0571 39.8595 69.0571 39.1156C69.0571 38.3718 68.4512 37.7687 67.7036 37.7687C66.9561 37.7687 66.3501 38.3718 66.3501 39.1156C66.3501 39.8595 66.9561 40.4626 67.7036 40.4626Z" fill="#6F64FF"/>
<path d="M38.0093 14.0739L39.8324 14.3213L38.175 12.7545L36.6558 12.5621L38.0093 14.0739Z" fill="#6F64FF"/>
<path d="M40.6607 59.5118L41.4065 57.8625L39.4729 59.0171L38.8652 60.364L40.6607 59.5118Z" fill="#6F64FF"/>
<path d="M76.1014 13.1668L77.2339 11.7374L75.0517 12.3697L74.1401 13.5517L76.1014 13.1668Z" fill="#6F64FF"/>
<path d="M64.9137 77.5716L66.2949 78.7536L65.7424 76.6095L64.6099 75.6199L64.9137 77.5716Z" fill="#6F64FF"/>
</g>
<path d="M57.5388 4.26067C47.926 4.26067 40.0811 12.0398 40.0811 21.6332C40.0811 31.1991 47.8984 39.0057 57.5388 39.0057C67.1792 39.0057 74.9965 31.2265 74.9965 21.6332C74.9965 12.0398 67.1516 4.26067 57.5388 4.26067ZM72.5933 20.836C72.5933 21.0834 72.6209 21.3583 72.6209 21.6057C72.6209 21.6057 72.6209 21.6057 72.6209 21.6332C72.6209 21.3858 72.6209 21.1109 72.5933 20.836Z" fill="#00D495"/>
<path d="M48.6443 20.4237L47.5117 21.5507L54.8594 29.2199L67.6765 15.3109L66.6544 14.3488L54.8594 23.1175L48.6443 20.4237Z" fill="white"/>
</svg>
