<svg width="103" height="133" viewBox="0 0 103 133" fill="none" xmlns="http://www.w3.org/2000/svg">
<path opacity="0.1" d="M25.376 119.209L24.3493 118.625C15.7537 114.008 10.2678 105.185 10.3851 95.6303C10.4145 94.4031 10.4732 93.176 10.7078 91.9196C12.1453 83.125 18.394 75.2654 26.7548 71.73C31.6834 69.6263 37.3746 68.8374 41.1883 65.156C46.1168 60.3642 45.9115 52.6215 45.3248 45.8429C44.7967 39.0644 44.562 31.3508 49.4905 26.5591C52.6002 23.5789 57.1767 22.4394 61.5184 22.4978C73.077 22.5562 83.7554 30.0068 89.388 39.8532C95.0206 49.6997 96.0474 61.5622 94.3458 72.7234C91.9989 88.3258 84.0781 103.49 71.1114 112.956C58.2621 122.452 40.1322 125.579 25.376 119.209Z" fill="#00BDFF"/>
<path d="M68.2366 9.61267L68.2073 40.3791L65.3617 37.7203L62.516 40.3791L59.6704 37.7495L56.8248 40.4084L53.9498 37.7495L51.1042 40.4084L48.2586 37.7787L45.4129 40.4376L42.5673 37.7787L39.7217 40.4376V9.70032L68.2366 9.61267Z" fill="#F4F4F4"/>
<path d="M56.1484 19.1451L42.3896 19.189L42.393 20.2409L56.1518 20.1969L56.1484 19.1451Z" fill="#AFAFAF"/>
<path d="M61.5172 15.0234L46.5557 15.0712L46.5591 16.123L61.5206 16.0752L61.5172 15.0234Z" fill="#AFAFAF"/>
<path d="M65.2721 19.1005L60.1089 19.1169L60.1123 20.1688L65.2755 20.1523L65.2721 19.1005Z" fill="#AFAFAF"/>
<path d="M50.8092 22.6306L42.3896 22.6575L42.393 23.7093L50.8126 23.6824L50.8092 22.6306Z" fill="#AFAFAF"/>
<path d="M65.3307 22.5481L60.1675 22.5646L60.1709 23.6164L65.3341 23.5999L65.3307 22.5481Z" fill="#AFAFAF"/>
<path d="M53.8895 26.0734L42.4189 26.11L42.4223 27.1618L53.8928 27.1252L53.8895 26.0734Z" fill="#AFAFAF"/>
<path d="M65.3312 26.0251L60.168 26.0416L60.1714 27.0934L65.3346 27.0769L65.3312 26.0251Z" fill="#AFAFAF"/>
<path d="M51.6599 29.5247L42.4482 29.5541L42.4516 30.606L51.6633 30.5766L51.6599 29.5247Z" fill="#AFAFAF"/>
<path d="M65.3307 29.502L60.1675 29.5185L60.1709 30.5703L65.3341 30.5539L65.3307 29.502Z" fill="#AFAFAF"/>
<path d="M54.8282 32.9967L42.4482 33.0362L42.4516 34.088L54.8316 34.0485L54.8282 32.9967Z" fill="#AFAFAF"/>
<path d="M65.3312 32.979L60.168 32.9955L60.1714 34.0473L65.3346 34.0308L65.3312 32.979Z" fill="#AFAFAF"/>
<path d="M78.0349 40.759V121.138C78.0349 123.65 75.9813 125.696 73.4584 125.696H34.2064C32.9449 125.696 31.7714 125.17 30.95 124.351C30.1286 123.533 29.6299 122.394 29.6299 121.138V40.759C29.6299 38.2462 31.6834 36.201 34.2064 36.201H73.4584C74.1918 36.201 74.9252 36.3763 75.5413 36.6977C77.0375 37.4574 78.0349 39.0059 78.0349 40.759Z" fill="#6F64FF"/>
<path d="M78.0347 40.759V121.137C78.0347 123.65 75.9811 125.695 73.4582 125.695H34.4995C33.238 125.695 32.0646 125.17 31.2432 124.351L75.5117 36.6977C77.0372 37.4574 78.0347 39.0059 78.0347 40.759Z" fill="#6F64FF"/>
<path d="M76.3625 40.496V121.43C76.3625 122.54 75.4531 123.446 74.3383 123.446H33.5901C32.7687 123.446 32.0353 122.949 31.7419 122.219C31.6246 121.985 31.5952 121.722 31.5952 121.43V40.496C31.5952 39.3857 32.5046 38.48 33.6194 38.48H74.3676C74.661 38.48 74.925 38.5384 75.1597 38.6261C75.8638 38.9475 76.3625 39.6487 76.3625 40.496Z" fill="#FC4E69"/>
<path d="M65.919 42.5121H42.0392C40.9831 42.5121 40.1323 41.6647 40.1323 40.6129V39.7948C40.1323 38.7429 40.9831 37.8956 42.0392 37.8956H65.919C66.9751 37.8956 67.8259 38.7429 67.8259 39.7948V40.6129C67.8259 41.6355 66.9751 42.5121 65.919 42.5121Z" fill="#6F64FF"/>
<path d="M60.6677 40.4668H45.0021C44.7381 40.4668 44.5327 40.2623 44.5327 39.9993V39.7948C44.5327 39.5319 44.7381 39.3273 45.0021 39.3273H60.6677C60.9317 39.3273 61.1371 39.5319 61.1371 39.7948V39.9993C61.1371 40.2331 60.9024 40.4668 60.6677 40.4668Z" fill="black"/>
<path d="M65.1854 39.8532C65.1854 40.2331 64.892 40.5253 64.5107 40.5253C64.1293 40.5253 63.8359 40.2331 63.8359 39.8532C63.8359 39.4734 64.1293 39.1812 64.5107 39.1812C64.8627 39.152 65.1854 39.4734 65.1854 39.8532Z" fill="black"/>
<g opacity="0.2">
<path d="M56.9689 60.5359L36.1694 60.6024L36.1746 62.2093L56.9741 62.1429L56.9689 60.5359Z" fill="white"/>
<path d="M65.0656 54.3095L42.4473 54.3817L42.4524 55.9887L65.0708 55.9165L65.0656 54.3095Z" fill="white"/>
<path d="M70.8157 60.4689L62.9829 60.494L62.9881 62.1009L70.8209 62.0759L70.8157 60.4689Z" fill="white"/>
<path d="M48.9014 65.808L36.1694 65.8487L36.1746 67.4557L48.9066 67.415L48.9014 65.808Z" fill="white"/>
<path d="M70.8743 65.7282L63.0415 65.7532L63.0467 67.3602L70.8795 67.3351L70.8743 65.7282Z" fill="white"/>
<path d="M53.5365 71.0599L36.1987 71.1152L36.2039 72.7222L53.5417 72.6669L53.5365 71.0599Z" fill="white"/>
<path d="M70.8743 70.9582L63.0415 70.9832L63.0467 72.5902L70.8795 72.5652L70.8743 70.9582Z" fill="white"/>
<path d="M50.1628 76.2662L36.228 76.3107L36.2332 77.9177L50.168 77.8732L50.1628 76.2662Z" fill="white"/>
<path d="M70.8743 76.2175L63.0415 76.2425L63.0467 77.8495L70.8795 77.8245L70.8743 76.2175Z" fill="white"/>
<path d="M55.0033 81.5177L36.2573 81.5776L36.2625 83.1846L55.0084 83.1247L55.0033 81.5177Z" fill="white"/>
<path d="M70.9036 81.4767L63.0708 81.5017L63.076 83.1087L70.9088 83.0837L70.9036 81.4767Z" fill="white"/>
<path d="M56.9689 87.4165L36.1694 87.483L36.1746 89.09L56.9741 89.0235L56.9689 87.4165Z" fill="white"/>
<path d="M70.8157 87.3495L62.9829 87.3745L62.9881 88.9815L70.8209 88.9565L70.8157 87.3495Z" fill="white"/>
<path d="M48.9014 92.6887L36.1694 92.7293L36.1746 94.3363L48.9066 94.2956L48.9014 92.6887Z" fill="white"/>
<path d="M70.8743 92.6088L63.0415 92.6338L63.0467 94.2408L70.8795 94.2158L70.8743 92.6088Z" fill="white"/>
<path d="M53.5365 97.9405L36.1987 97.9958L36.2039 99.6028L53.5417 99.5475L53.5365 97.9405Z" fill="white"/>
<path d="M70.8743 97.8388L63.0415 97.8638L63.0467 99.4708L70.8795 99.4458L70.8743 97.8388Z" fill="white"/>
<path d="M50.1628 103.147L36.228 103.191L36.2332 104.798L50.168 104.754L50.1628 103.147Z" fill="white"/>
<path d="M70.8743 103.098L63.0415 103.123L63.0467 104.73L70.8795 104.705L70.8743 103.098Z" fill="white"/>
<path d="M55.0033 108.398L36.2573 108.458L36.2625 110.065L55.0084 110.005L55.0033 108.398Z" fill="white"/>
<path d="M70.9036 108.357L63.0708 108.382L63.076 109.989L70.9088 109.964L70.9036 108.357Z" fill="white"/>
</g>
<path d="M47.8479 78.6547L39.575 67.5227C39.311 67.2013 39.6043 66.7338 40.0444 66.7338H48.0532C48.2586 66.7338 48.4346 66.8214 48.5226 66.9675L53.0697 73.1617C53.3044 73.4831 53.8031 73.4831 54.0378 73.1617L58.585 66.9675C58.7023 66.8214 58.8783 66.7338 59.0544 66.7338H67.0632C67.5326 66.7338 67.7966 67.172 67.5326 67.5227L59.2597 78.6547C59.1424 78.83 59.1424 79.0345 59.2597 79.2098L68.354 91.3353C68.618 91.6567 68.3246 92.1241 67.8846 92.1241H59.8758C59.6704 92.1241 59.4944 92.0365 59.4064 91.8904L54.0672 84.732C53.8325 84.4398 53.3338 84.4398 53.0991 84.732L47.7599 91.8904C47.6425 92.0365 47.4665 92.1241 47.2905 92.1241H39.2816C38.8123 92.1241 38.5482 91.6859 38.8123 91.3353L47.9065 79.2098C47.9945 79.0637 47.9945 78.83 47.8479 78.6547Z" fill="white"/>
<path d="M14.2575 47.6837C14.2575 47.6837 7.5981 54.433 7.2754 57.2087C6.92336 60.0136 10.7371 64.3671 10.7371 64.3671L14.2575 47.6837Z" fill="#03B3E2"/>
<path d="M18.0415 124.001C18.0415 124.001 18.3055 127.945 19.0683 128.004C19.1563 128.004 22.9407 128.004 22.9407 128.004L27.7812 127.975C27.7812 127.975 27.7518 126.806 26.3437 126.572C24.9356 126.338 22.5593 125.345 21.7085 123.504C20.7991 121.517 18.0415 124.001 18.0415 124.001Z" fill="black"/>
<path d="M7.30469 124.03C7.30469 124.03 7.56871 127.974 8.33146 128.033C8.41947 128.033 12.2039 128.033 12.2039 128.033L17.015 127.974C17.015 127.974 16.9857 126.806 15.5775 126.572C14.1694 126.338 11.7932 125.345 10.9424 123.504C10.033 121.547 7.30469 124.03 7.30469 124.03Z" fill="black"/>
<path d="M23.2929 81.6056C23.2929 81.6056 22.0608 89.6406 17.367 103.928C12.6732 118.216 12.0571 124.41 12.0571 124.41L7.01124 124.293C7.01124 124.293 6.92323 108.691 9.09412 101.503C11.2357 94.3154 9.50483 75.616 9.50483 75.616L23.2929 81.6056Z" fill="black"/>
<path d="M25.7571 76.025C25.7571 76.025 25.9624 88.1505 23.8795 103.022C21.7966 117.924 22.5301 124.235 22.5301 124.235L17.4842 124.41C17.4842 124.41 14.4332 109.538 15.284 102.087C16.1347 94.6368 11.0889 76.5217 11.0889 76.5217L25.7571 76.025Z" fill="black"/>
<path d="M15.9297 47.6836L18.6286 49.4367L22.501 48.7063C22.4424 48.3849 22.1783 47.0993 21.9436 45.9306C21.9436 45.8721 21.9143 45.7845 21.9143 45.726C21.709 44.7326 21.5329 43.8853 21.5329 43.8853L17.8952 42.2783L16.5458 41.694C16.5458 41.7232 16.6631 42.8043 16.6631 42.9503C16.9271 45.7553 15.9297 47.6836 15.9297 47.6836Z" fill="#FFB27D"/>
<path d="M21.5032 46.7779C21.4152 46.7487 16.8094 45.4047 16.3106 45.58C15.8119 45.7553 15.5186 46.7195 15.5186 46.7195L23.058 48.3849C23.058 48.3849 22.4713 47.187 21.5032 46.7779Z" fill="#03B3E2"/>
<path d="M9.18205 77.5444C9.97413 81.0797 22.9408 81.4888 26.2852 78.2456C26.6665 77.8658 26.6665 76.1711 26.5198 73.8629C26.2265 69.3634 25.3171 62.614 25.2584 59.1663C25.229 57.5009 24.9944 55.8062 24.701 54.2577C24.0556 50.9561 23.0288 48.3557 23.0288 48.3557C23.0288 48.3557 16.6922 46.3396 15.4894 46.6902C9.79811 48.3849 8.38997 74.009 9.18205 77.5444Z" fill="#00BDFF"/>
<path d="M26.5199 73.8922C26.2266 69.3926 25.3171 62.6433 25.2585 59.1956C25.2291 57.5301 24.9944 55.8355 24.7011 54.2869L20.8874 53.6149C20.8874 53.6149 16.6923 69.714 26.5199 73.8922Z" fill="#03B3E2"/>
<path d="M24.4368 67.6395C24.4368 67.6395 24.1728 68.2531 24.7302 68.6621C25.2876 69.0712 25.6396 69.7432 25.5223 70.2399C25.4049 70.7366 24.2021 71.5255 23.7914 71.4086C23.3807 71.2917 22.53 70.6197 22.618 70.386C22.706 70.123 22.0313 68.107 23.058 67.3181C24.0555 66.5584 24.4368 67.6395 24.4368 67.6395Z" fill="#FFB27D"/>
<path d="M20.2417 47.6837C20.2417 47.6837 23.8501 48.1511 26.8424 52.5046C29.8347 56.8581 31.7709 60.0721 31.2429 61.6498C30.6855 63.2276 25.7276 68.6621 24.8769 68.6621C24.0261 68.6621 22.6473 68.0485 22.5593 66.6461C22.5593 66.6461 25.6983 61.0947 25.0235 60.3058C24.7302 59.9844 20.8284 56.8581 20.2124 58.4359C19.1563 61.007 20.2417 47.6837 20.2417 47.6837Z" fill="#00BDFF"/>
<path d="M16.9272 43.0088C17.7192 44.3528 20.7115 45.4923 21.9437 45.9306C21.9437 45.8721 21.9143 45.7845 21.9143 45.726C21.709 44.7326 21.533 43.8853 21.533 43.8853L17.8953 42.2783C17.1032 42.2783 16.6045 42.4536 16.9272 43.0088Z" fill="#FCA56B"/>
<path d="M22.8822 43.6516C22.8822 43.6516 17.0443 45.4923 15.9588 41.8401C14.8734 38.1879 13.3772 35.9965 17.0736 34.6525C20.77 33.3377 21.8848 34.5064 22.5595 35.6459C23.2049 36.7562 24.3784 43.0672 22.8822 43.6516Z" fill="#FFB27D"/>
<path d="M22.3248 35.266C22.3248 35.266 21.9727 39.5026 21.0926 39.3273C20.2126 39.152 19.4205 39.0059 19.5378 40.2915C19.6552 41.5771 20.8873 43.038 18.1883 43.2718C15.4894 43.5055 11.5583 36.5516 12.2917 35.2368C14.4333 31.4093 25.4344 30.6204 22.3248 35.266Z" fill="black"/>
</svg>
