<svg width="152" height="116" viewBox="0 0 152 116" fill="none" xmlns="http://www.w3.org/2000/svg">
<g opacity="0.1">
<path d="M29.2435 109.586H120.804H7.43973C3.46202 82.0979 23.4611 86.0196 18.5257 61.6101C18.0101 59.0079 17.6418 56.5523 17.4208 54.2066C17.384 54.2066 17.3472 54.2066 17.3472 54.2066C16.5369 45.8869 18.1574 39.2531 18.8941 36.8341C26.9968 10.4455 61.8017 11.1419 74.2873 28.7709C75.1712 30.0171 76.0183 31.1166 76.9023 32.0695C79.4068 35.2948 83.716 37.4205 85.5575 38.2635V38.3368C91.7082 40.4992 97.196 38.0436 101.726 37.0907C115.464 34.1586 133.106 39.8395 138.446 57.322C146.623 84.1504 137.378 109.586 137.378 109.586H121.504" fill="#07BBFD"/>
</g>
<path d="M96.6804 23.2733V106.104C96.6804 108.706 94.5811 110.796 91.9661 110.796H51.4892C50.1633 110.796 48.9847 110.282 48.1376 109.403C47.2905 108.56 46.7749 107.387 46.7749 106.104V23.2733C46.7749 20.6711 48.8742 18.582 51.4892 18.582H91.9661C92.7395 18.582 93.4761 18.7652 94.1023 19.0951C95.6491 19.8648 96.6804 21.4408 96.6804 23.2733Z" fill="#6F64FF"/>
<path d="M96.6805 23.2733V106.104C96.6805 108.706 94.5812 110.796 91.9662 110.796H51.8208C50.4949 110.796 49.3163 110.282 48.4692 109.403L94.1392 19.0951C95.6493 19.8648 96.6805 21.4408 96.6805 23.2733Z" fill="#6F64FF"/>
<path d="M94.9496 22.9801V106.361C94.9496 107.497 94.0288 108.413 92.887 108.413H50.8633C50.0162 108.413 49.2796 107.9 48.9481 107.167C48.8376 106.911 48.8008 106.654 48.8008 106.361V22.9801C48.8008 21.8439 49.7215 20.9276 50.8633 20.9276H92.887C93.1817 20.9276 93.4395 21.0009 93.6973 21.0742C94.4339 21.4041 94.9496 22.1371 94.9496 22.9801Z" fill="white"/>
<path d="M83.7528 25.0692H59.997C58.6711 25.0692 57.603 24.0063 57.603 22.6869C57.603 21.3675 58.6711 20.3046 59.997 20.3046H83.7528C85.0787 20.3046 86.1468 21.3675 86.1468 22.6869C86.1468 24.0063 85.0787 25.0692 83.7528 25.0692Z" fill="#6F64FF"/>
<path d="M78.6703 22.9434H62.7226C62.3911 22.9434 62.1333 22.6869 62.1333 22.357C62.1333 22.0272 62.3911 21.7706 62.7226 21.7706H78.6703C79.0017 21.7706 79.2595 22.0272 79.2595 22.357C79.2595 22.6869 79.0017 22.9434 78.6703 22.9434Z" fill="black"/>
<path d="M83.4215 22.3204C83.4215 22.7235 83.0901 23.0167 82.7218 23.0167C82.3166 23.0167 82.022 22.6869 82.022 22.3204C82.022 21.9172 82.3535 21.624 82.7218 21.624C83.0901 21.624 83.4215 21.9539 83.4215 22.3204Z" fill="black"/>
<path d="M112.96 102.109C112.96 102.109 112.702 105.408 112.923 106.471C113.033 107.057 113.66 108.23 113.365 108.78C113.07 109.33 112.739 109.439 112.739 109.439L105.152 109.549C104.747 109.549 105.004 109.293 105.336 109.036C105.888 108.633 106.33 108.377 108.061 107.534C108.172 107.497 108.577 107.204 108.724 107.13C109.093 106.911 109.498 106.544 109.792 106.178C110.345 105.591 110.382 102.696 110.382 102.696L112.96 102.109Z" fill="#6B4227"/>
<path d="M107.03 58.3482C107.03 58.3482 103.752 56.7355 104.378 60.254C105.004 63.7725 109.792 103.172 109.792 103.172L114.286 103.429C114.286 103.429 114.875 90.2711 114.728 88.4019C114.617 86.5327 113.844 83.6006 113.844 83.6006L113.475 71.9457L109.24 57.5419L107.03 58.3482Z" fill="#05B3E2"/>
<path d="M108.724 107.167C110.713 107.68 112.223 107.314 113.033 106.984C113.254 107.57 113.549 108.34 113.365 108.78C113.181 109.293 112.923 109.549 112.702 109.549C110.86 109.586 105.962 109.549 104.562 109.549C104.378 109.549 104.268 109.33 104.378 109.183C104.783 108.816 108.577 107.277 108.724 107.167Z" fill="black"/>
<path d="M104.378 34.6717C104.378 34.6717 101.616 29.3573 101.211 27.4149C100.769 25.4724 99.2956 15.6133 99.4429 14.9902C99.5534 14.3671 101.911 12.8278 101.616 12.278C101.321 11.7283 99.0378 11.1419 98.5221 11.1785C98.0065 11.2152 96.6438 11.9482 96.6069 12.4979C96.6069 13.0844 97.0857 24.6294 97.3804 27.1949C97.675 29.7239 101.1 37.5305 101.1 37.5305L104.378 34.6717Z" fill="#6B4227"/>
<path d="M125.851 76.1239C125.851 76.1239 128.134 73.7416 128.65 72.752C128.908 72.2389 129.165 70.9194 129.718 70.6995C130.27 70.4796 130.639 70.5896 130.639 70.5896L136.605 75.2809C136.937 75.5374 136.568 75.5741 136.126 75.5374C135.463 75.5008 134.948 75.4275 133.069 74.9877C132.959 74.951 132.48 74.9144 132.296 74.8777C131.854 74.8044 131.338 74.8411 130.86 74.9144C130.049 75.0243 128.208 77.26 128.208 77.26L125.851 76.1239Z" fill="#6B4227"/>
<path d="M132.296 74.8411C131.043 73.1918 129.681 72.4954 128.833 72.2389C129.054 71.6524 129.275 70.8461 129.644 70.6262C130.123 70.333 130.454 70.4063 130.638 70.5163C132.075 71.6524 135.905 74.6945 137.01 75.5741C137.157 75.684 137.12 75.9406 136.899 75.9772C136.384 76.0872 132.48 74.8777 132.296 74.8411Z" fill="black"/>
<path d="M125.924 33.0224C124.524 30.0537 121.357 28.4044 118.337 29.2107C117.232 27.7447 115.575 26.6818 113.807 26.4619C110.345 25.9855 105.888 27.6348 106.33 31.2632C105.225 33.7921 105.52 37.2739 107.693 38.9965C107.288 42.3318 110.639 45.2638 114.58 44.8973C116.164 47.0964 118.926 48.3792 121.504 47.866C122.13 47.7561 123.051 47.5362 123.235 47.5362C123.051 47.4995 127.729 50.6149 130.97 45.1172C134.248 39.5096 130.97 33.2423 125.924 33.0224Z" fill="black"/>
<path d="M105.704 59.631C105.704 59.631 113.033 56.369 113.144 56.7355C114.065 59.7043 116.901 58.7513 118.595 63.9558C119.295 66.1548 120.031 80.6686 120.031 80.6686C120.031 80.6686 122.904 78.2863 127.029 74.0714C127.361 73.7415 130.454 76.7103 130.454 76.7103C122.278 87.7788 118.742 88.3652 117.379 87.7422C114.543 86.4594 108.503 68.3172 108.54 68.3172C107.803 66.9245 105.704 59.631 105.704 59.631Z" fill="#00BDFF"/>
<path d="M117.821 39.1431C117.821 39.1431 128.392 39.1431 130.675 38.9965C132.738 38.8866 140.84 39.0698 141.172 39.0332C141.503 38.9965 143.603 35.4414 143.934 35.8079C144.266 36.1744 142.756 37.5671 143.234 37.9336C143.713 38.3002 148.759 37.4938 148.685 37.8603C148.575 38.5567 145.628 38.4834 145.628 38.8133C145.628 39.1431 148.722 38.63 148.906 39.1798C149.127 39.7295 145.96 39.3997 145.813 39.6562C145.702 39.9128 148.759 40.3526 148.428 40.9024C148.243 41.1956 145.702 40.4259 145.739 40.8291C145.739 41.2322 147.617 42.0752 147.396 42.405C147.175 42.6983 145.923 41.4521 144.855 41.4521C143.787 41.4521 143.013 40.8657 141.282 41.3422C140.435 41.5621 133.953 42.3684 128.465 42.8449C122.867 43.3213 118.263 43.4679 118.263 43.4679L117.821 39.1431Z" fill="#6B4227"/>
<path d="M102.131 46.6566C101.984 44.9706 102.316 43.6512 102.389 43.0648C101.874 41.3055 100.769 37.5305 100.4 36.7975C100.4 36.7975 102.242 33.2423 104.12 33.279C104.12 33.279 106.035 37.6404 107.546 38.4101C107.582 38.4101 108.061 38.63 108.282 38.63C109.719 38.63 114.728 38.4834 115.685 38.4468L115.169 45.5937C111.523 52.7406 112.518 56.479 113.917 57.8717C114.58 58.5314 104.857 61.1703 104.378 60.254C103.862 59.1545 102.426 50.1017 102.131 46.6566Z" fill="#FFCD1C"/>
<path d="M113.144 38.7033C114.065 38.2635 120.768 38.4834 120.768 38.4834C120.768 38.4834 121.689 43.1747 120.952 44.2743C120.952 44.2743 114.949 45.1539 115.133 45.667L113.144 38.7033Z" fill="#FFCD1C"/>
<path d="M111.376 35.6979C111.376 35.6979 111.265 38.2635 111.376 39.3264C111.486 40.3893 110.271 42.8815 108.024 42.9182C105.778 42.9548 107.693 40.5359 107.877 39.473C108.061 38.4101 108.319 34.3419 108.319 34.3419L111.376 35.6979Z" fill="#6B4227"/>
<path d="M108.356 34.3419C108.356 34.3419 108.319 35.2948 108.208 36.3943C108.908 37.2373 110.013 37.6771 111.339 37.164C111.339 36.3577 111.376 35.6979 111.376 35.6979L108.356 34.3419Z" fill="#492B1A"/>
<path d="M111.56 28.1112C111.56 28.1112 112.849 28.4777 113.549 29.7605C114.249 31.0433 114.58 34.6717 111.818 36.1744C109.093 37.6771 107.178 35.1482 107.325 32.8392C107.472 30.5302 108.172 27.4515 111.56 28.1112Z" fill="#6B4227"/>
<path d="M106.772 32.0695C106.956 32.6559 107.361 33.0224 107.73 32.9125C108.061 32.8025 108.172 32.2528 107.988 31.6664C107.803 31.0799 107.398 30.7134 107.03 30.8234C106.735 30.9333 106.588 31.4831 106.772 32.0695Z" fill="#6B4227"/>
<path d="M111.192 28.0013C111.192 28.0013 112.591 31.813 113.991 32.2528C115.427 32.6926 115.28 34.5618 115.28 34.5618C115.28 34.5618 115.538 30.2736 114.249 29.1741C112.96 28.0746 111.192 28.0013 111.192 28.0013Z" fill="black"/>
<path d="M113.402 32.9858C113.181 33.5722 113.291 34.1953 113.697 34.3419C114.102 34.4885 114.617 34.1586 114.838 33.5722C115.059 32.9858 114.949 32.3627 114.544 32.2161C114.139 32.0695 113.623 32.3994 113.402 32.9858Z" fill="#6B4227"/>
<path d="M96.6807 13.3776C96.6807 13.3776 99.2588 13.5242 99.6271 13.5242C99.9954 13.5242 101.064 12.4246 101.064 12.4246L96.6807 13.3776Z" fill="#492B1A"/>
<path d="M99.627 13.5242L100.916 12.388C100.916 12.388 100.327 11.655 100.548 11.5084C100.953 11.2885 101.653 12.1681 101.579 12.3513C101.505 12.5712 100.769 13.231 100.769 13.231L99.627 13.5242Z" fill="#6B4227"/>
<path d="M71.341 35.3314C54.9513 35.3314 41.6187 48.5991 41.6187 64.9087C41.6187 81.2183 54.9513 94.4859 71.341 94.4859C87.7306 94.4859 101.063 81.2183 101.063 64.9087C101.063 48.5991 87.7306 35.3314 71.341 35.3314ZM96.9751 63.5526C97.0119 63.9924 97.0119 64.4322 97.0119 64.872V64.9087C97.0119 64.4689 97.0119 64.0291 96.9751 63.5526Z" fill="#00D495"/>
<path d="M56.2035 62.8196L54.2515 64.7621L66.7739 77.8464L88.5776 54.1333L86.8834 52.484L66.7739 67.4376L56.2035 62.8196Z" fill="white"/>
</svg>
