<svg width="124" height="119" viewBox="0 0 124 119" fill="none" xmlns="http://www.w3.org/2000/svg">
<g opacity="0.1">
<path d="M17.7819 95.6153C37.7141 116.862 67.6375 123.804 93.4044 111.755C102.273 107.608 122.166 85.9685 121.744 69.7782C121.738 69.4695 121.727 69.1609 121.711 68.8466C120.455 37.3695 101.295 21.0502 91.5595 15.4664C78.201 7.80053 58.7466 11.51 51.984 23.7271C47.5886 31.6679 42.3096 31.449 37.4918 31.7464C32.6741 32.0495 7.34065 36.365 3.16749 54.6261C-0.711157 71.5964 7.06281 84.1895 17.7819 95.6153Z" fill="#00BDFF"/>
</g>
<path d="M107.213 103.999H19.1709C14.8755 103.999 11.3914 100.481 11.3914 96.1428V78.1342C11.3914 73.7962 14.8755 70.2776 19.1709 70.2776H107.213C111.508 70.2776 114.992 73.7962 114.992 78.1342V96.1428C114.992 100.481 111.508 103.999 107.213 103.999Z" fill="#6F64FF"/>
<path d="M105.251 102.018H21.1325C16.8371 102.018 13.353 98.4997 13.353 94.1617V80.1152C13.353 75.7772 16.8371 72.2585 21.1325 72.2585H105.251C109.547 72.2585 113.031 75.7772 113.031 80.1152V94.1617C113.031 98.4997 109.547 102.018 105.251 102.018Z" fill="white"/>
<mask id="mask0_2018_5925" style="mask-type:luminance" maskUnits="userSpaceOnUse" x="13" y="72" width="101" height="10">
<path d="M113.142 72.2642H13.0918V81.5518H113.142V72.2642Z" fill="white"/>
</mask>
<g mask="url(#mask0_2018_5925)">
<path d="M105.251 102.018H21.1325C16.8371 102.018 13.353 98.4997 13.353 94.1617V80.1152C13.353 75.7772 16.8371 72.2585 21.1325 72.2585H105.251C109.547 72.2585 113.031 75.7772 113.031 80.1152V94.1617C113.031 98.4997 109.547 102.018 105.251 102.018Z" fill="#00BDFF"/>
</g>
<path d="M24.6944 84.442C26.7782 84.442 28.6786 84.8741 30.3401 86.2041L28.7175 88.3479C27.5117 87.5285 26.1281 87.2311 24.7 87.2311C21.9327 87.2311 20.5657 89.0718 20.5657 91.7431C20.5657 94.4143 21.9327 96.255 24.7 96.255C25.6002 96.255 26.5059 96.1372 27.3061 95.7275V93.1909H24.6611V90.5029H30.2568V97.4055C28.7398 98.7074 26.6393 99.0441 24.7 99.0441C20.2212 99.0441 17.2928 96.3055 17.2928 91.7431C17.2816 87.1806 20.2156 84.442 24.6944 84.442Z" fill="#6F64FF"/>
<path d="M42.8095 84.8292V87.6183H35.8079V90.211H42.3983V93.0001H35.8135V95.8734H42.9095V98.6625H32.635V84.8348H42.8095V84.8292Z" fill="#6F64FF"/>
<path d="M45.199 98.6569V84.8292H49.2277L54.5566 94.0495V84.8292H57.7351V98.6569H53.7064L48.3775 89.4366V98.6569H45.199Z" fill="#6F64FF"/>
<path d="M64.0754 88.5443L68.1986 84.8292H70.7269V98.6569H67.5484V89.3412L66.0592 90.66L64.0754 88.5443Z" fill="#6F64FF"/>
<path d="M74.1888 95.1214C75.4391 95.9127 76.9283 96.2606 78.3898 96.2606C79.3622 96.2606 81.0348 96.1652 81.0348 94.824C81.0348 93.6062 79.1177 93.3368 78.2453 93.146C75.8003 92.6073 73.0775 91.5467 73.0775 88.5724C73.0775 85.4858 75.7114 84.442 78.3842 84.442C80.218 84.442 82.1462 84.79 83.691 85.8282L82.1462 88.0954C80.9126 87.478 79.7512 87.2255 78.3842 87.2255C77.5062 87.2255 76.2949 87.4388 76.2949 88.5668C76.2949 89.7845 77.9452 90.082 78.8454 90.284C81.346 90.8508 84.2522 91.6926 84.2522 94.8184C84.2522 98.1855 81.1682 99.0441 78.3898 99.0441C76.3171 99.0441 74.3111 98.685 72.644 97.383L74.1888 95.1214Z" fill="#6F64FF"/>
<path d="M91.2649 84.442C94.0544 84.442 96.2494 85.772 96.2494 88.8193C96.2494 90.5814 94.9769 91.8553 93.8155 93.017L90.9204 95.8734H96.3049V98.6625H86.1471V96.4851L91.7817 90.9294C92.3152 90.3962 93.0709 89.6386 93.0709 88.8249C93.0709 87.725 92.2763 87.2311 91.2649 87.2311C89.9646 87.2311 89.2978 88.0112 88.8088 89.1223L85.9749 88.1571C86.7472 85.7271 88.7644 84.442 91.2649 84.442Z" fill="#6F64FF"/>
<path d="M100.762 94.9475C101.323 95.952 102.406 96.2606 103.484 96.2606C104.518 96.2606 105.852 95.9913 105.852 94.6893C105.852 92.8598 103.034 92.9552 101.745 92.9552V90.2672C102.951 90.2672 105.468 90.2503 105.468 88.5106C105.468 87.45 104.301 87.2367 103.484 87.2367C102.54 87.2367 101.662 87.5173 101.145 88.3535L98.311 87.3883C99.15 85.295 101.384 84.4476 103.484 84.4476C106.013 84.4476 108.652 85.5644 108.652 88.505C108.652 89.9304 107.824 90.9743 106.524 91.4737C108.08 91.9395 109.036 92.9889 109.036 94.6837C109.036 97.8488 106.218 99.0441 103.49 99.0441C101.095 99.0441 98.8389 98.3595 97.9331 95.9071L100.762 94.9475Z" fill="#6F64FF"/>
<path d="M53.1506 79.0433V75.1599H54.9677C55.6845 75.1599 56.4291 75.3395 56.4291 76.1981C56.4291 76.5909 56.1513 76.9108 55.7734 76.9894C56.2347 77.0848 56.5681 77.3822 56.5681 77.8817C56.5681 78.774 55.779 79.049 55.0177 79.049H53.1506V79.0433ZM54.9844 76.6863C55.2511 76.6863 55.5234 76.6246 55.5234 76.2991C55.5234 75.9736 55.2567 75.9119 54.9844 75.9119H54.0397V76.6807H54.9844V76.6863ZM54.0453 78.2913H54.9899C55.3178 78.2913 55.6512 78.2577 55.6512 77.8536C55.6512 77.4496 55.3178 77.4159 54.9899 77.4159H54.0453V78.2913Z" fill="white"/>
<path d="M57.1516 79.0433V75.1599H58.8742C59.7022 75.1599 60.3857 75.5696 60.3857 76.4731C60.3857 77.0062 60.0967 77.3878 59.6188 77.5899L60.4246 79.0433H59.4688L58.7297 77.7077H58.0463V79.0433H57.1516ZM58.0463 77.0062H58.8742C59.2243 77.0062 59.4855 76.8547 59.4855 76.4731C59.4855 76.0915 59.2299 75.94 58.8742 75.94H58.0463V77.0062Z" fill="white"/>
<path d="M62.3639 75.1599H63.2474L64.8367 79.0433H63.8753L63.5808 78.2801H62.0305L61.736 79.0433H60.7747L62.3639 75.1599ZM62.325 77.5281H63.2863L62.8084 76.2991L62.325 77.5281Z" fill="white"/>
<path d="M65.5701 78.0501C65.9202 78.2746 66.3425 78.37 66.7481 78.37C67.0204 78.37 67.4927 78.3419 67.4927 77.9659C67.4927 77.6236 66.9537 77.5506 66.7092 77.4945C66.0202 77.343 65.2589 77.0456 65.2589 76.2094C65.2589 75.3452 65.998 75.0477 66.7481 75.0477C67.2649 75.0477 67.8039 75.1431 68.2374 75.4406L67.8039 76.0747C67.4594 75.9007 67.1316 75.8334 66.7481 75.8334C66.5036 75.8334 66.1591 75.8951 66.1591 76.2094C66.1591 76.5517 66.6259 76.6359 66.8759 76.692C67.5761 76.8491 68.3929 77.0848 68.3929 77.9659C68.3929 78.9087 67.5261 79.15 66.7481 79.15C66.1647 79.15 65.6034 79.049 65.1311 78.6842L65.5701 78.0501Z" fill="white"/>
<path d="M68.9597 75.1599H69.8544V79.0433H68.9597V75.1599Z" fill="white"/>
<path d="M71.4659 78.2633H73.3386V79.0433H70.5713V75.1599H71.4659V78.2633Z" fill="white"/>
<path d="M59.958 4.20895C61.9529 0.72397 66.9317 0.72397 68.9266 4.20895L82.7464 28.3849L96.5662 52.5609C98.5611 56.0459 96.0661 60.4064 92.0818 60.4064H64.4367H36.8028C32.8185 60.4064 30.3235 56.0515 32.3184 52.5609L46.1382 28.3849L59.958 4.20895Z" fill="#FFCD1C"/>
<path d="M92.0318 59.1998H36.8528C35.4303 59.1998 34.1522 58.4591 33.4409 57.2132C32.7297 55.9674 32.7297 54.4802 33.4409 53.2344L61.0304 4.9722C61.7417 3.72636 63.0198 2.9856 64.4423 2.9856C65.8649 2.9856 67.1429 3.72636 67.8542 4.9722L95.4437 53.2344C96.155 54.4802 96.155 55.9674 95.4437 57.2132C94.7324 58.4591 93.4599 59.1998 92.0318 59.1998ZM64.4423 4.78701C63.6644 4.78701 62.9698 5.19107 62.5808 5.87572L34.9913 54.1379C34.6023 54.817 34.6023 55.6307 34.9913 56.3097C35.3802 56.9887 36.0748 57.3984 36.8528 57.3984H92.0318C92.8098 57.3984 93.5044 56.9944 93.8934 56.3097C94.2823 55.6307 94.2823 54.817 93.8934 54.1379L66.3038 5.87572C65.9149 5.19668 65.2203 4.78701 64.4423 4.78701Z" fill="black"/>
<path d="M60.4136 48.2959C60.4136 45.894 62.1306 44.0421 64.4478 44.0421C66.765 44.0421 68.482 45.894 68.482 48.2959C68.482 50.681 66.765 52.5329 64.4478 52.5329C62.1251 52.5385 60.4136 50.6866 60.4136 48.2959Z" fill="black"/>
<path d="M64.4423 17.0265C66.6095 17.0265 68.3043 18.9121 68.0987 21.0895L66.1761 41.3316H62.7086L60.786 21.0895C60.5804 18.9121 62.2752 17.0265 64.4423 17.0265Z" fill="black"/>
</svg>
