<svg width="87" height="72" viewBox="0 0 87 72" fill="none" xmlns="http://www.w3.org/2000/svg">
<g opacity="0.1">
<path d="M77.2983 30.3826C68.8208 15.9591 51.2216 6.27009 32.5537 6.5649C26.127 6.6661 9.30432 12.8086 6.413 20.6584C6.35819 20.808 6.30338 20.9576 6.25313 21.1116C0.908985 36.468 9.85701 48.3658 14.9317 53.1091C21.8973 59.6257 34.9425 61.9841 41.6067 57.5664C45.9414 54.6932 49.2393 55.9252 52.3498 56.8052C55.4604 57.6852 72.347 61.0029 78.5544 53.1355C84.3234 45.827 81.8568 38.14 77.2983 30.3826Z" fill="#00BDFF"/>
</g>
<path d="M43.0318 60.6554C59.1111 60.6554 72.146 48.0987 72.146 32.6092C72.146 17.1197 59.1111 4.56299 43.0318 4.56299C26.9525 4.56299 13.9176 17.1197 13.9176 32.6092C13.9176 48.0987 26.9525 60.6554 43.0318 60.6554Z" fill="#6F64FF"/>
<path d="M45.6833 48.827C45.6844 47.9424 44.4849 47.224 43.0041 47.2223C41.5233 47.2207 40.322 47.9364 40.3209 48.821C40.3198 49.7055 41.5194 50.424 43.0002 50.4256C44.481 50.4273 45.6823 49.7116 45.6833 48.827Z" fill="#00BDFF"/>
<path d="M43.0455 14.8372C36.3676 14.8284 30.9504 20.0381 30.9412 26.4666C30.9367 29.9823 32.549 33.1328 35.1024 35.2712C35.1115 35.28 36.9888 37.2381 37.2948 39.2885L37.3496 40.5425C37.3679 40.9518 37.5324 41.3478 37.8201 41.6514C37.8475 41.6778 37.8704 41.7042 37.8978 41.7306L48.1202 41.7438C48.1476 41.7174 48.175 41.691 48.1978 41.6646C48.4856 41.361 48.6546 40.9694 48.6728 40.5557L48.7322 39.3017C49.0428 37.2513 50.9247 35.2976 50.9338 35.2888C53.4917 33.1548 55.1087 30.0087 55.1132 26.493C55.1269 20.0645 49.7188 14.846 43.0455 14.8372Z" fill="white"/>
<path opacity="0.6" d="M43.0455 14.8372C36.3676 14.8284 30.9504 20.0381 30.9412 26.4666C30.9367 29.9823 32.549 33.1328 35.1024 35.2712C35.1115 35.28 36.9888 37.2381 37.2948 39.2885L37.3496 40.5425C37.3679 40.9518 37.5324 41.3478 37.8201 41.6514C37.8475 41.6778 37.8704 41.7042 37.8978 41.7306L48.1202 41.7438C48.1476 41.7174 48.175 41.691 48.1978 41.6646C48.4856 41.361 48.6546 40.9694 48.6728 40.5557L48.7322 39.3017C49.0428 37.2513 50.9247 35.2976 50.9338 35.2888C53.4917 33.1548 55.1087 30.0087 55.1132 26.493C55.1269 20.0645 49.7188 14.846 43.0455 14.8372Z" fill="#FFCD1C"/>
<path d="M43.0044 49.0038C40.1679 48.9994 37.8704 46.7818 37.8749 44.0493L37.8795 41.7305L48.1522 41.7437L48.1476 44.0625C48.143 46.795 45.8409 49.0082 43.0044 49.0038Z" fill="#6F64FF"/>
<path d="M46.051 35.39C39.3731 35.3812 33.9605 30.1583 33.9696 23.7254C33.9742 21.1117 34.8694 18.7005 36.3767 16.76C33.1063 18.8413 30.9458 22.4097 30.9412 26.471C30.9367 29.9867 32.549 33.1372 35.1024 35.2756C35.1115 35.2844 36.9888 37.2425 37.2948 39.2929L37.3496 40.5469C37.3679 40.9562 37.5324 41.3522 37.8201 41.6558C37.8475 41.6822 37.8704 41.7086 37.8978 41.735L48.1202 41.7482C48.1476 41.7218 48.175 41.6954 48.1978 41.669C48.4856 41.3654 48.6546 40.9738 48.6728 40.5601L48.7322 39.3061C49.0428 37.2557 50.9247 35.302 50.9338 35.2932C51.5824 34.752 52.1671 34.1492 52.6832 33.4892C50.7785 34.6904 48.4993 35.39 46.051 35.39Z" fill="#FFCD1C"/>
<path d="M48.0882 42.8394L37.9434 42.8262C37.6648 42.8262 37.441 42.6106 37.4456 42.3421V42.2101C37.4456 41.9417 37.6694 41.7261 37.948 41.7305L48.0927 41.7437C48.3714 41.7437 48.5952 41.9593 48.5906 42.2277V42.3597C48.5861 42.6238 48.3622 42.8394 48.0882 42.8394Z" fill="#00BDFF"/>
<path d="M48.0836 45.0352L37.9389 45.022C37.6602 45.022 37.4364 44.8064 37.441 44.5379V44.4059C37.441 44.1375 37.6648 43.9219 37.9434 43.9263L48.0882 43.9395C48.3668 43.9395 48.5906 44.1551 48.5861 44.4235V44.5556C48.5861 44.8196 48.3577 45.0352 48.0836 45.0352Z" fill="#00BDFF"/>
<path d="M48.079 47.4902L37.9343 47.477C37.6557 47.477 37.4318 47.2614 37.4364 46.993V46.861C37.4364 46.5926 37.6602 46.377 37.9388 46.3814L48.0836 46.3946C48.3622 46.3946 48.586 46.6102 48.5815 46.8786V47.0106C48.5815 47.279 48.3577 47.4946 48.079 47.4902Z" fill="#00BDFF"/>
<path d="M40.5115 20.7485H45.6273L45.271 31.5816H40.8632L40.5115 20.7485ZM43.0603 33.2228C44.4306 33.2228 45.5405 34.292 45.5405 35.6121C45.5405 36.9321 44.4306 38.0013 43.0603 38.0013C41.69 38.0013 40.5801 36.9321 40.5801 35.6121C40.5801 34.292 41.69 33.2228 43.0603 33.2228Z" fill="#6F64FF"/>
<path d="M37.5506 54.4778C37.5506 54.4778 37.7333 66.0896 34.6273 69.6053C34.6273 69.6053 45.9505 68.5493 51.4271 54.4778H37.5506Z" fill="#6F64FF"/>
</svg>
