<svg width="109" height="106" viewBox="0 0 109 106" fill="none" xmlns="http://www.w3.org/2000/svg">
<path opacity="0.1" d="M93.8795 9.41985L93.0467 8.54091C85.9028 1.20178 75.4279 -1.78661 65.7419 1.06994C64.5148 1.42151 63.2876 1.90493 62.1042 2.47624C53.6454 6.47541 47.4657 15.0451 46.2824 24.4936C45.5811 30.031 46.4138 36.0517 43.7842 40.9738C40.3218 47.3461 32.4766 49.3237 25.4203 50.73C18.4078 52.1363 10.5188 54.1139 7.10021 60.5301C4.95264 64.5293 5.12795 69.4514 6.39896 73.89C9.77371 85.5359 20.3362 94.1935 31.9068 97.05C43.4774 99.9066 55.793 97.5774 66.5747 92.6553C81.6953 85.7557 94.756 73.4066 100.673 57.6296C106.59 41.7208 104.573 22.56 93.8795 9.41985Z" fill="#00BDFF"/>
<path d="M93.5291 68.3375L93.4414 33.927C93.4414 32.2571 92.0827 30.8947 90.4173 30.8947L18.4519 31.0705C16.7864 31.0705 15.4277 32.4329 15.4277 34.1028L15.5154 68.5133V76.0282C15.5154 77.6982 16.8741 79.0605 18.5395 79.0605L90.5049 78.8848C92.1704 78.8848 93.5291 77.5224 93.5291 75.8524V68.3375Z" fill="#666666"/>
<g opacity="0.15">
<path d="M67.8952 65.1669C73.9858 57.7459 72.9235 46.7793 65.5227 40.6722C58.1218 34.5651 47.1849 35.6302 41.0943 43.0512C35.0038 50.4722 36.066 61.4388 43.4669 67.5459C50.8677 73.653 61.8047 72.5879 67.8952 65.1669Z" fill="white"/>
</g>
<path d="M22.3523 58.0978C23.448 58.0978 23.8863 59.1086 23.8863 60.0755C23.8863 61.0423 23.448 62.097 22.3523 62.097C21.2566 62.097 20.8184 61.0862 20.8184 60.1194C20.8184 59.1526 21.2566 58.0978 22.3523 58.0978ZM21.2566 60.1194C21.2566 60.8226 21.5196 61.7454 22.3523 61.7454C23.2289 61.7454 23.448 60.8226 23.448 60.1194C23.448 59.4162 23.1851 58.4934 22.3523 58.4934C21.5196 58.4934 21.2566 59.4162 21.2566 60.1194Z" fill="white"/>
<path d="M26.1219 58.0978C27.2176 58.0978 27.6558 59.1086 27.6558 60.0755C27.6558 61.0423 27.2176 62.097 26.1219 62.097C25.0262 62.097 24.5879 61.0862 24.5879 60.1194C24.5879 59.1526 24.9823 58.0978 26.1219 58.0978ZM25.0262 60.1194C25.0262 60.8226 25.2891 61.7454 26.1219 61.7454C26.9984 61.7454 27.2176 60.8226 27.2176 60.1194C27.2176 59.4162 26.9546 58.4934 26.1219 58.4934C25.2453 58.4934 25.0262 59.4162 25.0262 60.1194Z" fill="white"/>
<path d="M28.3125 62.0531V61.7454L29.8903 59.9876C30.1094 59.7239 30.3724 59.4602 30.3724 59.1086C30.3724 58.6252 30.0218 58.4934 29.5835 58.4934C29.1891 58.4934 28.8384 58.757 28.707 59.1086L28.3125 58.9768C28.4878 58.4055 28.9699 58.0978 29.5835 58.0978C30.2409 58.0978 30.8107 58.3615 30.8107 59.1086C30.8107 59.592 30.5039 59.9436 30.1971 60.2952L28.9699 61.6575H30.8983V62.0531H28.3125Z" fill="white"/>
<path d="M31.4688 58.1418H34.0108V58.4055L32.3015 62.0091H31.8632L33.5287 58.4934H31.5126L31.4688 58.1418Z" fill="white"/>
<path d="M40.4969 58.0539C41.5926 58.0539 42.0308 59.0647 42.0308 60.0315C42.0308 60.9983 41.5926 62.0531 40.4969 62.0531C39.4012 62.0531 38.9629 61.0423 38.9629 60.0754C38.9629 59.1086 39.3573 58.0539 40.4969 58.0539ZM39.4012 60.0754C39.4012 60.7786 39.6641 61.7015 40.4969 61.7015C41.3734 61.7015 41.5926 60.7786 41.5926 60.0754C41.5926 59.3723 41.3296 58.4494 40.4969 58.4494C39.6203 58.4494 39.4012 59.3723 39.4012 60.0754Z" fill="white"/>
<path d="M42.9955 61.262C43.3023 61.5696 43.6529 61.6575 44.0474 61.6575C44.6171 61.6575 44.9239 61.3499 44.9239 60.7347C44.9239 60.1633 44.6171 59.8118 44.0474 59.8118C43.6529 59.8118 43.1708 59.9876 42.8202 60.1633L42.9517 58.0539H45.1869V58.4494H43.39L43.3461 59.5481C43.5653 59.4602 43.8721 59.4162 44.0912 59.4162C44.9239 59.4162 45.406 59.8997 45.406 60.6907C45.406 61.5257 44.9239 61.9652 44.0912 61.9652C43.6529 61.9652 43.0393 61.8333 42.7764 61.4817L42.9955 61.262Z" fill="white"/>
<path d="M46.4135 61.262C46.7203 61.5696 47.0709 61.6575 47.4653 61.6575C48.0351 61.6575 48.3419 61.3499 48.3419 60.7347C48.3419 60.1633 48.0351 59.8118 47.4653 59.8118C47.0709 59.8118 46.5888 59.9876 46.2382 60.1633L46.3696 58.0539H48.6049V58.4494H46.8079L46.7641 59.5481C46.9832 59.4602 47.29 59.4162 47.5092 59.4162C48.3419 59.4162 48.824 59.8997 48.824 60.6907C48.824 61.5257 48.3419 61.9652 47.5092 61.9652C47.0709 61.9652 46.4573 61.8333 46.1943 61.4817L46.4135 61.262Z" fill="white"/>
<path d="M49.8321 61.2181C50.0074 61.5696 50.358 61.6575 50.7086 61.6575C51.1907 61.6575 51.629 61.4378 51.629 60.9104C51.629 60.2073 50.8839 60.2073 50.4018 60.2073V59.8118C50.8839 59.8118 51.5414 59.7239 51.5414 59.1086C51.5414 58.6252 51.1031 58.4494 50.7086 58.4494C50.4018 58.4494 50.0512 58.5813 49.9197 58.8889L49.5253 58.757C49.7444 58.2297 50.2265 58.0978 50.7525 58.0978C51.4099 58.0978 52.0235 58.4055 52.0235 59.1526C52.0235 59.592 51.7167 59.9436 51.3222 60.0315C51.8043 60.1633 52.1549 60.427 52.1549 60.9544C52.1549 61.7454 51.4975 62.097 50.7963 62.097C50.3142 62.097 49.6568 61.9652 49.4814 61.4378L49.8321 61.2181Z" fill="white"/>
<path d="M57.5898 58.9768L58.5541 58.0978H58.9047V62.0091H58.4664V58.801L57.8966 59.3284L57.5898 58.9768Z" fill="white"/>
<path d="M61.2713 58.0099C62.367 58.0099 62.8053 59.0207 62.8053 59.9876C62.8053 60.9544 62.367 62.0091 61.2713 62.0091C60.1756 62.0091 59.7373 60.9983 59.7373 60.0315C59.7373 59.0647 60.1318 58.0099 61.2713 58.0099ZM60.1756 60.0315C60.1756 60.7347 60.4386 61.6575 61.2713 61.6575C62.1478 61.6575 62.367 60.7347 62.367 60.0315C62.367 59.3284 62.104 58.4055 61.2713 58.4055C60.3947 58.4055 60.1756 59.3284 60.1756 60.0315Z" fill="white"/>
<path d="M63.7696 61.2181C63.9449 61.5696 64.2955 61.6575 64.6461 61.6575C65.1282 61.6575 65.5665 61.4378 65.5665 60.9104C65.5665 60.2073 64.8214 60.2073 64.3393 60.2073V59.8118C64.8214 59.8118 65.4789 59.7239 65.4789 59.1086C65.4789 58.6252 65.0406 58.4494 64.6461 58.4494C64.3393 58.4494 63.9887 58.5813 63.8572 58.8889L63.4628 58.757C63.6819 58.2297 64.164 58.0978 64.69 58.0978C65.3474 58.0978 65.961 58.4055 65.961 59.1526C65.961 59.592 65.6542 59.9436 65.2597 60.0315C65.7418 60.1633 66.0925 60.427 66.0925 60.9544C66.0925 61.7454 65.435 62.097 64.7338 62.097C64.2517 62.097 63.5943 61.9652 63.4189 61.4378L63.7696 61.2181Z" fill="white"/>
<path d="M66.7061 59.3723C66.7061 58.5373 67.232 58.0099 68.0647 58.0099C69.1604 58.0099 69.4672 58.8889 69.4672 59.8557C69.4672 60.9544 68.9851 62.0091 67.7579 62.0091C67.495 62.0091 67.2758 61.9652 67.0567 61.8773L67.232 61.5257C67.4073 61.5697 67.5826 61.6136 67.7579 61.6136C68.5907 61.6136 68.9413 60.9544 69.0289 60.2073C68.8098 60.5149 68.4592 60.6907 68.1085 60.6907C67.232 60.6907 66.7061 60.1634 66.7061 59.3723ZM67.1443 59.3723C67.1443 59.9436 67.495 60.3391 68.0647 60.3391C68.6345 60.3391 68.9851 59.9436 68.9851 59.3723C68.9851 58.801 68.6345 58.4055 68.0647 58.4055C67.495 58.4055 67.1443 58.801 67.1443 59.3723Z" fill="white"/>
<path d="M75.0771 61.9652V61.6575L76.6549 59.8997C76.8741 59.636 77.1371 59.3723 77.1371 59.0207C77.1371 58.5373 76.7864 58.4055 76.3482 58.4055C75.9537 58.4055 75.6031 58.6692 75.4716 59.0207L75.0771 58.8889C75.2525 58.3176 75.7346 58.0099 76.3482 58.0099C77.0056 58.0099 77.5753 58.2736 77.5753 59.0207C77.5753 59.5041 77.2685 59.8557 76.9617 60.2073L75.7346 61.5697H77.663V61.9652H75.0771Z" fill="white"/>
<path d="M79.8543 57.966C80.95 57.966 81.3883 58.9768 81.3883 59.9436C81.3883 60.9104 80.95 61.9652 79.8543 61.9652C78.7586 61.9652 78.3203 60.9544 78.3203 59.9876C78.3203 59.0207 78.7586 58.01 79.8543 57.966ZM78.7586 59.9876C78.7586 60.6907 79.0216 61.6136 79.8543 61.6136C80.7308 61.6136 80.95 60.6907 80.95 59.9876C80.95 59.2844 80.687 58.3615 79.8543 58.3615C79.0216 58.3615 78.7586 59.2844 78.7586 59.9876Z" fill="white"/>
<path d="M84.0183 58.0099H84.4565V60.5149H84.9825V60.9104H84.4565V61.9212H84.0183V60.9104H82.0898V60.6028L84.0183 58.0099ZM82.6596 60.5149H84.0183V58.7131L82.6596 60.5149Z" fill="white"/>
<path d="M85.9906 61.1741C86.2974 61.4818 86.648 61.5697 87.0425 61.5697C87.6123 61.5697 87.9191 61.262 87.9191 60.6468C87.9191 60.0755 87.6123 59.7239 87.0425 59.7239C86.648 59.7239 86.1659 59.8997 85.8153 60.0755L85.9468 57.966H88.182V58.3615H86.3851L86.3412 59.4602C86.5604 59.3723 86.8672 59.3284 87.0863 59.3284C87.9191 59.3284 88.4012 59.8118 88.4012 60.6028C88.4012 61.4378 87.9191 61.8773 87.0863 61.8773C86.648 61.8773 86.0345 61.7454 85.7715 61.3939L85.9906 61.1741Z" fill="white"/>
<path d="M33.8795 69.4801L22.3966 69.5241C21.4323 69.5241 20.5996 68.733 20.5996 67.7222C20.5996 66.7554 21.3885 65.9204 22.3966 65.9204L33.8795 65.8765C34.8437 65.8765 35.6764 66.6675 35.6764 67.6783C35.6326 68.6451 34.8437 69.4801 33.8795 69.4801Z" fill="white"/>
<path d="M88.2693 35.9486L77.2685 35.9926C76.8741 35.9926 76.5234 35.6849 76.5234 35.2455V34.5863C76.5234 34.1907 76.8302 33.8392 77.2685 33.8392L88.2693 33.7952C88.6638 33.7952 89.0144 34.1029 89.0144 34.5423V35.2015C89.0144 35.597 88.6638 35.9486 88.2693 35.9486Z" fill="white"/>
<path d="M88.2696 39.772L67.539 39.8159C67.1446 39.8159 66.7939 39.5083 66.7939 39.0688V38.4096C66.7939 38.0141 67.1007 37.6625 67.539 37.6625L88.2696 37.6186C88.6641 37.6186 89.0147 37.9262 89.0147 38.3657V39.0249C89.0147 39.4644 88.6641 39.772 88.2696 39.772Z" fill="white"/>
<path d="M73.8943 74.578L21.8268 74.7098C21.1694 74.7098 20.5996 74.1824 20.5996 73.4793V72.3367C20.5996 71.6775 21.1255 71.1061 21.8268 71.1061L73.8943 70.9743C74.5518 70.9743 75.1215 71.5017 75.1215 72.2048V73.3474C75.1215 74.0066 74.5956 74.578 73.8943 74.578Z" fill="white"/>
<path d="M84.0626 72.7761C84.0626 73.743 83.2737 74.578 82.2657 74.578C81.3015 74.578 80.4688 73.7869 80.4688 72.7761C80.4688 71.8093 81.2576 70.9743 82.2657 70.9743C83.2737 70.9743 84.0626 71.7654 84.0626 72.7761Z" fill="white"/>
<path d="M87.3057 74.578C88.2982 74.578 89.1027 73.7713 89.1027 72.7761C89.1027 71.781 88.2982 70.9743 87.3057 70.9743C86.3133 70.9743 85.5088 71.781 85.5088 72.7761C85.5088 73.7713 86.3133 74.578 87.3057 74.578Z" fill="white"/>
<path d="M31.0301 34.4105V40.607C31.0301 40.9146 30.7671 41.1783 30.4603 41.1783L19.8539 41.2222C19.5471 41.2222 19.2842 40.9585 19.2842 40.6509V34.4544C19.2842 34.1468 19.5471 33.8831 19.8539 33.8831L30.4603 33.8391C30.7671 33.7952 31.0301 34.0589 31.0301 34.4105Z" fill="#939393"/>
<path d="M24.8065 37.1791H19.2842V36.9154L24.4997 36.8715V35.0257H24.8065V37.1791Z" fill="#666666"/>
<path d="M25.7707 41.1783H25.4639V38.3217L31.03 38.2778V38.5854H25.7707V41.1783Z" fill="#666666"/>
<path d="M27.3019 33.8389L26.9951 33.8396L27.0019 36.9159L27.3087 36.9152L27.3019 33.8389Z" fill="#666666"/>
<path d="M30.9867 35.417L27.1299 35.4254L27.1305 35.733L30.9874 35.7246L30.9867 35.417Z" fill="#666666"/>
<path d="M22.5274 39.9038H22.2206V38.893H19.2842V38.6293L22.4836 38.5854L22.5274 39.9038Z" fill="#666666"/>
<path d="M55.0478 36.3002C44.7921 35.9926 36.158 44.1228 35.8512 54.4063C35.5444 64.6899 43.6526 73.3475 53.9083 73.6551C64.164 73.9627 72.7981 65.8325 73.1049 55.549C73.4555 45.2654 65.3474 36.6078 55.0478 36.3002ZM70.6067 54.6261C70.6067 54.8898 70.6067 55.1974 70.6067 55.4611C70.6067 55.1974 70.6067 54.9337 70.6067 54.6261Z" fill="#FC4E69"/>
<path d="M51.2785 54.0987L46.5013 47.7264C46.3698 47.5506 46.5013 47.2869 46.7642 47.2869L51.3662 47.243C51.4976 47.243 51.5853 47.2869 51.6291 47.3748L54.2588 50.9345C54.3903 51.1103 54.6971 51.1103 54.8286 50.9345L57.4144 47.3309C57.4582 47.243 57.5897 47.199 57.6774 47.199L62.2793 47.1551C62.5423 47.1551 62.7176 47.4188 62.5423 47.5946L57.8089 54.0548C57.7212 54.1427 57.7212 54.2745 57.8089 54.3624L63.0682 61.306C63.1997 61.4818 63.0682 61.7455 62.8053 61.7455L58.2033 61.7894C58.0718 61.7894 57.9842 61.7455 57.9404 61.6576L54.8286 57.5705C54.6971 57.3947 54.3903 57.3947 54.3026 57.5705L51.2785 61.7015C51.2347 61.7894 51.1032 61.8334 51.0155 61.8334L46.4136 61.8773C46.1506 61.8773 45.9753 61.6136 46.1506 61.4378L51.2785 54.4063C51.3662 54.3184 51.3662 54.1866 51.2785 54.0987Z" fill="white"/>
</svg>
