<svg width="109" height="106" viewBox="0 0 109 106" fill="none" xmlns="http://www.w3.org/2000/svg">
<path opacity="0.1" d="M93.88 9.41985L93.0472 8.54091C85.9033 1.20178 75.4284 -1.78661 65.7424 1.06994C64.5153 1.42151 63.2881 1.90493 62.1047 2.47624C53.6459 6.47541 47.4662 15.0451 46.2828 24.4936C45.5816 30.031 46.4143 36.0517 43.7847 40.9738C40.3223 47.3461 32.4771 49.3237 25.4208 50.73C18.4083 52.1363 10.5193 54.1139 7.1007 60.5301C4.95313 64.5293 5.12844 69.4514 6.39945 73.89C9.7742 85.5359 20.3367 94.1935 31.9073 97.05C43.4779 99.9066 55.7935 97.5774 66.5752 92.6553C81.6958 85.7557 94.7565 73.4066 100.673 57.6296C106.59 41.7208 104.574 22.56 93.88 9.41985Z" fill="#00BDFF"/>
<path d="M93.5286 68.3373L93.4409 33.9269C93.4409 32.2569 92.0823 30.8945 90.4168 30.8945L18.4514 31.0703C16.7859 31.0703 15.4272 32.4327 15.4272 34.1027L15.5149 68.5131V76.028C15.5149 77.698 16.8736 79.0604 18.539 79.0604L90.5044 78.8846C92.1699 78.8846 93.5286 77.5222 93.5286 75.8522V68.3373Z" fill="#666666"/>
<path d="M22.3518 58.0979C23.4475 58.0979 23.8858 59.1087 23.8858 60.0755C23.8858 61.0423 23.4475 62.0971 22.3518 62.0971C21.2562 62.0971 20.8179 61.0863 20.8179 60.1195C20.8179 59.1526 21.2562 58.0979 22.3518 58.0979ZM21.2562 60.1195C21.2562 60.8226 21.5191 61.7455 22.3518 61.7455C23.2284 61.7455 23.4475 60.8226 23.4475 60.1195C23.4475 59.4163 23.1846 58.4934 22.3518 58.4934C21.5191 58.4934 21.2562 59.4163 21.2562 60.1195Z" fill="white"/>
<path d="M26.1209 58.0979C27.2166 58.0979 27.6549 59.1087 27.6549 60.0755C27.6549 61.0423 27.2166 62.0971 26.1209 62.0971C25.0252 62.0971 24.5869 61.0863 24.5869 60.1195C24.5869 59.1526 24.9814 58.0979 26.1209 58.0979ZM25.0252 60.1195C25.0252 60.8226 25.2882 61.7455 26.1209 61.7455C26.9974 61.7455 27.2166 60.8226 27.2166 60.1195C27.2166 59.4163 26.9536 58.4934 26.1209 58.4934C25.2443 58.4934 25.0252 59.4163 25.0252 60.1195Z" fill="white"/>
<path d="M28.3125 62.0531V61.7455L29.8903 59.9876C30.1094 59.7239 30.3724 59.4603 30.3724 59.1087C30.3724 58.6253 30.0218 58.4934 29.5835 58.4934C29.1891 58.4934 28.8384 58.7571 28.707 59.1087L28.3125 58.9768C28.4878 58.4055 28.9699 58.0979 29.5835 58.0979C30.2409 58.0979 30.8107 58.3616 30.8107 59.1087C30.8107 59.5921 30.5039 59.9437 30.1971 60.2952L28.9699 61.6576H30.8983V62.0531H28.3125Z" fill="white"/>
<path d="M31.4683 58.1418H34.0103V58.4055L32.301 62.0092H31.8627L33.5282 58.4934H31.5121L31.4683 58.1418Z" fill="white"/>
<path d="M40.4969 58.054C41.5926 58.054 42.0308 59.0647 42.0308 60.0316C42.0308 60.9984 41.5926 62.0531 40.4969 62.0531C39.4012 62.0531 38.9629 61.0423 38.9629 60.0755C38.9629 59.1087 39.3573 58.054 40.4969 58.054ZM39.4012 60.0755C39.4012 60.7787 39.6641 61.7015 40.4969 61.7015C41.3734 61.7015 41.5926 60.7787 41.5926 60.0755C41.5926 59.3724 41.3296 58.4495 40.4969 58.4495C39.6203 58.4495 39.4012 59.3724 39.4012 60.0755Z" fill="white"/>
<path d="M42.995 61.2621C43.3018 61.5697 43.6524 61.6576 44.0469 61.6576C44.6167 61.6576 44.9234 61.35 44.9234 60.7347C44.9234 60.1634 44.6167 59.8118 44.0469 59.8118C43.6524 59.8118 43.1703 59.9876 42.8197 60.1634L42.9512 58.054H45.1864V58.4495H43.3895L43.3456 59.5481C43.5648 59.4603 43.8716 59.4163 44.0907 59.4163C44.9234 59.4163 45.4056 59.8997 45.4056 60.6908C45.4056 61.5258 44.9234 61.9652 44.0907 61.9652C43.6524 61.9652 43.0388 61.8334 42.7759 61.4818L42.995 61.2621Z" fill="white"/>
<path d="M46.4135 61.2621C46.7203 61.5697 47.0709 61.6576 47.4653 61.6576C48.0351 61.6576 48.3419 61.35 48.3419 60.7347C48.3419 60.1634 48.0351 59.8118 47.4653 59.8118C47.0709 59.8118 46.5888 59.9876 46.2382 60.1634L46.3696 58.054H48.6049V58.4495H46.8079L46.7641 59.5481C46.9832 59.4603 47.29 59.4163 47.5092 59.4163C48.3419 59.4163 48.824 59.8997 48.824 60.6908C48.824 61.5258 48.3419 61.9652 47.5092 61.9652C47.0709 61.9652 46.4573 61.8334 46.1943 61.4818L46.4135 61.2621Z" fill="white"/>
<path d="M49.8321 61.2181C50.0074 61.5697 50.358 61.6576 50.7086 61.6576C51.1907 61.6576 51.629 61.4379 51.629 60.9105C51.629 60.2074 50.8839 60.2074 50.4018 60.2074V59.8118C50.8839 59.8118 51.5414 59.7239 51.5414 59.1087C51.5414 58.6253 51.1031 58.4495 50.7086 58.4495C50.4018 58.4495 50.0512 58.5813 49.9197 58.8889L49.5253 58.7571C49.7444 58.2297 50.2265 58.0979 50.7525 58.0979C51.4099 58.0979 52.0235 58.4055 52.0235 59.1526C52.0235 59.5921 51.7167 59.9437 51.3222 60.0316C51.8043 60.1634 52.1549 60.4271 52.1549 60.9545C52.1549 61.7455 51.4975 62.0971 50.7963 62.0971C50.3142 62.0971 49.6568 61.9652 49.4814 61.4379L49.8321 61.2181Z" fill="white"/>
<path d="M57.5898 58.9768L58.5541 58.0979H58.9047V62.0092H58.4664V58.8011L57.8966 59.3284L57.5898 58.9768Z" fill="white"/>
<path d="M61.2713 58.01C62.367 58.01 62.8053 59.0208 62.8053 59.9876C62.8053 60.9545 62.367 62.0092 61.2713 62.0092C60.1756 62.0092 59.7373 60.9984 59.7373 60.0316C59.7373 59.0647 60.1318 58.01 61.2713 58.01ZM60.1756 60.0316C60.1756 60.7347 60.4386 61.6576 61.2713 61.6576C62.1478 61.6576 62.367 60.7347 62.367 60.0316C62.367 59.3284 62.104 58.4055 61.2713 58.4055C60.3947 58.4055 60.1756 59.3284 60.1756 60.0316Z" fill="white"/>
<path d="M63.7696 61.2181C63.9449 61.5697 64.2955 61.6576 64.6461 61.6576C65.1282 61.6576 65.5665 61.4379 65.5665 60.9105C65.5665 60.2074 64.8214 60.2074 64.3393 60.2074V59.8118C64.8214 59.8118 65.4789 59.7239 65.4789 59.1087C65.4789 58.6253 65.0406 58.4495 64.6461 58.4495C64.3393 58.4495 63.9887 58.5813 63.8572 58.8889L63.4628 58.7571C63.6819 58.2297 64.164 58.0979 64.69 58.0979C65.3474 58.0979 65.961 58.4055 65.961 59.1526C65.961 59.5921 65.6542 59.9437 65.2597 60.0316C65.7418 60.1634 66.0925 60.4271 66.0925 60.9545C66.0925 61.7455 65.435 62.0971 64.7338 62.0971C64.2517 62.0971 63.5943 61.9652 63.4189 61.4379L63.7696 61.2181Z" fill="white"/>
<path d="M66.7061 59.3724C66.7061 58.5374 67.232 58.01 68.0647 58.01C69.1604 58.01 69.4672 58.8889 69.4672 59.8558C69.4672 60.9545 68.9851 62.0092 67.7579 62.0092C67.495 62.0092 67.2758 61.9652 67.0567 61.8773L67.232 61.5258C67.4073 61.5697 67.5826 61.6137 67.7579 61.6137C68.5907 61.6137 68.9413 60.9545 69.0289 60.2074C68.8098 60.515 68.4592 60.6908 68.1085 60.6908C67.232 60.6908 66.7061 60.1634 66.7061 59.3724ZM67.1443 59.3724C67.1443 59.9437 67.495 60.3392 68.0647 60.3392C68.6345 60.3392 68.9851 59.9437 68.9851 59.3724C68.9851 58.8011 68.6345 58.4055 68.0647 58.4055C67.495 58.4055 67.1443 58.8011 67.1443 59.3724Z" fill="white"/>
<path d="M75.0771 61.9652V61.6576L76.6549 59.8997C76.8741 59.636 77.1371 59.3724 77.1371 59.0208C77.1371 58.5374 76.7864 58.4055 76.3482 58.4055C75.9537 58.4055 75.6031 58.6692 75.4716 59.0208L75.0771 58.8889C75.2525 58.3176 75.7346 58.01 76.3482 58.01C77.0056 58.01 77.5753 58.2737 77.5753 59.0208C77.5753 59.5042 77.2685 59.8558 76.9617 60.2074L75.7346 61.5697H77.663V61.9652H75.0771Z" fill="white"/>
<path d="M79.8543 57.9661C80.95 57.9661 81.3883 58.9768 81.3883 59.9437C81.3883 60.9105 80.95 61.9652 79.8543 61.9652C78.7586 61.9652 78.3203 60.9545 78.3203 59.9876C78.3203 59.0208 78.7586 58.01 79.8543 57.9661ZM78.7586 59.9876C78.7586 60.6908 79.0216 61.6137 79.8543 61.6137C80.7308 61.6137 80.95 60.6908 80.95 59.9876C80.95 59.2845 80.687 58.3616 79.8543 58.3616C79.0216 58.3616 78.7586 59.2845 78.7586 59.9876Z" fill="white"/>
<path d="M84.0183 58.01H84.4565V60.515H84.9825V60.9105H84.4565V61.9213H84.0183V60.9105H82.0898V60.6029L84.0183 58.01ZM82.6596 60.515H84.0183V58.7132L82.6596 60.515Z" fill="white"/>
<path d="M85.9901 61.1742C86.2969 61.4818 86.6476 61.5697 87.042 61.5697C87.6118 61.5697 87.9186 61.2621 87.9186 60.6468C87.9186 60.0755 87.6118 59.7239 87.042 59.7239C86.6476 59.7239 86.1654 59.8997 85.8148 60.0755L85.9463 57.9661H88.1815V58.3616H86.3846L86.3408 59.4603C86.5599 59.3724 86.8667 59.3284 87.0858 59.3284C87.9186 59.3284 88.4007 59.8118 88.4007 60.6029C88.4007 61.4379 87.9186 61.8773 87.0858 61.8773C86.6476 61.8773 86.034 61.7455 85.771 61.3939L85.9901 61.1742Z" fill="white"/>
<path d="M33.879 69.4801L22.3961 69.5241C21.4319 69.5241 20.5991 68.733 20.5991 67.7222C20.5991 66.7554 21.388 65.9204 22.3961 65.9204L33.879 65.8765C34.8432 65.8765 35.6759 66.6675 35.6759 67.6783C35.6321 68.6451 34.8432 69.4801 33.879 69.4801Z" fill="white"/>
<path d="M88.2693 35.9486L77.2685 35.9925C76.8741 35.9925 76.5234 35.6849 76.5234 35.2454V34.5862C76.5234 34.1907 76.8302 33.8391 77.2685 33.8391L88.2693 33.7952C88.6638 33.7952 89.0144 34.1028 89.0144 34.5423V35.2015C89.0144 35.597 88.6638 35.9486 88.2693 35.9486Z" fill="white"/>
<path d="M88.2691 39.7718L67.5385 39.8158C67.1441 39.8158 66.7935 39.5081 66.7935 39.0687V38.4095C66.7935 38.0139 67.1003 37.6624 67.5385 37.6624L88.2691 37.6184C88.6636 37.6184 89.0142 37.926 89.0142 38.3655V39.0247C89.0142 39.4642 88.6636 39.7718 88.2691 39.7718Z" fill="white"/>
<path d="M73.8939 74.5778L21.8263 74.7096C21.1689 74.7096 20.5991 74.1822 20.5991 73.4791V72.3365C20.5991 71.6773 21.1251 71.106 21.8263 71.106L73.8939 70.9741C74.5513 70.9741 75.121 71.5015 75.121 72.2046V73.3473C75.121 74.0065 74.5951 74.5778 73.8939 74.5778Z" fill="white"/>
<path d="M84.0617 72.7759C84.0617 73.7428 83.2728 74.5778 82.2647 74.5778C81.3005 74.5778 80.4678 73.7867 80.4678 72.7759C80.4678 71.8091 81.2567 70.9741 82.2647 70.9741C83.2728 70.9741 84.0617 71.7652 84.0617 72.7759Z" fill="white"/>
<path d="M87.3052 74.5778C88.2977 74.5778 89.1022 73.7711 89.1022 72.7759C89.1022 71.7808 88.2977 70.9741 87.3052 70.9741C86.3128 70.9741 85.5083 71.7808 85.5083 72.7759C85.5083 73.7711 86.3128 74.5778 87.3052 74.5778Z" fill="white"/>
<path d="M31.0301 34.4103V40.6068C31.0301 40.9145 30.7671 41.1782 30.4603 41.1782L19.8539 41.2221C19.5471 41.2221 19.2842 40.9584 19.2842 40.6508V34.4543C19.2842 34.1466 19.5471 33.883 19.8539 33.883L30.4603 33.839C30.7671 33.7951 31.0301 34.0588 31.0301 34.4103Z" fill="#939393"/>
<path d="M24.8065 37.179H19.2842V36.9154L24.4997 36.8714V35.0256H24.8065V37.179Z" fill="#666666"/>
<path d="M25.7707 41.1783H25.4639V38.3218L31.03 38.2778V38.5855H25.7707V41.1783Z" fill="#666666"/>
<path d="M27.3014 33.8389L26.9946 33.8396L27.0014 36.9159L27.3082 36.9152L27.3014 33.8389Z" fill="#666666"/>
<path d="M30.9858 35.417L27.1289 35.4253L27.1296 35.7329L30.9864 35.7246L30.9858 35.417Z" fill="#666666"/>
<path d="M22.5274 39.9039H22.2206V38.8931H19.2842V38.6294L22.4836 38.5854L22.5274 39.9039Z" fill="#666666"/>
</svg>
