<svg width="136" height="90" viewBox="0 0 136 90" fill="none" xmlns="http://www.w3.org/2000/svg">
<path opacity="0.1" d="M132.719 30.7009L132.555 29.3341C131.242 17.9264 123.641 8.04322 112.649 3.99533C111.228 3.46963 109.806 3.04906 108.275 2.73364C97.6112 0.47313 85.7447 3.83762 77.9249 11.4077C73.3314 15.8762 69.8316 21.764 63.871 24.34C56.1605 27.6519 47.411 23.972 39.9192 20.3972C32.4821 16.8224 23.7326 13.1951 16.0222 16.507C11.2099 18.6098 7.8195 23.0783 5.85086 27.8621C0.655844 40.5315 4.3197 55.4614 13.0145 65.9755C21.7093 76.4895 34.7789 82.7979 48.2859 85.847C67.2067 90.1051 88.0961 88.1075 104.83 78.1192C121.563 68.1308 133.32 49.6787 132.719 30.7009Z" fill="#00BDFF"/>
<path d="M23.4597 19.2407L112.978 19.5035C115.056 19.5035 116.751 21.1332 116.697 23.1308L116.533 64.1881L19.5225 63.8727L19.6865 22.8154C19.6865 20.8703 21.3817 19.2407 23.4597 19.2407Z" fill="#A9A2FF"/>
<path d="M116.588 55.5666L116.533 73.125C116.533 75.1227 114.838 76.7523 112.76 76.6998L23.2413 76.4369C21.1633 76.4369 19.4681 74.8072 19.5228 72.8096L19.5775 55.2512L116.588 55.5666Z" fill="#6F64FF"/>
<path d="M19.6071 55.8068L116.617 56.108L116.659 43.8066L19.6485 43.5054L19.6071 55.8068Z" fill="#424141"/>
<path d="M96.5731 36.6939L110.189 36.7465C110.846 36.7465 111.338 36.2734 111.338 35.6425V33.75C111.338 33.1191 110.846 32.646 110.189 32.646L96.6277 32.5934C95.9715 32.5934 95.4794 33.0666 95.4794 33.6974V35.5899C95.4247 36.2208 95.9715 36.6939 96.5731 36.6939Z" fill="#F2F2F2"/>
<path d="M73.3866 36.6414L87.0031 36.6939C87.6593 36.6939 88.1514 36.2208 88.1514 35.59V33.6974C88.1514 33.0666 87.6593 32.5935 87.0031 32.5935L73.3866 32.5409C72.7304 32.5409 72.2383 33.014 72.2383 33.6449V35.5374C72.2383 36.1157 72.7851 36.6414 73.3866 36.6414Z" fill="#F2F2F2"/>
<path d="M84.0527 64.7428C84.5068 64.7428 85.1045 64.652 85.4648 64.3531L85.2158 64.0074C84.8701 64.2242 84.46 64.3209 84.0527 64.3209C83.0098 64.3209 82.4678 63.5709 82.4678 62.5836C82.4678 61.5963 83.0098 60.8463 84.0527 60.8463C84.46 60.8463 84.8701 60.943 85.2158 61.1598L85.4648 60.8141C85.1045 60.5153 84.5068 60.4244 84.0527 60.4244C82.7725 60.4244 81.9814 61.3326 81.9814 62.5836C81.9814 63.8346 82.7725 64.7428 84.0527 64.7428ZM86.0244 60.483L87.7383 64.6842H88.1191L89.833 60.483H89.3262L87.9287 63.9928L86.5312 60.483H86.0244ZM92.2266 64.7428C92.6807 64.7428 93.2783 64.652 93.6387 64.3531L93.3896 64.0074C93.0439 64.2242 92.6338 64.3209 92.2266 64.3209C91.1836 64.3209 90.6416 63.5709 90.6416 62.5836C90.6416 61.5963 91.1836 60.8463 92.2266 60.8463C92.6338 60.8463 93.0439 60.943 93.3896 61.1598L93.6387 60.8141C93.2783 60.5153 92.6807 60.4244 92.2266 60.4244C90.9463 60.4244 90.1553 61.3326 90.1553 62.5836C90.1553 63.8346 90.9463 64.7428 92.2266 64.7428Z" fill="#F2F2F2"/>
<path d="M83.6016 68.0267C82.418 68.0267 81.835 68.9261 81.835 70.2152C81.835 71.5043 82.418 72.4037 83.6016 72.4037C84.7852 72.4037 85.3682 71.5043 85.3682 70.2152C85.3682 68.9261 84.7852 68.0267 83.6016 68.0267ZM83.6016 68.6888C84.3398 68.6888 84.5771 69.3773 84.5771 70.2152C84.5771 71.0531 84.3398 71.7416 83.6016 71.7416C82.8633 71.7416 82.626 71.0531 82.626 70.2152C82.626 69.3773 82.8633 68.6888 83.6016 68.6888ZM87.5625 68.0267C86.3789 68.0267 85.7959 68.9261 85.7959 70.2152C85.7959 71.5043 86.3789 72.4037 87.5625 72.4037C88.7461 72.4037 89.3291 71.5043 89.3291 70.2152C89.3291 68.9261 88.7461 68.0267 87.5625 68.0267ZM87.5625 68.6888C88.3008 68.6888 88.5381 69.3773 88.5381 70.2152C88.5381 71.0531 88.3008 71.7416 87.5625 71.7416C86.8242 71.7416 86.5869 71.0531 86.5869 70.2152C86.5869 69.3773 86.8242 68.6888 87.5625 68.6888ZM91.5234 68.0267C90.3398 68.0267 89.7568 68.9261 89.7568 70.2152C89.7568 71.5043 90.3398 72.4037 91.5234 72.4037C92.707 72.4037 93.29 71.5043 93.29 70.2152C93.29 68.9261 92.707 68.0267 91.5234 68.0267ZM91.5234 68.6888C92.2617 68.6888 92.499 69.3773 92.499 70.2152C92.499 71.0531 92.2617 71.7416 91.5234 71.7416C90.7852 71.7416 90.5479 71.0531 90.5479 70.2152C90.5479 69.3773 90.7852 68.6888 91.5234 68.6888Z" fill="#F2F2F2"/>
</svg>
