<svg width="40" height="40" viewBox="0 0 40 40" fill="none" xmlns="http://www.w3.org/2000/svg">
<g clip-path="url(#clip0_612_3524)">
<path d="M34.1406 0H5.85938C2.62848 0 0 2.62848 0 5.85938V34.1406C0 37.3715 2.62848 40 5.85938 40H34.1406C37.3715 40 40 37.3715 40 34.1406V5.85938C40 2.62848 37.3715 0 34.1406 0ZM37.6562 34.1406C37.6562 36.0791 36.0791 37.6562 34.1406 37.6562H5.85938C3.9209 37.6562 2.34375 36.0791 2.34375 34.1406V5.85938C2.34375 3.9209 3.9209 2.34375 5.85938 2.34375H34.1406C36.0791 2.34375 37.6562 3.9209 37.6562 5.85938V34.1406Z" fill="#777777"/>
<path d="M32.6645 17.1957L33.7192 16.1411C34.1769 15.6833 34.1769 14.9414 33.7192 14.4839C33.2617 14.0262 32.5195 14.0262 32.0621 14.4839L31.059 15.4868L29.8489 11.857C29.3698 10.419 28.0295 9.45312 26.514 9.45312H13.486C11.9705 9.45312 10.6302 10.419 10.1511 11.857L8.94104 15.4868L7.93793 14.4839C7.48047 14.0262 6.73859 14.0262 6.28082 14.4839C5.82306 14.9414 5.82306 15.6833 6.28082 16.1411L7.33551 17.1957C6.48682 17.8381 5.9375 18.8562 5.9375 20V24.6875C5.9375 26.2152 6.91711 27.5177 8.28125 28.0017V29.375C8.28125 31.3135 9.8584 32.8906 11.7969 32.8906C13.7354 32.8906 15.3125 31.3135 15.3125 29.375V28.2031H24.6875V29.375C24.6875 31.3135 26.2646 32.8906 28.2031 32.8906C30.1416 32.8906 31.7188 31.3135 31.7188 29.375V28.0017C33.0829 27.5177 34.0625 26.2152 34.0625 24.6875V20C34.0625 18.8562 33.5132 17.8381 32.6645 17.1957ZM13.486 11.7969H26.514C27.019 11.7969 27.4658 12.1188 27.6257 12.5983L28.9209 16.4844H11.0791L12.3743 12.5983C12.5342 12.1188 12.981 11.7969 13.486 11.7969ZM12.9688 29.375C12.9688 30.0211 12.4429 30.5469 11.7969 30.5469C11.1508 30.5469 10.625 30.0211 10.625 29.375V28.2031H12.9688V29.375ZM28.2031 30.5469C27.5571 30.5469 27.0312 30.0211 27.0312 29.375V28.2031H29.375V29.375C29.375 30.0211 28.8492 30.5469 28.2031 30.5469ZM30.5469 25.8594H24.6875V24.6875C24.6875 24.0402 24.1629 23.5156 23.5156 23.5156C22.8683 23.5156 22.3438 24.0402 22.3438 24.6875V25.8594H17.6562V24.6875C17.6562 24.0402 17.1317 23.5156 16.4844 23.5156C15.8371 23.5156 15.3125 24.0402 15.3125 24.6875V25.8594H9.45312C8.80707 25.8594 8.28125 25.3336 8.28125 24.6875V23.5156H11.7969C12.4442 23.5156 12.9688 22.991 12.9688 22.3438C12.9688 21.6965 12.4442 21.1719 11.7969 21.1719H8.28125V20C8.28125 19.3539 8.80707 18.8281 9.45312 18.8281H30.5389C30.5417 18.8281 30.5441 18.8284 30.5466 18.8284H30.5502C31.1948 18.83 31.7188 19.3549 31.7188 20V21.1719H28.2031C27.5558 21.1719 27.0312 21.6965 27.0312 22.3438C27.0312 22.991 27.5558 23.5156 28.2031 23.5156H31.7188V24.6875C31.7188 25.3336 31.1929 25.8594 30.5469 25.8594Z" fill="#777777"/>
</g>
<defs>
<clipPath id="clip0_612_3524">
<rect width="40" height="40" fill="white"/>
</clipPath>
</defs>
</svg>
