<svg width="127" height="99" viewBox="0 0 127 99" fill="none" xmlns="http://www.w3.org/2000/svg">
<g opacity="0.1">
<path d="M99.7195 77.4181C82.4672 96.4058 56.64 102.675 34.4584 92.0308C26.8232 88.366 9.73511 69.1518 10.151 54.7346C10.1613 54.4618 10.1664 54.1839 10.1818 53.9059C11.3628 25.8644 27.9322 11.2722 36.3428 6.26921C47.8854 -0.597073 64.65 2.64562 70.447 13.5061C74.2158 20.5679 78.7651 20.3518 82.919 20.604C87.0729 20.8562 108.905 24.6239 112.448 40.8785C115.74 55.9751 108.993 67.2113 99.7195 77.4181Z" fill="#00BDFF"/>
</g>
<path d="M80.757 80.3879L80.1409 86.1836C80.0022 87.4704 78.8521 88.4072 77.5684 88.2682L22.1195 82.3593C20.8359 82.2203 19.9014 81.0674 20.04 79.7806L20.6562 73.9901L80.757 80.3879Z" fill="#FC4E69"/>
<path d="M26.0373 45.3926L81.4862 51.2963C82.7699 51.4353 83.7044 52.5883 83.5658 53.8751L80.7571 80.3828L20.6562 73.9849L23.4649 47.4772C23.5984 46.1904 24.7537 45.2536 26.0373 45.3926Z" fill="#FD8396"/>
<path d="M21.1143 69.5826L81.2207 75.9811L82.0633 68.0273L21.9569 61.6288L21.1143 69.5826Z" fill="#424141"/>
<path d="M70.1184 62.1465L78.5546 63.0421C78.95 63.0833 79.3042 62.795 79.3453 62.3987L79.4737 61.184C79.5148 60.7876 79.2272 60.4325 78.8319 60.3913L70.3957 59.4905C70.0003 59.4494 69.646 59.7376 69.6049 60.1339L69.4766 61.3487C69.4355 61.745 69.723 62.1001 70.1184 62.1465Z" fill="#F2F2F2"/>
<path d="M55.7561 60.6126L64.1923 61.5134C64.5877 61.5546 64.9419 61.2663 64.983 60.87L65.1114 59.6553C65.1525 59.2589 64.8649 58.9038 64.4696 58.8626L56.0334 57.9619C55.638 57.9207 55.2837 58.2089 55.2426 58.6053L55.1143 59.82C55.0732 60.2163 55.3607 60.5715 55.7561 60.6126Z" fill="#F2F2F2"/>
<path d="M33.6621 55.3265C33.39 57.9053 35.2539 60.2215 37.8263 60.4943C40.3988 60.7671 42.7094 58.8987 42.9815 56.3199C43.2536 53.7412 41.3897 51.425 38.8173 51.1522C36.2448 50.8743 33.9394 52.7427 33.6621 55.3265Z" fill="#F2F2F2"/>
<path d="M32.3935 50.4676C33.2304 50.5551 33.9903 50.864 34.6322 51.3272C33.4255 52.2125 32.5732 53.5868 32.4037 55.1927C32.2343 56.8038 32.7734 58.3222 33.7696 59.4442C33.0507 59.7582 32.2394 59.9023 31.4025 59.8097C28.83 59.5369 26.9662 57.2207 27.2383 54.642C27.5104 52.0633 29.821 50.1897 32.3935 50.4676Z" fill="#F2F2F2"/>
<path d="M75.7664 44.1058L72.9578 17.5981C72.8191 16.3113 71.669 15.3745 70.3853 15.5135L14.9262 21.4172C13.6425 21.5562 12.708 22.7092 12.8466 23.996L15.6553 50.5037L16.2714 56.2994C16.4101 57.5862 17.5602 58.5229 18.8439 58.384L74.2928 52.4802C75.5765 52.3412 76.511 51.1883 76.3723 49.9015L75.7664 44.1058Z" fill="#00BDFF"/>
<g opacity="0.15">
<path d="M55.7444 43.698C59.8425 37.4959 58.1489 29.1379 51.9618 25.0299C45.7748 20.9219 37.437 22.6196 33.339 28.8217C29.241 35.0239 30.9346 43.3819 37.1216 47.4899C43.3087 51.5978 51.6464 49.9002 55.7444 43.698Z" fill="white"/>
</g>
<path d="M20.1017 41.944C20.9643 41.8514 21.3699 42.6131 21.4521 43.3595C21.5291 44.1058 21.2878 44.9345 20.4303 45.0272C19.5677 45.1198 19.162 44.358 19.0799 43.6117C19.0029 42.8654 19.2442 42.0367 20.1017 41.944ZM19.4188 43.5757C19.4753 44.1213 19.732 44.7955 20.3995 44.7235C21.0619 44.6514 21.1748 43.936 21.1183 43.3955C21.0619 42.8499 20.8051 42.1756 20.1376 42.2477C19.4701 42.3198 19.3623 43.0352 19.4188 43.5757Z" fill="white"/>
<path d="M22.9871 41.6352C23.8497 41.5425 24.2553 42.3043 24.3375 43.0506C24.4145 43.797 24.1732 44.6257 23.3157 44.7183C22.4531 44.811 22.0474 44.0492 21.9653 43.3029C21.8831 42.5565 22.1245 41.7278 22.9871 41.6352ZM22.3042 43.272C22.3606 43.8176 22.6174 44.4918 23.2849 44.4198C23.9472 44.3477 24.0602 43.6323 24.0037 43.0918C23.9473 42.5462 23.6905 41.8719 23.023 41.944C22.3555 42.0109 22.2426 42.7264 22.3042 43.272Z" fill="white"/>
<path d="M24.9852 44.5021L24.9646 44.2653L26.0532 42.783C26.197 42.5771 26.3818 42.33 26.3561 42.0624C26.3202 41.7021 26.0224 41.6249 25.7092 41.6557C25.396 41.6866 25.17 41.9131 25.093 42.2116L24.7695 42.1293C24.8568 41.6763 25.1957 41.4035 25.6732 41.3521C26.1662 41.3006 26.6334 41.4704 26.695 42.0263C26.7361 42.4072 26.5102 42.7058 26.2997 42.9991L25.4576 44.1521L26.9415 43.9925L26.9723 44.2962L24.9852 44.5021Z" fill="white"/>
<path d="M27.1152 41.2388L29.0715 41.033L29.0921 41.244L28.0703 44.1727L27.716 44.2087L28.7018 41.3727L27.1409 41.5374L27.1152 41.2388Z" fill="white"/>
<path d="M34.0582 40.4565C34.9208 40.3639 35.3264 41.1257 35.4086 41.872C35.4856 42.6183 35.2443 43.447 34.3868 43.5397C33.5242 43.6323 33.1185 42.8705 33.0364 42.1242C32.9542 41.3779 33.2007 40.5492 34.0582 40.4565ZM33.3753 42.0933C33.4317 42.6389 33.6885 43.3132 34.356 43.2411C35.0183 43.1691 35.1313 42.4536 35.0748 41.9132C35.0183 41.3676 34.7616 40.6933 34.0941 40.7654C33.4266 40.8323 33.3188 41.5477 33.3753 42.0933Z" fill="white"/>
<path d="M36.2658 42.7264C36.5123 42.9272 36.8101 42.9838 37.1182 42.9477C37.57 42.9014 37.7703 42.6235 37.7241 42.1808C37.6779 41.733 37.4263 41.5065 36.9693 41.5529C36.6561 41.5838 36.2966 41.7433 36.0399 41.9235L35.9629 40.297L37.6727 40.1168L37.7035 40.4205L36.3223 40.5698L36.3634 41.4293C36.538 41.3367 36.7434 41.2749 36.9436 41.2543C37.5803 41.1874 38.0065 41.5014 38.0732 42.1448C38.14 42.783 37.7908 43.1845 37.1541 43.2514C36.8255 43.2875 36.3429 43.2463 36.0964 42.9838L36.2658 42.7264Z" fill="white"/>
<path d="M38.8742 42.4485C39.1207 42.6492 39.4185 42.7058 39.7266 42.6698C40.1784 42.6235 40.3787 42.3455 40.3325 41.9029C40.2863 41.4551 40.0347 41.2286 39.5777 41.2749C39.2645 41.3058 38.905 41.4654 38.6483 41.6455L38.5713 40.019L40.2811 39.8389L40.3119 40.1425L38.9307 40.2918L38.9718 41.1514C39.1464 41.0587 39.3518 40.997 39.552 40.9764C40.1887 40.9095 40.6149 41.2234 40.6816 41.8668C40.7484 42.5051 40.3992 42.9066 39.7625 42.9735C39.4339 43.0095 38.9512 42.9683 38.7048 42.7058L38.8742 42.4485Z" fill="white"/>
<path d="M41.5134 42.1448C41.6674 42.397 41.9652 42.433 42.2374 42.4021C42.6122 42.361 42.9408 42.1705 42.8997 41.7433C42.8432 41.2183 42.2733 41.2492 41.8831 41.2903L41.8523 40.9867C42.222 40.9455 42.7251 40.822 42.6738 40.3433C42.6327 39.9727 42.2938 39.88 41.9755 39.9109C41.7393 39.9367 41.462 40.0653 41.385 40.3124L41.0615 40.23C41.1745 39.8131 41.5442 39.6536 41.9395 39.6124C42.4427 39.5609 42.9511 39.7411 43.0127 40.3072C43.0486 40.6521 42.8484 40.9249 42.5352 41.0536C42.9151 41.0999 43.1924 41.3006 43.2386 41.7021C43.3054 42.3198 42.8227 42.6389 42.2682 42.6955C41.8933 42.7367 41.3901 42.6749 41.2156 42.2837L41.5134 42.1448Z" fill="white"/>
<path d="M47.3311 39.7822L48.0037 39.0204L48.2656 38.9896L48.5839 41.9903L48.245 42.0264L47.9832 39.5506L47.5878 40.0035L47.3311 39.7822Z" fill="white"/>
<path d="M50.0728 38.7528C50.9354 38.6601 51.3411 39.4219 51.4232 40.1683C51.5002 40.9146 51.2589 41.7433 50.4014 41.8359C49.5388 41.9286 49.1332 41.1668 49.051 40.4205C48.9689 39.6741 49.2153 38.8454 50.0728 38.7528ZM49.3899 40.3844C49.4464 40.93 49.7031 41.6043 50.3706 41.5323C51.033 41.4602 51.146 40.7447 51.0895 40.2043C51.033 39.6638 50.7763 38.9844 50.1088 39.0565C49.4413 39.1285 49.3334 39.844 49.3899 40.3844Z" fill="white"/>
<path d="M52.2497 41.0021C52.4037 41.2543 52.7015 41.2903 52.9737 41.2594C53.3485 41.2183 53.6771 41.0278 53.6361 40.6006C53.5796 40.0756 53.0096 40.1065 52.6194 40.1476L52.5886 39.844C52.9583 39.8028 53.4615 39.6793 53.4101 39.2006C53.369 38.83 53.0302 38.7373 52.7118 38.7682C52.4756 38.794 52.1984 38.9226 52.1213 39.1697L51.7979 39.0873C51.9108 38.6704 52.2805 38.5109 52.6759 38.4697C53.1791 38.4182 53.6874 38.5984 53.749 39.1645C53.785 39.5094 53.5847 39.7822 53.2715 39.9109C53.6515 39.9572 53.9287 40.1579 53.9749 40.5594C54.0417 41.1771 53.559 41.4962 53.0045 41.5528C52.6297 41.594 52.1265 41.5322 51.9519 41.141L52.2497 41.0021Z" fill="white"/>
<path d="M54.3711 39.3447C54.3044 38.7013 54.6689 38.269 55.3056 38.202C56.158 38.1094 56.4506 38.7785 56.5276 39.4991C56.6149 40.3278 56.3325 41.208 55.3878 41.3109C55.2029 41.3315 55.0129 41.3161 54.8281 41.28L54.9513 40.9918C55.0848 41.0175 55.2235 41.0227 55.3621 41.0072C56.0091 40.9403 56.2401 40.4102 56.2144 39.8182C56.0809 40.0807 55.8139 40.2403 55.5315 40.2712C54.9 40.333 54.4379 39.9727 54.3711 39.3447ZM54.71 39.3087C54.7562 39.7462 55.0489 40.0138 55.4956 39.9675C55.9423 39.9212 56.1734 39.6021 56.1271 39.1594C56.0809 38.7168 55.7883 38.4542 55.3415 38.5006C54.8948 38.5469 54.6638 38.866 54.71 39.3087Z" fill="white"/>
<path d="M61.035 40.6624L61.0145 40.4256L62.103 38.9432C62.2468 38.7374 62.4316 38.4903 62.4059 38.2226C62.37 37.8623 62.0722 37.7851 61.759 37.816C61.4458 37.8469 61.2198 38.0734 61.1428 38.3719L60.8193 38.2896C60.9066 37.8366 61.2455 37.5638 61.723 37.5123C62.216 37.4609 62.6832 37.6307 62.7448 38.1866C62.7859 38.5675 62.56 38.866 62.3495 39.1594L61.5074 40.3124L62.9913 40.1528L63.0221 40.4565L61.035 40.6624Z" fill="white"/>
<path d="M64.4034 37.2292C65.2661 37.1366 65.6717 37.8984 65.7539 38.6447C65.8309 39.391 65.5895 40.2197 64.7321 40.3124C63.8694 40.405 63.4638 39.6432 63.3817 38.8969C63.3046 38.1506 63.546 37.3219 64.4034 37.2292ZM63.7205 38.8609C63.777 39.4065 64.0338 40.0808 64.7013 40.0087C65.3636 39.9366 65.4766 39.2212 65.4201 38.6807C65.3636 38.1351 65.1069 37.4609 64.4394 37.5329C63.7719 37.605 63.6641 38.3153 63.7205 38.8609Z" fill="white"/>
<path d="M67.6226 36.9307L67.946 36.8947L68.1514 38.8094L68.5673 38.7631L68.5981 39.0668L68.1822 39.1131L68.2644 39.8955L67.9255 39.9315L67.8433 39.1492L66.344 39.3087L66.3184 39.0617L67.6226 36.9307ZM66.7497 38.9587L67.8125 38.8455L67.6636 37.4609L66.7497 38.9587Z" fill="white"/>
<path d="M69.384 39.2006C69.6305 39.4013 69.9283 39.458 70.2363 39.4219C70.6882 39.3756 70.8884 39.0977 70.8422 38.655C70.796 38.2072 70.5444 37.9807 70.0874 38.0271C69.7742 38.0579 69.4148 38.2175 69.1581 38.3976L69.0811 36.7712L70.7909 36.591L70.8217 36.8947L69.4405 37.044L69.4816 37.9035C69.6561 37.8109 69.8615 37.7491 70.0618 37.7285C70.6985 37.6616 71.1246 37.9756 71.1914 38.619C71.2581 39.2572 70.909 39.6587 70.2723 39.7256C69.9437 39.7616 69.461 39.7205 69.2146 39.458L69.384 39.2006Z" fill="white"/>
<path d="M29.8728 49.7677L21.0309 50.7096C20.271 50.792 19.5932 50.2412 19.5111 49.4794C19.4289 48.7177 19.9783 48.0382 20.7382 47.9559L29.5801 47.014C30.34 46.9316 31.0178 47.4823 31.0999 48.2441C31.1769 49.0059 30.6275 49.6853 29.8728 49.7677Z" fill="white"/>
<path d="M68.8555 19.6003L60.9173 20.4444C60.4603 20.4908 60.0547 20.1613 60.0034 19.7084C59.9571 19.2503 60.2858 18.8437 60.7376 18.7922L68.6758 17.9481C69.1327 17.9017 69.5384 18.2312 69.5897 18.6841C69.6411 19.1422 69.3124 19.5488 68.8555 19.6003Z" fill="white"/>
<path d="M69.168 22.5496L53.7025 24.1967C53.2455 24.243 52.8399 23.9136 52.7885 23.4607C52.7423 23.0026 53.0709 22.596 53.5228 22.5445L68.9883 20.8974C69.4453 20.8511 69.8509 21.1805 69.9022 21.6335C69.9536 22.0915 69.6198 22.5033 69.168 22.5496Z" fill="white"/>
<path d="M60.701 50.5346L21.4518 54.7141C20.6919 54.7964 20.0141 54.2457 19.932 53.4839C19.8498 52.7221 20.3992 52.0427 21.1591 51.9603L60.4083 47.7809C61.1682 47.6985 61.846 48.2492 61.9281 49.011C62.0103 49.7728 61.4609 50.4522 60.701 50.5346Z" fill="white"/>
<path d="M68.8401 48.275C68.9223 49.0368 68.3729 49.7162 67.6129 49.7985C66.853 49.8809 66.1752 49.3301 66.0931 48.5684C66.0109 47.8066 66.5603 47.1272 67.3203 47.0448C68.0751 46.9676 68.758 47.5184 68.8401 48.275Z" fill="white"/>
<path d="M72.6809 47.8684C72.7631 48.6302 72.2137 49.3096 71.4538 49.3919C70.6938 49.4743 70.0161 48.9235 69.9339 48.1618C69.8518 47.4 70.4012 46.7206 71.1611 46.6382C71.921 46.5559 72.6039 47.1066 72.6809 47.8684Z" fill="white"/>
<path d="M24.8666 22.9717L25.375 27.7586C25.4006 28.0005 25.2261 28.2218 24.9796 28.2475L16.8053 29.1174C16.5639 29.1431 16.3431 28.9681 16.3175 28.7211L15.8091 23.9342C15.7835 23.6923 15.958 23.471 16.2045 23.4453L24.3788 22.5754C24.6202 22.5497 24.841 22.7298 24.8666 22.9717Z" fill="#FFE177"/>
<path d="M20.3123 25.6224L16.0352 26.0754L16.0146 25.8489L20.0607 25.4217L19.9118 23.9805L20.1326 23.9548L20.3123 25.6224Z" fill="#FFCD1C"/>
<path d="M21.3652 28.6335L21.1444 28.6593L20.9082 26.4305L25.1854 25.9776L25.2059 26.1989L21.1547 26.6313L21.3652 28.6335Z" fill="#FFCD1C"/>
<path d="M21.9502 22.8332L21.7256 22.8571L21.9783 25.2422L22.2029 25.2183L21.9502 22.8332Z" fill="#FFCD1C"/>
<path d="M24.9435 23.7505L21.9668 24.0674L21.9907 24.2926L24.9674 23.9757L24.9435 23.7505Z" fill="#FFCD1C"/>
<path d="M18.7514 27.9027L18.5255 27.9232L18.4434 27.1512L16.179 27.3931L16.1533 27.1666L18.6436 26.9041L18.7514 27.9027Z" fill="#FFCD1C"/>
<path d="M96.9315 32.2005C86.5236 32.2005 78.0566 40.6881 78.0566 51.1214C78.0566 61.5546 86.5236 70.0422 96.9315 70.0422C107.339 70.0422 115.806 61.5546 115.806 51.1214C115.806 40.6881 107.339 32.2005 96.9315 32.2005ZM113.224 50.2721C113.239 50.5552 113.244 50.8383 113.244 51.1214C113.244 51.1265 113.244 51.1368 113.244 51.142C113.244 50.8537 113.239 50.5603 113.224 50.2721Z" fill="#00D495"/>
<path d="M87.3097 49.7985L86.0723 51.039L94.0258 59.4031L107.889 44.2345L106.796 43.1793L94.0258 52.7581L87.3097 49.7985Z" fill="white"/>
</svg>
