<svg width="146" height="130" viewBox="0 0 146 130" fill="none" xmlns="http://www.w3.org/2000/svg">
<g opacity="0.8">
<g opacity="0.1">
<path d="M121.526 96.2389C99.8455 119.071 67.3025 126.549 39.2819 113.584C29.6165 109.159 7.98034 85.8849 8.4237 68.4956C8.4237 68.1858 8.4237 67.8318 8.46804 67.4779C9.84247 33.6283 30.6806 16.1062 41.277 10.0885C55.8194 1.85839 76.9679 5.84069 84.3277 18.9823C89.1161 27.5221 94.8355 27.3009 100.112 27.6106C105.343 27.9203 132.921 32.5664 137.443 52.2124C141.61 70.4425 133.187 83.9823 121.526 96.2389Z" fill="#00BDFF"/>
</g>
<path d="M99.5354 16.2832V116.283C99.5354 119.425 97.0082 121.947 93.8603 121.947H45.1345C43.5384 121.947 42.1197 121.327 41.0999 120.266C40.0802 119.248 39.4595 117.832 39.4595 116.283V16.2832C39.4595 13.1416 41.9867 10.6195 45.1345 10.6195H93.8603C94.7914 10.6195 95.6781 10.8407 96.4318 11.239C98.294 12.1682 99.5354 14.1151 99.5354 16.2832Z" fill="#6F64FF"/>
<path d="M99.5355 16.2833V116.283C99.5355 119.425 97.0083 121.947 93.8604 121.947H45.5336C43.9375 121.947 42.5188 121.328 41.499 120.266L96.4763 11.239C98.294 12.1682 99.5355 14.1151 99.5355 16.2833Z" fill="#6F64FF"/>
<path d="M97.4516 15.9735V116.637C97.4516 118.009 96.3431 119.115 94.9687 119.115H44.3808C43.3611 119.115 42.4743 118.496 42.0753 117.611C41.9423 117.301 41.8979 116.991 41.8979 116.637V15.9735C41.8979 14.6018 43.0064 13.4956 44.3808 13.4956H94.9687C95.3234 13.4956 95.6338 13.5841 95.9441 13.6726C96.8308 14.0266 97.4516 14.9115 97.4516 15.9735Z" fill="white"/>
<path d="M83.9735 18.4513H55.3765C53.7804 18.4513 52.4946 17.1681 52.4946 15.5752C52.4946 13.9823 53.7804 12.6991 55.3765 12.6991H83.9735C85.5696 12.6991 86.8554 13.9823 86.8554 15.5752C86.8554 17.1681 85.5696 18.4513 83.9735 18.4513Z" fill="#6F64FF"/>
<path d="M77.8553 15.9292H58.6576C58.2586 15.9292 57.9482 15.6195 57.9482 15.2213C57.9482 14.823 58.2586 14.5133 58.6576 14.5133H77.8553C78.2544 14.5133 78.5647 14.823 78.5647 15.2213C78.5647 15.5753 78.2544 15.9292 77.8553 15.9292Z" fill="black"/>
<path d="M83.5744 15.177C83.5744 15.6637 83.1754 16.0177 82.732 16.0177C82.2443 16.0177 81.8896 15.6194 81.8896 15.177C81.8896 14.6902 82.2887 14.3362 82.732 14.3362C83.1754 14.292 83.5744 14.6902 83.5744 15.177Z" fill="black"/>
<path d="M110.797 98.6283L110.132 105.044C109.999 106.46 108.713 107.522 107.25 107.345L45.4894 100.796C44.0706 100.664 43.0065 99.3805 43.1839 97.9203L43.8489 91.5044L110.797 98.6283Z" fill="#FC4E69"/>
<path d="M49.8344 59.8229L111.595 66.3716C113.014 66.5043 114.078 67.7875 113.901 69.2477L110.753 98.6282L43.8047 91.5486L46.9526 62.168C47.1299 60.7079 48.4157 59.6902 49.8344 59.8229Z" fill="#FD8396"/>
<path d="M44.3596 86.6607L111.33 93.7583L112.266 84.9583L45.296 77.8607L44.3596 86.6607Z" fill="#424141"/>
<path d="M98.9592 78.407L108.359 79.4247C108.802 79.4689 109.201 79.1592 109.245 78.7167L109.378 77.3893C109.423 76.9468 109.112 76.5486 108.669 76.5043L99.2696 75.4866C98.8262 75.4424 98.4272 75.7521 98.3828 76.1946L98.2498 77.522C98.2055 77.9645 98.5158 78.3627 98.9592 78.407Z" fill="white"/>
<path d="M82.9538 76.7256L92.3532 77.7433C92.7965 77.7875 93.1956 77.4778 93.2399 77.0353L93.3729 75.7079C93.4172 75.2654 93.1069 74.8672 92.6635 74.8229L83.2642 73.8052C82.8208 73.761 82.4218 74.0707 82.3775 74.5132L82.2444 75.8406C82.2001 76.2831 82.5105 76.6813 82.9538 76.7256Z" fill="white"/>
<path d="M58.347 70.8405C58.0367 73.7166 60.1205 76.283 63.0024 76.5927C65.8842 76.9024 68.4557 74.8228 68.7661 71.9467C69.0765 69.0706 66.9926 66.5042 64.1108 66.1945C61.2289 65.929 58.6574 68.0086 58.347 70.8405Z" fill="white"/>
<path d="M56.9281 65.4866C57.8592 65.5751 58.7016 65.9291 59.411 66.4158C58.0809 67.3893 57.1055 68.938 56.9281 70.7079C56.7508 72.4778 57.3272 74.1592 58.4356 75.4424C57.6375 75.7964 56.7508 75.9291 55.8197 75.8406C52.9379 75.5309 50.8541 72.9645 51.1644 70.0884C51.4748 67.2565 54.0463 65.1769 56.9281 65.4866Z" fill="white"/>
<path d="M93.816 59.5575L90.6681 30.177C90.5351 28.7611 89.2493 27.6991 87.7862 27.8761L26.0255 34.3805C24.6068 34.5133 23.5427 35.7965 23.72 37.2566L26.8679 66.6372L27.533 73.0531C27.666 74.469 28.9517 75.531 30.4148 75.354L92.1755 68.8053C93.5943 68.6726 94.6584 67.3894 94.481 65.9292L93.816 59.5575Z" fill="#00BDFF"/>
<g opacity="0.15">
<path d="M71.5016 59.1181C76.0718 52.2319 74.1831 42.952 67.2831 38.3909C60.3831 33.8298 51.0846 35.7147 46.5144 42.601C41.9442 49.4872 43.8328 58.7671 50.7329 63.3281C57.6329 67.8892 66.9314 66.0043 71.5016 59.1181Z" fill="white"/>
</g>
<path d="M31.7892 57.1681C32.7646 57.0796 33.208 57.9203 33.2967 58.7167C33.3853 59.5574 33.1193 60.4866 32.1439 60.5751C31.1685 60.6636 30.7251 59.8229 30.6365 59.0265C30.5921 58.1857 30.8581 57.2565 31.7892 57.1681ZM31.0355 58.9822C31.0798 59.6017 31.3902 60.3539 32.1439 60.2654C32.8976 60.1769 32.9863 59.3804 32.942 58.8052C32.8976 58.1857 32.5873 57.4335 31.8336 57.522C31.0798 57.5663 30.9912 58.3627 31.0355 58.9822Z" fill="white"/>
<path d="M35.0257 56.814C36.0011 56.7256 36.4444 57.5663 36.5331 58.3627C36.6218 59.2034 36.3558 60.1326 35.3804 60.2211C34.405 60.3096 33.9616 59.4689 33.8729 58.6725C33.7843 57.8318 34.0503 56.9025 35.0257 56.814ZM34.272 58.6282C34.3163 59.2477 34.6266 59.9999 35.3804 59.9114C36.1341 59.8229 36.2228 59.0264 36.1784 58.4512C36.1341 57.8318 35.8237 57.0795 35.07 57.168C34.3163 57.2565 34.1833 58.0087 34.272 58.6282Z" fill="white"/>
<path d="M37.2427 60L37.1983 59.7345L38.3954 58.0973C38.5728 57.8761 38.7501 57.6106 38.7501 57.3009C38.7058 56.9026 38.3954 56.8142 38.0407 56.8584C37.686 56.9026 37.42 57.1239 37.3757 57.4779L37.021 57.3894C37.1097 56.9026 37.5087 56.5929 38.0407 56.5487C38.5728 56.5044 39.1048 56.6814 39.1935 57.3009C39.2378 57.6991 38.9718 58.0531 38.7501 58.3628L37.8191 59.646L39.4595 59.469L39.5038 59.823L37.2427 60Z" fill="white"/>
<path d="M39.5923 56.3716L41.7648 56.1504L41.8091 56.3716L40.6564 59.6017L40.2573 59.646L41.3657 56.5044L39.6366 56.6814L39.5923 56.3716Z" fill="white"/>
<path d="M47.3514 55.5311C48.3268 55.4426 48.7701 56.2833 48.8588 57.0798C48.9475 57.9205 48.6815 58.8497 47.706 58.9382C46.7306 59.0267 46.2873 58.186 46.1986 57.3895C46.1099 56.5488 46.376 55.6196 47.3514 55.5311ZM46.5976 57.301C46.642 57.9205 46.9523 58.6727 47.706 58.5842C48.4598 58.4957 48.5484 57.6992 48.5041 57.124C48.4598 56.5045 48.1494 55.7523 47.3957 55.8408C46.642 55.9293 46.509 56.7258 46.5976 57.301Z" fill="white"/>
<path d="M49.7898 58.009C50.0558 58.2302 50.4105 58.2745 50.7208 58.2745C51.2085 58.2302 51.4302 57.9205 51.3859 57.4338C51.3415 56.947 51.0755 56.6815 50.5435 56.7258C50.1888 56.77 49.7897 56.947 49.5237 57.124L49.4351 55.3099L51.3415 55.0886L51.3859 55.4426L49.8341 55.6196L49.8784 56.593C50.0558 56.5046 50.3218 56.4161 50.5435 56.4161C51.2529 56.3276 51.7406 56.6815 51.7849 57.3895C51.8736 58.0975 51.4745 58.54 50.7652 58.6284C50.4105 58.6727 49.8784 58.6284 49.5681 58.3187L49.7898 58.009Z" fill="white"/>
<path d="M52.716 57.6992C52.982 57.9204 53.3367 57.9646 53.6471 57.9646C54.1348 57.9204 54.3565 57.6107 54.3121 57.1239C54.2678 56.6372 54.0018 56.3717 53.4697 56.416C53.115 56.4602 52.716 56.6372 52.45 56.8142L52.3613 55L54.2678 54.7788L54.3121 55.1328L52.7604 55.3098L52.8047 56.2832C52.982 56.1947 53.2481 56.1062 53.4697 56.1062C54.1791 56.0177 54.6668 56.3717 54.7112 57.0797C54.7998 57.7877 54.4008 58.2301 53.6914 58.3186C53.3367 58.3629 52.8047 58.3186 52.4943 58.0089L52.716 57.6992Z" fill="white"/>
<path d="M55.6424 57.3895C55.8197 57.655 56.1301 57.6992 56.4404 57.6992C56.8395 57.655 57.2385 57.4337 57.1942 56.9913C57.1498 56.416 56.4848 56.4603 56.0414 56.5045L55.9971 56.1506C56.3961 56.1063 56.9725 55.9736 56.9281 55.4426C56.8838 55.0444 56.4848 54.9116 56.1301 54.9559C55.8641 55.0001 55.5537 55.1329 55.465 55.3983L55.1104 55.3099C55.2434 54.8674 55.6424 54.6904 56.0858 54.6019C56.6621 54.5576 57.1942 54.7346 57.2828 55.3541C57.3272 55.7523 57.1055 56.0178 56.7508 56.1948C57.1942 56.2391 57.5045 56.4603 57.5489 56.9028C57.6375 57.5665 57.0612 57.9205 56.4848 58.009C56.0858 58.0532 55.5094 57.9647 55.2877 57.5665L55.6424 57.3895Z" fill="white"/>
<path d="M62.1152 54.7788L62.869 53.938L63.1793 53.8938L63.534 57.2124L63.1793 57.2566L62.869 54.5133L62.4256 55L62.1152 54.7788Z" fill="white"/>
<path d="M65.1745 53.6283C66.1499 53.5398 66.5932 54.3805 66.6819 55.1769C66.7706 56.0176 66.5046 56.9468 65.5292 57.0353C64.5538 57.1238 64.1104 56.2831 64.0217 55.4867C63.9774 54.646 64.2434 53.7168 65.1745 53.6283ZM64.4208 55.4424C64.4651 56.0619 64.7754 56.8141 65.5292 56.7256C66.2829 56.6371 66.3716 55.8406 66.3272 55.2654C66.2829 54.646 65.9725 53.8937 65.2188 53.9822C64.4651 54.0265 64.3764 54.8229 64.4208 55.4424Z" fill="white"/>
<path d="M67.6131 56.1062C67.7904 56.3717 68.1008 56.4159 68.4111 56.4159C68.8102 56.3717 69.2092 56.1504 69.1649 55.7079C69.1205 55.1327 68.4555 55.177 68.0121 55.2212L67.9678 54.8672C68.3668 54.823 68.9432 54.6902 68.8988 54.1593C68.8545 53.761 68.4555 53.6283 68.1008 53.6725C67.8348 53.7168 67.5244 53.8495 67.4357 54.115L67.0811 54.0265C67.2141 53.5841 67.6131 53.4071 68.0565 53.3186C68.6328 53.2743 69.1649 53.4513 69.2535 54.0708C69.2979 54.469 69.0762 54.7345 68.7215 54.9115C69.1649 54.9557 69.4752 55.177 69.5196 55.6194C69.6082 56.2832 69.0319 56.6371 68.4555 56.7256C68.0565 56.7699 67.4801 56.6814 67.2584 56.2832L67.6131 56.1062Z" fill="white"/>
<path d="M69.9629 54.292C69.8742 53.5841 70.2732 53.0973 71.0269 53.0088C71.958 52.9203 72.3127 53.6283 72.4014 54.4248C72.4901 55.354 72.1797 56.3274 71.1156 56.4159C70.8939 56.4159 70.7166 56.4159 70.4949 56.3717L70.6279 56.0619C70.7609 56.1062 70.9383 56.1062 71.0713 56.0619C71.7807 55.9734 72.0467 55.3982 72.0024 54.7345C71.8693 55.0442 71.559 55.2212 71.2486 55.2212C70.5392 55.354 70.0516 54.9557 69.9629 54.292ZM70.3619 54.2478C70.4062 54.7345 70.7609 55.0442 71.2486 54.9557C71.7363 54.9115 72.0024 54.5575 71.958 54.0708C71.9137 53.5841 71.559 53.2743 71.0713 53.3628C70.5393 53.4071 70.3176 53.7611 70.3619 54.2478Z" fill="white"/>
<path d="M77.4115 55.7523L77.3672 55.4868L78.5643 53.8496C78.7416 53.6284 78.919 53.3629 78.919 53.0531C78.8746 52.6549 78.5643 52.5664 78.2096 52.6107C77.8549 52.6549 77.5889 52.8761 77.5445 53.2301L77.1455 53.0974C77.2342 52.6107 77.6332 52.3009 78.1652 52.2567C78.6973 52.2124 79.2293 52.3894 79.318 53.0089C79.3623 53.4071 79.0963 53.7611 78.8746 54.0708L77.9436 55.354L79.584 55.177L79.6284 55.531L77.4115 55.7523Z" fill="white"/>
<path d="M81.1359 51.9469C82.1113 51.8584 82.5547 52.6991 82.6433 53.4955C82.732 54.3362 82.466 55.2654 81.4906 55.3539C80.5152 55.4424 80.0718 54.6017 79.9831 53.8053C79.9388 52.9646 80.2048 52.0354 81.1359 51.9469ZM80.3822 53.761C80.4265 54.3805 80.7369 55.1327 81.4906 55.0442C82.2443 54.9557 82.333 54.1592 82.2886 53.584C82.2443 52.9646 81.934 52.2123 81.1802 52.3008C80.4265 52.3451 80.3378 53.1415 80.3822 53.761Z" fill="white"/>
<path d="M84.7273 51.593L85.082 51.5487L85.3036 53.6726L85.747 53.6284L85.7913 53.9823L85.348 54.0266L85.4366 54.9115L85.082 54.9558L84.9933 54.0708L83.3085 54.2478L83.2642 53.9823L84.7273 51.593ZM83.7519 53.8496L84.9489 53.7168L84.7716 52.1682L83.7519 53.8496Z" fill="white"/>
<path d="M86.6779 54.1151C86.944 54.3363 87.2986 54.3805 87.609 54.3805C88.0967 54.3363 88.3184 54.0266 88.2741 53.5398C88.2297 53.0531 87.9637 52.7876 87.4317 52.8319C87.077 52.8761 86.6779 53.0531 86.4119 53.2301L86.3232 51.4159L88.2297 51.1947L88.2741 51.5487L86.7223 51.7257L86.7666 52.6991C86.944 52.6106 87.21 52.5221 87.4317 52.5221C88.141 52.4336 88.6287 52.7876 88.6731 53.4956C88.7617 54.2036 88.3627 54.646 87.6533 54.7345C87.2986 54.7788 86.7666 54.7345 86.4563 54.4248L86.6779 54.1151Z" fill="white"/>
<path d="M42.6961 65.8408L32.8534 66.9028C32.011 66.9913 31.2573 66.3718 31.1686 65.5311C31.0799 64.6904 31.7006 63.9382 32.543 63.8497L42.3857 62.7877C43.2281 62.6992 43.9818 63.3187 44.0705 64.1594C44.1592 65.0001 43.5385 65.7523 42.6961 65.8408Z" fill="white"/>
<path d="M86.1013 32.3894L77.2784 33.3186C76.7907 33.3628 76.303 33.0088 76.2586 32.4779C76.2143 31.9911 76.569 31.5044 77.101 31.4602L85.924 30.5309C86.4117 30.4867 86.8994 30.8407 86.9437 31.3717C86.988 31.8584 86.6333 32.3451 86.1013 32.3894Z" fill="white"/>
<path d="M86.4559 35.6638L69.209 37.4779C68.7213 37.5222 68.2336 37.1682 68.1893 36.6372C68.1449 36.1505 68.4996 35.6638 69.0317 35.6195L86.2786 33.8054C86.7663 33.7611 87.254 34.1151 87.2983 34.6461C87.3426 35.1328 86.9436 35.5753 86.4559 35.6638Z" fill="white"/>
<path d="M77.0125 66.6814L33.2967 71.3274C32.4543 71.4159 31.7006 70.7964 31.612 69.9557C31.5233 69.115 32.144 68.3628 32.9864 68.2743L76.7021 63.6283C77.5445 63.5398 78.2983 64.1593 78.3869 65C78.4756 65.8407 77.8549 66.5929 77.0125 66.6814Z" fill="white"/>
<path d="M86.1013 64.1592C86.19 64.9999 85.5693 65.7521 84.7269 65.8406C83.8845 65.9291 83.1308 65.3097 83.0421 64.469C82.9535 63.6283 83.5742 62.876 84.4166 62.7875C85.2589 62.7433 86.0127 63.3185 86.1013 64.1592Z" fill="white"/>
<path d="M88.8501 65.4426C89.7071 65.4426 90.4019 64.7492 90.4019 63.8939C90.4019 63.0386 89.7071 62.3452 88.8501 62.3452C87.9931 62.3452 87.2983 63.0386 87.2983 63.8939C87.2983 64.7492 87.9931 65.4426 88.8501 65.4426Z" fill="white"/>
<path d="M37.1095 36.1062L37.6859 41.4159C37.7302 41.6814 37.5085 41.9469 37.2425 41.9469L28.1092 42.9203C27.8432 42.9646 27.5772 42.7433 27.5772 42.4779L27.0008 37.1681C26.9565 36.9026 27.1781 36.6371 27.4442 36.6371L36.5331 35.6637C36.8435 35.6637 37.0652 35.8407 37.1095 36.1062Z" fill="#FFE177"/>
<path d="M32.0111 39.0708L27.2671 39.5575V39.2921L31.7451 38.8496L31.5677 37.2566L31.8337 37.2124L32.0111 39.0708Z" fill="#FFCD1C"/>
<path d="M33.2078 42.3894L32.9418 42.4336L32.6758 39.9557L37.4641 39.469V39.6902L32.9861 40.177L33.2078 42.3894Z" fill="#FFCD1C"/>
<path d="M33.8632 35.9682L33.5986 35.9962L33.8793 38.6362L34.1438 38.6082L33.8632 35.9682Z" fill="#FFCD1C"/>
<path d="M37.1767 36.9945L33.8701 37.345L33.8982 37.609L37.2048 37.2585L37.1767 36.9945Z" fill="#FFCD1C"/>
<path d="M30.2818 41.5929H30.0601L29.9714 40.7522L27.4442 41.0177L27.3999 40.7522L30.1931 40.4867L30.2818 41.5929Z" fill="#FFCD1C"/>
</g>
</svg>
