<svg width="199" height="152" viewBox="0 0 199 152" fill="none" xmlns="http://www.w3.org/2000/svg">
<g opacity="0.1">
<path d="M38.1651 143.595H157.66H9.70944C4.51819 107.577 30.6186 112.715 24.1776 80.7304C23.5047 77.3206 23.024 74.1029 22.7356 71.0293C22.6875 71.0293 22.6395 71.0293 22.6395 71.0293C21.582 60.1275 23.697 51.435 24.6583 48.2653C35.2331 13.6871 80.6564 14.5996 96.9512 37.6997C98.1048 39.3326 99.2103 40.7733 100.364 42.022C103.633 46.2482 109.256 49.0337 111.66 50.1383V50.2343C119.687 53.0678 126.849 49.8501 132.761 48.6015C150.69 44.7594 173.714 52.2034 180.684 75.1114C191.355 110.266 179.29 143.595 179.29 143.595H158.573" fill="#07BBFD"/>
</g>
<path d="M126.176 30.4959V139.033C126.176 142.443 123.436 145.18 120.024 145.18H67.198C65.4676 145.18 63.9294 144.508 62.8239 143.355C61.7183 142.251 61.0454 140.714 61.0454 139.033V30.4959C61.0454 27.0861 63.7852 24.3486 67.198 24.3486H120.024C121.033 24.3486 121.994 24.5888 122.812 25.021C124.83 26.0295 126.176 28.0946 126.176 30.4959Z" fill="#36297D"/>
<path d="M126.176 30.4959V139.033C126.176 142.443 123.436 145.18 120.024 145.18H67.6304C65.9 145.18 64.3619 144.508 63.2563 143.355L122.86 25.021C124.83 26.0295 126.176 28.0946 126.176 30.4959Z" fill="#36297D"/>
<path d="M123.917 30.1118V139.369C123.917 140.858 122.715 142.059 121.225 142.059H66.3807C65.2752 142.059 64.3138 141.386 63.8812 140.426C63.737 140.09 63.689 139.753 63.689 139.369V30.1118C63.689 28.623 64.8906 27.4224 66.3807 27.4224H121.225C121.61 27.4224 121.946 27.5184 122.283 27.6145C123.244 28.0467 123.917 29.0072 123.917 30.1118Z" fill="#FCFCFC"/>
<path d="M109.305 32.8492H78.3016C76.5712 32.8492 75.1772 31.4565 75.1772 29.7276C75.1772 27.9987 76.5712 26.606 78.3016 26.606H109.305C111.035 26.606 112.429 27.9987 112.429 29.7276C112.429 31.4565 111.035 32.8492 109.305 32.8492Z" fill="#36297D"/>
<path d="M102.671 30.0637H81.8584C81.4258 30.0637 81.0894 29.7275 81.0894 29.2953C81.0894 28.863 81.4258 28.5269 81.8584 28.5269H102.671C103.104 28.5269 103.441 28.863 103.441 29.2953C103.441 29.7275 103.104 30.0637 102.671 30.0637Z" fill="black"/>
<path d="M108.872 29.2474C108.872 29.7757 108.44 30.1599 107.959 30.1599C107.43 30.1599 107.046 29.7277 107.046 29.2474C107.046 28.7192 107.479 28.335 107.959 28.335C108.44 28.335 108.872 28.7672 108.872 29.2474Z" fill="black"/>
<path d="M147.422 133.798C147.422 133.798 147.085 138.121 147.374 139.513C147.518 140.282 148.335 141.819 147.95 142.539C147.566 143.259 147.133 143.403 147.133 143.403L137.232 143.547C136.703 143.547 137.039 143.211 137.472 142.875C138.193 142.347 138.77 142.011 141.029 140.906C141.173 140.858 141.702 140.474 141.894 140.378C142.375 140.09 142.903 139.609 143.288 139.129C144.009 138.361 144.057 134.567 144.057 134.567L147.422 133.798Z" fill="#6B4227"/>
<path d="M139.683 76.456C139.683 76.456 135.405 74.3429 136.222 78.9533C137.04 83.5637 143.288 135.191 143.288 135.191L149.152 135.527C149.152 135.527 149.922 118.286 149.729 115.837C149.585 113.387 148.576 109.545 148.576 109.545L148.095 94.2733L142.567 75.3994L139.683 76.456Z" fill="#05B3E2"/>
<path d="M141.894 140.426C144.49 141.098 146.46 140.618 147.518 140.186C147.806 140.954 148.191 141.962 147.95 142.539C147.71 143.211 147.374 143.547 147.085 143.547C144.682 143.595 138.289 143.547 136.462 143.547C136.222 143.547 136.078 143.259 136.222 143.067C136.751 142.587 141.702 140.57 141.894 140.426Z" fill="black"/>
<path d="M136.222 45.4319C136.222 45.4319 132.617 38.4682 132.088 35.9228C131.512 33.3775 129.589 20.4587 129.781 19.6423C129.925 18.8258 133.002 16.8088 132.617 16.0884C132.233 15.368 129.253 14.5996 128.58 14.6476C127.907 14.6957 126.128 15.6562 126.08 16.3766C126.08 17.145 126.705 32.2729 127.089 35.6347C127.474 38.9484 131.944 49.1778 131.944 49.1778L136.222 45.4319Z" fill="#6B4227"/>
<path d="M164.245 99.7483C164.245 99.7483 167.225 96.6266 167.898 95.33C168.235 94.6576 168.571 92.9287 169.292 92.6405C170.013 92.3524 170.494 92.4965 170.494 92.4965L178.281 98.6437C178.713 98.9799 178.233 99.0279 177.656 98.9799C176.791 98.9319 176.118 98.8358 173.666 98.2595C173.522 98.2115 172.897 98.1635 172.657 98.1154C172.08 98.0194 171.407 98.0674 170.782 98.1634C169.725 98.3075 167.321 101.237 167.321 101.237L164.245 99.7483Z" fill="#6B4227"/>
<path d="M172.657 98.0674C171.023 95.9063 169.244 94.9938 168.139 94.6576C168.427 93.8892 168.715 92.8326 169.196 92.5445C169.821 92.1603 170.254 92.2563 170.494 92.4004C172.369 93.8892 177.368 97.8753 178.81 99.0279C179.002 99.172 178.954 99.5082 178.665 99.5562C177.992 99.7003 172.897 98.1154 172.657 98.0674Z" fill="black"/>
<path d="M164.342 43.2706C162.515 39.3805 158.381 37.2194 154.44 38.276C152.998 36.355 150.835 34.9622 148.528 34.6741C144.009 34.0497 138.193 36.2109 138.77 40.9654C137.328 44.2791 137.713 48.8415 140.548 51.0987C140.02 55.469 144.394 59.311 149.537 58.8308C151.604 61.7123 155.209 63.3932 158.574 62.7208C159.391 62.5768 160.592 62.2886 160.833 62.2886C160.592 62.2406 166.697 66.3227 170.927 59.1189C175.205 51.7711 170.927 43.5587 164.342 43.2706Z" fill="black"/>
<path d="M137.953 78.1373C137.953 78.1373 147.518 73.863 147.662 74.3433C148.864 78.2334 152.565 76.9847 154.776 83.8043C155.689 86.6858 156.651 105.704 156.651 105.704C156.651 105.704 160.4 102.582 165.783 97.0593C166.216 96.627 170.254 100.517 170.254 100.517C159.583 115.021 154.968 115.789 153.19 114.973C149.489 113.292 141.606 89.5193 141.654 89.5193C140.692 87.6943 137.953 78.1373 137.953 78.1373Z" fill="#00BDFF"/>
<path d="M153.767 51.2908C153.767 51.2908 167.562 51.2908 170.542 51.0987C173.234 50.9546 183.809 51.1947 184.241 51.1467C184.674 51.0987 187.414 46.4402 187.846 46.9205C188.279 47.4007 186.308 49.2257 186.933 49.7059C187.558 50.1862 194.143 49.1296 194.047 49.6099C193.903 50.5224 190.057 50.4263 190.057 50.8585C190.057 51.2908 194.095 50.6184 194.335 51.3388C194.624 52.0592 190.49 51.6269 190.298 51.9631C190.153 52.2993 194.143 52.8756 193.71 53.596C193.47 53.9802 190.153 52.9717 190.201 53.4999C190.201 54.0282 192.653 55.1328 192.364 55.565C192.076 55.9492 190.442 54.3164 189.048 54.3164C187.654 54.3164 186.644 53.548 184.385 54.1723C183.28 54.4604 174.82 55.517 167.658 56.1413C160.352 56.7657 154.343 56.9578 154.343 56.9578L153.767 51.2908Z" fill="#6B4227"/>
<path d="M133.29 61.136C133.098 58.9269 133.53 57.198 133.626 56.4296C132.953 54.1243 131.511 49.1777 131.031 48.2172C131.031 48.2172 133.434 43.5588 135.886 43.6068C135.886 43.6068 138.385 49.3218 140.356 50.3304C140.404 50.3304 141.029 50.6185 141.317 50.6185C143.192 50.6185 149.729 50.4264 150.979 50.3784L150.306 59.7433C145.547 69.1082 146.845 74.0068 148.671 75.8318C149.537 76.6962 136.847 80.154 136.222 78.9534C135.549 77.5127 133.674 65.6504 133.29 61.136Z" fill="#FFCD1C"/>
<path d="M147.662 50.7147C148.864 50.1384 157.612 50.4265 157.612 50.4265C157.612 50.4265 158.814 56.5738 157.852 58.0145C157.852 58.0145 150.017 59.1671 150.258 59.8395L147.662 50.7147Z" fill="#FFCD1C"/>
<path d="M145.355 46.7764C145.355 46.7764 145.211 50.1382 145.355 51.531C145.499 52.9237 143.913 56.1894 140.981 56.2374C138.049 56.2855 140.548 53.1158 140.788 51.7231C141.029 50.3303 141.365 44.9995 141.365 44.9995L145.355 46.7764Z" fill="#6B4227"/>
<path d="M141.413 44.9995C141.413 44.9995 141.365 46.2482 141.221 47.6889C142.134 48.7935 143.576 49.3698 145.307 48.6975C145.307 47.6409 145.355 46.7764 145.355 46.7764L141.413 44.9995Z" fill="#492B1A"/>
<path d="M145.595 36.8351C145.595 36.8351 147.278 37.3154 148.191 38.9963C149.104 40.6772 149.537 45.4317 145.932 47.4007C142.375 49.3697 139.875 46.056 140.068 43.0304C140.26 40.0048 141.173 35.9707 145.595 36.8351Z" fill="#6B4227"/>
<path d="M139.347 42.0221C139.587 42.7905 140.116 43.2708 140.596 43.1267C141.029 42.9826 141.173 42.2622 140.933 41.4938C140.693 40.7254 140.164 40.2452 139.683 40.3892C139.299 40.5333 139.106 41.2537 139.347 42.0221Z" fill="#6B4227"/>
<path d="M145.115 36.6914C145.115 36.6914 146.941 41.686 148.768 42.2623C150.642 42.8386 150.45 45.2879 150.45 45.2879C150.45 45.2879 150.787 39.669 149.104 38.2282C147.422 36.7875 145.115 36.6914 145.115 36.6914Z" fill="black"/>
<path d="M147.999 43.2229C147.71 43.9913 147.854 44.8077 148.383 44.9998C148.912 45.192 149.585 44.7597 149.873 43.9913C150.162 43.2229 150.017 42.4065 149.489 42.2144C148.96 42.0223 148.287 42.4545 147.999 43.2229Z" fill="#6B4227"/>
<path d="M126.176 17.5289C126.176 17.5289 129.541 17.721 130.022 17.721C130.502 17.721 131.896 16.2803 131.896 16.2803L126.176 17.5289Z" fill="#492B1A"/>
<path d="M130.021 17.7215L131.704 16.2327C131.704 16.2327 130.935 15.2722 131.223 15.0801C131.752 14.792 132.665 15.9446 132.569 16.1847C132.473 16.4728 131.512 17.3373 131.512 17.3373L130.021 17.7215Z" fill="#6B4227"/>
<path d="M93.1061 46.2964C71.7162 46.2964 54.3159 63.6815 54.3159 85.0528C54.3159 106.424 71.7162 123.809 93.1061 123.809C114.496 123.809 131.896 106.424 131.896 85.0528C131.896 63.6815 114.496 46.2964 93.1061 46.2964ZM126.561 83.2758C126.609 83.8521 126.609 84.4285 126.609 85.0048V85.0528C126.609 84.4765 126.609 83.9002 126.561 83.2758Z" fill="#00D495"/>
<path d="M73.3503 82.3151L70.8027 84.8604L87.1455 102.005L115.601 70.9331L113.39 68.772L87.1455 88.3663L73.3503 82.3151Z" fill="#FCFCFC"/>
</svg>
