<svg width="97" height="125" viewBox="0 0 97 125" fill="none" xmlns="http://www.w3.org/2000/svg">
<path opacity="0.1" d="M23.8977 112.039L22.9307 111.489C14.8359 107.151 9.66955 98.8577 9.78006 89.8781C9.80769 88.7248 9.86294 87.5714 10.084 86.3906C11.4377 78.125 17.3224 70.7382 25.1962 67.4155C29.8376 65.4383 35.1973 64.6969 38.7889 61.2368C43.4303 56.7333 43.2369 49.4563 42.6844 43.0855C42.1871 36.7147 41.966 29.4651 46.6075 24.9616C49.536 22.1606 53.8459 21.0897 57.9347 21.1446C68.8199 21.1995 78.8763 28.2019 84.1808 37.4561C89.4853 46.7103 90.4522 57.8592 88.8498 68.3491C86.6396 83.013 79.1802 97.265 66.9689 106.162C54.8681 115.087 37.7943 118.025 23.8977 112.039Z" fill="#00BDFF"/>
<path d="M73.489 38.3074V113.851C73.489 116.213 71.5551 118.135 69.1791 118.135H32.2136C31.0256 118.135 29.9205 117.641 29.1469 116.872C28.3734 116.103 27.9037 115.032 27.9037 113.851V38.3074C27.9037 35.9458 29.8376 34.0236 32.2136 34.0236H69.1791C69.8698 34.0236 70.5605 34.1883 71.1407 34.4904C72.5497 35.2044 73.489 36.6598 73.489 38.3074Z" fill="#6F64FF"/>
<path d="M73.489 38.3074V113.851C73.489 116.213 71.5551 118.135 69.1791 118.135H32.4899C31.3019 118.135 30.1968 117.641 29.4232 116.872L71.113 34.4904C72.5497 35.2043 73.489 36.6597 73.489 38.3074Z" fill="#6F64FF"/>
<path d="M71.9143 38.0602V114.126C71.9143 115.169 71.0578 116.02 70.008 116.02H31.6334C30.8599 116.02 30.1692 115.554 29.8929 114.867C29.7824 114.647 29.7548 114.4 29.7548 114.126V38.0602C29.7548 37.0167 30.6112 36.1654 31.6611 36.1654H70.0356C70.3119 36.1654 70.5605 36.2203 70.7815 36.3027C71.4446 36.6048 71.9143 37.2638 71.9143 38.0602Z" fill="#E3E3E3"/>
<path d="M62.0788 39.955H39.5901C38.5955 39.955 37.7943 39.1586 37.7943 38.17V37.4011C37.7943 36.4126 38.5955 35.6162 39.5901 35.6162H62.0788C63.0734 35.6162 63.8746 36.4126 63.8746 37.4011V38.17C63.8746 39.1312 63.0734 39.955 62.0788 39.955Z" fill="#6F64FF"/>
<path d="M57.1336 38.0327H42.3805C42.1319 38.0327 41.9385 37.8405 41.9385 37.5934V37.4012C41.9385 37.154 42.1319 36.9618 42.3805 36.9618H57.1336C57.3822 36.9618 57.5756 37.154 57.5756 37.4012V37.5934C57.5756 37.8131 57.3546 38.0327 57.1336 38.0327Z" fill="black"/>
<path d="M61.3882 37.4561C61.3882 37.8131 61.1119 38.0877 60.7527 38.0877C60.3936 38.0877 60.1173 37.8131 60.1173 37.4561C60.1173 37.0991 60.3936 36.8245 60.7527 36.8245C61.0843 36.797 61.3882 37.0991 61.3882 37.4561Z" fill="black"/>
<g opacity="0.2">
<path d="M53.6502 56.8946L34.0624 56.957L34.0673 58.4674L53.6551 58.4049L53.6502 56.8946Z" fill="white"/>
<path d="M61.2755 51.0427L39.9747 51.1106L39.9796 52.6209L61.2804 52.553L61.2755 51.0427Z" fill="white"/>
<path d="M66.6905 56.8316L59.314 56.8551L59.3188 58.3654L66.6954 58.3419L66.6905 56.8316Z" fill="white"/>
<path d="M46.0527 61.8496L34.0624 61.8878L34.0673 63.3981L46.0576 63.3599L46.0527 61.8496Z" fill="white"/>
<path d="M66.7458 61.7746L59.3693 61.7981L59.3741 63.3084L66.7507 63.2849L66.7458 61.7746Z" fill="white"/>
<path d="M50.4179 66.7855L34.0901 66.8375L34.095 68.3478L50.4228 68.2958L50.4179 66.7855Z" fill="white"/>
<path d="M66.7458 66.69L59.3693 66.7135L59.3741 68.2238L66.7507 68.2003L66.7458 66.69Z" fill="white"/>
<path d="M47.2407 71.6788L34.1177 71.7206L34.1225 73.2309L47.2456 73.1891L47.2407 71.6788Z" fill="white"/>
<path d="M66.7458 71.633L59.3693 71.6565L59.3741 73.1668L66.7507 73.1433L66.7458 71.633Z" fill="white"/>
<path d="M51.7992 76.6144L34.1453 76.6707L34.1501 78.181L51.8041 78.1247L51.7992 76.6144Z" fill="white"/>
<path d="M66.7734 76.5757L59.3969 76.5992L59.4017 78.1096L66.7783 78.0861L66.7734 76.5757Z" fill="white"/>
<path d="M53.6502 82.1584L34.0624 82.2208L34.0673 83.7312L53.6551 83.6687L53.6502 82.1584Z" fill="white"/>
<path d="M66.6905 82.0954L59.314 82.1189L59.3188 83.6292L66.6954 83.6057L66.6905 82.0954Z" fill="white"/>
<path d="M46.0527 87.1134L34.0624 87.1516L34.0673 88.6619L46.0576 88.6237L46.0527 87.1134Z" fill="white"/>
<path d="M66.7458 87.0383L59.3693 87.0618L59.3741 88.5721L66.7507 88.5486L66.7458 87.0383Z" fill="white"/>
<path d="M50.4179 92.0493L34.0901 92.1013L34.095 93.6116L50.4228 93.5596L50.4179 92.0493Z" fill="white"/>
<path d="M66.7458 91.9538L59.3693 91.9773L59.3741 93.4876L66.7507 93.4641L66.7458 91.9538Z" fill="white"/>
<path d="M47.2407 96.9424L34.1177 96.9843L34.1225 98.4946L47.2456 98.4528L47.2407 96.9424Z" fill="white"/>
<path d="M66.7458 96.8967L59.3693 96.9202L59.3741 98.4305L66.7507 98.407L66.7458 96.8967Z" fill="white"/>
<path d="M51.7992 101.878L34.1453 101.934L34.1501 103.445L51.8041 103.388L51.7992 101.878Z" fill="white"/>
<path d="M66.7734 101.84L59.3969 101.863L59.4017 103.373L66.7783 103.35L66.7734 101.84Z" fill="white"/>
</g>
<path d="M13.427 44.8156C13.427 44.8156 7.1556 51.1589 6.85169 53.7677C6.52017 56.4039 10.1117 60.4955 10.1117 60.4955L13.427 44.8156Z" fill="#03B3E2"/>
<path d="M16.991 116.542C16.991 116.542 17.2396 120.249 17.9579 120.304C18.0408 120.304 21.6048 120.304 21.6048 120.304L26.1633 120.277C26.1633 120.277 26.1357 119.178 24.8095 118.959C23.4834 118.739 21.2456 117.805 20.4444 116.075C19.5879 114.208 16.991 116.542 16.991 116.542Z" fill="black"/>
<path d="M6.87927 116.57C6.87927 116.57 7.12792 120.277 7.84623 120.332C7.92912 120.332 11.4931 120.332 11.4931 120.332L16.024 120.277C16.024 120.277 15.9963 119.178 14.6702 118.959C13.3441 118.739 11.1063 117.805 10.3051 116.075C9.44863 114.236 6.87927 116.57 6.87927 116.57Z" fill="black"/>
<path d="M21.9362 76.6971C21.9362 76.6971 20.7759 84.2488 16.3555 97.6769C11.9351 111.105 11.3549 116.927 11.3549 116.927L6.60301 116.817C6.60301 116.817 6.52012 102.153 8.56455 95.3977C10.5814 88.6424 8.95134 71.0677 8.95134 71.0677L21.9362 76.6971Z" fill="black"/>
<path d="M24.257 71.4521C24.257 71.4521 24.4504 82.8482 22.4888 96.8256C20.5273 110.83 21.2179 116.762 21.2179 116.762L16.466 116.927C16.466 116.927 13.5928 102.949 14.394 95.9469C15.1952 88.9445 10.4432 71.919 10.4432 71.919L24.257 71.4521Z" fill="black"/>
<path d="M15.0017 44.8156L17.5434 46.4632L21.1903 45.7767C21.135 45.4746 20.8864 44.2663 20.6653 43.1679C20.6653 43.113 20.6377 43.0306 20.6377 42.9757C20.4443 42.042 20.2786 41.2457 20.2786 41.2457L16.8527 39.7354L15.5819 39.1862C15.5819 39.2136 15.6924 40.2297 15.6924 40.367C15.941 43.0032 15.0017 44.8156 15.0017 44.8156Z" fill="#FFB27D"/>
<path d="M20.251 43.9643C20.1681 43.9368 15.8306 42.6737 15.3609 42.8384C14.8913 43.0032 14.615 43.9094 14.615 43.9094L21.7152 45.4746C21.7152 45.4746 21.1627 44.3488 20.251 43.9643Z" fill="#03B3E2"/>
<path d="M8.64739 72.8801C9.39334 76.2028 21.6047 76.5873 24.7542 73.5392C25.1134 73.1822 25.1134 71.5895 24.9752 69.4201C24.699 65.1912 23.8425 58.8478 23.7872 55.6075C23.7596 54.0422 23.5386 52.4495 23.2623 50.9941C22.6545 47.8911 21.6876 45.4471 21.6876 45.4471C21.6876 45.4471 15.72 43.5523 14.5873 43.8819C9.22757 45.4746 7.90145 69.5574 8.64739 72.8801Z" fill="#00BDFF"/>
<path d="M24.9752 69.4476C24.6989 65.2187 23.8425 58.8753 23.7872 55.635C23.7596 54.0697 23.5386 52.477 23.2623 51.0216L19.6707 50.39C19.6707 50.39 15.72 65.5207 24.9752 69.4476Z" fill="#03B3E2"/>
<path d="M23.0137 63.571C23.0137 63.571 22.7651 64.1477 23.29 64.5321C23.8149 64.9166 24.1464 65.5482 24.0359 66.015C23.9254 66.4818 22.7927 67.2233 22.4059 67.1134C22.0191 67.0036 21.2179 66.372 21.3008 66.1523C21.3837 65.9052 20.7482 64.0104 21.7152 63.269C22.6545 62.555 23.0137 63.571 23.0137 63.571Z" fill="#FFB27D"/>
<path d="M19.063 44.8156C19.063 44.8156 22.4611 45.2549 25.2791 49.3465C28.0971 53.4381 29.9205 56.4588 29.4233 57.9417C28.8983 59.4245 24.2293 64.5322 23.4281 64.5322C22.6269 64.5322 21.3284 63.9555 21.2455 62.6374C21.2455 62.6374 24.2017 57.4199 23.5662 56.6785C23.29 56.3764 19.6155 53.4381 19.0353 54.921C18.0407 57.3375 19.063 44.8156 19.063 44.8156Z" fill="#00BDFF"/>
<path d="M15.9411 40.4219C16.6871 41.685 19.5051 42.756 20.6654 43.1679C20.6654 43.113 20.6378 43.0306 20.6378 42.9757C20.4444 42.042 20.2786 41.2457 20.2786 41.2457L16.8528 39.7354C16.1069 39.7354 15.6372 39.9001 15.9411 40.4219Z" fill="#FCA56B"/>
<path d="M21.5494 41.0259C21.5494 41.0259 16.0516 42.7559 15.0294 39.3234C14.0072 35.8908 12.5982 33.8313 16.0792 32.5681C19.5603 31.3324 20.6101 32.4308 21.2455 33.5018C21.8533 34.5453 22.9584 40.4767 21.5494 41.0259Z" fill="#FFB27D"/>
<path d="M21.0245 33.1448C21.0245 33.1448 20.693 37.1266 19.8642 36.9618C19.0354 36.7971 18.2894 36.6598 18.3999 37.868C18.5104 39.0763 19.6708 40.4493 17.1291 40.669C14.5873 40.8887 10.8853 34.3531 11.5759 33.1174C13.5928 29.52 23.953 28.7786 21.0245 33.1448Z" fill="black"/>
<path d="M49.1951 85.2761C54.8873 86.0231 60.5794 80.8483 60.5794 75.2467C60.5794 72.0444 59.0987 69.1886 56.786 67.3298M49.1951 85.2761L51.725 87.9249M49.1951 85.2761L51.725 82.8536M51.725 65.0983C46.0328 64.4702 40.3407 69.6452 40.3407 75.2467C40.3407 78.4486 41.8209 81.3039 44.1329 83.1627M51.725 65.0983L49.1951 62.5685M51.725 65.0983L49.1951 67.6398" stroke="#181818" stroke-width="2" stroke-linecap="round" stroke-linejoin="round"/>
</svg>
