<svg width="199" height="184" viewBox="0 0 199 184" fill="none" xmlns="http://www.w3.org/2000/svg">
<path d="M104.507 105.603L103.479 115.532C103.273 117.723 101.287 119.366 99.0258 119.092L3.59189 108.958C1.39958 108.753 -0.244646 106.767 0.0293925 104.507L1.05704 94.5782L104.507 105.603Z" fill="#48CEA6"/>
<path d="M10.3013 45.5493L105.735 55.6837C107.928 55.8891 109.572 57.8749 109.298 60.1346L104.434 105.602L0.984009 94.6461L5.84819 49.1785C6.12223 46.9188 8.10901 45.3439 10.3013 45.5493Z" fill="#81DFC3"/>
<path d="M1.84536 87.0825L105.329 98.0663L106.776 84.448L3.29228 73.4641L1.84536 87.0825Z" fill="#424141"/>
<path d="M86.215 74.3089L100.739 75.8839C101.424 75.9523 102.041 75.473 102.109 74.7883L102.315 72.734C102.383 72.0492 101.904 71.433 101.219 71.3645L86.6945 69.7896C86.0094 69.7211 85.3928 70.2004 85.3243 70.8852L85.1188 72.9394C85.0503 73.6242 85.5299 74.2405 86.215 74.3089Z" fill="#FCFCFC"/>
<path d="M61.477 71.7073L76.001 73.2822C76.6861 73.3507 77.3027 72.8714 77.3712 72.1866L77.5768 70.1324C77.6453 69.4476 77.1657 68.8313 76.4806 68.7629L61.9566 67.1879C61.2715 67.1195 60.6549 67.5988 60.5864 68.2835L60.3808 70.3378C60.3123 71.0225 60.7919 71.6388 61.477 71.7073Z" fill="#FCFCFC"/>
<path d="M23.4649 62.6001C22.9854 67.051 26.2053 71.0226 30.6584 71.5019C35.1116 71.9813 39.0851 68.7629 39.5647 64.312C40.0443 59.8611 36.8243 55.8896 32.3712 55.4102C27.918 54.9994 23.9445 58.2177 23.4649 62.6001Z" fill="#FCFCFC"/>
<path d="M21.2763 54.3147C22.715 54.4516 24.0167 54.9995 25.1129 55.7527C23.0576 57.2591 21.5504 59.6558 21.2763 62.3948C21.0023 65.1338 21.8929 67.7358 23.6057 69.7216C22.3725 70.2694 21.0023 70.4749 19.5636 70.3379C15.1105 69.8586 11.8905 65.887 12.3701 61.4361C12.8496 57.0537 16.8232 53.8354 21.2763 54.3147Z" fill="#FCFCFC"/>
<path d="M197.496 47.8538L192.751 3.50242C192.551 1.365 190.613 -0.23806 188.407 0.0291174L95.3161 9.84787C93.1776 10.0483 91.5737 11.9853 91.841 14.1895L96.5858 58.5409L97.5882 68.2261C97.7887 70.3635 99.7267 71.9665 101.932 71.6994L195.023 61.8138C197.162 61.6134 198.766 59.6764 198.498 57.4722L197.496 47.8538Z" fill="#5E78D2"/>
<g opacity="0.15">
<path d="M163.854 47.1902C170.743 36.7951 167.896 22.7867 157.496 15.9015C147.096 9.01633 133.08 11.8617 126.191 22.2568C119.303 32.6519 122.15 46.6603 132.55 53.5455C142.95 60.4307 156.966 57.5853 163.854 47.1902Z" fill="#FCFCFC"/>
</g>
<path d="M104.002 44.2464C105.473 44.1128 106.141 45.3819 106.275 46.5842C106.408 47.8533 106.007 49.256 104.537 49.3896C103.067 49.5232 102.399 48.2541 102.265 47.0518C102.198 45.7827 102.599 44.38 104.002 44.2464ZM102.866 46.985C102.933 47.9201 103.401 49.0556 104.537 48.922C105.673 48.7884 105.807 47.5861 105.74 46.7178C105.673 45.7827 105.205 44.6472 104.069 44.7808C102.933 44.8476 102.8 46.0499 102.866 46.985Z" fill="#FCFCFC"/>
<path d="M108.881 43.7117C110.351 43.5781 111.019 44.8472 111.153 46.0495C111.287 47.3186 110.886 48.7213 109.416 48.8549C107.945 48.9885 107.277 47.7194 107.143 46.5171C107.01 45.248 107.411 43.8453 108.881 43.7117ZM107.745 46.4503C107.812 47.3854 108.28 48.5209 109.416 48.3873C110.552 48.2537 110.685 47.0515 110.618 46.1831C110.552 45.248 110.084 44.1125 108.948 44.2461C107.812 44.3797 107.611 45.5152 107.745 46.4503Z" fill="#FCFCFC"/>
<path d="M112.219 48.5215L112.152 48.1207L113.957 45.6493C114.224 45.3153 114.491 44.9146 114.491 44.447C114.424 43.8459 113.957 43.7123 113.422 43.7791C112.887 43.8459 112.486 44.1798 112.42 44.7142L111.885 44.5806C112.019 43.8459 112.62 43.3783 113.422 43.3115C114.224 43.2447 115.026 43.5119 115.159 44.447C115.226 45.0482 114.825 45.5825 114.491 46.0501L113.088 47.9871L115.56 47.7199L115.627 48.2543L112.219 48.5215Z" fill="#FCFCFC"/>
<path d="M115.762 43.0439L119.036 42.7099L119.103 43.0439L117.366 47.9199L116.764 47.9867L118.435 43.2443L115.829 43.5115L115.762 43.0439Z" fill="#FCFCFC"/>
<path d="M127.463 41.7753C128.933 41.6417 129.601 42.9108 129.735 44.1131C129.869 45.3822 129.468 46.7849 127.997 46.9185C126.527 47.0521 125.859 45.783 125.725 44.5807C125.592 43.3116 125.993 41.9089 127.463 41.7753ZM126.327 44.4471C126.394 45.3822 126.861 46.5177 127.997 46.3841C129.133 46.2505 129.267 45.0483 129.2 44.1799C129.133 43.2448 128.666 42.1093 127.53 42.2429C126.394 42.3765 126.193 43.5788 126.327 44.4471Z" fill="#FCFCFC"/>
<path d="M131.132 45.5157C131.533 45.8497 132.068 45.9165 132.535 45.9165C133.27 45.8497 133.605 45.3822 133.538 44.6474C133.471 43.9127 133.07 43.5119 132.268 43.5787C131.733 43.6455 131.132 43.9127 130.731 44.1799L130.597 41.4413L133.471 41.1073L133.538 41.6417L131.199 41.9088L131.266 43.3783C131.533 43.2447 131.934 43.1111 132.268 43.1111C133.337 42.9776 134.072 43.5119 134.139 44.5806C134.273 45.6493 133.671 46.3173 132.602 46.4509C132.068 46.5177 131.266 46.4509 130.798 45.9833L131.132 45.5157Z" fill="#FCFCFC"/>
<path d="M135.545 45.0486C135.946 45.3825 136.48 45.4493 136.948 45.4493C137.683 45.3825 138.017 44.915 137.95 44.1802C137.884 43.4455 137.483 43.0447 136.681 43.1115C136.146 43.1783 135.545 43.4455 135.144 43.7127L135.01 40.9741L137.884 40.6401L137.95 41.1745L135.612 41.4417L135.678 42.9111C135.946 42.7775 136.347 42.644 136.681 42.644C137.75 42.5104 138.485 43.0447 138.552 44.1134C138.686 45.1821 138.084 45.8501 137.015 45.9837C136.48 46.0505 135.678 45.9837 135.211 45.5161L135.545 45.0486Z" fill="#FCFCFC"/>
<path d="M139.968 44.5807C140.235 44.9815 140.703 45.0483 141.171 45.0483C141.772 44.9815 142.373 44.6475 142.307 43.9796C142.24 43.1112 141.237 43.178 140.569 43.2448L140.502 42.7105C141.104 42.6437 141.972 42.4433 141.906 41.6418C141.839 41.0406 141.237 40.8402 140.703 40.907C140.302 40.9738 139.834 41.1742 139.7 41.575L139.166 41.4414C139.366 40.7734 139.968 40.5063 140.636 40.3727C141.505 40.3059 142.307 40.5731 142.44 41.5082C142.507 42.1093 142.173 42.5101 141.638 42.7773C142.307 42.8441 142.774 43.178 142.841 43.846C142.975 44.8479 142.106 45.3823 141.237 45.5158C140.636 45.5826 139.767 45.449 139.433 44.8479L139.968 44.5807Z" fill="#FCFCFC"/>
<path d="M149.711 40.6399L150.847 39.3708L151.314 39.304L151.849 44.3136L151.314 44.3803L150.847 40.2391L150.178 40.9738L149.711 40.6399Z" fill="#FCFCFC"/>
<path d="M154.326 38.9026C155.796 38.769 156.464 40.0381 156.598 41.2404C156.731 42.5095 156.33 43.9122 154.86 44.0457C153.39 44.1793 152.722 42.9102 152.588 41.708C152.521 40.4389 152.922 39.0362 154.326 38.9026ZM153.19 41.6412C153.256 42.5763 153.724 43.7118 154.86 43.5782C155.996 43.4446 156.13 42.2423 156.063 41.374C155.996 40.4389 155.529 39.3034 154.392 39.4369C153.256 39.5037 153.123 40.706 153.19 41.6412Z" fill="#FCFCFC"/>
<path d="M157.996 42.644C158.263 43.0448 158.731 43.1115 159.199 43.1115C159.8 43.0448 160.402 42.7108 160.335 42.0428C160.268 41.1745 159.266 41.2413 158.598 41.3081L158.531 40.7737C159.132 40.707 160.001 40.5066 159.934 39.705C159.867 39.1039 159.266 38.9035 158.731 38.9703C158.33 39.0371 157.862 39.2375 157.729 39.6382L157.194 39.5047C157.395 38.8367 157.996 38.5695 158.664 38.4359C159.533 38.3692 160.335 38.6363 160.469 39.5714C160.536 40.1726 160.201 40.5734 159.667 40.8405C160.335 40.9073 160.803 41.2413 160.87 41.9092C161.003 42.9112 160.135 43.4455 159.266 43.5791C158.664 43.6459 157.796 43.5123 157.462 42.9112L157.996 42.644Z" fill="#FCFCFC"/>
<path d="M161.538 39.9052C161.404 38.8365 162.006 38.1018 163.142 37.9682C164.545 37.8346 165.08 38.9033 165.214 40.1056C165.347 41.5083 164.88 42.9778 163.276 43.1114C162.942 43.1114 162.674 43.1114 162.34 43.0446L162.541 42.577C162.741 42.6438 163.008 42.6438 163.209 42.577C164.278 42.4434 164.679 41.5751 164.612 40.5732C164.412 41.0407 163.944 41.3079 163.476 41.3079C162.407 41.5083 161.672 40.9071 161.538 39.9052ZM162.14 39.8384C162.206 40.5732 162.741 41.0407 163.476 40.9071C164.211 40.8404 164.612 40.306 164.545 39.5713C164.479 38.8365 163.944 38.369 163.209 38.5026C162.407 38.5693 162.073 39.1037 162.14 39.8384Z" fill="#FCFCFC"/>
<path d="M172.772 42.1098L172.705 41.709L174.509 39.2376C174.776 38.9036 175.044 38.5029 175.044 38.0353C174.977 37.4342 174.509 37.3006 173.975 37.3674C173.44 37.4342 173.039 37.7681 172.972 38.3025L172.371 38.1021C172.504 37.3674 173.106 36.8998 173.908 36.833C174.71 36.7662 175.512 37.0334 175.645 37.9685C175.712 38.5697 175.311 39.104 174.977 39.5716L173.574 41.5086L176.046 41.2414L176.113 41.7758L172.772 42.1098Z" fill="#FCFCFC"/>
<path d="M178.393 36.3647C179.863 36.2312 180.531 37.5003 180.665 38.7025C180.799 39.9716 180.398 41.3743 178.927 41.5079C177.457 41.6415 176.789 40.3724 176.655 39.1701C176.588 37.901 176.989 36.4983 178.393 36.3647ZM177.257 39.1033C177.324 40.0384 177.791 41.1739 178.927 41.0403C180.064 40.9068 180.197 39.7045 180.13 38.8361C180.064 37.901 179.596 36.7655 178.46 36.8991C177.324 36.9659 177.19 38.1682 177.257 39.1033Z" fill="#FCFCFC"/>
<path d="M183.798 35.831L184.332 35.7643L184.666 38.9704L185.335 38.9036L185.402 39.4379L184.733 39.5047L184.867 40.8406L184.332 40.9074L184.199 39.5715L181.659 39.8387L181.592 39.4379L183.798 35.831ZM182.328 39.2376L184.132 39.0372L183.865 36.6994L182.328 39.2376Z" fill="#FCFCFC"/>
<path d="M186.744 39.638C187.145 39.972 187.68 40.0387 188.148 40.0387C188.883 39.9719 189.217 39.5044 189.15 38.7697C189.083 38.0349 188.682 37.6341 187.881 37.7009C187.346 37.7677 186.744 38.0349 186.343 38.3021L186.21 35.5635L189.083 35.2296L189.15 35.7639L186.811 36.0311L186.878 37.5006C187.145 37.367 187.546 37.2334 187.881 37.2334C188.95 37.0998 189.685 37.6341 189.752 38.7029C189.885 39.7716 189.284 40.4395 188.215 40.5731C187.68 40.6399 186.878 40.5731 186.41 40.1055L186.744 39.638Z" fill="#FCFCFC"/>
<path d="M120.448 57.3385L105.612 58.9415C104.343 59.0751 103.207 58.14 103.073 56.8709C102.939 55.6018 103.875 54.4663 105.145 54.3327L119.98 52.7297C121.25 52.5961 122.386 53.5312 122.52 54.8003C122.654 56.0694 121.718 57.2049 120.448 57.3385Z" fill="#FCFCFC"/>
<path d="M185.872 6.84249L172.574 8.24517C171.838 8.31197 171.103 7.77761 171.037 6.97608C170.97 6.24135 171.504 5.50661 172.306 5.43981L185.605 4.03713C186.34 3.97034 187.075 4.5047 187.142 5.30623C187.209 6.04096 186.674 6.7757 185.872 6.84249Z" fill="#FCFCFC"/>
<path d="M186.4 11.7842L160.404 14.5228C159.669 14.5896 158.934 14.0553 158.867 13.2537C158.8 12.519 159.335 11.7842 160.137 11.7175L186.133 8.97889C186.868 8.9121 187.603 9.44645 187.67 10.248C187.737 10.9827 187.135 11.6507 186.4 11.7842Z" fill="#FCFCFC"/>
<path d="M172.17 58.608L106.277 65.6214C105.008 65.755 103.872 64.8199 103.738 63.5508C103.604 62.2817 104.54 61.1462 105.81 61.0126L171.702 53.9992C172.972 53.8656 174.108 54.8007 174.241 56.0698C174.375 57.3389 173.439 58.4744 172.17 58.608Z" fill="#FCFCFC"/>
<path d="M185.865 54.7998C185.999 56.0689 185.063 57.2044 183.794 57.338C182.524 57.4716 181.388 56.5365 181.254 55.2674C181.121 53.9983 182.056 52.8628 183.326 52.7292C184.596 52.6624 185.732 53.5307 185.865 54.7998Z" fill="#FCFCFC"/>
<path d="M190 56.7379C191.292 56.7379 192.339 55.6912 192.339 54.4001C192.339 53.1089 191.292 52.0623 190 52.0623C188.708 52.0623 187.661 53.1089 187.661 54.4001C187.661 55.6912 188.708 56.7379 190 56.7379Z" fill="#FCFCFC"/>
<path d="M112.019 12.4521L112.888 20.4674C112.955 20.8682 112.621 21.269 112.22 21.269L98.4531 22.7385C98.0521 22.8052 97.6511 22.4713 97.6511 22.0705L96.7824 14.0552C96.7155 13.6544 97.0497 13.2537 97.4506 13.2537L111.15 11.7842C111.618 11.7842 111.952 12.0514 112.019 12.4521Z" fill="#FFE177"/>
<path d="M104.338 16.9273L97.1874 17.662V17.2613L103.937 16.5933L103.67 14.1887L104.071 14.1219L104.338 16.9273Z" fill="#FFCD1C"/>
<path d="M106.142 21.9377L105.741 22.0045L105.34 18.264L112.558 17.5292V17.8632L105.808 18.5979L106.142 21.9377Z" fill="#FFCD1C"/>
<path d="M107.131 12.2446L106.733 12.2869L107.156 16.2722L107.554 16.2298L107.131 12.2446Z" fill="#FFCD1C"/>
<path d="M112.125 13.793L107.141 14.322L107.184 14.7205L112.168 14.1915L112.125 13.793Z" fill="#FFCD1C"/>
<path d="M101.733 20.7351H101.399L101.265 19.466L97.4558 19.8667L97.389 19.466L101.599 19.0652L101.733 20.7351Z" fill="#FFCD1C"/>
<path d="M72.0068 138.986C75.2202 134.89 74.4901 128.991 70.3761 125.81C66.2621 122.628 60.3221 123.369 57.1087 127.465C53.8954 131.56 54.6254 137.459 58.7394 140.641C62.8534 143.822 68.7934 143.081 72.0068 138.986Z" fill="#6D54FC"/>
<path d="M61.6118 135.11C62.3902 135.62 63.3865 135.887 64.2971 135.905C64.833 135.897 65.9048 135.882 65.8613 135.191C65.87 134.589 64.6936 134.425 64.2666 134.311C62.611 133.942 60.5139 133.229 60.5256 131.193C60.4995 129.298 61.8879 128.386 63.6234 128.171L63.6075 126.808L65.5188 126.791L65.5347 128.155C66.5687 128.281 67.565 128.548 68.4146 129.078L67.1365 131.001C66.3203 130.631 65.4475 130.473 64.518 130.526C64.0533 130.552 63.3561 130.592 63.3474 131.194C63.3387 131.796 64.3016 131.903 64.7997 132.036C66.5977 132.443 68.6803 132.925 68.702 135.121C68.7281 137.017 67.3396 137.929 65.6041 138.143L65.6012 139.578L63.6899 139.594L63.674 138.23C62.4787 138.137 61.2689 137.812 60.2625 137.014L61.6118 135.11Z" fill="#FCFCFC"/>
<path d="M168.487 84.5391C176.384 86.6548 184.483 82.0312 186.578 74.2119C188.674 66.3926 183.971 58.3386 176.075 56.2228C168.178 54.107 160.079 58.7306 157.984 66.5499C155.888 74.3693 160.591 82.4233 168.487 84.5391Z" fill="#5542C5"/>
<path d="M166.633 71.4312C167.576 72.5662 168.751 73.4988 170.226 73.982C171.035 74.2871 172.57 74.8749 172.962 73.7448C173.288 72.8616 171.735 72.0045 171.115 71.6617C168.819 70.2527 166.18 68.1338 167.267 65.0727C168.289 62.2585 170.759 61.6852 173.441 62.3156L174.158 60.3023L177.002 61.3288L176.284 63.3421C177.797 64.0123 179.056 64.9671 180.143 66.2289L177.254 68.3662C176.267 67.3959 175.025 66.7102 173.634 66.2493C172.991 65.9888 171.888 65.7815 171.563 66.6647C171.215 67.6302 172.562 68.2558 173.183 68.5986C175.622 70.1345 178.494 72.051 177.279 75.2545C176.258 78.0687 173.788 78.642 171.001 78.0716L170.261 80.1672L167.418 79.1407L168.135 77.1274C166.373 76.3905 164.826 75.1819 163.744 73.5685L166.633 71.4312Z" fill="#FCFCFC"/>
<path d="M70.0404 36.5139C77.9366 34.3981 82.6394 26.3441 80.5442 18.5248C78.449 10.7055 70.3493 6.08187 62.4531 8.19767C54.5568 10.3135 49.8541 18.3675 51.9493 26.1868C54.0445 34.0061 62.1441 38.6297 70.0404 36.5139Z" fill="#FFCD1C"/>
<path d="M61.9125 26.078C63.2968 26.5893 64.7812 26.8091 66.2995 26.4905C67.1528 26.3501 68.7763 26.0915 68.5506 24.9169C68.3911 23.9891 66.6184 24.023 65.9092 24.0366C63.217 23.9639 59.8716 23.4487 59.2829 20.254C58.7603 17.3061 60.6127 15.5746 63.2507 14.7796L62.8655 12.6772L65.841 12.1445L66.2262 14.247C67.8717 14.0707 69.4392 14.2683 71.0118 14.8174L69.5785 18.1128C68.2383 17.7662 66.82 17.7933 65.3849 18.0896C64.6978 18.1855 63.6393 18.5573 63.7987 19.4851C63.9803 20.4951 65.4596 20.3634 66.1687 20.3499C69.0492 20.4603 72.4947 20.684 73.0445 24.0656C73.567 27.0135 71.7146 28.745 69.0156 29.6446L69.4228 31.8294L66.4473 32.362L66.0621 30.2596C64.1672 30.5026 62.2231 30.2295 60.4791 29.3735L61.9125 26.078Z" fill="#FCFCFC"/>
<path d="M162.226 135.983C167.665 123.242 161.725 108.581 148.959 103.237C136.193 97.8925 121.435 103.888 115.996 116.629C110.556 129.369 116.496 144.03 129.262 149.374C142.028 154.719 156.787 148.723 162.226 135.983Z" fill="#FFD63F"/>
<path d="M132.899 133.175C135.252 133.951 137.997 133.951 140.35 133.369C141.722 132.981 144.467 132.204 143.879 130.457C143.487 128.903 140.35 129.292 139.173 129.292C134.664 129.486 128.782 129.098 127.41 123.856C126.037 119.002 128.978 115.702 133.292 113.954L132.311 110.46L137.213 109.101L138.193 112.595C140.938 112.207 143.683 112.207 146.231 112.984L144.271 118.808C141.918 118.42 139.565 118.614 137.213 119.39C136.036 119.779 134.272 120.361 134.664 121.914C135.056 123.467 137.605 123.079 138.977 123.079C143.879 122.885 149.564 122.691 151.133 128.321C152.505 133.175 149.564 136.475 145.251 138.222L146.231 141.911L141.33 143.27L140.35 139.776C137.213 140.358 133.88 140.358 130.743 138.999L132.899 133.175Z" fill="#FCFCFC"/>
<path d="M94.3943 172.315C94.3943 172.315 93.992 177.484 94.3369 179.15C94.5093 180.069 95.4863 181.907 95.0265 182.768C94.5667 183.63 94.0495 183.802 94.0495 183.802L82.2099 183.974C81.5777 183.974 81.98 183.572 82.4972 183.17C83.3593 182.538 84.049 182.136 86.7503 180.815C86.9227 180.758 87.5549 180.298 87.7848 180.184C88.3596 179.839 88.9918 179.265 89.4516 178.69C90.3137 177.771 90.3712 173.234 90.3712 173.234L94.3943 172.315Z" fill="#C67744"/>
<path d="M85.1379 103.736C85.1379 103.736 80.0227 101.209 80.9998 106.723C81.9768 112.237 89.4485 173.98 89.4485 173.98L96.4602 174.382C96.4602 174.382 97.3798 153.763 97.1499 150.833C96.9775 147.904 95.7706 143.309 95.7706 143.309L95.1958 125.045L88.5863 102.473L85.1379 103.736Z" fill="#181818"/>
<path d="M87.77 180.241C90.8736 181.045 93.23 180.471 94.4945 179.954C94.8393 180.873 95.2991 182.079 95.0117 182.768C94.7243 183.572 94.322 183.974 93.9772 183.974C91.1035 184.032 83.4595 183.974 81.2755 183.974C80.9881 183.974 80.8157 183.63 80.9881 183.4C81.6203 182.826 87.5401 180.413 87.77 180.241Z" fill="black"/>
<path d="M80.9975 66.6332C80.9975 66.6332 76.6869 58.305 76.0547 55.2609C75.365 52.2169 73.0661 36.7667 73.296 35.7903C73.4684 34.8139 77.1467 32.4016 76.6869 31.5401C76.2271 30.6785 72.6638 29.7596 71.8591 29.817C71.0545 29.8744 68.928 31.0231 68.8705 31.8847C68.8705 32.8036 69.6176 50.8958 70.0774 54.9163C70.5372 58.8794 75.8823 71.1132 75.8823 71.1132L80.9975 66.6332Z" fill="#C67744"/>
<path d="M114.5 131.593C114.5 131.593 118.063 127.86 118.868 126.309C119.27 125.505 119.673 123.437 120.535 123.092C121.397 122.748 121.972 122.92 121.972 122.92L131.282 130.272C131.8 130.674 131.225 130.731 130.535 130.674C129.501 130.616 128.696 130.502 125.765 129.812C125.592 129.755 124.845 129.698 124.558 129.64C123.868 129.525 123.064 129.583 122.316 129.697C121.052 129.87 118.178 133.373 118.178 133.373L114.5 131.593Z" fill="#C67744"/>
<path d="M124.559 129.582C122.605 126.998 120.479 125.907 119.157 125.505C119.502 124.586 119.846 123.322 120.421 122.977C121.168 122.518 121.686 122.633 121.973 122.805C124.214 124.586 130.192 129.353 131.916 130.731C132.146 130.903 132.088 131.306 131.743 131.363C130.939 131.535 124.847 129.64 124.559 129.582Z" fill="black"/>
<path d="M114.618 64.0494C112.434 59.3971 107.491 56.8125 102.778 58.0761C101.054 55.7786 98.4675 54.113 95.7088 53.7684C90.3062 53.0217 83.3519 55.6063 84.0416 61.2925C82.3174 65.2555 82.7771 70.7119 86.1681 73.4114C85.5359 78.638 90.766 83.2328 96.9157 82.6585C99.3871 86.1046 103.698 88.1149 107.721 87.3108C108.698 87.1385 110.135 86.7938 110.422 86.7938C110.135 86.7364 117.434 91.6184 122.492 83.0031C127.607 74.2155 122.492 64.394 114.618 64.0494Z" fill="black"/>
<path d="M83.0625 105.747C83.0625 105.747 94.4998 100.635 94.6722 101.209C96.1091 105.862 100.535 104.368 103.178 112.524C104.27 115.97 105.42 138.715 105.42 138.715C105.42 138.715 109.903 134.981 116.34 128.376C116.857 127.859 121.685 132.512 121.685 132.512C108.926 149.857 103.408 150.776 101.282 149.8C96.8562 147.79 87.4305 119.359 87.488 119.359C86.3385 117.176 83.0625 105.747 83.0625 105.747Z" fill="#181818"/>
<path d="M101.976 73.6407C101.976 73.6407 118.471 73.6407 122.035 73.411C125.253 73.2387 137.898 73.5258 138.415 73.4684C138.932 73.411 142.208 67.8397 142.725 68.4141C143.243 68.9884 140.886 71.171 141.633 71.7453C142.381 72.3197 150.254 71.0561 150.14 71.6305C149.967 72.7217 145.369 72.6069 145.369 73.1238C145.369 73.6407 150.197 72.8366 150.484 73.6981C150.829 74.5597 145.886 74.0427 145.657 74.4448C145.484 74.8468 150.254 75.5361 149.737 76.3976C149.45 76.8571 145.484 75.6509 145.542 76.2827C145.542 76.9145 148.473 78.2355 148.128 78.7525C147.783 79.2119 145.829 77.2591 144.162 77.2591C142.495 77.2591 141.289 76.3402 138.587 77.0868C137.265 77.4314 127.15 78.695 118.586 79.4417C109.85 80.1884 102.666 80.4181 102.666 80.4181L101.976 73.6407Z" fill="#C67744"/>
<path d="M77.4959 85.4149C77.266 82.7728 77.7833 80.7052 77.8983 79.7862C77.0936 77.0293 75.3694 71.1134 74.7947 69.9647C74.7947 69.9647 77.6684 64.3935 80.5995 64.4509C80.5995 64.4509 83.5882 71.2857 85.9446 72.4919C86.0021 72.4919 86.7492 72.8365 87.0941 72.8365C89.3356 72.8365 97.152 72.6067 98.6463 72.5493L97.8417 83.7492C92.1518 94.9492 93.7036 100.808 95.8876 102.99C96.9221 104.024 81.749 108.159 81.0018 106.723C80.1972 105 77.9557 90.8138 77.4959 85.4149Z" fill="#6D54FC"/>
<path d="M94.6801 72.9508C96.1169 72.2616 106.577 72.6062 106.577 72.6062C106.577 72.6062 108.014 79.9579 106.864 81.681C106.864 81.681 97.4963 83.0595 97.7836 83.8636L94.6801 72.9508Z" fill="#6D54FC"/>
<path d="M91.9172 68.2418C91.9172 68.2418 91.7447 72.2622 91.9172 73.9279C92.0896 75.5935 90.1929 79.4991 86.687 79.5566C83.1811 79.614 86.1698 75.8232 86.4571 74.1576C86.7445 72.492 87.1468 66.1166 87.1468 66.1166L91.9172 68.2418Z" fill="#C67744"/>
<path d="M87.2085 66.1166C87.2085 66.1166 87.151 67.61 86.9786 69.333C88.0706 70.6541 89.7948 71.3433 91.8639 70.5392C91.8639 69.2756 91.9213 68.2418 91.9213 68.2418L87.2085 66.1166Z" fill="#834523"/>
<path d="M92.2066 56.3526C92.2066 56.3526 94.2181 56.9269 95.3101 58.9372C96.4021 60.9474 96.9194 66.6335 92.6089 68.9884C88.3558 71.3432 85.3672 67.3802 85.5971 63.7618C85.827 60.1433 86.919 55.3187 92.2066 56.3526Z" fill="#C67744"/>
<path d="M84.7313 62.5552C85.0187 63.4742 85.6509 64.0486 86.2256 63.8762C86.7429 63.7039 86.9153 62.8424 86.6279 61.9234C86.3406 61.0045 85.7084 60.4301 85.1336 60.6024C84.6738 60.7747 84.4439 61.6363 84.7313 62.5552Z" fill="#C67744"/>
<path d="M91.6352 56.1794C91.6352 56.1794 93.8192 62.1527 96.0032 62.8419C98.2447 63.5312 98.0148 66.4604 98.0148 66.4604C98.0148 66.4604 98.4171 59.7404 96.4055 58.0173C94.3939 56.2943 91.6352 56.1794 91.6352 56.1794Z" fill="black"/>
<path d="M95.0812 63.9909C94.7363 64.9098 94.9088 65.8862 95.541 66.116C96.1732 66.3457 96.9778 65.8288 97.3226 64.9098C97.6675 63.9909 97.4951 63.0144 96.8629 62.7847C96.2306 62.555 95.426 63.0719 95.0812 63.9909Z" fill="#C67744"/>
<path d="M68.9838 33.2631C68.9838 33.2631 73.0069 33.4928 73.5817 33.4928C74.1564 33.4928 75.8232 31.7698 75.8232 31.7698L68.9838 33.2631Z" fill="#834523"/>
<path d="M73.5881 33.4933L75.5997 31.7128C75.5997 31.7128 74.6801 30.5641 75.0249 30.3344C75.6571 29.9898 76.7491 31.3682 76.6342 31.6554C76.5192 32 75.3698 33.0338 75.3698 33.0338L73.5881 33.4933Z" fill="#C67744"/>
</svg>
