<svg width="250" height="235" viewBox="0 0 250 235" fill="none" xmlns="http://www.w3.org/2000/svg">
<path d="M165.858 188.882L183.995 147.943C184.893 145.985 184.013 143.618 181.962 142.744L96.1034 104.555C94.1437 103.655 91.7771 104.534 90.9031 106.585L72.7669 147.524L68.7771 156.447C67.8786 158.406 68.7588 160.772 70.8101 161.647L156.702 199.778C158.662 200.677 161.028 199.798 161.902 197.747L165.858 188.882Z" fill="#5E78D2"/>
<g opacity="0.15">
<path d="M136.945 171.42C148.151 165.84 152.708 152.233 147.122 141.027C141.536 129.821 127.923 125.26 116.717 130.839C105.511 136.419 100.954 150.026 106.54 161.232C112.126 172.438 125.739 176.999 136.945 171.42Z" fill="#FCFCFC"/>
</g>
<path d="M86.3894 138.819C87.7346 139.441 87.6786 140.88 87.1913 141.992C86.6705 143.163 85.6179 144.181 84.2727 143.559C82.9275 142.937 82.9835 141.498 83.4708 140.386C84.0497 139.249 85.1023 138.231 86.3894 138.819ZM84.0272 140.63C83.6159 141.476 83.4526 142.698 84.5074 143.152C85.5621 143.607 86.2817 142.628 86.6595 141.84C87.0707 140.993 87.234 139.772 86.1793 139.317C85.1581 138.805 84.4384 139.783 84.0272 140.63Z" fill="#FCFCFC"/>
<path d="M90.8989 140.803C92.2441 141.425 92.1881 142.864 91.7008 143.976C91.18 145.146 90.1274 146.164 88.7822 145.543C87.437 144.921 87.493 143.482 87.9803 142.37C88.5011 141.199 89.5537 140.181 90.8989 140.803ZM88.5367 142.614C88.1254 143.46 87.9622 144.682 89.0169 145.136C90.0716 145.59 90.7912 144.612 91.169 143.824C91.5802 142.977 91.7435 141.755 90.6888 141.301C89.6341 140.847 88.8899 141.734 88.5367 142.614Z" fill="#FCFCFC"/>
<path d="M91.3867 146.66L91.5298 146.278L94.3389 145.035C94.7389 144.879 95.1724 144.665 95.4071 144.258C95.6508 143.702 95.3111 143.351 94.8128 143.141C94.3145 142.931 93.7983 143.02 93.472 143.451L93.0743 143.066C93.5592 142.495 94.3168 142.39 95.0475 142.734C95.7782 143.079 96.3413 143.714 95.9881 144.594C95.7445 145.15 95.1277 145.413 94.6025 145.652L92.4102 146.631L94.6939 147.64L94.4838 148.138L91.3867 146.66Z" fill="#FCFCFC"/>
<path d="M97.216 143.676L100.23 145.03L100.121 145.354L96.163 148.72L95.6066 148.477L99.4393 145.192L97.0394 144.116L97.216 143.676Z" fill="#FCFCFC"/>
<path d="M108.025 148.447C109.371 149.068 109.315 150.507 108.827 151.619C108.306 152.79 107.254 153.808 105.909 153.186C104.563 152.564 104.619 151.126 105.107 150.013C105.628 148.843 106.68 147.825 108.025 148.447ZM105.697 150.199C105.285 151.046 105.122 152.267 106.177 152.722C107.232 153.176 107.951 152.198 108.329 151.409C108.74 150.563 108.903 149.341 107.849 148.887C106.794 148.432 106.016 149.377 105.697 150.199Z" fill="#FCFCFC"/>
<path d="M109.338 153.54C109.519 154.031 109.95 154.358 110.357 154.593C111.029 154.904 111.554 154.665 111.865 153.993C112.176 153.32 112.028 152.771 111.298 152.426C110.799 152.216 110.142 152.146 109.66 152.177L110.918 149.729L113.584 150.881L113.374 151.379L111.206 150.438L110.527 151.749C110.826 151.767 111.242 151.852 111.532 152.02C112.529 152.44 112.9 153.274 112.421 154.236C112.001 155.233 111.143 155.511 110.147 155.091C109.648 154.88 108.985 154.42 108.813 153.779L109.338 153.54Z" fill="#FCFCFC"/>
<path d="M113.408 155.349C113.589 155.84 114.021 156.167 114.427 156.401C115.1 156.712 115.625 156.474 115.936 155.801C116.246 155.129 116.099 154.579 115.368 154.235C114.87 154.025 114.213 153.955 113.73 153.986L114.989 151.538L117.655 152.69L117.444 153.188L115.277 152.246L114.597 153.557C114.897 153.576 115.313 153.661 115.603 153.828C116.6 154.249 116.971 155.082 116.492 156.045C116.072 157.041 115.214 157.32 114.217 156.9C113.719 156.689 113.055 156.229 112.883 155.587L113.408 155.349Z" fill="#FCFCFC"/>
<path d="M117.488 157.162C117.52 157.644 117.893 157.937 118.3 158.172C118.856 158.416 119.546 158.427 119.824 157.813C120.201 157.025 119.296 156.58 118.682 156.302L118.892 155.804C119.448 156.048 120.304 156.31 120.648 155.579C120.892 155.023 120.47 154.547 119.971 154.337C119.589 154.194 119.082 154.133 118.765 154.414L118.367 154.03C118.877 153.55 119.534 153.619 120.182 153.839C120.97 154.217 121.533 154.852 121.18 155.732C120.937 156.288 120.445 156.468 119.846 156.432C120.394 156.826 120.633 157.351 120.355 157.965C119.969 158.903 118.945 158.932 118.123 158.612C117.567 158.368 116.878 157.816 116.89 157.126L117.488 157.162Z" fill="#FCFCFC"/>
<path d="M127.936 158.626L129.561 158.093L130.001 158.27L127.952 162.893L127.453 162.683L129.125 158.848L128.175 159.151L127.936 158.626Z" fill="#FCFCFC"/>
<path d="M132.821 159.432C134.166 160.054 134.11 161.493 133.623 162.605C133.102 163.775 132.049 164.794 130.704 164.172C129.359 163.55 129.415 162.111 129.902 160.999C130.481 159.862 131.534 158.844 132.821 159.432ZM130.459 161.243C130.047 162.089 129.884 163.311 130.939 163.765C131.993 164.219 132.713 163.241 133.091 162.453C133.502 161.606 133.665 160.384 132.611 159.93C131.589 159.418 130.87 160.396 130.459 161.243Z" fill="#FCFCFC"/>
<path d="M134.134 164.527C134.165 165.01 134.538 165.303 134.945 165.537C135.501 165.781 136.192 165.793 136.469 165.179C136.847 164.39 135.942 163.945 135.327 163.668L135.537 163.17C136.094 163.413 136.95 163.675 137.294 162.945C137.537 162.389 137.115 161.913 136.617 161.702C136.235 161.559 135.727 161.499 135.41 161.78L135.012 161.395C135.522 160.915 136.179 160.985 136.827 161.204C137.616 161.582 138.179 162.217 137.826 163.097C137.582 163.653 137.09 163.834 136.491 163.798C137.039 164.191 137.278 164.717 137.001 165.331C136.614 166.269 135.591 166.297 134.768 165.977C134.212 165.734 133.524 165.181 133.535 164.491L134.134 164.527Z" fill="#FCFCFC"/>
<path d="M138.588 163.924C139.008 162.928 139.9 162.591 140.954 163.045C142.241 163.633 142.17 164.831 141.683 165.943C141.095 167.23 139.95 168.272 138.489 167.583C138.199 167.416 137.966 167.282 137.709 167.056L138.118 166.75C138.259 166.909 138.491 167.043 138.699 167.085C139.696 167.506 140.48 166.952 140.925 166.048C140.516 166.354 139.975 166.351 139.569 166.116C138.538 165.754 138.201 164.862 138.588 163.924ZM139.144 164.168C138.833 164.84 139.064 165.515 139.77 165.768C140.442 166.079 141.059 165.815 141.37 165.143C141.68 164.471 141.45 163.796 140.744 163.543C140.014 163.199 139.455 163.496 139.144 164.168Z" fill="#FCFCFC"/>
<path d="M147.247 171.479L147.39 171.097L150.199 169.854C150.599 169.698 151.033 169.483 151.268 169.077C151.511 168.521 151.172 168.17 150.673 167.96C150.175 167.749 149.659 167.838 149.333 168.269L148.91 167.793C149.395 167.222 150.153 167.117 150.883 167.462C151.614 167.806 152.177 168.441 151.824 169.321C151.58 169.877 150.964 170.14 150.438 170.379L148.246 171.359L150.53 172.367L150.32 172.866L147.247 171.479Z" fill="#FCFCFC"/>
<path d="M155.018 169.306C156.363 169.928 156.307 171.366 155.82 172.479C155.299 173.649 154.246 174.667 152.901 174.045C151.556 173.424 151.612 171.985 152.099 170.872C152.678 169.736 153.731 168.717 155.018 169.306ZM152.655 171.116C152.244 171.963 152.081 173.185 153.136 173.639C154.19 174.093 154.91 173.115 155.288 172.326C155.699 171.48 155.862 170.258 154.808 169.804C153.786 169.292 153.067 170.27 152.655 171.116Z" fill="#FCFCFC"/>
<path d="M159.984 171.554L160.483 171.765L159.164 174.72L159.778 174.997L159.568 175.495L158.954 175.218L158.4 176.446L157.901 176.236L158.456 175.008L156.114 173.965L156.257 173.583L159.984 171.554ZM156.996 173.778L158.666 174.509L159.607 172.343L156.996 173.778Z" fill="#FCFCFC"/>
<path d="M160.635 176.343C160.816 176.835 161.248 177.161 161.654 177.396C162.327 177.707 162.852 177.468 163.163 176.796C163.473 176.124 163.326 175.574 162.595 175.23C162.097 175.019 161.44 174.95 160.957 174.981L162.216 172.533L164.881 173.685L164.671 174.183L162.504 173.241L161.824 174.552C162.124 174.57 162.539 174.655 162.83 174.823C163.827 175.244 164.197 176.077 163.719 177.04C163.299 178.036 162.441 178.315 161.444 177.894C160.946 177.684 160.282 177.223 160.11 176.582L160.635 176.343Z" fill="#FCFCFC"/>
<path d="M94.1154 158.456L80.4131 152.403C79.2422 151.882 78.7239 150.498 79.2447 149.328C79.7655 148.158 81.1488 147.64 82.3197 148.161L96.022 154.214C97.1929 154.735 97.7112 156.118 97.1904 157.289C96.6696 158.459 95.2863 158.977 94.1154 158.456Z" fill="#FCFCFC"/>
<path d="M176.338 147.394L164.073 141.939C163.4 141.628 163.029 140.794 163.373 140.064C163.684 139.392 164.518 139.021 165.248 139.366L177.514 144.821C178.186 145.132 178.557 145.966 178.213 146.696C177.902 147.368 177.069 147.739 176.338 147.394Z" fill="#FCFCFC"/>
<path d="M174.316 151.956L150.342 141.288C149.669 140.977 149.298 140.144 149.643 139.414C149.953 138.741 150.787 138.371 151.518 138.715L175.492 149.383C176.165 149.694 176.536 150.527 176.191 151.257C175.881 151.93 175.023 152.208 174.316 151.956Z" fill="#FCFCFC"/>
<path d="M138.443 185.52L77.6384 158.544C76.4675 158.023 75.9492 156.64 76.47 155.469C76.9908 154.299 78.3741 153.781 79.545 154.302L140.35 181.278C141.52 181.799 142.039 183.183 141.518 184.353C140.997 185.523 139.614 186.041 138.443 185.52Z" fill="#FCFCFC"/>
<path d="M152.261 189.083C151.74 190.254 150.357 190.771 149.186 190.25C148.015 189.729 147.497 188.346 148.017 187.175C148.538 186.005 149.922 185.487 151.092 186.008C152.23 186.588 152.782 187.913 152.261 189.083Z" fill="#FCFCFC"/>
<path d="M154.883 192.843C156.006 193.492 157.442 193.107 158.09 191.985C158.738 190.863 158.353 189.427 157.23 188.779C156.107 188.13 154.671 188.515 154.023 189.637C153.375 190.759 153.76 192.195 154.883 192.843Z" fill="#FCFCFC"/>
<path d="M109.317 115.202L106.049 122.606C105.906 122.988 105.415 123.169 105.066 122.968L92.3604 117.336C91.9783 117.192 91.7973 116.701 91.9985 116.352L95.2663 108.948C95.4094 108.566 95.901 108.385 96.2496 108.587L108.897 114.185C109.304 114.42 109.46 114.82 109.317 115.202Z" fill="#FFE177"/>
<path d="M100.393 115.237L93.8081 112.287L94.0092 111.939L100.212 114.746L101.187 112.521L101.569 112.664L100.393 115.237Z" fill="#FFCD1C"/>
<path d="M99.447 120.499L99.0648 120.355L100.594 116.902L107.237 119.886L107.069 120.177L100.833 117.427L99.447 120.499Z" fill="#FFCD1C"/>
<path d="M105.172 112.568L104.804 112.405L103.172 116.082L103.54 116.245L105.172 112.568Z" fill="#FFCD1C"/>
<path d="M108.737 116.421L104.138 114.38L103.975 114.747L108.573 116.789L108.737 116.421Z" fill="#FFCD1C"/>
<path d="M96.2172 117.24L95.9267 117.073L96.4475 115.902L92.9348 114.339L93.0779 113.957L96.9392 115.721L96.2172 117.24Z" fill="#FFCD1C"/>
<path d="M62.5192 145.645C66.5465 136.212 62.1486 125.356 52.6962 121.399C43.2438 117.442 32.3164 121.882 28.2892 131.315C24.2619 140.748 28.6598 151.604 38.1122 155.561C47.5646 159.518 58.492 155.078 62.5192 145.645Z" fill="#A096E6"/>
<path d="M40.8053 143.566C42.5472 144.141 44.5795 144.141 46.3215 143.71C47.3377 143.422 49.37 142.847 48.9345 141.553C48.6442 140.403 46.3215 140.691 45.4505 140.691C42.1117 140.835 37.7568 140.547 36.7406 136.666C35.7245 133.072 37.902 130.628 41.0956 129.335L40.3698 126.747L43.9989 125.741L44.7247 128.328C46.757 128.041 48.7893 128.041 50.6765 128.616L49.2248 132.928C47.4828 132.641 45.7409 132.785 43.9989 133.36C43.1279 133.647 41.8214 134.078 42.1117 135.228C42.4021 136.378 44.2892 136.091 45.3054 136.091C48.9345 135.947 53.1443 135.803 54.3056 139.972C55.3217 143.566 53.1443 146.01 49.9506 147.303L50.6765 150.035L47.0473 151.041L46.3215 148.453C43.9989 148.885 41.5311 148.885 39.2084 147.878L40.8053 143.566Z" fill="#FCFCFC"/>
<path d="M213.939 99.5833C219.209 97.4669 221.737 91.4956 219.585 86.2461C217.434 80.9965 211.418 78.4566 206.149 80.573C200.879 82.6894 198.351 88.6607 200.502 93.9102C202.654 99.1597 208.67 101.7 213.939 99.5833Z" fill="#A096E6"/>
<path d="M206.252 90.2687C206.709 91.1757 207.505 91.9713 208.356 92.4845C208.866 92.7697 209.887 93.3402 210.223 92.6633C210.559 92.0994 209.538 91.3027 209.197 90.9617C207.833 89.7109 206.241 87.8935 207.362 85.9762C208.372 84.1716 210.181 84.0673 211.937 84.8111L212.666 83.514L214.481 84.5408L213.752 85.8379C214.66 86.5209 215.456 87.3165 215.97 88.2804L213.713 89.4004C213.144 88.6059 212.405 87.9802 211.498 87.5234C211.045 87.2949 210.364 86.9523 210.028 87.5162C209.691 88.08 210.543 88.7063 210.941 89.1041C212.418 90.4685 214.122 92.0603 212.944 94.1469C211.935 95.9516 210.126 96.0558 208.37 95.3121L207.584 96.6654L205.77 95.6386L206.499 94.3415C205.421 93.6011 204.454 92.635 203.939 91.3318L206.252 90.2687Z" fill="#FCFCFC"/>
<path d="M136.963 103.885C149.818 98.7224 155.985 84.1557 150.737 71.3496C145.489 58.5435 130.814 52.3475 117.959 57.5104C105.104 62.6732 98.9369 77.2399 104.185 90.046C109.433 102.852 124.108 109.048 136.963 103.885Z" fill="#FFD63F"/>
<path d="M118.212 81.1629C119.326 83.3756 121.267 85.3165 123.343 86.5683C124.588 87.2641 127.078 88.6559 127.897 87.0044C128.718 85.6289 126.225 83.6853 125.394 82.8535C122.068 79.8023 118.183 75.3687 120.92 70.6917C123.381 66.2892 127.795 66.0349 132.08 67.8493L133.858 64.6851L138.285 67.1899L136.507 70.3541C138.722 72.0204 140.663 73.9613 141.916 76.3126L136.411 79.0448C135.022 77.1066 133.221 75.5803 131.009 74.4658C129.902 73.9086 128.243 73.0727 127.422 74.4483C126.601 75.8238 128.678 77.3515 129.648 78.3219C133.251 81.6504 137.409 85.5335 134.537 90.6237C132.075 95.0262 127.662 95.2805 123.376 93.4661L121.461 96.7676L117.034 94.2628L118.812 91.0985C116.182 89.2923 113.826 86.9355 112.568 83.7564L118.212 81.1629Z" fill="#FCFCFC"/>
<path d="M238.539 156.668L242.613 165.781C243.531 167.781 242.632 170.198 240.537 171.091L152.822 210.031C150.82 210.95 148.404 210.052 147.511 207.958L143.437 198.845L238.539 156.668Z" fill="#48CEA6"/>
<path d="M126.928 151.763L214.643 112.823C216.645 111.904 219.061 112.802 219.954 114.896L238.475 156.704L143.407 198.941L124.886 157.133C123.994 155.039 124.927 152.681 126.928 151.763Z" fill="#81DFC3"/>
<path d="M140.371 191.96L235.483 149.73L229.927 137.213L134.815 179.442L140.371 191.96Z" fill="#424141"/>
<path d="M207.051 138.713L220.417 132.815C221.044 132.531 221.338 131.808 221.055 131.181L220.206 129.299C219.923 128.672 219.2 128.378 218.572 128.661L205.207 134.559C204.579 134.842 204.285 135.566 204.568 136.193L205.417 138.075C205.7 138.702 206.423 138.996 207.051 138.713Z" fill="#FCFCFC"/>
<path d="M184.326 148.829L197.692 142.931C198.32 142.647 198.614 141.924 198.331 141.297L197.482 139.415C197.199 138.788 196.475 138.494 195.848 138.777L182.482 144.675C181.854 144.958 181.56 145.682 181.843 146.309L182.692 148.191C182.975 148.818 183.699 149.112 184.326 148.829Z" fill="#FCFCFC"/>
<path d="M146.853 159.948C148.664 164.042 153.438 165.871 157.534 164.06C161.63 162.249 163.462 157.475 161.652 153.38C159.842 149.286 155.068 147.456 150.972 149.268C146.91 151.139 145.078 155.913 146.853 159.948Z" fill="#FCFCFC"/>
<path d="M140.815 153.867C142.13 153.266 143.531 153.089 144.857 153.194C143.83 155.526 143.723 158.355 144.855 160.864C145.988 163.373 148.06 165.181 150.536 166.045C149.742 167.136 148.658 167.999 147.344 168.599C143.247 170.411 138.473 168.581 136.663 164.487C134.887 160.452 136.719 155.678 140.815 153.867Z" fill="#FCFCFC"/>
</svg>
