<svg width="16" height="16" viewBox="0 0 16 16" fill="none" xmlns="http://www.w3.org/2000/svg">
<path opacity="0.3" fill-rule="evenodd" clip-rule="evenodd" d="M2.66669 2.66666L7.63144 1.73577C7.87504 1.69009 8.125 1.69009 8.3686 1.73577L13.3334 2.66666V6.29547C13.3334 9.84418 11.5052 13.1426 8.49592 15.0234V15.0234C8.19251 15.213 7.80753 15.213 7.50412 15.0234V15.0234C4.49482 13.1426 2.66669 9.84418 2.66669 6.29547L2.66669 2.66666Z" fill="#168926"/>
<path fill-rule="evenodd" clip-rule="evenodd" d="M6.33335 7C6.33335 6.07952 7.07955 5.33333 8.00002 5.33333C8.92049 5.33333 9.66669 6.07952 9.66669 7V7.39023C10.0551 7.52751 10.3334 7.89792 10.3334 8.33333V9.66666C10.3334 10.2189 9.88564 10.6667 9.33335 10.6667H6.66669C6.1144 10.6667 5.66669 10.2189 5.66669 9.66666V8.33333C5.66669 7.89792 5.94496 7.52751 6.33335 7.39023V7ZM8.00002 6C7.44774 6 7.00002 6.44771 7.00002 7V7.33333H9.00002V6.99999C9.00002 6.44771 8.5523 6 8.00002 6Z" fill="#168926"/>
</svg>
