<svg width="15" height="15" viewBox="0 0 15 15" fill="none" xmlns="http://www.w3.org/2000/svg">
<path d="M7.5 0.625C11.297 0.625 14.375 3.70304 14.375 7.5C14.375 11.297 11.297 14.375 7.5 14.375C3.70304 14.375 0.625 11.297 0.625 7.5C0.625 3.70304 3.70304 0.625 7.5 0.625ZM11.1938 5.3125H10.2215C10.1883 5.3125 10.1565 5.32567 10.1331 5.34911L6.68507 8.79663L5.11224 7.22387C5.08879 7.20043 5.057 7.18726 5.02385 7.18726H4.05169C4.01854 7.18726 3.98676 7.20042 3.96332 7.22385C3.91449 7.27266 3.91448 7.3518 3.96328 7.40063C4.01823 7.4556 4.07319 7.51058 4.12814 7.56555C4.14305 7.58047 4.15828 7.59572 4.17383 7.61129L4.27066 7.70834C4.47109 7.90941 4.71027 8.15025 4.95375 8.39583L5.13664 8.58037C5.70478 9.15383 6.2495 9.70545 6.33332 9.79016L6.34406 9.80101C6.52712 9.98407 6.82392 9.98407 7.00698 9.80101L11.2822 5.52589C11.3057 5.50245 11.3188 5.47065 11.3188 5.4375C11.3188 5.36846 11.2629 5.3125 11.1938 5.3125Z" fill="#6D54FC"/>
</svg>
