<svg width="19" height="20" viewBox="0 0 19 20" fill="none" xmlns="http://www.w3.org/2000/svg">
<path d="M7.43403 7.50224C7.60044 7.00136 7.92889 6.579 8.36122 6.30998C8.79355 6.04095 9.30185 5.9426 9.7961 6.03237C10.2903 6.12213 10.7386 6.39421 11.0616 6.80041C11.3845 7.20661 11.5613 7.72072 11.5605 8.25168C11.5605 9.75056 9.43712 10.5 9.43712 10.5M9.46311 13.5H9.47255M18 10C18 14.9706 14.1944 19 9.5 19C4.80558 19 1 14.9706 1 10C1 5.02944 4.80558 1 9.5 1C14.1944 1 18 5.02944 18 10Z" stroke="#979797" stroke-width="1.3" stroke-linecap="round" stroke-linejoin="round"/>
</svg>
