<svg width="210" height="163" viewBox="0 0 210 163" fill="none" xmlns="http://www.w3.org/2000/svg">
<g opacity="0.1">
<path d="M47.2203 123.008C73.3559 151.703 112.483 161.178 146.085 145.093C157.652 139.551 183.542 110.517 182.915 88.7288C182.907 88.3135 182.89 87.8983 182.873 87.4746C181.085 45.1017 155.983 23.0424 143.237 15.483C125.746 5.10168 100.347 10.0085 91.5762 26.4152C85.8728 37.0847 78.9745 36.7627 72.6779 37.1441C66.3813 37.5254 33.305 43.2119 27.9406 67.7797C22.9576 90.6017 33.1694 107.576 47.2203 123.008Z" fill="#00BDFF"/>
</g>
<path d="M156.212 64.7373H50.4577C47.7712 64.7373 45.5933 66.9153 45.5933 69.6017V132.814C45.5933 135.5 47.7712 137.678 50.4577 137.678H156.22C158.907 137.678 161.085 135.5 161.085 132.814V69.6017C161.076 66.9153 158.898 64.7373 156.212 64.7373Z" fill="#6F64FF"/>
<path d="M161.076 69.1611V65.9746C161.042 64.4238 160.297 62.9662 159.042 62.0509L109.407 26.8136C105.788 24.1611 100.873 24.1611 97.2543 26.8136L47.6272 61.9831C46.3729 62.9068 45.6187 64.356 45.5933 65.9068V69.0594L97.2119 105.051C100.856 107.822 105.814 107.822 109.466 105.051L161.076 69.1611Z" fill="#6F64FF"/>
<path d="M161.076 65.9069H45.5933V69.0594L95.6272 111.364L132.78 110.009L161.076 69.5509V65.9069Z" fill="#6F64FF"/>
<path d="M137.424 21.6526H119.788H86.8816H69.246C68.4748 21.6526 67.8477 22.2797 67.8477 23.0509V40.678V112.805C67.8477 113.576 68.4748 114.203 69.246 114.203H137.415C138.187 114.203 138.814 113.576 138.814 112.805V40.678V23.0509C138.814 22.2797 138.195 21.6526 137.424 21.6526Z" fill="#00D495"/>
<path d="M157.051 67.4069L109.992 100.059L159.432 136.466C160.441 135.576 161.085 134.271 161.085 132.822V69.6018C161.085 69.5848 161.085 69.5679 161.085 69.5594C161.102 67.4662 158.763 66.2119 157.051 67.4069Z" fill="white"/>
<path d="M49.5933 67.5001C47.9153 66.3391 45.6102 67.517 45.5933 69.5509C45.5933 69.5679 45.5933 69.5764 45.5933 69.5933V132.805C45.5933 134.263 46.2289 135.559 47.2458 136.449L96.6865 100.042L49.5933 67.5001Z" fill="white"/>
<path opacity="0.85" d="M157.051 67.4069L109.992 100.059L159.432 136.466C160.441 135.576 161.085 134.271 161.085 132.822V69.6018C161.085 69.5848 161.085 69.5679 161.085 69.5594C161.102 67.4662 158.763 66.2119 157.051 67.4069Z" fill="#6F64FF"/>
<path opacity="0.85" d="M49.5933 67.5001C47.9153 66.3391 45.6102 67.517 45.5933 69.5509C45.5933 69.5679 45.5933 69.5764 45.5933 69.5933V132.805C45.5933 134.263 46.2289 135.559 47.2458 136.449L96.6865 100.042L49.5933 67.5001Z" fill="#6F64FF"/>
<path d="M97.2626 99.7543L47.2456 136.466C48.1015 137.22 49.2287 137.678 50.4575 137.678H156.22C157.449 137.678 158.576 137.22 159.432 136.466L109.415 99.7543C105.796 97.0933 100.873 97.0933 97.2626 99.7543Z" fill="#6F64FF"/>
<path d="M82.8984 52.9322L80.1865 55.6441L97.6187 73.9322L128.009 40.7712L125.602 38.4576L97.6187 59.3983L82.8984 52.9322Z" fill="white"/>
</svg>
