<svg width="123" height="85" viewBox="0 0 123 85" fill="none" xmlns="http://www.w3.org/2000/svg">
<g opacity="0.1">
<path d="M102.197 83.9133H19.448H121.902C125.497 59.2189 107.423 62.742 111.883 40.8133C112.349 38.4756 112.682 36.2695 112.882 34.1623C112.915 34.1623 112.949 34.1623 112.949 34.1623C113.681 26.6881 112.216 20.7285 111.551 18.5554C104.228 -5.15128 72.7723 -4.52569 61.4883 11.3117C60.6894 12.4312 59.9239 13.4189 59.125 14.275C56.8615 17.1725 52.9671 19.0822 51.3028 19.8395V19.9053C45.744 21.848 40.7844 19.6419 36.6902 18.7859C24.2745 16.1518 8.33049 21.2553 3.50401 36.961C-3.88549 61.0957 4.46931 83.9133 4.46931 83.9133H18.8489" fill="#07BBFD"/>
</g>
<path d="M86.9187 6.3729V80.7855C86.9187 83.1232 85.0214 85 82.6581 85H46.0768C44.8785 85 43.8133 84.539 43.0477 83.7488C42.2822 82.9915 41.8162 81.9379 41.8162 80.7855V6.3729C41.8162 4.03516 43.7135 2.15839 46.0768 2.15839H82.6581C83.3571 2.15839 84.0229 2.32302 84.5887 2.61935C85.9867 3.3108 86.9187 4.72661 86.9187 6.3729Z" fill="#6D54FC"/>
<path d="M86.9188 6.37294V80.7855C86.9188 83.1232 85.0215 85 82.6582 85H46.3764C45.1781 85 44.113 84.5391 43.3474 83.7488L84.6221 2.61938C85.9868 3.31083 86.9188 4.72664 86.9188 6.37294Z" fill="#6D54FC"/>
<path d="M85.3541 6.10947V81.0159C85.3541 82.0366 84.522 82.8598 83.4901 82.8598H45.5107C44.7452 82.8598 44.0794 82.3988 43.7799 81.7403C43.68 81.5098 43.6467 81.2793 43.6467 81.0159V6.10947C43.6467 5.08877 44.4789 4.26562 45.5107 4.26562H83.4901C83.7564 4.26562 83.9894 4.33147 84.2224 4.39733C84.8881 4.69366 85.3541 5.35218 85.3541 6.10947Z" fill="white"/>
<path d="M75.2356 7.98612H53.7661C52.5678 7.98612 51.6025 7.03127 51.6025 5.84593C51.6025 4.6606 52.5678 3.70575 53.7661 3.70575H75.2356C76.4339 3.70575 77.3992 4.6606 77.3992 5.84593C77.3992 7.03127 76.4339 7.98612 75.2356 7.98612Z" fill="#6D54FC"/>
<path d="M70.642 6.07658H56.2291C55.9295 6.07658 55.6965 5.8461 55.6965 5.54977C55.6965 5.25343 55.9295 5.02295 56.2291 5.02295H70.642C70.9415 5.02295 71.1745 5.25343 71.1745 5.54977C71.1745 5.8461 70.9415 6.07658 70.642 6.07658Z" fill="black"/>
<path d="M74.936 5.51658C74.936 5.87877 74.6364 6.14218 74.3036 6.14218C73.9374 6.14218 73.6711 5.84584 73.6711 5.51658C73.6711 5.1544 73.9707 4.89099 74.3036 4.89099C74.6364 4.89099 74.936 5.18732 74.936 5.51658Z" fill="black"/>
<path d="M24.1077 15.0654C24.1077 15.0654 18.3825 20.8274 18.0829 23.231C17.7833 25.6346 21.0454 29.3552 21.0454 29.3552L24.1077 15.0654Z" fill="#FFD447"/>
<path d="M27.3699 80.4563C27.3699 80.4563 27.6029 83.8477 28.2353 83.8806C28.3352 83.8806 31.5972 83.8806 31.5972 83.8806L35.758 83.8477C35.758 83.8477 35.7247 82.8599 34.5264 82.6624C33.2948 82.4648 31.2643 81.6087 30.532 80.0283C29.7332 78.3491 27.3699 80.4563 27.3699 80.4563Z" fill="black"/>
<path d="M18.0833 80.4893C18.0833 80.4893 18.3163 83.8807 18.9487 83.9136C19.0485 83.9136 22.3106 83.9136 22.3106 83.9136L26.4713 83.8807C26.4713 83.8807 26.438 82.8929 25.2398 82.6954C24.0082 82.4978 21.9777 81.6417 21.2454 80.0613C20.4798 78.3491 18.0833 80.4893 18.0833 80.4893Z" fill="black"/>
<path d="M31.8969 44.1391C31.8969 44.1391 30.8317 51.0206 26.7708 63.269C22.7432 75.5175 22.1773 80.8185 22.1773 80.8185L17.8501 80.7197C17.8501 80.7197 17.7836 67.3518 19.6476 61.1947C21.5116 55.0375 20.0137 39.0026 20.0137 39.0026L31.8969 44.1391Z" fill="#755EFF"/>
<path d="M34.027 39.3646C34.027 39.3646 34.1935 49.7692 32.4293 62.5115C30.6319 75.2868 31.2643 80.6867 31.2643 80.6867L26.9038 80.8513C26.9038 80.8513 24.2742 68.1089 25.0065 61.7213C25.7388 55.3337 21.4116 39.8256 21.4116 39.8256L34.027 39.3646Z" fill="#968EFD"/>
<path d="M25.5391 15.0653L27.8691 16.5799L31.231 15.9543C31.1977 15.6909 30.9647 14.5714 30.765 13.5837C30.765 13.5178 30.7317 13.452 30.7317 13.419C30.5653 12.563 30.3988 11.8386 30.3988 11.8386L27.2699 10.4886L26.1715 9.50085C26.1715 9.53378 26.1715 10.8508 26.1715 11.0154C26.4045 13.419 25.5391 15.0653 25.5391 15.0653Z" fill="#D9864A"/>
<path d="M30.3654 14.275C30.2988 14.242 26.3378 13.0896 25.9051 13.2542C25.4723 13.386 25.2061 14.2091 25.2061 14.2091L31.6968 15.6578C31.6968 15.6578 31.1975 14.6371 30.3654 14.275Z" fill="#FFD447"/>
<path d="M19.7139 40.6488C20.3796 43.678 31.597 44.0072 34.4929 41.2414C34.8258 40.9122 34.8258 39.4634 34.6926 37.4879C34.4263 33.6356 33.6607 27.8406 33.6275 24.8773C33.5942 23.4614 33.3945 21.9798 33.1282 20.6627C32.5623 17.8311 31.6969 15.6251 31.6969 15.6251C31.6969 15.6251 26.238 13.88 25.2061 14.1763C20.2798 15.658 19.0482 37.6196 19.7139 40.6488Z" fill="#FFCB00"/>
<path d="M34.6925 37.5208C34.4262 33.6685 33.6606 27.8735 33.6273 24.9102C33.594 23.4944 33.3943 22.0127 33.128 20.6957L29.8327 20.1359C29.8327 20.1359 26.2045 33.9319 34.6925 37.5208Z" fill="#FFD447"/>
<path d="M32.8955 32.1539C32.8955 32.1539 32.6625 32.6808 33.1285 33.0429C33.5945 33.4051 33.8941 33.9649 33.7942 34.3929C33.6944 34.8209 32.6625 35.5124 32.2964 35.3807C31.9302 35.2819 31.1979 34.7222 31.2978 34.4917C31.3643 34.2612 30.7985 32.549 31.6639 31.8576C32.5626 31.232 32.8955 32.1539 32.8955 32.1539Z" fill="#D9864A"/>
<path d="M29.267 15.0654C29.267 15.0654 32.3959 15.4605 34.959 19.1811C37.522 22.9017 39.2196 25.6675 38.7536 27.0175C38.2876 28.3674 33.9937 33.0429 33.2614 33.0429C32.5291 33.0429 31.3308 32.5161 31.2642 31.3308C31.2642 31.3308 33.9937 26.5565 33.3945 25.898C33.1282 25.6017 29.7663 22.9347 29.2338 24.2846C28.335 26.4577 29.267 15.0654 29.267 15.0654Z" fill="#FFCB00"/>
<path d="M26.4379 11.0482C27.1369 12.2006 29.7665 13.5835 30.8317 13.9457C30.8317 13.8798 30.7318 13.4518 30.7318 13.3859C30.5654 12.5298 30.3989 11.8055 30.3989 11.8055L27.2701 10.4555C26.571 10.4226 26.1383 10.5543 26.4379 11.0482Z" fill="#AE5A36"/>
<path d="M30.4986 13.09C30.4986 13.09 25.3726 11.8717 26.1715 8.74374C26.9703 5.58286 26.8705 3.31097 30.1658 3.93656C33.4944 4.56216 33.794 5.94504 33.794 7.06453C33.794 8.18401 31.8634 13.3204 30.4986 13.09Z" fill="#D9864A"/>
<path d="M33.794 6.70217C33.794 6.70217 31.6304 9.6655 31.0645 9.13869C30.4987 8.61187 29.9661 8.18384 29.5001 9.17161C29.0341 10.1594 29.3004 11.7728 27.1701 10.785C25.0731 9.76428 25.2395 2.94862 26.3712 2.2901C29.6332 0.413323 38.1545 4.62784 33.794 6.70217Z" fill="black"/>
<path d="M60.2902 14.6702C61.9878 11.7397 66.2817 11.7397 68.0126 14.6702L79.8957 35.0513L91.7788 55.4324C93.4764 58.3628 91.3461 62.0506 87.9177 62.0506H64.1514H40.3852C36.9567 62.0506 34.8264 58.3958 36.524 55.4324L48.4071 35.0513L60.2902 14.6702Z" fill="#FFCD1C"/>
<path d="M87.8842 60.9968H40.4183C39.1867 60.9968 38.0883 60.3712 37.4892 59.3176C36.89 58.2639 36.89 57.0128 37.4892 55.9591L61.2221 15.2956C61.8213 14.242 62.9197 13.6164 64.1513 13.6164C65.3829 13.6164 66.4813 14.242 67.0804 15.2956L90.8134 55.9591C91.4126 57.0128 91.4126 58.2639 90.8134 59.3176C90.181 60.3712 89.1158 60.9968 87.8842 60.9968ZM64.1513 15.1639C63.4856 15.1639 62.8864 15.4932 62.5535 16.0858L38.8206 56.7164C38.4877 57.2762 38.4877 57.9676 38.8206 58.5603C39.1535 59.12 39.7526 59.4822 40.4183 59.4822H87.8842C88.5499 59.4822 89.1491 59.1529 89.482 58.5603C89.8148 58.0005 89.8148 57.3091 89.482 56.7164L65.749 16.0858C65.4161 15.4932 64.817 15.1639 64.1513 15.1639Z" fill="black"/>
<path d="M60.6892 51.8103C60.6892 49.8018 62.1538 48.2214 64.151 48.2214C66.1481 48.2214 67.6127 49.7689 67.6127 51.8103C67.6127 53.8188 66.1481 55.3663 64.151 55.3663C62.1538 55.3663 60.6892 53.8188 60.6892 51.8103Z" fill="black"/>
<path d="M64.1509 25.4695C66.0149 25.4695 67.4795 27.05 67.2798 28.8938L65.6155 45.9495H62.6197L60.9554 28.8938C60.8223 27.05 62.2869 25.4695 64.1509 25.4695Z" fill="black"/>
</svg>
