<svg width="114" height="127" viewBox="0 0 114 127" fill="none" xmlns="http://www.w3.org/2000/svg">
<path opacity="0.1" d="M10.1352 89.3689L9.51718 88.3496C4.2848 79.9101 3.9552 69.3506 8.98158 60.9927C9.64078 59.9326 10.3412 58.8726 11.1652 57.8941C16.9744 50.8816 26.5739 47.1307 35.8027 48.2723C41.2411 48.9246 46.7206 51.1262 51.9942 49.8215C58.8334 48.1092 62.6238 41.1782 65.6314 34.8996C68.639 28.6617 72.4294 21.7307 79.2685 20.0183C83.5533 18.9583 88.2089 20.3037 92.0405 22.5461C102.258 28.4578 107.902 40.4443 107.82 51.9824C107.738 63.5204 102.546 74.4877 95.2953 83.4572C85.1601 96.0145 70.3282 105.351 53.9718 107.104C37.6155 108.939 19.9407 102.497 10.1352 89.3689Z" fill="#00BDFF"/>
<path d="M82.5643 10.2743L77.9911 43.3799L75.0247 39.7921L71.2343 42.483L68.2679 38.8952L64.4363 41.586L61.5112 38.039L57.6796 40.7298L54.7544 37.142L50.9228 39.8329L47.9976 36.2451L44.166 38.9359L48.7804 5.78955L82.5643 10.2743Z" fill="#F4F4F4"/>
<path d="M67.205 17.1014L50.8701 14.9487L50.7015 16.2015L67.0364 18.3542L67.205 17.1014Z" fill="#AFAFAF"/>
<path d="M73.8752 13.5652L56.1519 11.2295L55.9833 12.4823L73.7067 14.8179L73.8752 13.5652Z" fill="#AFAFAF"/>
<path d="M78.0465 18.5094L71.9209 17.7021L71.7523 18.9549L77.8779 19.7622L78.0465 18.5094Z" fill="#AFAFAF"/>
<path d="M60.311 20.3542L50.3467 19.041L50.1781 20.2938L60.1424 21.6069L60.311 20.3542Z" fill="#AFAFAF"/>
<path d="M77.5065 22.6285L71.3809 21.8213L71.2123 23.0741L77.3379 23.8813L77.5065 22.6285Z" fill="#AFAFAF"/>
<path d="M63.385 24.9152L49.7861 23.123L49.6175 24.3758L63.2164 26.1679L63.385 24.9152Z" fill="#AFAFAF"/>
<path d="M76.9308 26.7018L70.8052 25.8945L70.6366 27.1473L76.7622 27.9545L76.9308 26.7018Z" fill="#AFAFAF"/>
<path d="M60.1827 28.6532L49.2383 27.2109L49.0697 28.4637L60.0141 29.906L60.1827 28.6532Z" fill="#AFAFAF"/>
<path d="M76.3961 30.7804L70.2705 29.9731L70.1019 31.2259L76.2275 32.0332L76.3961 30.7804Z" fill="#AFAFAF"/>
<path d="M63.3811 33.2221L48.6797 31.2847L48.5111 32.5374L63.2125 34.4748L63.3811 33.2221Z" fill="#AFAFAF"/>
<path d="M75.8614 34.8595L69.7358 34.0522L69.5673 35.305L75.6928 36.1123L75.8614 34.8595Z" fill="#AFAFAF"/>
<path d="M64.4774 15.3706C60.1926 14.7998 56.1962 17.8168 55.6194 22.057C55.0426 26.2971 58.0914 30.2518 62.3762 30.8226C66.6609 31.3934 70.6573 28.3764 71.2341 24.1363C71.8109 19.8554 68.7621 15.9414 64.4774 15.3706ZM70.2041 23.647C70.2041 23.7693 70.1629 23.8916 70.1629 24.014C70.2041 23.8916 70.2041 23.7693 70.2041 23.647Z" fill="#FC4E69"/>
<path d="M64.0656 18.469C64.6012 18.5505 65.178 18.7543 65.0956 19.2436C65.0544 19.4067 65.0132 19.6513 64.9308 19.9367C64.6424 20.956 64.0245 22.9537 63.5713 24.6253L62.8709 24.5438C62.9121 22.9129 62.8297 20.7929 62.7885 19.6921C62.7885 19.4474 62.7473 19.1213 62.7885 18.9582C62.9121 18.469 63.5301 18.3874 64.0656 18.469ZM62.8297 27.8869C62.2117 27.8054 61.7997 27.2754 61.8821 26.623C61.9645 25.9707 62.5001 25.563 63.1181 25.6446C63.7772 25.7261 64.1892 26.2561 64.0656 26.9084C64.0244 27.6015 63.4889 27.9685 62.8297 27.8869Z" fill="white"/>
<path d="M51.9942 116.318C51.9942 116.318 52.0766 117.745 52.983 118.112C53.8894 118.479 56.5674 118.765 55.5786 119.702C55.043 120.232 52.365 119.988 51.5822 119.988C50.8406 120.028 50.1402 120.355 49.5634 119.865C48.9454 119.295 49.481 116.359 49.481 116.359C49.481 116.359 50.1402 116.685 50.717 116.645C51.5822 116.645 51.9942 116.318 51.9942 116.318Z" fill="black"/>
<path d="M58.7923 73.3057C58.7923 73.3057 59.1219 79.7066 57.5151 92.0193C56.3615 100.907 54.9195 109.877 54.2191 114.198C53.9719 115.748 52.7771 116.889 51.3351 117.012L50.5523 117.052C48.9867 117.175 47.6683 115.788 47.7507 114.076L48.9867 85.0476L49.2339 75.5073L58.7923 73.3057Z" fill="#6F64FF"/>
<path d="M66.7849 80.3178C62.6237 81.9894 54.8781 79.6247 49.0277 81.1332L48.9453 79.3801L57.1853 76.8115L63.8185 76.9746L65.8373 77.4231L67.2792 79.747C67.2792 79.7878 67.2792 80.1139 66.7849 80.3178Z" fill="#05A2C6"/>
<path d="M76.8378 43.2169C76.7554 42.5646 76.9202 41.2192 76.8378 40.5668C76.7966 40.2814 76.7966 39.303 77.0438 39.2214C77.2909 39.1399 77.6205 39.8737 77.7853 40.2407C78.8565 38.0798 81.0401 35.6744 79.0625 40.0776C79.2685 39.7107 80.6281 36.979 81.0813 37.4275C81.4109 37.7537 80.2573 39.9961 79.9277 40.5668C80.2985 39.9553 81.3285 38.1206 81.6581 38.406C82.1113 38.7729 80.7105 41.1376 80.7105 41.1376C80.7105 41.1376 81.8229 39.1806 82.1525 39.7922C82.3173 40.1591 81.6169 41.3007 81.2049 41.9938C81.1225 42.1569 81.0401 42.2792 80.9577 42.3607C80.9165 42.4423 80.8753 42.5238 80.7929 42.5646C79.9689 43.7062 79.3097 44.3177 79.3097 44.3177C79.3097 44.3177 78.6093 45.1739 77.6205 44.6439C77.0849 44.3585 76.879 43.5023 76.8378 43.2169Z" fill="#FFB27D"/>
<path d="M44.9902 40.4445C45.3198 39.8737 45.7318 38.6098 46.0614 38.0391C46.185 37.7944 46.597 36.9382 46.391 36.7344C46.2262 36.5713 45.6082 37.0606 45.3198 37.346C45.2374 34.8997 44.2486 31.7604 44.2486 36.6121C44.2074 36.2044 44.125 33.1058 43.507 33.2689C43.0538 33.3912 43.2186 35.9598 43.2598 36.6529C43.1774 35.9598 42.9714 33.7989 42.5594 33.9212C41.9826 34.0435 42.3122 36.8159 42.3122 36.8159C42.3122 36.8159 42.1062 34.5328 41.5706 34.9813C41.2822 35.2259 41.4058 36.5713 41.5294 37.4275C41.5706 37.5906 41.5706 37.7537 41.5706 37.876C41.5706 37.9575 41.6118 38.0391 41.6118 38.1206C41.859 39.5068 42.2298 40.363 42.2298 40.363C42.2298 40.363 42.5182 41.4638 43.5894 41.423C44.2898 41.3822 44.8254 40.6484 44.9902 40.4445Z" fill="#FFB27D"/>
<path d="M60.6461 116.074C60.6461 116.074 60.7285 117.501 61.6349 117.868C62.5413 118.235 65.2192 118.52 64.2304 119.458C63.6948 119.988 61.0169 119.743 60.2341 119.743C59.4925 119.784 58.7921 120.11 58.2153 119.621C57.5973 119.05 58.1329 116.114 58.1329 116.114C58.1329 116.114 58.7921 116.441 59.3689 116.4C60.2341 116.4 60.6461 116.074 60.6461 116.074Z" fill="black"/>
<path d="M66.785 80.318C66.785 83.2535 66.7438 87.0859 66.1258 91.7745C64.9722 100.663 63.5302 109.632 62.8298 113.954C62.5826 115.503 61.3878 116.645 59.9458 116.767L59.163 116.808C57.5974 116.93 56.279 115.544 56.3614 113.831L57.5974 84.8028L49.0278 81.1335C52.9418 79.258 66.785 78.6057 66.785 80.318Z" fill="#6F64FF"/>
<path d="M57.1031 94.5471C57.1031 94.5063 56.4439 89.2469 55.9495 87.3715C55.4551 85.4961 53.1479 83.906 53.1479 83.8652L53.2303 83.7837C53.2715 83.7837 55.5787 85.4553 56.0731 87.3307C56.5675 89.2062 57.2267 94.4656 57.2679 94.5063L57.1031 94.5471Z" fill="#5653E5"/>
<path d="M57.0204 53.6542L56.8968 51.4933L58.0092 51.1264L59.3276 47.7832L59.3688 51.0856V53.0426V53.6542C59.3688 54.0619 59.6572 54.1434 60.028 54.5103C60.1516 54.6734 61.058 55.5296 59.9868 55.9781C58.6272 56.5489 56.1964 55.8558 55.29 54.8773C55.29 54.8773 56.7732 54.3065 57.0204 53.6542Z" fill="#FFB27D"/>
<path d="M61.0581 48.1096C60.3577 46.3157 58.5449 45.3779 57.0205 45.9895C55.4961 46.6011 54.7957 48.558 55.4961 50.3519C56.1965 52.1458 58.0093 53.0836 59.5337 52.472C61.0993 51.8604 61.7584 49.9035 61.0581 48.1096Z" fill="#FFB27D"/>
<path d="M59.6574 47.6201C61.3054 47.2531 61.8822 46.1116 61.7174 45.2146C61.4702 44.1138 60.5226 43.2984 59.781 43.9507C59.0394 44.5623 59.163 43.4615 58.339 43.5838C56.8146 43.7876 56.7734 44.8885 55.5786 45.2554C53.9718 45.7446 52.777 48.8432 54.5898 50.3925C54.5898 50.4332 58.339 47.9462 59.6574 47.6201Z" fill="black"/>
<path d="M60.852 46.1118C60.852 46.1118 59.4924 48.2319 59.9456 49.1288C60.3988 49.985 60.44 50.3927 59.5336 51.1674C58.6272 51.942 59.7396 52.5128 58.38 52.9205C57.0204 53.3282 54.9604 52.1866 54.3424 49.6181C54.0128 48.1503 54.6308 46.968 54.6308 46.968L60.852 46.1118Z" fill="black"/>
<path d="M60.8111 48.8435C60.5639 48.6396 60.1519 48.6396 59.9459 48.8842C59.7399 49.1288 59.7811 49.4958 60.0283 49.7404C60.2755 49.9443 60.6875 49.9443 60.8935 49.6996C61.1407 49.455 61.0995 49.0881 60.8111 48.8435Z" fill="#FFB27D"/>
<path d="M60.4814 49.4956C60.3578 49.4956 60.1518 49.4548 59.9458 49.2102V49.1694H59.987C60.3578 49.5771 60.6874 49.3733 60.6874 49.3733H60.7286V49.4141C60.7286 49.4548 60.605 49.4956 60.4814 49.4956Z" fill="#CE804A"/>
<path d="M50.1403 58.9542C50.1403 58.9542 51.2115 54.021 57.8858 54.021C69.463 54.021 66.2082 63.969 67.2794 79.7879C67.2794 79.7879 62.1706 76.2817 48.9867 80.3587C48.9867 80.3587 48.4099 71.8785 49.2751 64.5398C49.6459 61.6451 49.6047 60.585 50.1403 58.9542Z" fill="#00BDFF"/>
<path d="M44.5781 39.7921C45.3197 39.7513 45.9789 40.1998 46.1849 40.9337C48.3685 48.2316 52.2413 53.5725 57.8857 54.021C58.5861 54.0618 49.1101 66.7006 49.1513 66.3337C49.4397 63.1128 48.4921 59.1173 46.9265 56.7526C43.9601 52.2679 41.6941 47.1308 41.4057 41.2599C41.3645 40.5668 41.8589 39.9552 42.5181 39.9144L44.5781 39.7921Z" fill="#00BDFF"/>
<path d="M57.7212 54.021C57.7212 54.021 71.0699 53.6541 75.6843 43.1353C75.9727 42.483 76.7555 42.2791 77.3735 42.646L79.3099 43.8284C79.6807 44.0322 79.8455 44.4807 79.7219 44.8477C79.1451 46.9269 76.7143 52.594 69.4219 59.525C68.6804 60.2181 67.0736 63.1128 66.9088 66.2114L57.7212 54.021Z" fill="#00BDFF"/>
</svg>
