<svg width="150" height="97" viewBox="0 0 150 97" fill="none" xmlns="http://www.w3.org/2000/svg">
<path opacity="0.1" d="M124.376 90.7596C124.376 90.7596 134.299 69.9218 123.831 51.9304C78.5801 -25.8374 12.0306 24.7792 31.9482 58.1708C40.1624 71.9289 14.3204 74.9214 22.0621 90.7961L124.376 90.7596Z" fill="#07BBFD"/>
<path d="M128.556 81.0888C128.556 87.0372 123.94 91.8544 118.27 91.8544C112.6 91.8544 107.984 87.0372 107.984 81.0888C107.984 75.1403 112.6 70.3231 118.27 70.3231C123.94 70.2866 128.556 75.1038 128.556 81.0888Z" fill="white" stroke="#9FA0A0" stroke-miterlimit="10" stroke-linecap="round" stroke-linejoin="round"/>
<path d="M123.431 81.0888C123.431 84.0813 121.105 86.4898 118.27 86.4898C115.435 86.4898 113.109 84.0813 113.109 81.0888C113.109 78.0963 115.435 75.6877 118.27 75.6877C121.141 75.6512 123.431 78.0963 123.431 81.0888Z" fill="white" stroke="#D6D6D8" stroke-miterlimit="10" stroke-linecap="round" stroke-linejoin="round"/>
<path d="M43.0701 81.0888C43.0701 87.0372 38.4542 91.8544 32.7842 91.8544C27.1142 91.8544 22.4983 87.0372 22.4983 81.0888C22.4983 75.1403 27.1142 70.3231 32.7842 70.3231C38.4905 70.2866 43.0701 75.1038 43.0701 81.0888Z" fill="white" stroke="#9FA0A0" stroke-miterlimit="10" stroke-linecap="round" stroke-linejoin="round"/>
<path d="M37.9817 81.0888C37.9817 84.0813 35.6555 86.4898 32.8206 86.4898C29.9856 86.4898 27.6594 84.0813 27.6594 81.0888C27.6594 78.0963 29.9856 75.6877 32.8206 75.6877C35.6555 75.6512 37.9817 78.0963 37.9817 81.0888Z" fill="white" stroke="#D6D6D8" stroke-miterlimit="10" stroke-linecap="round" stroke-linejoin="round"/>
<path d="M7.30548 69.9947C8.25047 63.4988 11.2672 62.1486 20.2447 60.2874C30.1308 58.2073 42.7065 51.456 42.7065 51.456C42.7065 51.456 64.1506 40.4349 69.4208 39.1941C74.691 37.9168 87.5938 38.2818 98.4613 38.3912C109.329 38.4642 115.689 41.6392 121.214 46.1644C126.738 50.6896 136.297 54.12 136.297 54.12L138.042 54.4484C139.823 54.7769 141.132 56.4191 141.132 58.3168V74.4104C141.132 76.2351 139.968 77.8408 138.297 78.2788L132.009 80.0304C131.5 80.1399 131.027 79.7385 130.955 79.1911C130.264 72.6222 124.848 67.6226 118.343 67.6226C111.473 67.6226 105.803 73.5711 105.803 80.7603C105.803 81.5632 105.876 82.366 106.021 83.1689C106.167 83.9718 105.585 84.7016 104.785 84.7016H46.9953C45.8686 84.7016 44.9963 83.6798 45.1417 82.512C45.2144 81.9646 45.2507 81.3807 45.2507 80.7968C45.2871 73.6806 39.7625 67.7686 32.9658 67.6226C25.9146 67.4766 20.172 73.4251 20.172 80.7603C20.172 81.2347 20.2083 81.7456 20.2447 82.1836C20.39 83.5338 19.4087 84.7016 18.1002 84.7016H9.81335C8.28682 84.7016 7.0874 83.4244 7.0874 81.8551V73.3521C7.0874 72.2208 7.16009 71.0895 7.30548 69.9947Z" fill="white" stroke="#D6D6D8" stroke-miterlimit="10" stroke-linecap="round" stroke-linejoin="round"/>
<path d="M140.732 60.1414H133.899C133.317 60.1414 132.917 60.7618 133.136 61.3457L133.899 63.2799C134.626 65.1045 136.334 66.3088 138.224 66.3088H140.732C141.204 66.3088 141.604 65.9074 141.604 65.3965V61.1267C141.604 60.5428 141.204 60.1414 140.732 60.1414Z" fill="white" stroke="#FC4E69" stroke-miterlimit="10" stroke-linecap="round" stroke-linejoin="round"/>
<path d="M18.2095 63.0974C14.4295 63.7178 10.1043 67.4401 10.1043 67.4401C9.05027 68.6079 9.92257 70.5056 11.4491 70.3961L18.791 69.9217C20.3175 69.8122 21.626 68.7174 22.0258 67.1847C22.7527 64.6301 22.1348 62.477 18.2095 63.0974Z" stroke="#FFCD1C" stroke-miterlimit="10" stroke-linecap="round" stroke-linejoin="round"/>
<path d="M141.059 74.9213C141.531 74.9213 141.858 75.3957 141.677 75.8702C141.168 77.1839 140.114 78.1693 138.769 78.5707L131.754 80.5048C131.173 80.6143 130.664 80.1764 130.591 79.5925C130.446 78.3517 130.191 77.1474 129.755 76.0161C129.61 75.6512 129.864 75.2133 130.264 75.2133L141.059 74.9213Z" fill="white" stroke="#9FA0A0" stroke-miterlimit="10" stroke-linecap="round" stroke-linejoin="round"/>
<path d="M20.1357 77.9503C20.6809 77.9503 21.0807 78.4247 21.008 78.9721C20.9353 79.5925 20.899 80.2129 20.899 80.8698C20.899 81.4172 20.9353 81.9281 20.9717 82.4755C21.1171 83.9718 20.0267 85.249 18.2457 85.249H9.01385C7.7054 85.249 6.3606 83.8258 6.3606 82.0741V79.5925C6.3606 78.8992 6.90579 78.3153 7.56001 78.2788L20.1357 77.9503Z" fill="white" stroke="#9FA0A0" stroke-miterlimit="10" stroke-linecap="round" stroke-linejoin="round"/>
<path opacity="0.15" d="M40.3804 55.3608L40.4531 55.5797C40.4894 55.6892 46.123 67.6956 46.2684 79.2276V79.5195L80.1793 78.8262H80.47H80.7608L105.113 78.1693L105.149 77.9138C105.149 77.8773 105.44 74.7024 107.73 71.7099C110.746 67.7321 117.361 65.8709 124.085 66.2724H124.34L126.666 54.8499L126.557 54.7404C126.193 54.3389 116.125 44.4492 109.51 42.2961C102.932 40.1429 81.5241 40.6173 80.5064 40.6538C80.1066 40.6173 71.1654 40.2159 63.1693 44.1207C55.0642 48.062 40.7438 55.1418 40.5984 55.2148L40.3804 55.3608ZM80.7971 78.2423V41.2742C83.4141 41.2377 103.259 40.9093 109.365 42.88C115.471 44.8871 125.067 53.901 126.048 55.0323L123.904 65.6155C115.253 65.1775 109.438 68.462 107.257 71.3085C105.258 73.9725 104.713 76.673 104.604 77.5124L80.7971 78.2423ZM41.0709 55.6527C42.7065 54.7039 55.9001 48.354 63.3874 44.7046C70.6203 41.2012 78.6164 41.2377 80.2156 41.3107V78.2788L46.85 78.9721C46.6319 68.2795 41.5434 57.4044 41.0709 55.6527Z" fill="#666666"/>
<path d="M44.742 81.5632C44.742 80.9063 44.7057 80.2494 44.5967 79.629C44.4876 78.8626 45.0328 78.1693 45.7597 78.1693L105.84 76.6365C106.494 76.6365 106.966 77.2569 106.785 77.9503C106.458 79.1181 106.312 80.3224 106.312 81.5632C106.312 82.4025 106.385 83.2054 106.53 84.0082C106.676 84.8476 106.094 85.5775 105.295 85.5775H46.4867C45.3236 85.5775 44.4513 84.5192 44.5967 83.3149C44.7057 82.6945 44.742 82.1471 44.742 81.5632Z" fill="white" stroke="#9FA0A0" stroke-miterlimit="10" stroke-linecap="round" stroke-linejoin="round"/>
<path opacity="0.15" d="M111.691 61.2362H119.142C119.324 61.2362 119.469 61.0903 119.469 60.9078V60.2144C119.469 60.032 119.324 59.886 119.142 59.886H111.691C111.51 59.886 111.364 60.032 111.364 60.2144V60.9078C111.328 61.0903 111.473 61.2362 111.691 61.2362Z" fill="#666666"/>
<path opacity="0.15" d="M70.366 61.2362H77.8169C77.9986 61.2362 78.144 61.0903 78.144 60.9078V60.2144C78.144 60.032 77.9986 59.886 77.8169 59.886H70.366C70.1842 59.886 70.0389 60.032 70.0389 60.2144V60.9078C70.0025 61.0903 70.1842 61.2362 70.366 61.2362Z" fill="#666666"/>
<path d="M119.106 56.7475L84.8315 57.076C84.8315 57.076 82.7962 57.003 82.5054 55.0323C82.2146 53.0252 82.251 44.4492 82.251 44.4492C82.251 44.4492 82.5054 42.734 84.0683 42.6975C85.0133 42.6975 93.0457 42.0771 100.86 43.0624C107.221 43.8653 114.163 46.9308 118.633 51.6019L120.996 54.0835C121.032 54.0835 122.595 56.711 119.106 56.7475Z" fill="white" stroke="#D6D6D8" stroke-miterlimit="10" stroke-linecap="round" stroke-linejoin="round"/>
<path d="M78.5802 45.544V54.5214C78.5802 55.6892 77.7079 56.6381 76.6539 56.7111L49.14 57.8789C48.5584 57.9154 47.9405 57.6234 47.6134 57.076C47.1409 56.3461 47.1046 55.1783 49.4307 53.5726C53.5015 50.7991 65.2776 44.7412 69.0939 44.1573C71.5291 43.7923 74.7276 43.6099 76.7266 43.5734C77.7443 43.5369 78.5802 44.4127 78.5802 45.544Z" fill="white" stroke="#D6D6D8" stroke-miterlimit="10" stroke-linecap="round" stroke-linejoin="round"/>
<path d="M54.3736 27.1147C54.3736 27.1147 48.9944 32.5888 48.74 34.8514C48.4492 37.114 51.5387 40.6904 51.5387 40.6904L54.3736 27.1147Z" fill="#03B3E2"/>
<path d="M57.4268 89.1904C57.4268 89.1904 57.6448 92.4018 58.2627 92.4383C58.3354 92.4383 61.3885 92.4383 61.3885 92.4383L65.2775 92.4018C65.2775 92.4018 65.2411 91.453 64.1144 91.2705C62.9877 91.088 61.0614 90.2852 60.3708 88.7525C59.6439 87.1832 57.4268 89.1904 57.4268 89.1904Z" fill="black"/>
<path d="M48.7764 89.2269C48.7764 89.2269 48.9944 92.4383 49.6123 92.4748C49.685 92.4748 52.7381 92.4748 52.7381 92.4748L56.6271 92.4383C56.6271 92.4383 56.5908 91.4895 55.464 91.307C54.3373 91.1245 52.411 90.3217 51.7204 88.7889C50.9935 87.1832 48.7764 89.2269 48.7764 89.2269Z" fill="black"/>
<path d="M61.6792 54.7404C61.6792 54.7404 60.6615 61.2727 56.8815 72.9142C53.1015 84.5191 52.5927 89.5553 52.5927 89.5553L48.5219 89.4458C48.5219 89.4458 48.4492 76.746 50.1938 70.907C51.9384 65.0681 50.5209 49.8502 50.5209 49.8502L61.6792 54.7404Z" fill="black"/>
<path d="M63.6418 50.1787C63.6418 50.1787 63.8235 60.032 62.1516 72.1479C60.4797 84.2637 61.0612 89.4093 61.0612 89.4093L56.9905 89.5553C56.9905 89.5553 54.5189 77.4394 55.2095 71.3815C55.9001 65.3236 51.8293 50.6166 51.8293 50.6166L63.6418 50.1787Z" fill="black"/>
<path d="M55.7185 27.1148L57.8993 28.538L61.025 27.9541C60.9887 27.6987 60.7706 26.6403 60.5889 25.6915C60.5889 25.6185 60.5525 25.582 60.5525 25.509C60.4071 24.7062 60.2618 24.0128 60.2618 24.0128L57.3177 22.7355L56.2273 22.2611C56.2273 22.2611 56.3 23.1734 56.3364 23.2829C56.5181 25.582 55.7185 27.1148 55.7185 27.1148Z" fill="#FFB27D"/>
<path d="M60.2254 26.3848C60.1527 26.3483 56.4454 25.2535 56.0456 25.3995C55.6458 25.5455 55.3914 26.3118 55.3914 26.3118L61.4611 27.6621C61.4611 27.6986 60.9886 26.7133 60.2254 26.3848Z" fill="#03B3E2"/>
<path d="M50.2666 51.4195C50.8844 54.3025 61.3884 54.6309 64.078 52.0034C64.3688 51.7114 64.4052 50.3247 64.2598 48.4635C64.0417 44.8141 63.2784 39.3036 63.2421 36.4936C63.2421 35.1433 63.024 33.7566 62.7696 32.4793C62.2244 29.7788 61.4248 27.6986 61.4248 27.6986C61.4248 27.6986 56.3 26.0564 55.355 26.3484C50.8117 27.6986 49.6487 48.5365 50.2666 51.4195Z" fill="#00BDFF"/>
<path d="M64.296 48.427C64.0779 44.7776 63.3146 39.2671 63.2783 36.4571C63.2783 35.1068 63.0602 33.7201 62.8058 32.4428L59.7164 31.8954C59.7527 31.9319 56.3362 45.0331 64.296 48.427Z" fill="#03B3E2"/>
<path d="M62.5879 43.3544C62.5879 43.3544 62.3698 43.8653 62.8059 44.1937C63.2421 44.5222 63.5329 45.0696 63.4238 45.471C63.3148 45.8724 62.3698 46.5293 62.0063 46.4199C61.6792 46.3104 60.9886 45.7995 61.0613 45.5805C61.134 45.3615 60.5888 43.7193 61.4248 43.0989C62.2971 42.4785 62.5879 43.3544 62.5879 43.3544Z" fill="#FFB27D"/>
<path d="M59.2075 27.1147C59.2075 27.1147 62.1152 27.5162 64.5141 31.0196C66.9129 34.5594 68.4758 37.187 68.0396 38.4643C67.6035 39.7415 63.6054 44.1573 62.9148 44.1573C62.2243 44.1573 61.0975 43.6463 61.0248 42.515C61.0248 42.515 63.5691 37.9898 62.9875 37.3694C62.7331 37.114 59.6073 34.5594 59.0985 35.8367C58.3352 37.9533 59.2075 27.1147 59.2075 27.1147Z" fill="#00BDFF"/>
<path d="M56.5544 23.3194C57.2086 24.4142 59.6074 25.363 60.5888 25.6915C60.5888 25.6185 60.5524 25.582 60.5524 25.509C60.407 24.7061 60.2617 24.0128 60.2617 24.0128L57.3176 22.7355C56.6634 22.7355 56.2636 22.8814 56.5544 23.3194Z" fill="#FCA56B"/>
<path d="M60.2981 24.9251C60.2981 24.9251 55.3913 24.5237 55.6821 21.4582C55.9729 18.3927 55.5367 16.2761 58.6988 16.3856C61.8609 16.4951 62.3334 17.7359 62.5152 18.7942C62.6242 19.8525 61.5702 24.9616 60.2981 24.9251Z" fill="#FFB27D"/>
<path d="M62.4062 18.4657C62.4062 18.4657 60.8433 21.5312 60.2254 21.1298C59.6075 20.7284 59.0623 20.3634 58.7716 21.3852C58.4808 22.3706 58.9533 23.8668 56.8452 23.2099C54.7372 22.553 53.9375 16.1302 54.8825 15.3638C57.6812 13.1742 66.1498 15.9112 62.4062 18.4657Z" fill="black"/>
<path d="M66.3678 2.95599H63.8962C61.2066 2.95599 59.0259 5.14561 59.0259 7.84614C59.0259 10.5467 61.2066 12.7363 63.8962 12.7363H64.2234V14.561L66.0407 12.7363H66.3678C69.0574 12.7363 71.2381 10.5467 71.2381 7.84614C71.2381 5.1821 69.0574 2.95599 66.3678 2.95599Z" fill="#FFCD1C"/>
<path d="M64.187 4.92664H65.8953L65.7862 8.68548H64.3324L64.187 4.92664ZM65.0593 9.37886C65.4955 9.37886 65.8953 9.74379 65.8953 10.2182C65.8953 10.6561 65.5318 11.0576 65.0593 11.0576C64.5868 11.0576 64.2234 10.6926 64.2234 10.2182C64.2234 9.74379 64.5868 9.37886 65.0593 9.37886Z" fill="black"/>
</svg>
