<svg width="48" height="48" viewBox="0 0 48 48" fill="none" xmlns="http://www.w3.org/2000/svg">
<circle cx="24" cy="24" r="24" fill="#F9E900"/>
<path fill-rule="evenodd" clip-rule="evenodd" d="M17.5464 23.4528L22.9806 19.8756L20.7132 18.2727L23.7701 16.2099L30.0195 20.4751L19.7305 27.4777L21.8486 28.9711L34.797 20.4751L24.0005 13.0904L13.1508 20.3284L17.5464 23.4528ZM25.899 19.0711L28.1317 20.5545L17.7742 27.4377L24.1732 31.7707L27.0287 29.7912L24.914 28.2837L30.261 24.6323L34.7096 27.7175L23.8629 34.9089L13.1602 27.6135L25.899 19.0711ZM17.4267 31.8952L15.3231 30.3457L13.0898 31.85V34.8285L17.4267 31.8952ZM30.307 16.1312L32.5216 17.694L34.7396 16.2596V13.1121L30.307 16.1312Z" fill="#2D589D"/>
</svg>
