<svg width="48" height="48" viewBox="0 0 48 48" fill="none" xmlns="http://www.w3.org/2000/svg">
<circle cx="24" cy="24" r="24" fill="#D20D2A"/>
<path fill-rule="evenodd" clip-rule="evenodd" d="M22.0037 15.53C26.376 13.9067 30.7214 16.9164 30.7214 16.9164C30.7214 16.9164 29.29 14.7304 26.567 13.849C25.4776 13.391 19.5277 12.6586 17.1243 17.4164C17.1014 17.4619 17.0789 17.5073 17.057 17.5527C14.9495 18.2544 13.8127 19.1123 13.8127 19.1123C13.8127 19.1123 15.0928 18.7652 16.6882 18.4477C15.1718 22.8568 18.0193 27.0932 19.6249 27.5461C19.1832 26.6766 18.4381 24.6324 18.2765 23.9164C17.8302 21.9383 17.9761 19.769 18.9568 18.0698C19.7876 17.9642 20.589 17.9073 21.245 17.9444C23.2474 18.0574 25.3066 18.2238 27.4438 19.1123C34.7901 22.1664 29.1 27.3108 29.1 27.3108C29.1 27.3108 29.8232 27.5653 32.2992 25.7618C34.7751 23.9583 34.6041 18.4626 26.5683 17.0064C23.9743 16.5363 21.7258 16.5892 19.8701 16.8764C20.4347 16.313 21.1408 15.8504 22.0037 15.53ZM21.5828 26.9242H23.0953V34.4869H21.5828V26.9242ZM26.8262 23.6975H24.4062V34.4869H26.8262V23.6975Z" fill="white"/>
</svg>
