<svg width="48" height="48" viewBox="0 0 48 48" fill="none" xmlns="http://www.w3.org/2000/svg">
<circle cx="24" cy="24" r="24" fill="#FF8200"/>
<path fill-rule="evenodd" clip-rule="evenodd" d="M23.1556 21.6643V19.2001L21.5667 20.0426V25.8845C21.5667 25.8845 21.6873 27.5476 23.3564 27.7894C24.8144 27.982 25.8482 27.2281 25.8482 27.2281L25.2642 25.9799C25.2642 25.9799 24.5381 26.336 23.8972 26.336C23.2564 26.336 23.1967 25.5274 23.1967 25.5274V23.2028H25.1688V21.6643H23.1556ZM15.1718 27.6177H16.7752V23.0819H18.2535C18.2535 23.0819 18.5079 23.1486 18.6737 23.3173C18.8394 23.486 18.9219 23.7622 18.9219 23.7622V27.6171H20.5142V23.5671C20.5142 23.5671 20.193 22.0737 18.7126 21.5824C17.9042 21.3072 15.1718 21.794 15.1718 21.794V27.6177ZM13.7172 21.7009H12V27.7112H13.7172V21.7009ZM27.9552 24.5785L28.6671 25.877L31.2943 24.5001C31.2943 24.5001 31.3109 22.5852 30.3501 22.0339C29.4739 21.5312 29.0896 21.5357 28.3801 21.5439C28.3117 21.5447 28.2402 21.5456 28.165 21.546C27.3099 21.5507 25.7925 22.2616 25.7925 24.281C25.7925 26.3003 25.9976 26.7535 26.9251 27.3651C27.8527 27.9767 30.1689 27.8708 31.2122 27.4632C31.1407 27.1247 30.7843 26.0224 30.7843 26.0224C30.7843 26.0224 29.0198 26.36 28.3546 26.2201C27.6893 26.0801 27.484 25.1133 27.484 25.1133V24.1208C27.484 24.1208 27.6162 23.0963 28.491 23.0455C29.3658 22.9946 29.611 23.3026 29.7548 23.6649C29.2538 23.9324 27.9552 24.5785 27.9552 24.5785ZM36 21.7289L35.4527 23.2202C35.4527 23.2202 35.0376 23.0801 34.6198 23.0514C34.202 23.0226 33.853 23.11 33.853 23.11V27.6876H32.1874V21.815C32.1874 21.815 32.1874 21.7289 33.5945 21.5746C35.0017 21.4202 36 21.7289 36 21.7289Z" fill="white"/>
</svg>
