<svg width="48" height="48" viewBox="0 0 48 48" fill="none" xmlns="http://www.w3.org/2000/svg">
<circle cx="24" cy="24" r="24" fill="#EC7600"/>
<path fill-rule="evenodd" clip-rule="evenodd" d="M15.6552 12H32.3448C34.3635 12 36 13.6365 36 15.6552V32.3448C36 34.3635 34.3635 36 32.3448 36H15.6552C13.6365 36 12 34.3635 12 32.3448V15.6552C12 13.6365 13.6365 12 15.6552 12Z" fill="#1D3F89"/>
<path fill-rule="evenodd" clip-rule="evenodd" d="M30.2825 25.7671H31.616L33.1447 24H31.4804L30.2825 25.7671ZM16 24.0311H13.8621V32.3069H16V24.0311ZM24.1119 27.2747C22.6935 27.2257 22.1827 27.7054 22.1827 27.7054L21.6147 26.5927C21.6147 26.5927 22.2987 26.1961 22.6576 26.0766C23.0165 25.9571 24.308 25.6487 25.4989 26.098C26.264 26.4052 26.7839 26.9114 26.9464 27.9399C26.9699 29.0685 26.9464 32.204 26.9464 32.204H25.1243V31.6334C25.1243 31.6334 25.1243 31.7205 24.432 32.0507C23.7398 32.3808 22.6009 32.3177 22.0319 31.8685C21.4628 31.4192 20.964 30.8485 21.2828 29.7323C21.6016 28.6161 22.7905 28.2823 23.1767 28.2137C23.5629 28.145 25.0706 28.1739 25.0706 28.1739C25.0706 28.1739 25.025 27.3158 24.1119 27.2747ZM25.1351 29.3045V30.2933C25.1351 30.2933 24.1554 31.4714 23.3427 30.9035C22.9522 30.6306 22.933 30.233 23.0939 29.9114C23.2678 29.5637 23.6727 29.3134 23.9467 29.3045C24.4743 29.2874 25.1351 29.3045 25.1351 29.3045ZM34.1025 26.1328H32.1061C32.1061 26.1328 32.1374 28.9065 32.1061 29.5715C32.0749 30.2366 31.9106 30.7334 30.9974 30.8164C30.0895 30.8988 29.9078 30.1323 29.8647 29.9506L29.864 29.9475C29.8063 28.2083 29.8242 26.1328 29.8242 26.1328H27.9492C27.9492 26.1328 27.88 29.7887 28.0309 30.7534C28.1817 31.7181 29.2921 32.1659 30.4703 32.2056C31.6485 32.2454 32.3111 31.3078 32.3111 31.3078V32.2391H34.1025V26.1328ZM19.4379 30.0985V27.4944L20.6169 27.508V26.0881H19.4536V24.0437H17.5824V26.1048H16.6651V27.4944H17.5736V29.136C17.4373 30.799 17.8974 31.7301 18.4808 32.0765C19.0642 32.4228 20.543 32.1093 20.543 32.1093V30.7474C20.5505 30.7434 20.543 30.7396 20.543 30.7396V30.7474C20.527 30.7559 20.4424 30.7652 20.0705 30.7396C19.524 30.7019 19.4379 30.0985 19.4379 30.0985Z" fill="#F4E800"/>
</svg>
