<svg width="48" height="48" viewBox="0 0 48 48" fill="none" xmlns="http://www.w3.org/2000/svg">
<circle cx="24" cy="24" r="24" fill="#F4F4F4"/>
<circle cx="24" cy="24" r="16" fill="#F4F4F4"/>
<rect opacity="0.01" x="16" y="16" width="16" height="16" fill="#FF0202" fill-opacity="0.09"/>
<path fill-rule="evenodd" clip-rule="evenodd" d="M23.4103 20.2901C22.7239 19.2009 21.7021 18.5985 20.3654 18.4921C19.2431 18.4441 18.6614 19.0591 18.6893 20.228C18.0779 20.2921 17.6399 20.4429 17.3681 20.6971C17.1642 20.8878 17.0271 21.0816 16.9549 21.2818C16.9054 21.419 16.8904 21.5328 16.8986 21.7106V27.1297C16.8986 27.4497 17.1516 27.7092 17.4636 27.7092H18.6834C18.9954 27.7092 19.2483 27.4497 19.2483 27.1297L19.2475 20.728L19.3353 20.7251C19.7321 20.7126 19.9876 20.7206 20.3204 20.7575C20.353 20.7611 20.4474 20.7798 20.5881 20.8111C21.0419 20.9123 21.3656 21.3241 21.3656 21.8004V27.0791C21.3656 27.4238 21.638 27.7032 21.9741 27.7032H23.0562C23.3925 27.7032 23.6647 27.4236 23.6647 27.0781L23.6517 21.1261C23.6511 20.8294 23.5672 20.5392 23.4103 20.2901ZM19.1554 20.3754L19.1715 20.3749L19.3247 20.3697C19.7366 20.3567 20.008 20.3652 20.3577 20.404C20.4072 20.4095 20.5081 20.4295 20.6617 20.4637C21.2749 20.6003 21.7123 21.1569 21.7123 21.8004V27.0791C21.7123 27.2274 21.8295 27.3477 21.9741 27.3477H23.0562C23.2009 27.3477 23.318 27.2274 23.318 27.0785L23.305 21.1269C23.3045 20.8984 23.24 20.675 23.1191 20.4831C22.4926 19.4889 21.5694 18.9445 20.3448 18.847C19.3891 18.8061 18.9662 19.299 19.0435 20.3771C19.0832 20.378 19.1153 20.3768 19.1471 20.3757L19.1554 20.3754ZM17.6017 20.9598C17.4361 21.1146 17.3314 21.2627 17.28 21.4051C17.2475 21.4951 17.2388 21.5615 17.2437 21.6666L17.2437 21.6666C17.2447 21.6862 17.245 21.6928 17.2451 21.6993L17.2453 21.7106V27.1297C17.2453 27.2534 17.343 27.3536 17.4636 27.3536H18.6834C18.8039 27.3536 18.9017 27.2534 18.9017 27.1297L18.9025 20.682C18.8976 20.6471 18.8932 20.6126 18.8892 20.5786C18.2536 20.6152 17.828 20.7482 17.6017 20.9598ZM18.8745 20.3907L19.04 20.3782L19.0594 20.5472L19.0605 20.5565L19.0524 20.5569L18.884 20.5653L18.8712 20.3929L18.871 20.3909L18.8745 20.3907ZM20.3567 18.6704C19.288 18.6253 18.784 19.2164 18.871 20.3909C18.2134 20.4409 17.7494 20.5821 17.4854 20.829C17.3022 21.0004 17.1806 21.1706 17.1181 21.3437C17.0773 21.4568 17.0654 21.5487 17.0713 21.6751L17.0721 21.692L17.0727 21.7106V27.1297C17.0727 27.3511 17.2477 27.5306 17.4636 27.5306H18.6834C18.8992 27.5306 19.0743 27.3511 19.0743 27.1297V20.6758C19.0699 20.6355 19.0664 20.6066 19.0635 20.5817L19.0605 20.5565C19.0937 20.5549 19.1284 20.5535 19.1773 20.5518L19.33 20.5466C19.7348 20.5339 19.9979 20.5421 20.3391 20.58C20.3795 20.5845 20.475 20.6033 20.6251 20.6367C21.1589 20.7556 21.5397 21.2402 21.5397 21.8004V27.0791C21.5397 27.3252 21.7341 27.5247 21.9741 27.5247H23.0562C23.2961 27.5247 23.4906 27.3252 23.4906 27.0791L23.4874 25.5905L23.4776 21.1265C23.4771 20.8641 23.4029 20.6074 23.2641 20.387C22.6079 19.3457 21.636 18.7727 20.3567 18.6704ZM17.719 21.0917C17.8933 20.9287 18.2335 20.8145 18.7293 20.7608L18.7276 27.1297C18.7276 27.1548 18.7078 27.1751 18.6834 27.1751H17.4636C17.4391 27.1751 17.4193 27.1548 17.4193 27.1297V21.7106L17.4192 21.6958L17.4187 21.6811L17.4176 21.6579C17.4138 21.5771 17.4196 21.5327 17.4432 21.4671C17.4846 21.3524 17.5739 21.2274 17.719 21.0917ZM20.3764 20.2265C20.0182 20.1868 19.7394 20.1781 19.3194 20.1912L19.2083 20.1949C19.1881 19.3468 19.5405 18.9918 20.3361 19.0253C21.5032 19.1187 22.3766 19.6336 22.9729 20.58C23.0757 20.7431 23.1306 20.9331 23.131 21.1273L23.1407 25.5913L23.144 27.0792C23.144 27.1288 23.1047 27.1691 23.0562 27.1691H21.9741C21.9256 27.1691 21.8863 27.1288 21.8863 27.0791V21.8004C21.8863 21.0729 21.3919 20.4437 20.6987 20.2892C20.5361 20.253 20.4334 20.2328 20.3764 20.2265Z" fill="#6F1A7B"/>
<path fill-rule="evenodd" clip-rule="evenodd" d="M28.9409 28.9527C29.091 28.7396 29.1741 28.5154 29.2027 28.2553C29.2169 28.1263 29.2184 28.0279 29.2102 27.8C29.64 27.7613 29.9854 27.6731 30.2704 27.5272C30.8053 27.2533 31.073 26.8235 31.0371 26.276L31.0375 20.6662C31.0375 20.4448 30.8625 20.2653 30.6466 20.2653L29.0733 20.2653C28.8574 20.2653 28.6824 20.4448 28.6824 20.6662L28.6827 27.2889C28.54 27.2896 28.3872 27.2862 28.2232 27.2788C27.8018 27.2598 27.2091 27.1446 27.078 27.0613C26.7089 26.8267 26.5302 26.45 26.5358 25.8964L26.5358 20.6617C26.5358 20.4403 26.3608 20.2608 26.1449 20.2608H24.6391C24.4232 20.2608 24.2482 20.4403 24.2482 20.6617L24.2482 26.6969C24.2141 27.33 24.4883 27.9613 25.0569 28.5748C25.3567 28.8983 25.7332 29.1343 26.1815 29.2873C26.4582 29.3817 26.7556 29.4426 27.0811 29.4739C27.2907 29.494 27.4518 29.4999 27.755 29.4999C28.0204 29.4999 28.1638 29.4833 28.3289 29.428C28.5715 29.3467 28.7736 29.1903 28.9409 28.9527ZM28.2079 27.634C27.7305 27.6124 27.0918 27.4884 26.8953 27.3635C26.4172 27.0596 26.1823 26.5646 26.1891 25.8945L26.1891 20.6617C26.1891 20.6367 26.1693 20.6164 26.1449 20.6164H24.6391C24.6147 20.6164 24.5949 20.6367 24.5949 20.6617L24.5946 26.7066C24.566 27.242 24.8006 27.7823 25.3081 28.3298C25.5672 28.6094 25.8947 28.8147 26.2909 28.9499C26.5414 29.0354 26.8131 29.091 27.1134 29.1199C27.3108 29.1388 27.4617 29.1443 27.755 29.1443C27.9871 29.1443 28.0972 29.1316 28.2212 29.0901C28.3922 29.0328 28.5344 28.9227 28.6599 28.7446C28.7746 28.5815 28.8362 28.4154 28.8582 28.2154C28.8706 28.1025 28.8714 28.0164 28.8626 27.7823C28.8603 27.7195 28.8589 27.679 28.8581 27.6444L29.0305 27.6341L29.0306 27.6379C29.0314 27.6719 29.0327 27.7119 29.0351 27.7755C29.0441 28.0154 29.0434 28.1115 29.0297 28.2353C29.0044 28.465 28.9321 28.6602 28.7998 28.8482C28.6541 29.0551 28.4825 29.1888 28.2748 29.2584C28.1296 29.307 27.9996 29.3214 27.7492 29.3214C27.4572 29.3214 27.3004 29.3157 27.0973 29.2961C26.785 29.2661 26.5002 29.2079 26.2364 29.1179C25.8151 28.9741 25.4627 28.7536 25.183 28.4518C24.6465 27.873 24.3899 27.2865 24.4222 26.7018V20.6617C24.4222 20.5389 24.5193 20.4393 24.6391 20.4393H26.1449C26.2646 20.4393 26.3617 20.5389 26.3617 20.6617L26.3617 25.8954C26.3555 26.5099 26.564 26.9447 26.9863 27.213C27.1471 27.3153 27.7542 27.4363 28.2155 27.4572C28.4486 27.4677 28.6599 27.4702 28.8524 27.4647L28.8568 27.4645L28.8568 27.6416C28.6599 27.6473 28.4446 27.6447 28.2079 27.634ZM28.8568 27.6416L28.858 27.6415L28.8581 27.6444L28.8568 27.6445V27.6416ZM28.8568 27.4645L29.0262 27.4596L29.0305 27.6341L29.0402 27.6336C29.5212 27.605 29.8955 27.5197 30.1927 27.3675C30.6662 27.125 30.8955 26.7607 30.8633 26.2849L30.8635 20.6662C30.8635 20.5433 30.7664 20.4438 30.6466 20.4438L29.0733 20.4438C28.9536 20.4438 28.8565 20.5433 28.8565 20.6662L28.8568 27.4561V27.4645ZM30.1156 27.2091C30.5308 26.9965 30.7172 26.697 30.6909 26.2879V20.6662C30.6909 20.6411 30.671 20.6208 30.6466 20.6208H29.0733C29.0489 20.6208 29.0291 20.6411 29.0291 20.6662L29.0294 27.4569C29.4916 27.4296 29.8428 27.3488 30.1156 27.2091ZM26.8036 27.5153C27.029 27.6585 27.6835 27.789 28.2003 27.8124C28.3743 27.8203 28.5371 27.8238 28.69 27.823C28.697 28.0211 28.6959 28.0989 28.6853 28.1954C28.6666 28.3651 28.6158 28.5022 28.5187 28.64C28.4148 28.7877 28.3028 28.8749 28.1672 28.9204C28.0637 28.955 27.9662 28.9658 27.7492 28.9658C27.4671 28.9658 27.3204 28.9605 27.1297 28.9421C26.8425 28.9145 26.5833 28.8615 26.3459 28.7805C25.9766 28.6545 25.6732 28.4647 25.4343 28.2068C24.9588 27.6938 24.742 27.1983 24.7686 26.7118L24.7689 20.7949H26.0151V25.8936C26.0076 26.6249 26.2728 27.1779 26.8036 27.5153ZM30.517 26.2972C30.5394 26.6339 30.392 26.868 30.0378 27.0494C29.824 27.1588 29.5517 27.2297 29.2035 27.2642L29.2032 20.7993H30.5168L30.517 26.2972Z" fill="#6F1A7B"/>
</svg>
