<svg width="48" height="48" viewBox="0 0 48 48" fill="none" xmlns="http://www.w3.org/2000/svg">
<circle cx="24" cy="24" r="24" fill="#0068AE"/>
<rect opacity="0.01" x="12" y="12" width="24" height="24" rx="8" fill="#FF0000"/>
<path fill-rule="evenodd" clip-rule="evenodd" d="M13.6301 29.4663C14.0885 29.4663 14.4602 29.0947 14.4602 28.6363V27.7383C14.4602 26.6859 15.4114 25.9086 16.4478 25.726C16.5501 25.708 16.6513 25.6863 16.7501 25.6603C18.8901 25.1457 19.5233 23.623 19.3882 21.8993C19.2532 20.1757 17.5779 19.335 15.8873 19.2241C14.0482 19.1034 12.8 20.7836 12.8 22.6267V28.6363C12.8 29.0947 13.1717 29.4663 13.6301 29.4663ZM16.3199 20.7161C15.2627 20.5442 14.4498 21.5018 14.4498 22.573V22.9475C14.4498 23.78 15.0621 24.4602 15.8946 24.4602C16.2167 24.4602 16.5166 24.3452 16.776 24.1879C17.506 23.7455 17.9273 22.8763 17.7919 22.0336C17.7433 21.7306 17.6306 21.4249 17.4045 21.1811C17.168 20.926 16.7593 20.7875 16.3199 20.7161ZM22.874 23.646C23.0344 24.0609 23.4989 24.2694 23.9155 24.1134C24.3535 23.9493 24.5625 23.4499 24.3719 23.0228L23.6219 21.342C23.6127 21.3214 23.6033 21.301 23.5924 21.2813C23.5169 21.146 23.1666 20.5957 22.4589 20.5957C22.0842 20.5957 21.799 20.7268 21.6012 20.8673C21.3403 21.0526 21.198 21.3517 21.0731 21.6463L18.2294 28.3489C18.0042 28.8797 18.3938 29.4681 18.9704 29.4681C19.309 29.4681 19.6114 29.2562 19.727 28.9379L19.7913 28.7608C19.8403 28.6256 19.9151 28.5024 20.0185 28.4024C20.3182 28.1126 21.0431 27.4634 22.0519 26.9007C23.0669 26.3346 24.2529 26.9543 24.6767 28.0365C24.8107 28.3786 24.9353 28.695 25.0331 28.9428C25.1584 29.2602 25.465 29.4681 25.8063 29.4681C26.4037 29.4681 26.8068 28.8576 26.5721 28.3082L25.7921 26.4825C25.6426 26.1326 25.7413 25.7517 26.12 25.7148C26.4326 25.6844 26.8148 25.4145 26.8148 25.1004V24.8492C26.8148 24.3715 26.4113 23.9977 25.9391 24.0703C25.1009 24.1991 23.8281 24.474 22.8852 25.0319C22.3528 25.3469 21.4335 24.6486 21.6639 24.0745L22.1611 22.8357C22.1655 22.8247 22.1701 22.8139 22.1754 22.8033C22.2001 22.7545 22.281 22.6099 22.3734 22.6099C22.4553 22.6099 22.5148 22.7233 22.5405 22.7832C22.5507 22.807 22.5592 22.8313 22.5685 22.8554L22.874 23.646ZM28.2093 29.468C28.6648 29.468 29.0341 29.0987 29.0341 28.6432V26.5664C29.0341 25.5195 30.4212 25.1499 30.9422 26.0579C30.9502 26.0718 30.9568 26.0839 30.9642 26.0982C31.0979 26.3563 32.5376 29.104 33.3451 29.3905C34.3948 29.7631 35.1956 28.6276 35.1956 27.5137V21.4897C35.1956 21.0532 34.8417 20.6994 34.4052 20.6994C33.9687 20.6994 33.6149 21.0532 33.6149 21.4897V22.1052C33.6149 23.5499 31.6972 24.055 30.9856 22.7977L30.8396 22.5398C30.823 22.5104 30.8076 22.4808 30.7925 22.4506C30.6858 22.2354 30.213 21.3123 29.8255 21.043C29.3859 20.7375 28.9856 20.5957 28.4945 20.5957C27.8027 20.5957 27.3845 21.3001 27.3845 21.9919V28.6432C27.3845 29.0987 27.7537 29.468 28.2093 29.468Z" fill="white"/>
</svg>
