<svg width="48" height="48" viewBox="0 0 48 48" fill="none" xmlns="http://www.w3.org/2000/svg">
<circle cx="24" cy="24" r="24" fill="#FF0A00"/>
<rect opacity="0.01" x="12" y="12" width="24" height="24" fill="#FF5A5A"/>
<path fill-rule="evenodd" clip-rule="evenodd" d="M21.9195 18.1383C21.9195 18.1383 21.3271 18.6674 21.1456 19.0736C20.6436 20.1971 20.7529 21.6014 21.5076 22.7158C22.3131 23.9054 22.9908 24.7133 23.5931 25.5776C24.6827 27.1412 25.1162 28.808 23.8259 30.139C23.7319 28.5731 22.4006 27.2023 22.4006 27.2023C22.4006 27.2023 19.9424 24.3354 19.8092 23.3318C18.4163 23.5453 17.0101 24.2416 15.4054 25.2466C14.4986 25.92 12.8151 27.2026 14.0149 29.3958C15.2146 31.5891 19.7084 32.9285 21.8439 32.9807C22.6646 33.0007 23.9241 33.118 25.3361 33.0302C27.5979 32.8897 30.2511 32.3713 32.1194 31.1993C35.1542 29.2958 34.9885 26.7307 32.6237 25.0793C31.6335 24.3879 30.6838 23.9878 29.7881 23.7054C29.2577 23.5381 28.1893 23.3318 28.1893 23.3318C28.1893 23.3318 28.5325 21.7447 27.4057 20.4091C26.279 19.0736 23.7352 16.1983 24.346 14.4C23.6784 14.563 22.3952 16.79 24.0996 19.4369C25.804 22.0839 26.5798 22.3197 26.8616 23.6995C27.1433 25.0793 26.7265 26.517 26.044 26.7409C26.31 25.3557 25.4169 24.5303 25.0466 23.8034C24.6764 23.0765 22.3635 21.301 22.057 19.4369C21.957 18.8929 21.9195 18.1383 21.9195 18.1383Z" fill="white"/>
</svg>
