<svg width="48" height="48" viewBox="0 0 48 48" fill="none" xmlns="http://www.w3.org/2000/svg">
<rect width="48" height="48" rx="8" fill="#0B606E"/>
<circle cx="24" cy="24" r="24" fill="#0B606E"/>
<path fill-rule="evenodd" clip-rule="evenodd" d="M27.0683 23.1963L21.9973 14.3594H34.1861C34.8351 14.3594 35.3612 14.876 35.3612 15.5133C35.3612 15.7107 35.3096 15.9049 35.2114 16.0771L31.1117 23.1802L27.0683 23.1963Z" fill="#00A495"/>
<path fill-rule="evenodd" clip-rule="evenodd" d="M31.1299 23.1802L25.057 33.8221C24.9709 33.9731 24.8506 34.1005 24.7063 34.1934C24.2113 34.5122 23.5586 34.3581 23.2486 33.8491L18.707 26.3942L20.6143 23.1802H31.1299Z" fill="#C8D500"/>
<path fill-rule="evenodd" clip-rule="evenodd" d="M18.7595 26.4643L12.5393 16.207C12.423 16.0152 12.3613 15.7937 12.3613 15.5677C12.3613 14.9004 12.8875 14.3594 13.5365 14.3594H22.0594L23.9701 17.6949L18.7595 26.4643Z" fill="#76BA00"/>
<rect opacity="0.01" x="12" y="12" width="24" height="24" fill="#FF5A5A" fill-opacity="0.322634"/>
</svg>
