<svg width="115" height="84" viewBox="0 0 115 84" fill="none" xmlns="http://www.w3.org/2000/svg">
<path opacity="0.1" d="M92.9191 79.1212C92.9233 79.1205 19.8794 79.1198 19.8836 79.1185H110.316C113.475 57.1705 97.5403 60.296 101.469 40.794C101.886 38.7242 102.175 36.7509 102.347 34.8727C102.37 34.8699 102.392 34.8672 102.414 34.8644C103.068 28.2191 101.759 22.9204 101.183 20.9943C94.7151 -0.0742583 66.9637 0.458113 57.002 14.5434C56.3021 15.5325 55.6085 16.4119 54.9205 17.1927C52.9191 19.7713 49.4915 21.4774 48.0061 22.1312V22.2034C43.1078 23.9185 38.7137 21.9667 35.1127 21.1997C24.16 18.8676 10.0827 23.3903 5.82648 37.3694C-0.703463 58.8162 6.68094 79.1191 6.68094 79.1191H19.3564C19.3578 79.1198 19.3585 79.1212 19.3599 79.1219" fill="#51BAF8"/>
<path d="M76.6488 10.2067H49.4601C48.8027 10.2067 48.1718 10.4669 47.7066 10.9306L28.4817 30.0932C28.0165 30.5568 27.7554 31.185 27.7554 31.8402V58.9397C27.7554 59.595 28.0165 60.2238 28.4817 60.6868L47.7073 79.8493C48.1725 80.313 48.8027 80.5733 49.4608 80.5733H76.6495C77.3069 80.5733 77.9378 80.313 78.4023 79.8493L97.6279 60.6868C98.0931 60.2231 98.3543 59.595 98.3543 58.9397V31.8409C98.3543 31.1857 98.0931 30.5568 97.6279 30.0939L78.4023 10.9313C77.9371 10.4676 77.3062 10.2067 76.6488 10.2067Z" fill="#FC4E69"/>
<path d="M74.7356 77.0514H51.3721C50.4202 77.0514 49.526 76.6822 48.8526 76.0117L32.3324 59.545C31.6597 58.8745 31.2886 57.9826 31.2886 57.0337V33.7469C31.2886 32.798 31.659 31.9068 32.3324 31.2356L48.8526 14.7696C49.526 14.0984 50.4202 13.7292 51.3721 13.7292H74.7356C75.6876 13.7292 76.5824 14.0984 77.2551 14.7696L93.7753 31.2356C94.448 31.9061 94.8192 32.798 94.8192 33.7469V57.0337C94.8192 57.9826 94.4487 58.8738 93.7753 59.545L77.2551 76.011C76.5824 76.6822 75.6876 77.0514 74.7356 77.0514ZM51.3728 16.1439C51.0685 16.1439 50.7816 16.2619 50.5664 16.4771L34.0455 32.9431C33.8304 33.1576 33.7113 33.4429 33.7113 33.7469V57.0337C33.7113 57.3371 33.8297 57.6223 34.0455 57.8375L50.5657 74.3042C50.7809 74.5187 51.0671 74.6367 51.3721 74.6367H74.7356C75.0407 74.6367 75.3269 74.5187 75.5421 74.3042L92.0622 57.8382C92.2774 57.6237 92.3958 57.3385 92.3958 57.0344V33.7469C92.3958 33.4436 92.2774 33.1583 92.0622 32.9431L75.5421 16.4771C75.3269 16.2626 75.04 16.1439 74.7356 16.1439H51.3728Z" fill="white"/>
<path d="M48.4064 38.9124V41.8643H42.3736V43.4156H48.0025V46.292H42.3736V47.9862H48.4906V50.9382H38.8145V38.9124H48.4064Z" fill="white"/>
<path d="M50.3418 50.9382V38.9124H55.6677C58.5451 38.9124 61.1197 39.9105 61.1197 43.1977C61.1197 44.7323 60.1858 45.9734 58.7722 46.5182L61.229 50.9375H57.401L55.3314 47.2227H53.901V50.9375H50.3418V50.9382ZM53.9003 44.5227H55.667C56.6259 44.5227 57.5263 44.3381 57.5263 43.1977C57.5263 42.0656 56.6176 41.8727 55.667 41.8727H53.9003V44.5227Z" fill="white"/>
<path d="M62.9111 50.9382V38.9124H68.237C71.1145 38.9124 73.689 39.9105 73.689 43.1977C73.689 44.7323 72.7551 45.9734 71.3415 46.5182L73.7983 50.9375H69.9703L67.9007 47.2227H66.4703V50.9375H62.9111V50.9382ZM66.4703 44.5227H68.237C69.196 44.5227 70.0964 44.3381 70.0964 43.1977C70.0964 42.0656 69.1876 41.8727 68.237 41.8727H66.4703V44.5227Z" fill="white"/>
<path d="M81.7578 38.5771C85.746 38.5771 88.3706 40.8829 88.3706 44.9253C88.3706 48.967 85.7453 51.2735 81.7578 51.2735C77.7697 51.2735 75.145 48.967 75.145 44.9253C75.1443 40.8836 77.7697 38.5771 81.7578 38.5771ZM78.7369 44.9253C78.7369 46.8118 79.7216 48.3215 81.7571 48.3215C83.7934 48.3215 84.7773 46.8118 84.7773 44.9253C84.7773 43.0387 83.7927 41.5291 81.7571 41.5291C79.7216 41.5291 78.7369 43.0387 78.7369 44.9253Z" fill="white"/>
<path d="M15.8021 31.9061C15.8021 31.9061 11.8962 35.8666 11.6963 37.5109C11.4964 39.1552 13.7214 41.722 13.7214 41.722L15.8021 31.9061Z" fill="#F9D562"/>
<path d="M18.0332 76.7724C18.0332 76.7724 18.1822 79.0893 18.6321 79.1219C18.692 79.1261 20.9134 79.1212 20.9134 79.1212L23.7498 79.099C23.7498 79.099 23.7296 78.4181 22.9002 78.2758C22.0708 78.1335 20.6822 77.5561 20.1774 76.4649C19.6474 75.3169 18.0332 76.7724 18.0332 76.7724Z" fill="black"/>
<path d="M11.7163 76.7856C11.7163 76.7856 11.8653 79.1024 12.3152 79.1351C12.3751 79.1392 14.5965 79.1344 14.5965 79.1344L17.4329 79.1115C17.4329 79.1115 17.4127 78.4306 16.5833 78.2883C15.7539 78.146 14.3653 77.5685 13.8605 76.4774C13.3305 75.33 11.7163 76.7856 11.7163 76.7856Z" fill="black"/>
<path d="M21.1203 51.8586C21.1203 51.8586 20.3891 56.5888 17.6398 64.9888C14.8912 73.3887 14.5221 77.0244 14.5221 77.0244L11.5534 76.948C11.5534 76.948 11.5082 67.7749 12.7742 63.5506C14.0402 59.327 13.0165 48.3326 13.0165 48.3326L21.1203 51.8586Z" fill="#6F64FF"/>
<path d="M22.5577 48.5707C22.5577 48.5707 22.6781 55.6963 21.4602 64.4481C20.2422 73.1999 20.6698 76.9126 20.6698 76.9126L17.7074 77.0174C17.7074 77.0174 15.9177 68.2691 16.4163 63.8886C16.9142 59.5082 13.9595 48.8671 13.9595 48.8671L22.5577 48.5707Z" fill="#9492F7"/>
<path d="M16.7861 31.9082L18.3669 32.9361L20.6469 32.5072C20.6148 32.324 20.4623 31.5632 20.3237 30.8747C20.3154 30.8337 20.307 30.7935 20.2994 30.7539C20.1803 30.1681 20.0779 29.6642 20.0779 29.6642L17.9456 28.732L17.1503 28.3843C17.1524 28.3968 17.213 29.0346 17.2221 29.1277C17.3753 30.7831 16.7861 31.9082 16.7861 31.9082Z" fill="#FFB27D"/>
<path d="M20.0606 31.3807C20.016 31.362 17.312 30.5735 17.0181 30.6706C16.7249 30.7678 16.5522 31.3349 16.5522 31.3349L20.9749 32.3212C20.9756 32.3212 20.6261 31.6167 20.0606 31.3807Z" fill="#F9D562"/>
<path d="M12.8221 49.4716C13.2845 51.5539 20.9098 51.7843 22.8708 49.8887C23.0936 49.6729 23.1027 48.6699 23.0157 47.3178C22.845 44.6768 22.3067 40.7045 22.2817 38.6742C22.2691 37.6942 22.1319 36.6912 21.9502 35.7813C21.563 33.8413 20.9753 32.3198 20.9753 32.3198C20.9753 32.3198 17.2489 31.128 16.5526 31.3335C13.1974 32.3247 12.359 47.3893 12.8221 49.4716Z" fill="#FFCD1C"/>
<path d="M23.0159 47.3185C22.8453 44.6775 22.307 40.7052 22.2819 38.675C22.2694 37.6949 22.1322 36.6919 21.9504 35.782L19.7095 35.3926C19.7088 35.3926 17.2387 44.8559 23.0159 47.3185Z" fill="#F9D562"/>
<path d="M21.7944 43.6391C21.7944 43.6391 21.6426 44.0035 21.9637 44.2464C22.2847 44.4901 22.4936 44.8857 22.4212 45.1744C22.3481 45.4639 21.6461 45.9372 21.4017 45.8616C21.1579 45.7859 20.6607 45.4063 20.7137 45.2536C20.7666 45.1009 20.3773 43.9153 20.9706 43.4579C21.5639 43.0005 21.7944 43.6391 21.7944 43.6391Z" fill="#FFB27D"/>
<path d="M19.3246 31.9138C19.3246 31.9138 21.4492 32.1928 23.1957 34.7464C24.9422 37.2999 26.0913 39.1983 25.773 40.1207C25.4541 41.0432 22.5383 44.2457 22.0342 44.2464C21.53 44.2478 20.7159 43.8841 20.6686 43.0623C20.6686 43.0623 22.5161 39.7924 22.1101 39.3329C21.9367 39.1365 19.6372 37.311 19.2821 38.2252C18.695 39.7369 19.3246 31.9138 19.3246 31.9138Z" fill="#FFCD1C"/>
<path d="M17.3821 29.1575C17.8514 29.9467 19.5965 30.6255 20.3243 30.8754C20.3159 30.8345 20.3075 30.7942 20.2999 30.7546C20.1808 30.1688 20.0784 29.6649 20.0784 29.6649L17.9461 28.7328C17.4747 28.7272 17.1885 28.8327 17.3821 29.1575Z" fill="#FCA56B"/>
<path d="M20.8814 29.5337C20.8814 29.5337 17.4518 30.6082 16.8132 28.469C16.1746 26.3298 15.302 25.0276 17.465 24.2516C19.628 23.4749 20.2986 24.1649 20.6858 24.827C21.0729 25.4892 21.7568 29.1991 20.8814 29.5337Z" fill="#FFB27D"/>
<path d="M20.5508 24.6209C20.5508 24.6209 20.3371 27.112 19.8203 27.0051C19.3036 26.8982 18.8343 26.8191 18.9116 27.5694C18.9889 28.3198 19.7075 29.1853 18.1149 29.322C16.5223 29.4581 14.2235 25.3692 14.6595 24.5932C15.9178 22.354 22.3698 21.8883 20.5508 24.6209Z" fill="black"/>
</svg>
