<svg width="75" height="75" viewBox="0 0 75 75" fill="none" xmlns="http://www.w3.org/2000/svg">
<g opacity="0.1">
<path d="M58.7382 67.3479H16.3341H68.836C70.6781 54.6185 61.4161 56.4346 63.7018 45.1308C63.9406 43.9258 64.1112 42.7886 64.2135 41.7024C64.2306 41.7024 64.2476 41.7024 64.2476 41.7024C64.6229 37.8496 63.8724 34.7776 63.5312 33.6574C59.7786 21.4372 43.6596 21.7596 37.8773 29.9234C37.4679 30.5005 37.0756 31.0097 36.6662 31.451C35.5063 32.9446 33.5107 33.929 32.6578 34.3193V34.3533C29.8093 35.3547 27.2677 34.2175 25.1697 33.7762C18.8074 32.4184 10.637 35.0491 8.16375 43.1451C4.37706 55.5859 8.6584 67.3479 8.6584 67.3479H16.0271" fill="#07BBFD"/>
</g>
<path d="M33.7518 17.6719C35.588 14.4847 40.2324 14.4847 42.1046 17.6719L54.9579 39.8394L67.8111 62.0069C69.6473 65.1941 67.3431 69.2051 63.6347 69.2051H37.9282H12.2217C8.51335 69.2051 6.20912 65.2299 8.0453 62.0069L20.8986 39.8394L33.7518 17.6719Z" fill="#FFCD1C"/>
<path d="M63.5989 68.0591H12.2579C10.9257 68.0591 9.73763 67.3787 9.08956 66.2327C8.4415 65.0868 8.4415 63.7259 9.08956 62.5799L34.7601 18.3524C35.4081 17.2064 36.5963 16.526 37.9284 16.526C39.2605 16.526 40.4486 17.2064 41.0967 18.3524L66.7672 62.5799C67.4153 63.7259 67.4153 65.0868 66.7672 66.2327C66.0831 67.3787 64.931 68.0591 63.5989 68.0591ZM37.9284 18.2092C37.2083 18.2092 36.5603 18.5673 36.2002 19.2119L10.5297 63.4036C10.1697 64.0124 10.1697 64.7645 10.5297 65.4091C10.8897 66.0179 11.5378 66.4118 12.2579 66.4118H63.5989C64.319 66.4118 64.967 66.0537 65.3271 65.4091C65.6871 64.8003 65.6871 64.0482 65.3271 63.4036L39.6565 19.2119C39.2965 18.5673 38.6485 18.2092 37.9284 18.2092Z" fill="black"/>
<path d="M34.1841 58.068C34.1841 55.8835 35.7682 54.1646 37.9285 54.1646C40.0887 54.1646 41.6728 55.8477 41.6728 58.068C41.6728 60.2525 40.0887 61.9357 37.9285 61.9357C35.7682 61.9357 34.1841 60.2525 34.1841 58.068Z" fill="black"/>
<path d="M37.9283 29.4185C39.9445 29.4185 41.5287 31.1374 41.3127 33.1429L39.5125 51.6934H36.2722L34.472 33.1429C34.328 31.1374 35.9121 29.4185 37.9283 29.4185Z" fill="black"/>
</svg>
